<?xml version="1.0" encoding="UTF-8" standalone="no"?>
<!DOCTYPE svg PUBLIC "-//W3C//DTD SVG 1.1//EN" "http://www.w3.org/Graphics/SVG/1.1/DTD/svg11.dtd">
<svg width="100%" height="100%" viewBox="0 0 30 30" version="1.1" xmlns="http://www.w3.org/2000/svg" xmlns:xlink="http://www.w3.org/1999/xlink" xml:space="preserve" xmlns:serif="http://www.serif.com/" style="fill-rule:evenodd;clip-rule:evenodd;stroke-linejoin:round;stroke-miterlimit:2;">
    <g id="Layer_1-2" transform="matrix(0.062872,0,0,0.062872,0.21125,0)">
        <path d="M389.45,213.58L294.15,213.58C293.91,213.27 293.37,212.58 292.6,211.5L292.77,211.5L292.61,211.29C289.61,207.19 282.8,197.65 276.55,187.29C288.84,188.97 301.18,188.54 304.64,186.8C304.936,186.653 305.217,186.479 305.48,186.28C305.793,186.044 305.976,185.672 305.97,185.28L305.97,161.28C305.976,160.883 305.785,160.508 305.46,160.28C305.206,160.102 304.931,159.957 304.64,159.85C303.709,159.568 302.75,159.39 301.78,159.32C294.46,158.52 276.78,158.84 264.01,161.81C251.87,132.88 218,53 204.27,24.53L204.27,24.45L204.13,24.45L202.72,21.59L202.72,21.52L202.13,20.34L202.01,20.11C201.823,19.73 201.633,19.36 201.44,19L201.35,18.82L200.84,17.82L200.84,17.75C200.67,17.44 200.52,17.15 200.36,16.88L200.27,16.71L199.85,15.97L199.8,15.89L199.45,15.32L199.39,15.23C199.28,15.05 199.17,14.9 199.08,14.77L199.02,14.68L198.75,14.35C192.78,8 185.85,0 180.52,0C175.19,0 176.79,8 177.32,11.19L177.32,11.46C177.333,11.555 177.353,11.648 177.38,11.74L177.49,12.2L177.49,12.34C177.49,12.5 177.57,12.66 177.61,12.85L177.61,12.96C177.663,13.18 177.723,13.42 177.79,13.68L177.79,13.85C177.85,14.08 177.91,14.33 177.98,14.59L177.98,14.75L178.23,15.75L178.23,15.83C178.31,16.157 178.4,16.49 178.5,16.83L178.5,17.02C178.7,17.83 178.92,18.71 179.17,19.66L179.23,19.9L179.5,20.97C180.22,23.77 181.06,27.07 182.02,30.79L181.95,30.79L181.95,30.89C186.74,49.58 195.75,84.76 203.12,115.59C198.63,116.42 190.86,117.94 190.86,118.59C190.86,119.24 200.65,121.13 204.6,121.83C207.1,132.42 209.35,142.29 211.09,150.55C206.87,151.32 197.89,153.02 197.89,153.7C197.89,154.38 209.26,156.53 212.44,157.09C213.91,164.53 214.78,170.04 214.78,172.63C214.78,174.98 214.71,177.47 214.58,180.02C210.2,180.82 201.79,182.43 201.79,183.09C201.79,183.75 209.72,185.27 214.19,186.09C213.19,199.09 211.19,211.88 210.94,213.49L111.45,213.49C100.98,213.49 77.84,217.79 56.45,222.95L54.74,220.02L12.07,146.82L11,145.1C10.172,143.679 8.645,142.804 7,142.81L0.44,142.81L2,151.59L1.94,151.59L16.73,234.9C13.38,236.37 11.45,237.64 11.45,238.58C11.45,239.52 13.25,240.95 16.36,242.42L1.51,326.07L1.51,326.13L1.58,326.13L0,334.93L6.59,334.93C8.236,334.94 9.765,334.064 10.59,332.64L11.65,330.83L54.32,257.63L56.2,254.41C77.66,259.47 100.96,263.58 111.47,263.58C129.63,263.98 168.4,264.11 211.37,264.1C211.82,267.04 213.59,278.88 214.53,290.98C210.06,291.8 202.13,293.34 202.13,293.98C202.13,294.62 210.54,296.25 214.92,297.05C215.05,299.6 215.12,302.05 215.12,304.44C215.12,307.03 214.25,312.54 212.78,319.98C209.6,320.54 198.23,322.61 198.23,323.37C198.23,324.13 207.23,325.75 211.43,326.52C209.69,334.78 207.43,344.65 204.94,355.24C200.99,355.95 191.2,357.77 191.2,358.48C191.2,359.19 198.97,360.63 203.46,361.48C196.09,392.31 187.07,427.48 182.29,446.19L182.29,446.3L182.37,446.3C181.47,449.8 180.67,452.92 179.99,455.6L179.99,455.66L179.89,456.06C179.8,456.41 179.71,456.75 179.63,457.06L179.52,457.47C179.29,458.39 179.07,459.25 178.87,460.03L178.87,460.23L178.33,462.37L178.33,462.51C178.26,462.78 178.2,463.04 178.13,463.28L178.13,463.42C178.06,463.68 178,463.93 177.95,464.15L177.95,464.26C177.95,464.45 177.86,464.62 177.82,464.78L177.82,464.91L177.71,465.37L177.71,465.42C177.683,465.512 177.663,465.605 177.65,465.7L177.65,465.97C177.12,469.16 175.52,477.16 180.85,477.16C186.18,477.16 193.11,469.16 198.97,462.77L199.24,462.44L199.3,462.36C199.39,462.22 199.5,462.07 199.61,461.89L199.67,461.8C199.78,461.63 199.9,461.44 200.02,461.23L200.07,461.15L200.49,460.41L200.58,460.25C200.74,459.97 200.89,459.68 201.06,459.37L201.06,459.3C201.22,459 201.4,458.67 201.57,458.3L201.66,458.13L202,457L202.1,456.79L202.71,455.58L202.71,455.53L204.12,452.67L204.26,452.67L204.26,452.59C218,424.15 251.87,344.28 264,315.36C276.73,318.36 294.45,318.65 301.77,317.86C302.739,317.78 303.697,317.602 304.63,317.33C304.919,317.215 305.194,317.068 305.45,316.89C305.775,316.662 305.966,316.287 305.96,315.89L305.96,291.89C305.966,291.498 305.783,291.126 305.47,290.89C305.207,290.691 304.926,290.517 304.63,290.37C301.17,288.63 288.83,288.2 276.54,289.88C282.79,279.47 289.6,269.93 292.6,265.83L292.76,265.62L292.59,265.62L293.86,263.92C346.57,263.76 389.44,263.54 389.44,263.54C415.44,263.54 470.44,250.54 470.44,238.54C470.45,229.58 415.45,213.58 389.45,213.58Z" style="fill:rgb(63,63,63);fill-rule:nonzero;"/>
    </g>
</svg>
