<svg clip-rule="evenodd" fill-rule="evenodd" stroke-linejoin="round" stroke-miterlimit="2" viewBox="0 0 30 30" xmlns="http://www.w3.org/2000/svg"><path d="m389.45 213.58h-95.3c-.24-.31-.78-1-1.55-2.08h.17l-.16-.21c-3-4.1-9.81-13.64-16.06-24 12.29 1.68 24.63 1.25 28.09-.49.296-.147.577-.321.84-.52.313-.236.496-.608.49-1v-24c.006-.397-.185-.772-.51-1-.254-.178-.529-.323-.82-.43-.931-.282-1.89-.46-2.86-.53-7.32-.8-25-.48-37.77 2.49-12.14-28.93-46.01-108.81-59.74-137.28v-.08h-.14l-1.41-2.86v-.07l-.59-1.18-.12-.23c-.187-.38-.377-.75-.57-1.11l-.09-.18-.51-1v-.07c-.17-.31-.32-.6-.48-.87l-.09-.17-.42-.74-.05-.08-.35-.57-.06-.09c-.11-.18-.22-.33-.31-.46l-.06-.09-.27-.33c-5.97-6.35-12.9-14.35-18.23-14.35s-3.73 8-3.2 11.19v.27c.013.095.033.188.06.28l.11.46v.14c0 .16.08.32.12.51v.11c.053.22.113.46.18.72v.17c.06.23.12.48.19.74v.16l.25 1v.08c.08.327.17.66.27 1v.19c.2.81.42 1.69.67 2.64l.06.24.27 1.07c.72 2.8 1.56 6.1 2.52 9.82h-.07v.1c4.79 18.69 13.8 53.87 21.17 84.7-4.49.83-12.26 2.35-12.26 3s9.79 2.54 13.74 3.24c2.5 10.59 4.75 20.46 6.49 28.72-4.22.77-13.2 2.47-13.2 3.15s11.37 2.83 14.55 3.39c1.47 7.44 2.34 12.95 2.34 15.54 0 2.35-.07 4.84-.2 7.39-4.38.8-12.79 2.41-12.79 3.07s7.93 2.18 12.4 3c-1 13-3 25.79-3.25 27.4h-99.49c-10.47 0-33.61 4.3-55 9.46l-1.71-2.93-42.67-73.2-1.07-1.72c-.828-1.421-2.355-2.296-4-2.29h-6.56l1.56 8.78h-.06l14.79 83.31c-3.35 1.47-5.28 2.74-5.28 3.68s1.8 2.37 4.91 3.84l-14.85 83.65v.06h.07l-1.58 8.8h6.59c1.646.01 3.175-.866 4-2.29l1.06-1.81 42.67-73.2 1.88-3.22c21.46 5.06 44.76 9.17 55.27 9.17 18.16.4 56.93.53 99.9.52.45 2.94 2.22 14.78 3.16 26.88-4.47.82-12.4 2.36-12.4 3s8.41 2.27 12.79 3.07c.13 2.55.2 5 .2 7.39 0 2.59-.87 8.1-2.34 15.54-3.18.56-14.55 2.63-14.55 3.39s9 2.38 13.2 3.15c-1.74 8.26-4 18.13-6.49 28.72-3.95.71-13.74 2.53-13.74 3.24s7.77 2.15 12.26 3c-7.37 30.83-16.39 66-21.17 84.71v.11h.08c-.9 3.5-1.7 6.62-2.38 9.3v.06l-.1.4c-.09.35-.18.69-.26 1l-.11.41c-.23.92-.45 1.78-.65 2.56v.2l-.54 2.14v.14c-.07.27-.13.53-.2.77v.14c-.07.26-.13.51-.18.73v.11c0 .19-.09.36-.13.52v.13l-.11.46v.05c-.027.092-.047.185-.06.28v.27c-.53 3.19-2.13 11.19 3.2 11.19s12.26-8 18.12-14.39l.27-.33.06-.08c.09-.14.2-.29.31-.47l.06-.09c.11-.17.23-.36.35-.57l.05-.08.42-.74.09-.16c.16-.28.31-.57.48-.88v-.07c.16-.3.34-.63.51-1l.09-.17.34-1.13.1-.21.61-1.21v-.05l1.41-2.86h.14v-.08c13.74-28.44 47.61-108.31 59.74-137.23 12.73 3 30.45 3.29 37.77 2.5.969-.08 1.927-.258 2.86-.53.289-.115.564-.262.82-.44.325-.228.516-.603.51-1v-24c.006-.392-.177-.764-.49-1-.263-.199-.544-.373-.84-.52-3.46-1.74-15.8-2.17-28.09-.49 6.25-10.41 13.06-19.95 16.06-24.05l.16-.21h-.17l1.27-1.7c52.71-.16 95.58-.38 95.58-.38 26 0 81-13 81-25 .01-8.96-54.99-24.96-80.99-24.96z" fill="#3f3f3f" fill-rule="nonzero" transform="matrix(.062872 0 0 .062872 .21125 0)"/></svg>