<svg clip-rule="evenodd" fill-rule="evenodd" stroke-linejoin="round" stroke-miterlimit="1.41421" viewBox="0 0 144 144" xmlns="http://www.w3.org/2000/svg"><g fill-rule="nonzero"><path d="m18.49 96.536v8.62h2.325v-8.62h3.17v-1.955h-8.664v1.955z" transform="matrix(.7928111292 .53722002575 -.54758295291 .77780200933 80.23883018 29.5952547292)"/><path d="m27.371 106.247c0-.464.052-.913.155-1.347.104-.435.269-.822.496-1.163.228-.341.524-.612.889-.815.365-.202.81-.303 1.333-.303s.968.101 1.333.303c.365.203.661.474.889.815.227.341.392.728.496 1.163.103.434.155.883.155 1.347 0 .445-.052.877-.155 1.296-.104.42-.269.798-.496 1.133-.228.336-.524.605-.889.807-.365.203-.81.304-1.333.304s-.968-.101-1.333-.304c-.365-.202-.661-.471-.889-.807-.227-.335-.392-.713-.496-1.133-.103-.419-.155-.851-.155-1.296zm-2.325 0c0 .77.118 1.489.355 2.155.237.667.578 1.247 1.022 1.74.444.494.99.882 1.637 1.163.646.281 1.374.422 2.184.422.82 0 1.55-.141 2.192-.422s1.185-.669 1.629-1.163c.444-.493.785-1.073 1.022-1.74.237-.666.355-1.385.355-2.155 0-.79-.118-1.523-.355-2.199s-.578-1.266-1.022-1.77c-.444-.503-.987-.898-1.629-1.185-.642-.286-1.372-.429-2.192-.429-.81 0-1.538.143-2.184.429-.647.287-1.193.682-1.637 1.185-.444.504-.785 1.094-1.022 1.77s-.355 1.409-.355 2.199z" transform="matrix(.8894375748 .36351117224 -.37052327688 .87260852646 63.198133655 19.31400115735)"/><path d="m43.423 107.103v10.574h2.326v-3.406l1.332-1.348 3.185 4.754h2.917l-4.532-6.397 4.132-4.177h-2.902l-4.132 4.384v-4.384z" transform="matrix(.9601074486 .07961376026 -.08114892897 .94193664032 29.769083396 17.12925843389)"/><path d="m56.004 108.049v10.575h2.177v-7.08h.03l4.398 7.08h2.325v-10.575h-2.177v7.094h-.029l-4.414-7.094z" transform="matrix(.959121756 -.09034868941 .09209154537 .94096521816 9.392817398 25.59065258832)"/><path d="m71.108 111.908c0-.464.052-.913.156-1.347.104-.435.269-.822.496-1.163s.523-.612.889-.815c.365-.202.809-.303 1.333-.303.523 0 .967.101 1.333.303.365.203.661.474.888.815s.393.728.496 1.163c.104.434.156.883.156 1.347 0 .445-.052.877-.156 1.296-.103.42-.269.797-.496 1.133s-.523.605-.888.807c-.366.203-.81.304-1.333.304-.524 0-.968-.101-1.333-.304-.366-.202-.662-.471-.889-.807s-.392-.713-.496-1.133c-.104-.419-.156-.851-.156-1.296zm-2.325 0c0 .77.119 1.489.356 2.155.237.667.577 1.247 1.022 1.74.444.494.989.882 1.636 1.163s1.375.422 2.185.422c.819 0 1.55-.141 2.192-.422.641-.281 1.184-.669 1.629-1.163.444-.493.785-1.073 1.022-1.74.237-.666.355-1.385.355-2.155 0-.79-.118-1.523-.355-2.199s-.578-1.266-1.022-1.77c-.445-.503-.988-.898-1.629-1.185-.642-.286-1.373-.429-2.192-.429-.81 0-1.538.143-2.185.429-.647.287-1.192.682-1.636 1.185-.445.504-.785 1.094-1.022 1.77s-.356 1.409-.356 2.199z" transform="matrix(.9167298315 -.29102522208 .29663918808 .89937977834 -11.484437578 45.3424365114)"/><path d="m92.957 112.51 2.844-10.574h-2.281l-1.733 7.287h-.029l-1.807-7.287h-2.177l-1.837 7.198h-.029l-1.674-7.198h-2.325l2.799 10.574h2.355l1.762-7.197h.03l1.792 7.197z" transform="matrix(.806625111 -.51704515891 .52701911961 .79135906271 -26.375609965 79.7570665162)"/><path d="m16.57 31.716 2.688-9.996h-2.156l-1.638 6.888h-.028l-1.708-6.888h-2.058l-1.736 6.804h-.028l-1.582-6.804h-2.198l2.646 9.996h2.226l1.666-6.804h.028l1.694 6.804z" transform="matrix(.52027743554 -.85400037228 .85400037228 .52027743554 -4.1666034068 40.4105031584)"/><path d="m14.081 10.481v9.996h2.198v-4.312h4.046v4.312h2.198v-9.996h-2.198v3.836h-4.046v-3.836z" transform="matrix(.69802328541 -.71607773 .71607773 .69802328541 9.297372218 35.574960606)"/><path d="m23.886 9.188 1.302-3.668h.028l1.26 3.668zm.21-6.132-3.78 9.996h2.212l.784-2.226h3.738l.756 2.226h2.282l-3.738-9.996z" transform="matrix(.82624298516 -.56331067138 .56331067138 .82624298516 16.19231860728 33.7590160544)"/><path d="m30.421.161v8.148h2.198v-8.148h2.996v-1.848h-8.19v1.848z" transform="matrix(.90617225996 -.42291372161 .42291372161 .90617225996 19.04208654216 32.3007889364)"/><path d="m42.286-.414v3.892h2.198v-3.836l3.71-6.16h-2.45l-2.324 3.948-2.338-3.948h-2.464z" transform="matrix(.98596581928 -.16696075496 .16696075496 .98596581928 19.96290464529 26.51490944968)"/><path d="m50.696-3.091c0-.438.049-.863.147-1.274.098-.41.255-.777.469-1.099.215-.322.495-.578.84-.77.346-.191.766-.287 1.26-.287.495 0 .915.096 1.26.287.346.192.626.448.84.77.215.322.371.689.469 1.099.098.411.147.836.147 1.274 0 .42-.049.829-.147 1.225-.098.397-.254.754-.469 1.071-.214.318-.494.572-.84.763-.345.192-.765.287-1.26.287-.494 0-.914-.095-1.26-.287-.345-.191-.625-.445-.84-.763-.214-.317-.371-.674-.469-1.071-.098-.396-.147-.805-.147-1.225zm-2.198 0c0 .728.112 1.407.336 2.037s.546 1.179.966 1.645c.42.467.936.833 1.547 1.099.612.266 1.3.399 2.065.399.775 0 1.466-.133 2.072-.399.607-.266 1.12-.632 1.54-1.099.42-.466.742-1.015.966-1.645s.336-1.309.336-2.037c0-.746-.112-1.439-.336-2.079-.224-.639-.546-1.197-.966-1.673s-.933-.849-1.54-1.12c-.606-.27-1.297-.406-2.072-.406-.765 0-1.453.136-2.065.406-.611.271-1.127.644-1.547 1.12s-.742 1.034-.966 1.673c-.224.64-.336 1.333-.336 2.079z" transform="matrix(.9995802248 .02905796999 -.02905796999 .9995802248 20.0744399125 18.6067041438)"/><path d="m68.323-1.595v-6.216h-2.198v6.216c0 .747-.15 1.295-.448 1.645-.299.35-.84.525-1.624.525-.448 0-.805-.063-1.071-.189s-.474-.289-.623-.49c-.15-.201-.248-.432-.294-.693-.047-.261-.07-.527-.07-.798v-6.216h-2.198v6.216c0 1.363.371 2.371 1.113 3.024s1.789.98 3.143.98c1.334 0 2.38-.329 3.136-.987s1.134-1.664 1.134-3.017z" transform="matrix(.97389428448 .22701556915 -.22701556915 .97389428448 22.03313429172 6.6917778648)"/><path d="m73.64-4.007v9.996h2.058v-6.692h.028l4.158 6.692h2.198v-9.996h-2.058v6.706h-.028l-4.172-6.706z" transform="matrix(.86357188508 .50422586572 -.50422586572 .86357188508 32.9345087944 -15.8271345856)"/><path d="m82.594 1.284v9.996h7.588v-1.848h-5.39v-2.45h4.844v-1.708h-4.844v-2.142h5.278v-1.848z" transform="matrix(.7403279434 .67224663 -.67224663 .7403279434 48.7797910888 -31.945276424)"/><path d="m89.343 7.371v9.996h7.588v-1.848h-5.39v-2.45h4.844v-1.708h-4.844v-2.142h5.278v-1.848z" transform="matrix(.60753677485 .794292704 -.794292704 .60753677485 68.4790358692 -43.3817342068)"/><path d="m97.153 22.709v-6.3h1.568c.541 0 .996.077 1.365.231s.665.376.889.665c.224.29.385.637.483 1.043s.147.861.147 1.365c0 .551-.07 1.018-.21 1.4-.14.383-.327.693-.56.931s-.499.409-.798.511c-.299.103-.607.154-.924.154zm-2.198-8.148v9.996h4.312c.765 0 1.43-.128 1.995-.385.565-.256 1.036-.609 1.414-1.057s.66-.98.847-1.596.28-1.288.28-2.016c0-.83-.114-1.554-.343-2.17s-.546-1.129-.952-1.54c-.406-.41-.887-.718-1.442-.924-.555-.205-1.155-.308-1.799-.308z" transform="matrix(.45218112202 .89192927748 -.89192927748 .45218112202 93.392040816 -50.3785100636)"/></g></svg>