<svg clip-rule="evenodd" fill-rule="evenodd" stroke-linejoin="round" stroke-miterlimit="1.41421" viewBox="0 0 144 144" xmlns="http://www.w3.org/2000/svg"><g fill-rule="nonzero"><path d="m31.919 109.627v1.718h-1.333c.03-.277.052-.511.067-.704.015-.192.025-.37.03-.533s.009-.321.014-.474.008-.328.008-.526v-7.82c0-.345-.005-.612-.015-.799-.01-.188-.035-.371-.074-.548.454.029.886.052 1.296.066.41.015.822.023 1.237.023.789 0 1.624-.03 2.502-.089-.039.158-.064.335-.074.533-.009.197-.014.469-.014.814v7.228c0 .405.005.809.014 1.214.01.405.04.844.089 1.318h-1.318v-1.421zm2.429-1.096v-7.317h-2.429v7.317zm-6.738-3.792c.513-.01.967-.024 1.362-.044s.75-.05 1.066-.089v1.377c-.325-.039-.693-.069-1.103-.089-.41-.019-.886-.034-1.429-.044-.02.168-.045.333-.074.496-.03.163-.069.328-.119.496.218.188.462.413.733.674.272.262.546.526.822.792.277.267.536.521.778.763s.437.442.585.6l-1.022 1.007c-.109-.148-.244-.328-.407-.54-.163-.213-.346-.44-.548-.682-.203-.242-.417-.488-.644-.74-.228-.252-.45-.496-.667-.733-.296.75-.676 1.476-1.14 2.177s-.988 1.303-1.57 1.807c-.138-.178-.299-.344-.482-.497-.182-.153-.387-.303-.614-.451.869-.632 1.58-1.387 2.133-2.266.552-.879.903-1.847 1.051-2.903-.681 0-1.269.01-1.762.03-.494.019-.928.054-1.304.103v-1.347c.395.039.844.066 1.348.081s1.111.022 1.822.022c.029-.464.052-.92.066-1.37.015-.449.018-.96.008-1.533h-1.259c-.089.198-.168.378-.237.541s-.136.318-.2.467c-.064.148-.126.293-.185.436-.059.144-.124.294-.193.452-.365-.227-.78-.355-1.244-.385.247-.415.477-.847.689-1.296s.395-.896.548-1.34.274-.876.363-1.296.138-.812.148-1.177c.602.246 1.19.39 1.762.429.119.01.185.037.2.082.015.044-.047.101-.185.17-.039.02-.081.057-.126.111-.044.054-.103.146-.178.274-.074.128-.167.306-.281.533-.113.227-.254.523-.422.889h1.511c.523 0 1.007-.01 1.451-.03s.82-.049 1.126-.089v1.289c-.247-.02-.553-.035-.919-.045-.365-.01-.76-.015-1.184-.015-.01.652-.02 1.205-.03 1.659s-.025.869-.044 1.244z" transform="matrix(.8656595265 .3725803981 -.38709362661 .86565857233 64.921095749 20.6979977372)"/><path d="m40.837 109.085c-.089-.514-.208-1.02-.356-1.518-.148-.499-.306-.936-.474-1.311l1.259-.356c.237.938.538 1.886.903 2.844zm5.109-1.896c-.138-.198-.296-.4-.474-.607-.178-.208-.365-.415-.563-.622l1.022-.608c.168.188.351.403.548.645.198.242.351.451.459.629zm-3.895 8.886c.138.04.291.094.459.163s.395.168.681.296c.405.178.948.321 1.629.43.682.108 1.44.175 2.274.2.834.024 1.713.007 2.636-.052s1.829-.163 2.718-.311c-.139.335-.232.624-.282.866-.049.242-.069.481-.059.718-.958.03-1.804.05-2.54.06-.735.01-1.392.005-1.97-.015-.577-.02-1.096-.057-1.555-.111-.459-.055-.896-.129-1.31-.222-.415-.094-.83-.213-1.244-.356-.415-.143-.864-.318-1.348-.526-.188-.079-.361-.118-.519-.118-.157 0-.311.044-.459.133s-.301.23-.459.422c-.158.193-.326.442-.503.748-.168-.168-.346-.323-.533-.466-.188-.143-.4-.284-.637-.422.375-.366.706-.657.992-.874s.548-.38.785-.489v-4.576c-.415 0-.75.007-1.007.022s-.474.037-.652.067v-1.274c.237.039.489.069.756.089.266.02.533.029.799.029.267 0 .528-.009.785-.029s.489-.05.696-.089c-.049.257-.084.511-.103.763-.02.251-.03.58-.03.985zm7.686-2.103h-4.398v1.052h4.398zm-2.043-4.621c.72 0 1.375-.012 1.962-.037.587-.024 1.024-.057 1.311-.096-.06.494-.089 1.017-.089 1.57v3.569c0 .346.005.694.015 1.044.01.351.034.709.074 1.074h-1.23v-.578h-4.398v.696h-1.259c.049-.365.081-.703.096-1.014s.022-.679.022-1.103v-3.688c0-.267-.007-.536-.022-.807-.015-.272-.042-.526-.081-.763.266.03.607.054 1.022.074.414.02.888.035 1.421.044.05-.148.099-.323.149-.525.049-.203.093-.408.133-.615-.859.01-1.597.025-2.214.044-.617.02-1.178.055-1.681.104v-1.229c.622.049 1.34.084 2.155.104.814.019 1.799.029 2.954.029.148-.326.282-.644.4-.955.119-.311.232-.684.341-1.118.217.108.447.202.688.281.242.079.487.143.734.193.167.029.177.084.029.163-.079.039-.153.088-.222.148-.069.059-.148.14-.237.244s-.19.237-.304.4c-.113.163-.249.373-.407.629.652-.009 1.222-.022 1.711-.037.489-.014.95-.042 1.385-.081v1.229c-.534-.049-1.119-.084-1.755-.104-.637-.019-1.415-.034-2.333-.044-.079.178-.148.373-.207.585-.06.212-.114.402-.163.57zm2.043.874h-4.398v.963h4.398zm-4.398 2.873h4.398v-1.037h-4.398z" transform="matrix(.9379222224 .11559995132 -.12010307196 .9379223811 35.10553742 16.54080517485)"/><path d="m66.006 111.411c.829-.01 1.54-.027 2.132-.052.593-.025 1.126-.052 1.6-.081v1.451c-.474-.039-1.007-.069-1.6-.089-.592-.02-1.303-.034-2.132-.044v5.035c0 .366.007.753.022 1.163s.047.911.096 1.503h-1.584c.049-.592.081-1.093.096-1.503s.022-.797.022-1.163v-5.035c-.819.01-1.52.024-2.103.044s-1.106.05-1.57.089v-1.451c.474.029 1.005.056 1.592.081.588.025 1.281.042 2.081.052v-2.222c0-.513-.012-.947-.037-1.303-.025-.355-.072-.676-.141-.963.287.05.563.084.83.104.266.02.533.03.799.03.188 0 .297.024.326.074.03.049-.039.123-.207.222-.079.049-.136.155-.17.318-.035.163-.052.422-.052.778zm-7.465.74c-.227.425-.439.788-.636 1.089-.198.301-.425.624-.682.97-.306-.444-.632-.76-.977-.948.286-.326.538-.622.755-.888.217-.267.41-.531.578-.793.168-.261.321-.53.459-.807.138-.276.276-.582.415-.918.177-.454.348-.923.511-1.407.162-.484.308-.948.436-1.392.297.118.556.21.778.274s.432.116.629.155c.119.02.178.064.178.134 0 .069-.084.162-.252.281-.029.03-.064.067-.103.111-.04.044-.089.126-.148.244-.06.119-.141.282-.245.489-.103.207-.239.484-.407.829v10.812h-1.466c.029-.286.057-.551.081-.792.025-.242.045-.484.059-.726.015-.242.025-.494.03-.755.005-.262.007-.566.007-.911z" transform="matrix(.9368293893 -.12386632533 .12869074017 .93682953117 6.27045752 28.0021938149)"/><path d="m79.316 105.346c.218.03.203.109-.044.237-.138.079-.257.168-.355.267-.099.098-.193.232-.282.4-.108.227-.21.429-.303.607-.094.177-.186.348-.274.511-.089.163-.181.323-.274.481-.094.158-.195.321-.304.489-.494.79-.992 1.525-1.496 2.206-.503.682-1.071 1.383-1.703 2.104-.158-.168-.341-.326-.548-.474-.207-.149-.43-.262-.666-.341.217-.148.466-.36.747-.637.282-.276.571-.595.867-.955.296-.361.595-.76.896-1.2.301-.439.58-.896.837-1.37.286-.483.53-.975.733-1.473.202-.499.363-.985.481-1.459.296.148.573.266.829.355.257.089.543.173.859.252zm3.259 9.982c-.287-.405-.566-.782-.837-1.133-.272-.35-.506-.639-.704-.866l1.067-.667c.237.277.503.598.799.963.297.365.598.743.904 1.133s.602.775.888 1.155c.287.38.539.723.756 1.029l-1.215.83c-.108-.168-.246-.38-.414-.637s-.351-.533-.548-.829l-7.257.518c-.425.039-.778.096-1.059.17-.282.074-.526.156-.733.245-.01-.474-.143-.948-.4-1.422.286-.03.55-.099.792-.207.242-.109.432-.228.57-.356.751-.681 1.434-1.377 2.052-2.088.617-.711 1.167-1.407 1.651-2.088.484-.682.898-1.336 1.244-1.963s.617-1.202.815-1.725c.306.168.597.316.873.444.277.129.474.208.593.237.177.05.269.094.274.133.005.04-.092.124-.289.252-.079.05-.165.124-.259.222-.094.099-.217.25-.371.452-.153.203-.343.462-.57.778s-.508.711-.844 1.184c-.257.356-.538.731-.844 1.126s-.629.787-.97 1.177-.696.778-1.066 1.163c-.371.385-.743.745-1.119 1.081z" transform="matrix(.8697094374 -.36338760163 .37754312244 .8697085456 -17.139170314 55.0203726366)"/><path d="m38.439 2.156c-.084.047-.205.318-.364.812-.112.327-.259.71-.441 1.148-.182.439-.418.976-.707 1.61-.168-.074-.357-.14-.567-.196s-.432-.107-.665-.154c.392-.541.728-1.136 1.008-1.785.28-.648.485-1.397.616-2.247.187.094.373.175.56.245s.355.129.504.175c.336.094.355.224.056.392zm4.998 3.304c-.14-.42-.275-.793-.406-1.12-.131-.326-.266-.634-.406-.924-.14-.289-.287-.564-.441-.826-.154-.261-.324-.532-.511-.812l1.064-.546c.336.57.66 1.158.973 1.764.313.607.614 1.237.903 1.89zm-2.52-5.936c-.103.103-.154.29-.154.56v5.922c0 .252-.016.453-.049.602-.033.15-.124.271-.273.364-.149.094-.38.171-.693.231-.313.061-.754.124-1.323.189.009-.224-.026-.462-.105-.714s-.198-.485-.357-.7c.336.047.616.068.84.063.224-.004.401-.028.532-.07s.222-.098.273-.168.077-.151.077-.245v-4.2c0-.494-.009-.919-.028-1.274-.019-.354-.051-.658-.098-.91.42.103.821.145 1.204.126.149-.009.231.005.245.042.014.038-.016.098-.091.182zm-6.916-.168c-.187.308-.376.619-.567.931-.191.313-.408.647-.651 1.001-.103-.186-.222-.368-.357-.546-.135-.177-.282-.345-.441-.504.149-.149.317-.343.504-.581s.373-.497.56-.777.364-.567.532-.861.317-.576.448-.847c.149-.317.275-.602.378-.854s.191-.478.266-.679c.075-.2.138-.389.189-.567.051-.177.096-.359.133-.546.215.103.427.192.637.266.21.075.436.14.679.196.149.038.229.082.238.133.009.052-.075.143-.252.273-.037.028-.086.082-.147.161-.061.08-.126.175-.196.287s-.142.234-.217.364c-.075.131-.145.257-.21.378-.075.15-.149.294-.224.434s-.149.276-.224.406v9.674h-1.232c.019-.205.037-.424.056-.658.019-.233.035-.469.049-.707s.026-.466.035-.686c.009-.219.014-.417.014-.595zm4.368-1.358c-.103.215-.208.423-.315.623-.107.201-.217.402-.329.602-.112.201-.231.409-.357.623-.126.215-.264.444-.413.686-.187-.13-.366-.233-.539-.308-.173-.074-.362-.13-.567-.168.327-.364.621-.763.882-1.197s.497-.886.707-1.358c.21-.471.394-.947.553-1.428.159-.48.294-.954.406-1.421.252.131.499.236.742.315.243.08.467.138.672.175.103.019.154.045.154.077 0 .033-.056.087-.168.161-.037.028-.093.096-.168.203-.075.108-.161.238-.259.392s-.196.322-.294.504-.184.362-.259.539c.905 0 1.675-.002 2.31-.007.635-.004 1.174-.014 1.617-.028s.807-.032 1.092-.056c.285-.023.534-.053.749-.091l-1.134 3.248-1.19-.168.77-1.918z" transform="matrix(.96073702584 -.27747244174 .27747244174 .96073702584 19.60515578284 28.9141162768)"/><path d="m50.367-3.067c-.131-.01-.315-.019-.553-.028-.238-.01-.488-.014-.749-.014s-.516.004-.763.014c-.247.009-.446.018-.595.028v-.868c.14.018.329.03.567.035.238.004.488.007.749.007s.511-.005.749-.014c.238-.01.436-.019.595-.028zm5.432-.084c-.131-.01-.317-.017-.56-.021-.243-.005-.497-.007-.763-.007s-.525.002-.777.007c-.252.004-.453.011-.602.021v-.826c.14.009.331.016.574.021.243.004.495.007.756.007s.516-.003.763-.007c.247-.005.45-.012.609-.021zm-5.39-1.4c-.131-.01-.31-.019-.539-.028-.229-.01-.471-.014-.728-.014s-.504.004-.742.014c-.238.009-.432.018-.581.028v-.826c.14.018.331.03.574.035.243.004.495.007.756.007s.509-.003.742-.007c.233-.005.406-.017.518-.035zm5.264 0c-.121-.01-.294-.019-.518-.028-.224-.01-.462-.014-.714-.014s-.502.004-.749.014c-.247.009-.446.018-.595.028v-.854c.14.018.334.03.581.035.247.004.502.007.763.007s.506-.003.735-.007c.229-.005.394-.017.497-.035zm-4.662 2.786c-1.241 0-2.298.009-3.171.028-.873.018-1.477.046-1.813.084v-1.064c.187.028.464.051.833.07.369.018.805.035 1.309.049s1.071.023 1.701.028c.63.004 1.304.007 2.023.007.625 0 1.244-.003 1.855-.007.611-.005 1.178-.014 1.701-.028s.98-.031 1.372-.049c.392-.019.686-.042.882-.07v1.05c-.196-.01-.483-.021-.861-.035s-.817-.026-1.316-.035c-.499-.01-1.041-.017-1.624-.021-.583-.005-1.178-.007-1.785-.007l-.35.966c.457 0 .917-.005 1.379-.014.462-.01.905-.021 1.33-.035s.826-.028 1.204-.042.712-.031 1.001-.049c-.047.186-.077.359-.091.518-.014.158-.021.331-.021.518v1.386c0 .373-.019.672-.056.896s-.126.406-.266.546-.348.249-.623.329c-.275.079-.646.165-1.113.259.037-.178.026-.378-.035-.602s-.222-.49-.483-.798c.504.112.873.133 1.106.063s.35-.213.35-.427v-1.764h-2.086c0 1.269.014 2.226.042 2.87h-1.036c.019-.318.033-.717.042-1.197.009-.481.014-1.039.014-1.673h-1.652c0 .644.002 1.213.007 1.708.005.494.016.905.035 1.232h-1.022c.019-.318.033-.726.042-1.225.009-.5.014-1.071.014-1.715h-1.694v3.248h-1.162c.028-.215.049-.411.063-.588.014-.178.021-.369.021-.574v-2.03c0-.206-.007-.385-.021-.539s-.035-.306-.063-.455c.448.046 1.008.084 1.68.112s1.372.042 2.1.042zm1.288-5.138c.765 0 1.43-.005 1.995-.014.565-.01 1.059-.021 1.484-.035s.789-.031 1.092-.049c.303-.019.576-.038.819-.056v2.422h-1.092v-1.484h-4.298v1.12c0 .373.002.702.007.987.005.284.016.59.035.917h-1.162c.019-.346.033-.661.042-.945.009-.285.014-.605.014-.959v-1.12h-4.2v1.708h-1.05v-2.646c.233.028.502.049.805.063s.663.028 1.078.042.898.025 1.449.035c.551.009 1.19.014 1.918.014v-.966c-.849.009-1.589.023-2.219.042-.63.018-1.188.042-1.673.07v-1.064c.56.046 1.213.077 1.96.091s1.638.021 2.674.021c1.045 0 1.941-.007 2.688-.021s1.4-.045 1.96-.091v1.064c-.532-.038-1.146-.066-1.841-.084-.695-.019-1.524-.028-2.485-.028z" transform="matrix(1.00000165708 .00179333007 -.00179333007 1.00000165708 20.003618575 19.91929283734)"/><path d="m67.681-3.98h1.806v-1.61h-1.806zm-.042 5.068c.672.205 1.325.413 1.96.623.634.21 1.222.413 1.764.609-.318.317-.551.704-.7 1.162-.43-.243-.973-.511-1.631-.805s-1.426-.586-2.303-.875c-.56.354-1.314.658-2.261.91-.948.252-2.149.448-3.605.588-.103-.458-.299-.873-.588-1.246.952.046 1.869.023 2.751-.07.882-.094 1.682-.29 2.401-.588-.476-.131-.971-.259-1.484-.385-.514-.126-1.05-.241-1.61-.343.252-.262.473-.507.665-.735.191-.229.403-.507.637-.833-.318 0-.661.004-1.029.014-.369.009-.733.018-1.092.028-.36.009-.696.021-1.008.035-.313.014-.572.03-.777.049v-1.106c.224.018.525.035.903.049s.779.028 1.204.042c.424.014.849.023 1.274.028.424.004.795.007 1.113.007.252-.402.443-.794.574-1.176.214.102.429.191.644.266.214.074.373.121.476.14.158.037.235.072.231.105-.005.032-.073.086-.203.161-.047.028-.117.084-.21.168-.094.084-.206.196-.336.336h3.486c.55 0 1.101-.01 1.652-.028.55-.019 1.078-.052 1.582-.098v1.106c-.943-.084-1.946-.126-3.01-.126-.103.214-.206.408-.308.581-.103.172-.21.336-.322.49s-.236.303-.371.448c-.136.144-.292.301-.469.469zm-3.668-.966c.392.084.807.182 1.246.294.438.112.891.238 1.358.378.308-.215.581-.462.819-.742s.422-.598.553-.952h-3.22zm-.07-5.712h-1.708v1.61h1.708zm.952 1.61h1.862v-1.61h-1.862zm-.952-3.794c-.336 0-.703.002-1.099.007-.397.004-.777.014-1.141.028s-.693.028-.987.042-.511.03-.651.049v-1.106c.158.018.345.037.56.056.214.018.532.032.952.042.42.009.982.016 1.687.021.704.004 1.626.007 2.765.007.812 0 1.528-.003 2.149-.007.62-.005 1.164-.012 1.631-.021.466-.01.861-.024 1.183-.042.322-.019.581-.038.777-.056v1.106c-.383-.047-.927-.08-1.631-.098-.705-.019-1.51-.028-2.415-.028v1.386c.616-.01 1.15-.019 1.603-.028.452-.01.889-.024 1.309-.042-.019.177-.033.422-.042.735-.01.312-.014.632-.014.959 0 .429.004.77.014 1.022.009.252.023.471.042.658-.299-.01-.607-.019-.924-.028-.318-.01-.665-.017-1.043-.021-.378-.005-.794-.007-1.246-.007h-3.073c-.458 0-.875.002-1.253.007-.378.004-.726.009-1.043.014-.318.004-.621.011-.91.021.018-.215.037-.467.056-.756.018-.29.028-.593.028-.91 0-.318-.007-.626-.021-.924-.014-.299-.035-.556-.063-.77.401.018.823.032 1.267.042.443.009.954.018 1.533.028zm.952 0v1.386h1.862v-1.386z" transform="matrix(.96492277696 .26253088168 -.26253088168 .96492277696 22.58413914052 4.5976880084)"/></g></svg>