<svg clip-rule="evenodd" fill-rule="evenodd" stroke-linejoin="round" stroke-miterlimit="1.41421" viewBox="0 0 144 144" xmlns="http://www.w3.org/2000/svg"><g fill-rule="nonzero"><path d="m27.611 108.16h-2.251c-.01.652.108 1.215.355 1.689s.58.864 1 1.17c.419.306.903.53 1.451.674.548.143 1.113.214 1.696.214.721 0 1.355-.084 1.903-.251.548-.168 1.007-.403 1.377-.704.371-.301.649-.659.837-1.074.188-.414.281-.864.281-1.347 0-.593-.125-1.079-.377-1.459s-.551-.684-.896-.911c-.346-.227-.694-.393-1.044-.496-.351-.104-.625-.175-.822-.215-.662-.168-1.197-.306-1.607-.415-.41-.108-.731-.217-.963-.325-.232-.109-.387-.228-.466-.356s-.119-.296-.119-.503c0-.228.049-.415.148-.563s.225-.272.378-.37c.153-.099.323-.168.511-.208.187-.039.375-.059.563-.059.286 0 .55.025.792.074s.457.133.644.252c.188.118.338.281.452.489.113.207.18.468.2.784h2.251c0-.612-.116-1.133-.348-1.562-.232-.43-.546-.782-.94-1.059-.395-.276-.847-.476-1.356-.6-.508-.123-1.039-.185-1.592-.185-.474 0-.948.064-1.421.193-.474.128-.899.325-1.274.592s-.679.6-.911 1-.348.871-.348 1.414c0 .484.091.896.274 1.237.183.34.422.624.718.851s.632.413 1.007.556c.376.143.761.264 1.156.363.385.108.765.207 1.14.296s.711.192 1.007.311c.296.118.536.266.718.444.183.178.274.41.274.696 0 .267-.069.486-.207.659s-.311.309-.518.408c-.208.098-.43.165-.667.199-.237.035-.459.052-.666.052-.306 0-.603-.037-.889-.111s-.536-.187-.748-.34-.382-.353-.511-.6c-.128-.247-.192-.548-.192-.904z" transform="matrix(.8868947736 .36944256166 -.37656885816 .87011568577 64.042257941 19.2678943188)"/><path d="m39.584 111.997 1.377-3.88h.03l1.333 3.88zm.222-6.487-3.998 10.575h2.34l.829-2.355h3.954l.8 2.355h2.414l-3.954-10.575z" transform="matrix(.9438006645 .19031231536 -.19398358941 .92594388873 43.301214254 15.52512616409)"/><path d="m51.282 112.072v-2.473h2.177c.207 0 .407.017.599.052.193.035.363.096.511.185s.267.212.356.37.133.361.133.608c0 .444-.133.765-.4.962-.266.198-.607.296-1.022.296zm-2.326-4.28v10.575h5.125c.474 0 .935-.059 1.384-.178.45-.118.85-.301 1.2-.548.351-.247.629-.565.837-.955.207-.39.311-.852.311-1.385 0-.661-.161-1.227-.482-1.696-.32-.469-.807-.797-1.458-.985.474-.227.832-.518 1.073-.873.242-.356.363-.8.363-1.333 0-.494-.081-.909-.244-1.244-.163-.336-.393-.605-.689-.807-.296-.203-.651-.349-1.066-.437-.415-.089-.874-.134-1.377-.134zm2.326 8.768v-2.903h2.532c.504 0 .908.116 1.214.348.307.232.46.62.46 1.163 0 .276-.047.503-.141.681s-.22.318-.378.422-.34.178-.548.222c-.207.045-.424.067-.651.067z" transform="matrix(.9635073738 .00702656791 -.00716212814 .94527233259 20.92351014575 19.77604096501)"/><path d="m61.286 107.74v10.574h8.027v-1.955h-5.702v-2.591h5.124v-1.807h-5.124v-2.266h5.584v-1.955z" transform="matrix(.9495719661 -.16030465627 .16339711947 .93160813706 1.583274926 31.3902428822)"/><path d="m75.187 110.428v-2.977h2.548c.533 0 .933.116 1.199.348.267.232.4.605.4 1.118 0 .533-.133.918-.4 1.155-.266.237-.666.356-1.199.356zm-2.325-4.784v10.575h2.325v-4.132h2.326c.582 0 1.002.128 1.258.385.257.256.425.661.504 1.214.059.425.104.869.133 1.333.03.464.109.864.237 1.2h2.325c-.108-.148-.19-.329-.244-.541s-.094-.437-.118-.674c-.025-.237-.042-.469-.052-.696s-.02-.424-.03-.592c-.02-.267-.057-.533-.111-.8s-.141-.511-.259-.733c-.119-.222-.272-.415-.459-.578-.188-.163-.425-.284-.711-.363v-.029c.592-.237 1.019-.583 1.281-1.037s.392-.992.392-1.614c0-.405-.071-.783-.214-1.133-.143-.351-.351-.659-.622-.926-.272-.266-.598-.476-.978-.629s-.807-.23-1.281-.23z" transform="matrix(.897408828 -.34415272858 .35079156813 .8804227606 -15.943553761 52.3733186787)"/><path d="m3.746 32.555v9.996h7.07v-1.848h-4.872v-8.148z" transform="matrix(.28836325186 -.95752271184 .95752271184 .28836325186 -18.7655175904 52.942970586)"/><path d="m7.775 29.592c0-.439.049-.863.147-1.274s.254-.777.469-1.099.495-.579.84-.77.765-.287 1.26-.287.915.096 1.26.287.625.448.84.77.371.688.469 1.099.147.835.147 1.274c0 .42-.049.828-.147 1.225s-.254.754-.469 1.071-.495.572-.84.763-.765.287-1.26.287-.915-.096-1.26-.287-.625-.446-.84-.763-.371-.674-.469-1.071-.147-.805-.147-1.225zm-2.198 0c0 .728.112 1.407.336 2.037s.546 1.178.966 1.645.936.833 1.547 1.099 1.3.399 2.065.399c.775 0 1.465-.133 2.072-.399s1.12-.632 1.54-1.099.742-1.015.966-1.645.336-1.309.336-2.037c0-.747-.112-1.44-.336-2.079s-.546-1.197-.966-1.673-.933-.849-1.54-1.12-1.297-.406-2.072-.406c-.765 0-1.454.135-2.065.406s-1.127.644-1.547 1.12-.742 1.034-.966 1.673-.336 1.332-.336 2.079z" transform="matrix(.45212183578 -.89195784916 .89195784916 .45212183578 -8.0514233072 43.4278154248)"/><path d="m19.775 18.919c.187-.252.336-.564.448-.938.112-.373.168-.826.168-1.358 0-.438-.049-.863-.147-1.274-.098-.41-.254-.777-.469-1.099-.214-.322-.494-.578-.84-.77-.345-.191-.765-.287-1.26-.287-.494 0-.914.096-1.26.287-.345.192-.625.448-.84.77-.214.322-.371.689-.469 1.099-.098.411-.147.836-.147 1.274 0 .42.049.829.147 1.225.098.397.255.754.469 1.071.215.318.495.572.84.763.346.192.766.287 1.26.287.234 0 .411-.009.532-.028.122-.018.238-.056.35-.112l-.938-.854 1.022-1.092zm.322 2.31c-.662.383-1.47.574-2.422.574-.765 0-1.453-.133-2.065-.399-.611-.266-1.127-.632-1.547-1.099-.42-.466-.742-1.015-.966-1.645s-.336-1.309-.336-2.037c0-.746.112-1.439.336-2.079.224-.639.546-1.197.966-1.673s.936-.849 1.547-1.12c.612-.27 1.3-.406 2.065-.406.775 0 1.466.136 2.072.406.607.271 1.12.644 1.54 1.12s.742 1.034.966 1.673c.224.64.336 1.333.336 2.079 0 .728-.112 1.405-.336 2.03-.224.626-.546 1.176-.966 1.652l1.246 1.134-1.022 1.064z" transform="matrix(.68181599993 -.73152072304 .73152072304 .68181599993 8.1054331576 35.8119626916)"/><path d="m29.144 9.822v-6.216h-2.198v6.216c0 .747-.15 1.295-.448 1.645-.299.35-.84.525-1.624.525-.448 0-.805-.063-1.071-.189s-.474-.289-.623-.49c-.15-.201-.248-.432-.294-.693-.047-.261-.07-.527-.07-.798v-6.216h-2.198v6.216c0 1.363.371 2.371 1.113 3.024s1.789.98 3.143.98c1.334 0 2.38-.329 3.136-.987s1.134-1.664 1.134-3.017z" transform="matrix(.82033579032 -.57188288967 .57188288967 .82033579032 15.75952194156 33.7059441588)"/><path d="m29.227-2.314v9.996h7.588v-1.848h-5.39v-2.45h4.844v-1.708h-4.844v-2.142h5.278v-1.848z" transform="matrix(.92046524288 -.3908334393 .3908334393 .92046524288 19.24550976084 31.6561404064)"/><path d="m41.341-6.982v9.996h2.058v-6.692h.028l4.158 6.692h2.198v-9.996h-2.058v6.706h-.028l-4.172-6.706z" transform="matrix(1.011616045 -.12485752731 .12249464937 .99246587648 19.16191616808 25.06353239196)"/><path d="m51.87-8.191v9.996h7.588v-1.848h-5.39v-2.45h4.844v-1.708h-4.844v-2.142h5.278v-1.848z" transform="matrix(1.01687323412 .07018240331 -.06885417734 .99763020764 19.265495651 16.4314707162)"/><path d="m67.808-4.27h2.128c-.066-.579-.224-1.092-.476-1.54s-.572-.824-.959-1.127c-.388-.303-.826-.534-1.316-.693s-1.011-.238-1.561-.238c-.766 0-1.454.135-2.065.406-.612.271-1.127.644-1.547 1.12s-.742 1.034-.966 1.673-.336 1.332-.336 2.079c0 .728.112 1.407.336 2.037s.546 1.178.966 1.645.935.833 1.547 1.099c.611.266 1.299.399 2.065.399.616 0 1.18-.093 1.694-.28.513-.187.961-.457 1.344-.812.382-.355.69-.784.924-1.288.233-.504.378-1.069.434-1.694h-2.128c-.084.672-.315 1.213-.693 1.624s-.903.616-1.575.616c-.495 0-.915-.096-1.26-.287-.346-.191-.626-.446-.84-.763-.215-.317-.371-.674-.469-1.071s-.147-.805-.147-1.225c0-.439.049-.863.147-1.274s.254-.777.469-1.099c.214-.322.494-.579.84-.77.345-.191.765-.287 1.26-.287.27 0 .529.044.777.133.247.089.469.212.665.371s.359.343.49.553c.13.21.214.441.252.693z" transform="matrix(.98620153564 .25759012392 -.25271508102 .9675442286 21.42810039604 4.5753306688)"/><path d="m71.391-4.889v9.996h7.588v-1.848h-5.39v-2.45h4.844v-1.708h-4.844v-2.142h5.278v-1.848z" transform="matrix(.9095794328 .46001976242 -.45131397153 .8923649956 28.672542718 -11.8476709952)"/><path d="m81.163 5.973h-2.128c-.009.616.103 1.148.336 1.596.234.448.549.817.945 1.106.397.289.854.502 1.372.637s1.053.203 1.603.203c.682 0 1.281-.079 1.799-.238s.952-.38 1.302-.665.614-.623.791-1.015c.178-.392.266-.817.266-1.274 0-.56-.119-1.02-.357-1.379s-.52-.646-.847-.861c-.326-.215-.655-.371-.987-.469-.331-.098-.59-.166-.777-.203-.625-.159-1.131-.289-1.519-.392-.387-.103-.69-.205-.91-.308-.219-.103-.366-.215-.441-.336-.074-.121-.112-.28-.112-.476 0-.215.047-.392.14-.532.094-.14.213-.257.357-.35.145-.093.306-.159.483-.196.178-.037.355-.056.532-.056.271 0 .521.023.749.07.229.047.432.126.609.238.178.112.32.266.427.462.108.196.171.443.189.742h2.128c0-.579-.109-1.071-.329-1.477-.219-.406-.515-.74-.889-1.001-.373-.261-.8-.45-1.281-.567-.48-.117-.982-.175-1.505-.175-.448 0-.896.061-1.344.182s-.849.308-1.204.56c-.354.252-.641.567-.861.945-.219.378-.329.824-.329 1.337 0 .457.087.847.259 1.169.173.322.399.59.679.805s.598.39.952.525c.355.135.719.25 1.092.343.364.103.724.196 1.078.28.355.084.672.182.952.294s.507.252.679.42c.173.168.259.387.259.658 0 .252-.065.46-.196.623-.13.163-.294.292-.49.385s-.406.156-.63.189-.434.049-.63.049c-.289 0-.569-.035-.84-.105-.27-.07-.506-.177-.707-.322-.2-.145-.361-.334-.483-.567-.121-.233-.182-.518-.182-.854z" transform="matrix(.8053999446 .62472478324 -.61290182206 .79015695332 41.0092227084 -27.2160205212)"/><path d="m86.869 5.121h2.198v9.996h-2.198z" transform="matrix(.71076339752 .73059214344 -.71677059324 .69731185058 55.6819946848 -38.1847599024)"/><path d="m92.125 9.91v8.148h2.198v-8.148h2.996v-1.848h-8.19v1.848z" transform="matrix(.6127825353 .81452145344 -.79910703208 .60118529038 68.872182186 -45.247893486)"/><path d="m96.989 20.048 1.302-3.668h.028l1.26 3.668zm.21-6.132-3.78 9.996h2.212l.784-2.226h3.738l.756 2.226h2.282l-3.738-9.996z" transform="matrix(.48420711813 .8969364644 -.87996488648 .47504346606 89.2700759716 -51.313304004)"/><path d="m100.594 29.248h-2.128c-.01.616.102 1.148.336 1.596.233.448.548.816.945 1.106.396.289.854.501 1.372.637.518.135 1.052.203 1.603.203.681 0 1.281-.08 1.799-.238.518-.159.952-.381 1.302-.665.35-.285.613-.623.791-1.015.177-.392.266-.817.266-1.274 0-.56-.119-1.02-.357-1.379-.238-.36-.521-.647-.847-.861-.327-.215-.656-.371-.987-.469-.332-.098-.591-.166-.777-.203-.626-.159-1.132-.29-1.519-.392-.388-.103-.691-.206-.91-.308-.22-.103-.367-.215-.441-.336-.075-.122-.112-.28-.112-.476 0-.215.046-.392.14-.532.093-.14.212-.257.357-.35.144-.094.305-.159.483-.196.177-.038.354-.056.532-.056.27 0 .52.023.749.07.228.046.431.126.609.238.177.112.319.266.427.462.107.196.17.443.189.742h2.128c0-.579-.11-1.071-.329-1.477-.22-.406-.516-.74-.889-1.001-.374-.262-.801-.451-1.281-.567-.481-.117-.983-.175-1.505-.175-.448 0-.896.06-1.344.182-.448.121-.85.308-1.204.56-.355.252-.642.567-.861.945-.22.378-.329.823-.329 1.337 0 .457.086.847.259 1.169.172.322.399.59.679.805.28.214.597.389.952.525.354.135.718.249 1.092.343.364.102.723.196 1.078.28.354.084.672.182.952.294s.506.252.679.42c.172.168.259.387.259.658 0 .252-.066.459-.196.623-.131.163-.294.291-.49.385-.196.093-.406.156-.63.189-.224.032-.434.049-.63.049-.29 0-.57-.035-.84-.105-.271-.07-.507-.178-.707-.322-.201-.145-.362-.334-.483-.567-.122-.234-.182-.518-.182-.854z" transform="matrix(.31758493758 .96855138032 -.9502226476 .3115741704 117.909399424 -52.624744116)"/></g></svg>