<svg clip-rule="evenodd" fill-rule="evenodd" stroke-linejoin="round" stroke-miterlimit="1.41421" viewBox="0 0 600 400" xmlns="http://www.w3.org/2000/svg"><g fill="#f2a900" fill-rule="nonzero" transform="matrix(.783711 0 0 .8 139.657 40)"><path d="m354.244 150.904-1.943-.696-7.586-18.108.817-1.855c22.978-52.115 21.399-53.672 17.578-57.448l-30.651-29.901c-1.258-1.247-3.456-2.12-5.355-2.12-1.722 0-6.945 0-52.215 20.504l-1.811.817-18.682-7.519-.751-1.855c-21.277-52.723-23.452-52.723-28.752-52.723h-43.294c-5.277 0-7.684 0-27.427 52.811l-.739 1.922-18.583 7.574-1.778-.74c-30.64-12.918-48.538-19.466-53.198-19.466-1.888 0-4.096.85-5.355 2.087l-30.673 29.989c-3.898 3.842-5.51 5.443 18.682 56.477l.894 1.888-7.596 18.086-1.855.718c-53.971 20.846-53.971 22.878-53.971 28.31v42.421c0 5.444 0 7.707 54.059 27.074l1.932.685 7.597 18.031-.817 1.843c-22.977 52.138-21.52 53.552-17.611 57.438l30.607 29.945c1.281 1.236 3.5 2.12 5.399 2.12 1.711 0 6.923 0 52.226-20.493l1.811-.85 18.693 7.563.729 1.866c21.299 52.701 23.485 52.701 28.796 52.701h43.305c5.432 0 7.696 0 27.449-52.845l.74-1.921 18.605-7.519 1.766.718c30.618 12.951 48.495 19.488 53.132 19.488 1.877 0 4.108-.817 5.388-2.087l30.729-30.055c3.864-3.853 5.476-5.432-18.749-56.422l-.905-1.91 7.585-18.009 1.811-.706c54.037-20.957 54.037-23 54.037-28.443v-42.4c-.011-5.432-.011-7.684-54.07-26.985zm-150.087 117.89c-38.689 0-70.157-30.872-70.157-68.788 0-37.917 31.468-68.745 70.157-68.745 38.667 0 70.136 30.839 70.136 68.745 0 37.916-31.469 68.788-70.136 68.788z"/><path d="m198.133 144.644h12.269c.27.559.814.426 1.276.49 22.539 3.219 40.274 19.051 45.991 41.094.687 2.64 1.207 5.32 1.806 7.98v12.268c-.854.721-.628 1.796-.815 2.704-4.5 22.098-17.479 36.628-38.9 43.587-3.047.991-6.237 1.541-9.358 2.291-4.255 0-8.505 0-12.759 0-.329-.657-.982-.451-1.512-.549-23.805-4.299-40.721-20.223-45.883-43.16-.363-1.629-.187-3.401-1.188-4.873 0-4.579 0-9.162 0-13.741.849-.721.643-1.796.834-2.704 4.638-21.876 17.608-36.25 38.862-43.106 3.052-.981 6.247-1.531 9.377-2.281zm25.268 28.85c-1.04-.761-1.555-1.119-2.056-1.502-13.559-10.462-32.094-10.129-45.29.751-1.344 1.109-1.761 1.796-.24 3.15 2.375 2.115 4.603 4.412 6.762 6.748 1.139 1.232 1.958 1.551 3.391.334 2.13-1.816 4.682-2.959 7.395-3.681 7.381-1.958 13.927-.358 19.713 4.706-1.855.29-3.69.211-5.521.309-2.085.113-3.337 1.208-3.356 3.411-.02 1.963-.03 3.921.005 5.884.044 2.189 1.344 3.401 3.386 3.42 9.069.084 18.137.03 27.206.054 1.021 0 1.482-.353 1.487-1.413.01-9.314.074-18.628.039-27.942-.005-1.58-.976-2.567-2.674-2.577-2.287-.014-4.579-.054-6.861.01-2.272.064-3.415 1.301-3.391 3.597.02 1.384.005 2.763.005 4.741zm-38.473 52.572c1.712 1.232 3.052 2.252 4.446 3.195 13.201 8.936 30.911 7.925 42.816-2.371 1.296-1.118 1.757-1.83.241-3.189-2.429-2.184-4.736-4.52-6.939-6.934-1.139-1.252-1.85-1.144-3.156-.182-8.239 6.07-18.481 6.036-26.411.02-.388-.295-1.119-.447-.854-1.325 1.865 0 3.749.083 5.619-.02 2.091-.113 3.317-1.207 3.303-3.43-.01-1.88.029-3.764-.01-5.644-.044-2.37-1.222-3.602-3.646-3.611-8.833-.04-17.667 0-26.495-.035-1.183-.005-1.776.236-1.771 1.605.049 9.157.014 18.319.039 27.476.005 1.884 1.016 2.841 2.925 2.832 2.208-.015 4.416.063 6.625-.03 2.1-.088 3.332-1.138 3.273-3.406-.04-1.526-.005-3.047-.005-4.951z"/></g></svg>