<svg clip-rule="evenodd" fill-rule="evenodd" stroke-linejoin="round" stroke-miterlimit="2" viewBox="0 0 500 306" xmlns="http://www.w3.org/2000/svg"><g transform="scale(.322794)"><g fill="#231f20" fill-rule="nonzero"><path d="m1162.82 7.294c-19.19-.001-38.35 1.417-57.33 4.243 186.08 27.697 328.82 188.125 328.82 381.907 0 193.783-142.74 354.211-328.82 381.908 18.98 2.826 38.14 4.244 57.33 4.243 213.27 0 386.16-172.885 386.16-386.151 0-213.265-172.89-386.15-386.16-386.15z"/><path d="m950.108 0c-12.548 0-379.537 1.486-398.599 4.323 189.589 28.221 335.03 191.679 335.03 389.121 0 197.443-145.441 360.901-335.03 389.122 19.339 2.879 38.864 4.324 58.416 4.323 217.293 0 393.445-176.151 393.445-393.445 0-119.492-53.281-226.529-137.367-298.687 107.719 59.264 192.347 152.363 192.347 298.687 0 197.443-145.443 360.901-335.031 389.122 19.339 2.879 38.864 4.324 58.416 4.323 217.293 0 393.445-176.151 393.445-393.445 0-119.512-53.3-226.566-137.41-298.724 106.08 60.214 188.95 154.161 188.95 298.724 0 197.443-145.44 360.901-335.027 389.122 19.338 2.879 38.863 4.324 58.415 4.323 217.292 0 393.442-176.151 393.442-393.445 0-217.293-176.15-393.444-393.442-393.444z"/><path d="m649.044 470.759c-33.158 109.757-135.025 189.696-255.6 189.696-147.466 0-267.01-119.545-267.01-267.011s119.545-267.01 267.01-267.01c119.315 0 220.323 78.272 254.551 186.26h130.583c-37.249-178.556-195.519-312.694-385.134-312.694-217.293 0-393.444 176.151-393.444 393.444 0 217.294 176.151 393.445 393.444 393.445 190.828 0 349.906-135.862 385.83-316.13z"/></g><g fill="#3b6e8f"><circle cx="393.444" cy="393.444" r="82.88"/><g fill-rule="nonzero"><path d="m157.32 912.284c-5.902 20.107-24.828 34.514-47.644 34.514-29.94 0-51.243-23.609-51.243-50.715 0-26.021 20.117-50.518 51.045-50.518 28.155.032 44.112 20.797 47.876 35.039h-20.726c-3.002-6.725-11.743-17.708-27.248-17.743-19.035 0-31.277 15.965-31.277 33.122 0 17.85 12.736 33.516 31.375 33.516 17.384 0 25.271-13.685 27.15-17.215z"/><path d="m166.472 896.94c0-31.226 24.071-51.375 51.243-51.375 29.544 0 51.343 22.916 51.343 50.615 0 27.702-21.699 50.618-51.441 50.618-30.039 0-51.145-23.608-51.145-49.726zm19.671-.957c0 17.914 12.835 33.384 31.868 33.384 19.726 0 31.376-17.051 31.376-33.219 0-16.269-11.65-33.419-31.572-33.419-19.43 0-31.672 16.065-31.672 33.122z"/><path d="m283.092 847.378h32.075c9.595 0 16.878 2.01 21.988 5.833 6.5 4.355 9.402 11.447 9.402 19.489.139 8.41-4.509 16.207-11.974 20.085 16.393 5.472 17.053 19.225 17.053 23.448-.034 8.841-3.762 17.183-10.59 21.866-7.78 5.997-13.912 6.886-27.82 6.886h-30.134zm19.672 38.982h11.053c2.74 0 5.873-.165 8.413-1.321 3.731-1.949 5.446-5.118 5.446-9.701 0-4.986-2.509-7.988-5.346-9.244-2.276-1.088-5.145-1.385-8.745-1.42h-10.821zm0 41.326h13.954c3.076.107 6.145-.374 9.04-1.417 3.928-1.685 6.964-5.051 6.998-11.222 0-5.61-2.872-9.111-6.865-10.793-3.202-1.352-6.434-1.388-9.9-1.388h-13.227z"/><path d="m364.577 847.378h29.506c15.267 0 23.905 2.406 29.147 6.261 8.111 5.737 12.434 15.631 12.434 26.479.147 6.455-1.671 12.804-5.212 18.204-4.258 6.203-9.865 8.973-16.102 10.554l21.702 36.109h-20.528l-26.251-45.404h3.758c6.531 0 13.492-.393 17.518-3.53 3.827-3.102 6.234-8.248 6.234-14.22.104-5.64-2.625-10.972-7.259-14.188-3.563-2.244-8.315-2.969-13.761-2.969h-11.516v80.311h-19.67z"/><path d="m461.05 944.985h-21.318l39.442-97.607h17.397l38.553 97.607h-21.517l-7.129-19.109h-38.397zm25.966-74.446-13.861 39.622h28.05z"/><path d="m585.132 944.985v-97.607h19.671v39.181h37.609v-39.181h19.669v97.607h-19.669v-41.127h-37.609v41.127z"/><path d="m680.434 847.378h31.125c12.072 0 29.775 1.124 41.38 16.877 7.156 9.002 9.994 19.853 9.994 31.728 0 27.67-14.513 49.002-49.99 49.002h-32.509zm19.671 80.308h13.925c21.014 0 29.233-13.885 29.233-31.339 0-7.723-1.916-15.807-6.535-21.943-4.125-5.211-10.693-9.73-22.6-9.73h-14.023z"/><path d="m806.24 847.378c16.449 0 23.077 2.338 28.649 6.79 7.189 5.804 11.079 15.234 11.079 24.861 0 9.63-4.087 19.653-10.187 24.665-6.664 5.44-13.257 7.778-27.467 7.778h-12.01v33.513h-19.67v-97.607zm-9.936 46.795h11.549c4.526 0 8.912-.328 12.771-2.441 3.662-1.949 6.464-6.171 6.464-12.371 0-6.268-2.902-10.294-6.66-12.243-3.959-2.112-8.413-2.444-13.267-2.444h-10.857z"/><path d="m856.732 847.378h54.835v17.296h-35.165v22.182h34.475v17.299h-34.475v23.531h35.165v17.299h-54.835z"/><path d="m966.388 847.378h29.506c15.266 0 23.906 2.406 29.146 6.261 8.11 5.737 12.43 15.631 12.43 26.479.15 6.455-1.67 12.804-5.21 18.204-4.25 6.203-9.86 8.973-16.1 10.554l21.7 36.109h-20.52l-26.255-45.404h3.756c6.529 0 13.499-.393 17.519-3.53 3.83-3.102 6.23-8.248 6.23-14.22.11-5.64-2.62-10.973-7.26-14.188-3.56-2.244-8.31-2.969-13.758-2.969h-11.515v80.311h-19.669z"/><path d="m1044.59 896.94c0-31.226 24.07-51.375 51.25-51.375 29.54 0 51.34 22.916 51.34 50.615 0 27.702-21.7 50.618-51.44 50.618-30.04 0-51.15-23.608-51.15-49.726zm19.67-.957c0 17.914 12.84 33.384 31.87 33.384 19.73 0 31.38-17.051 31.38-33.219 0-16.269-11.65-33.419-31.58-33.419-19.43 0-31.67 16.065-31.67 33.122z"/><path d="m1161.71 847.378h19.67v80.308h31.99v17.299h-51.66z"/><path d="m1223.84 847.378h19.67v80.308h31.99v17.299h-51.66z"/><path d="m1285.47 847.378h54.84v17.296h-35.17v22.182h34.48v17.299h-34.48v23.531h35.17v17.299h-54.84z"/><path d="m1355.43 847.378h29.5c15.27 0 23.91 2.406 29.15 6.261 8.11 5.737 12.43 15.631 12.43 26.479.15 6.455-1.67 12.804-5.21 18.204-4.26 6.203-9.86 8.973-16.1 10.554l21.7 36.109h-20.53l-26.25-45.404h3.76c6.53 0 13.49-.393 17.52-3.53 3.83-3.102 6.23-8.248 6.23-14.22.11-5.64-2.62-10.973-7.26-14.188-3.56-2.244-8.31-2.969-13.76-2.969h-11.51v80.311h-19.67z"/><path d="m1452.99 914.587c.6 13.195 9.4 15.704 13.66 15.704 7.16.106 13.14-5.682 13.27-12.838 0-8.355-6.97-10.464-20.58-15.836-7.29-2.606-24.31-8.771-24.31-27.136-.1-18.796 16.46-28.916 32.25-28.916 12.96 0 30.1 6.825 30.92 28.417h-19.47c-.76-4.422-2.44-11.911-12.11-11.911-6.37 0-12.01 4.39-12.01 11.057-.04 7.263 5.18 9.112 21.7 15.902 14.83 6.457 23.18 13.675 23.18 27.499 0 15.698-9.6 30.269-32.61 30.269-22.11 0-33.62-13.25-33.46-32.211z"/></g></g></g></svg>