<svg height="70.91144" viewBox="0 0 78.86001 70.91144" width="78.86001" xmlns="http://www.w3.org/2000/svg" xmlns:xlink="http://www.w3.org/1999/xlink"><linearGradient id="a" gradientTransform="matrix(1 0 0 -1 -2.01 69.7)" gradientUnits="userSpaceOnUse" x1="41.52095" x2="39.91095" y1="32.72899" y2="47.19899"><stop offset="0" stop-color="#3b6e8f"/><stop offset="1" stop-color="#000018"/></linearGradient><g transform="translate(.01)"><g fill="#3b6e8f"><path d="m6.74 41.21h2.85l6.79 16.73h-3.88l-1.35-3.54h-6.06l-1.3 3.54h-3.8zm1.33 4.87-1.9 5.2h3.82z"/><path d="m18.08 41.21h3.43v13.33h6.38v3.4h-9.81z"/><path d="m29.79 41.21h5.2l3.59 10.92 3.61-10.92h5.18v16.73h-3.38v-12.83l-4.1 12.83h-2.68l-3.94-12.83v12.83h-3.48z"/><path d="m50.72 41.21h10.61v3.41h-7.16v3.08h6.76v3.41h-6.76v3.4h7.55v3.4h-11z"/><path d="m68.36 49.2-5.16-8h4.32l3.33 5.86 3.19-5.86h4.17l-5 7.92 5.64 8.81h-4.37l-3.81-6.73-3.68 6.74h-4.1z"/></g><path d="m26.66 70.07a6.17 6.17 0 0 1 -3.15.84 4.42 4.42 0 0 1 -4.53029-4.30689q-.00548-.21668.01029-.43311a4.5 4.5 0 0 1 4.24289-4.74319q.14341-.008.28711-.00681a3.89 3.89 0 0 1 3 1.19l-.75.84a3.07 3.07 0 0 0 -2.3-1 3.76 3.76 0 0 0 .1 7.5 4.56 4.56 0 0 0 2.09-.53v-2.79h-1.94v-1h2.94z" fill="#a7a9ac"/><path d="m28.76 61.7h2.15c1.64 0 3.36.26 3.36 2.49a2.29 2.29 0 0 1 -2.11 2.38l2.39 4.13h-1.22l-2.28-4h-1.29v4h-1zm1 4h.89c1.11 0 2.55 0 2.55-1.49 0-1.3-1.06-1.49-2-1.49h-1.4z" fill="#a7a9ac"/><path d="m35.54 66.17a4.45 4.45 0 1 1 -.00945.29947q-.00031-.14985.00945-.29947zm7.74 0a3.36 3.36 0 1 0 -3.29 3.75 3.47 3.47 0 0 0 3.29756-3.63426q-.0028-.05793-.00756-.11574z" fill="#a7a9ac"/><path d="m52.28 67.24c0 2-.86 3.67-3.17 3.67s-3.19-1.71-3.19-3.67v-5.54h1v5.44c0 1.45.49 2.83 2.18 2.83s2.17-1.38 2.17-2.83v-5.44h1z" fill="#a7a9ac"/><path d="m54.34 61.7h2.5c1.55 0 2.95.59 2.95 2.48a2.45 2.45 0 0 1 -2.8 2.45h-1.65v4h-1zm1 4h1.65c1 0 1.69-.48 1.69-1.49s-.69-1.51-1.69-1.51h-1.65z" fill="#a7a9ac"/><path d="m30.78 25.47c-1.25 3.74-3 8.93-3 8.93h-4v1.53h9.9v-1.53h-3.57l3-9.32zm18.1 1.32 2.4 7.61h3.56v1.53h-12.8v-1.53h3.84l-3.54-11-.21-.7a52.159 52.159 0 0 0 4.77-2.16c.37 1.16 1.09 3.39 1.83 5.76z" fill="url(#a)"/><path d="m54.36 8.95a21.8 21.8 0 0 0 -15.21-8.95l-4.26 12.83a45.77013 45.77013 0 0 0 -9.54 4.71c-2.5 1.72-4.3 3.59-4.33 5.06a1.9001 1.9001 0 0 0 .09.58c.51 1.39 2.76 1.7 5.56 1.72a29.77933 29.77933 0 0 0 4.32-.37l1.52-.26a55.85064 55.85064 0 0 0 7.47-2c.72-.25 1.43-.51 2.13-.77 1.31-.44 4.56-2 4.56-2a36.42052 36.42052 0 0 0 4.19-2.35c.38-.25.75-.5 1.09-.76.35 1.17.7 2.7.93 3.93l.36-.37a33.99868 33.99868 0 0 0 -.94-3.83 7.68011 7.68011 0 0 0 2.9-3.44 20.53012 20.53012 0 0 1 1.4 4.89c0 2.22-2.7 5.21-7.08 7.93l.1.53c3.68-2.25 6.27-4.68 7.16-6.91 0 .52.06 1.06.06 1.59a20.57016 20.57016 0 0 1 -1.26 7.09l.29.55.16-.38a25.28 25.28 0 0 0 1.75-7.92 18.62 18.62 0 0 0 -3.42-11.1zm-4.37-3.43a20.47025 20.47025 0 0 1 2.74 3 35.59088 35.59088 0 0 0 -3.87.22 32.1889 32.1889 0 0 0 -2.06-2.94l-.37-.45a17.34859 17.34859 0 0 0 -1.6-1.73c1.38.25 2.67.56 3.91.9.24.19.49.36.72.55zm-7.46.95-.14-.46-.92-2.9c.88.1 1.73.22 2.56.36.64.62 1.26 1.26 1.85 1.94l.37.43a31.539 31.539 0 0 1 2.12 2.95c-1.54.19-3.16.46-4.85.83zm5.18-2.77c-1.09-.27-2.24-.51-3.43-.72a29.51819 29.51819 0 0 0 -2.29-1.9 20.27 20.27 0 0 1 5.72 2.62zm-6.92-3 .09.06a27.80954 27.80954 0 0 1 2.57 2.05c-.69-.1-1.39-.2-2.1-.28l-.57-1.83zm-2.69 8.66 3 9.35-.9.31a52.00059 52.00059 0 0 1 -5.8 1.68c.5-1.59 3.01-9.17 3.7-11.27zm12.51 7.39c-2.68 1.77-6.51 3.23-10.83 4.68a40.26007 40.26007 0 0 1 -12.72 2.34c-2.77 0-4.48-.29-4.78-1.28a1.53977 1.53977 0 0 1 -.07-.42c0-1.12.94-2.53 3.41-4.21a44.29024 44.29024 0 0 1 9.08-4.51c-.23.67-.45 1.32-.66 2a38.3803 38.3803 0 0 0 -5.72 2.85c-1.57 1-2.54 1.86-2.58 2.71a.77011.77011 0 0 0 0 .27c.29.71 1.21.88 2.55.9 2.63 0 7.08-.92 12-2.57 1.88-.63 3.64-1.31 5.21-2l.49-.17-1.56-4.93-.14-.46-.58-1.84a50.1805 50.1805 0 0 1 5-.84c.22.36.46.7.66 1.07l.23.43a30.31016 30.31016 0 0 1 2.2 5.18 9.3734 9.3734 0 0 1 -1.19.87zm-16.77-.84c-.84 2.55-1.51 4.57-1.74 5.24a22.15978 22.15978 0 0 1 -3.77.41c-1.31 0-2.05-.29-2.09-.57a.42991.42991 0 0 1 0-.12c0-.41.81-1.34 2.36-2.3a37.38875 37.38875 0 0 1 5.24-2.59zm18.33-.21a31.10963 31.10963 0 0 0 -2.12-5l-.23-.44c-.19-.34-.41-.66-.61-1a34.75942 34.75942 0 0 1 3.56-.19h.4l.12.16.37.57a18.59987 18.59987 0 0 1 1.12 2 1.32985 1.32985 0 0 1 .05.34c.02.91-.94 2.2-2.66 3.56z" fill="#3b6e8f"/></g></svg>