<svg enable-background="new 0 0 774.1 413.1" viewBox="0 0 774.1 413.1" xmlns="http://www.w3.org/2000/svg"><path d="m8 115.8h762.2v12.5h-762.2z" fill="#b1b1b5"/><path d="m251.1 365.4h519.2v12.5h-519.2z" fill="#b1b1b5"/><path d="m344.5 283.2c-1.3-1.6-3-2.8-5.2-3.6s-4.2-1.2-6.2-1.2c-1.1 0-2.3.1-3.5.4s-2.3.7-3.4 1.3-1.9 1.3-2.6 2.3c-.7.9-1 2.1-1 3.4 0 2.1.8 3.8 2.4 4.9s3.6 2.1 6.1 2.9c2.4.8 5.1 1.6 7.9 2.4s5.4 1.9 7.9 3.4c2.4 1.5 4.5 3.5 6.1 5.9 1.6 2.5 2.4 5.8 2.4 9.9 0 4-.7 7.4-2.2 10.4-1.5 2.9-3.5 5.4-6 7.3s-5.4 3.4-8.7 4.3-6.8 1.4-10.5 1.4c-4.6 0-8.9-.7-12.9-2.1s-7.6-3.7-11.1-6.8l11.2-12.3c1.6 2.1 3.6 3.8 6.1 5 2.4 1.2 5 1.8 7.6 1.8 1.3 0 2.6-.2 3.9-.5s2.5-.8 3.5-1.4 1.9-1.4 2.5-2.3 1-2 1-3.3c0-2.1-.8-3.8-2.5-5.1-1.6-1.2-3.7-2.3-6.2-3.2s-5.2-1.7-8-2.6c-2.9-.9-5.6-2-8-3.5-2.5-1.5-4.5-3.4-6.2-5.8-1.6-2.4-2.5-5.6-2.5-9.5 0-3.8.8-7.2 2.3-10 1.5-2.9 3.5-5.3 6-7.2s5.4-3.4 8.7-4.4 6.7-1.5 10.2-1.5c4 0 7.9.6 11.7 1.7s7.1 3 10.1 5.7z" fill="#3b6e8e"/><path d="m367.6 265.8h48.3v14.5h-32.7v13.3h30.9v14.4h-30.9v14.5h34.5v14.5h-50.1z" fill="#3b6e8e"/><path d="m430.3 265.8h27.5c3.6 0 7.1.4 10.3 1.1s6.1 1.9 8.5 3.5 4.4 3.9 5.8 6.6c1.4 2.8 2.2 6.2 2.2 10.4 0 5-1.3 9.3-3.9 12.8s-6.4 5.7-11.5 6.7l18.1 30h-18.8l-14.9-28.4h-7.6v28.5h-15.7zm15.7 29.5h9.2c1.4 0 2.9-.1 4.5-.2s3-.4 4.3-.9 2.3-1.3 3.2-2.4c.8-1.1 1.3-2.6 1.3-4.5 0-1.8-.4-3.2-1.1-4.3s-1.7-1.9-2.8-2.5-2.4-1-3.9-1.2-2.9-.3-4.3-.3h-10.4z" fill="#3b6e8e"/><path d="m488.4 265.8h17.9l17.6 46.6h.2l17.9-46.6h16.8l-29.4 71.2h-12.6z" fill="#3b6e8e"/><path d="m566 265.8h15.7v71.2h-15.7z" fill="#3b6e8e"/><path d="m642.4 284.3c-1.5-1.9-3.4-3.3-5.7-4.3-2.2-1-4.8-1.5-7.8-1.5-2.9 0-5.7.6-8.2 1.7s-4.7 2.7-6.5 4.8c-1.8 2-3.3 4.5-4.3 7.3s-1.6 5.9-1.6 9.1c0 3.4.5 6.4 1.6 9.2 1 2.8 2.5 5.2 4.3 7.2s3.9 3.6 6.4 4.8c2.4 1.1 5.1 1.7 7.9 1.7 3.2 0 6.1-.7 8.5-2 2.5-1.3 4.5-3.2 6.1-5.6l13.1 9.7c-3 4.2-6.8 7.3-11.5 9.3-4.6 2-9.4 3-14.3 3-5.6 0-10.7-.9-15.4-2.6s-8.7-4.2-12.2-7.5c-3.4-3.2-6.1-7.2-8-11.8s-2.9-9.8-2.9-15.5 1-10.9 2.9-15.5 4.6-8.6 8-11.8 7.5-5.7 12.2-7.5c4.7-1.7 9.8-2.6 15.4-2.6 2 0 4.1.2 6.3.6s4.3 1 6.4 1.8 4.1 1.9 6.1 3.2c1.9 1.3 3.7 3 5.2 4.9z" fill="#3b6e8e"/><path d="m665.4 265.8h48.3v14.5h-32.7v13.3h30.9v14.4h-30.9v14.5h34.5v14.5h-50.1z" fill="#3b6e8e"/><path d="m763.2 283.2c-1.3-1.6-3-2.8-5.2-3.6s-4.2-1.2-6.2-1.2c-1.1 0-2.3.1-3.5.4s-2.3.7-3.4 1.3-1.9 1.3-2.6 2.3c-.7.9-1 2.1-1 3.4 0 2.1.8 3.8 2.4 4.9s3.6 2.1 6.1 2.9c2.4.8 5.1 1.6 7.9 2.4s5.4 1.9 7.9 3.4c2.4 1.5 4.5 3.5 6.1 5.9 1.6 2.5 2.4 5.8 2.4 9.9 0 4-.7 7.4-2.2 10.4-1.5 2.9-3.5 5.4-6 7.3s-5.4 3.4-8.7 4.3-6.8 1.4-10.5 1.4c-4.6 0-8.9-.7-12.9-2.1s-7.6-3.7-11.1-6.8l11.2-12.3c1.6 2.1 3.6 3.8 6.1 5 2.4 1.2 5 1.8 7.6 1.8 1.3 0 2.6-.2 3.9-.5s2.5-.8 3.5-1.4 1.9-1.4 2.5-2.3 1-2 1-3.3c0-2.1-.8-3.8-2.5-5.1-1.6-1.2-3.7-2.3-6.2-3.2s-5.2-1.7-8-2.6c-2.9-.9-5.6-2-8-3.5-2.5-1.5-4.5-3.4-6.2-5.8-1.6-2.4-2.5-5.6-2.5-9.5 0-3.8.8-7.2 2.3-10 1.5-2.9 3.5-5.3 6-7.2s5.4-3.4 8.7-4.4 6.7-1.5 10.2-1.5c4 0 7.9.6 11.7 1.7s7.1 3 10.1 5.7z" fill="#3b6e8e"/><path d="m386.8 235.8c-5.6 2.9-11.4 5-17.5 6.3s-12.3 1.9-18.6 1.9c-6.7 0-12.9-1.1-18.6-3.2s-10.6-5.1-14.7-9-7.3-8.7-9.7-14.3c-2.3-5.6-3.5-11.8-3.5-18.7s1.2-13.1 3.5-18.7 5.5-10.3 9.7-14.3c4.1-3.9 9-6.9 14.7-9s11.9-3.2 18.6-3.2c6.9 0 13.2.8 19 2.5s10.9 4.5 15.2 8.6l-13.4 14.6c-2.6-2.7-5.5-4.7-8.7-6.1s-7.3-2.1-12.1-2.1c-4 0-7.7.7-11 2.1s-6.1 3.3-8.4 5.8-4.2 5.4-5.4 8.8c-1.3 3.4-1.9 7.1-1.9 11.1 0 4.1.6 7.8 1.9 11.1 1.3 3.4 3.1 6.3 5.4 8.7 2.3 2.5 5.2 4.4 8.4 5.8 3.3 1.4 6.9 2.1 11 2.1s7.7-.5 10.7-1.4 5.4-1.9 7.2-2.9v-14h-15.4v-17.5h33.6z" fill="#3b6e8e"/><path d="m398.6 155.9h18.9v68.5h35.1v17.5h-54z" fill="#3b6e8e"/><path d="m451.5 198.9c0-6.9 1.2-13.1 3.5-18.7s5.5-10.3 9.7-14.3c4.1-3.9 9-6.9 14.7-9s11.9-3.2 18.6-3.2 12.9 1.1 18.6 3.2 10.6 5.1 14.7 9 7.3 8.7 9.7 14.3c2.3 5.6 3.5 11.8 3.5 18.7s-1.2 13.1-3.5 18.7-5.5 10.3-9.7 14.3c-4.1 3.9-9 6.9-14.7 9s-11.9 3.2-18.6 3.2-12.9-1.1-18.6-3.2-10.6-5.1-14.7-9-7.3-8.7-9.7-14.3c-2.3-5.6-3.5-11.8-3.5-18.7zm19.7 0c0 4.1.6 7.8 1.9 11.1 1.3 3.4 3.1 6.3 5.4 8.7 2.3 2.5 5.2 4.4 8.4 5.8 3.3 1.4 6.9 2.1 11 2.1 4 0 7.7-.7 11-2.1s6.1-3.3 8.4-5.8 4.1-5.4 5.4-8.7c1.3-3.4 1.9-7.1 1.9-11.1s-.6-7.7-1.9-11.1-3.1-6.3-5.4-8.8-5.2-4.4-8.4-5.8c-3.3-1.4-6.9-2.1-11-2.1-4 0-7.7.7-11 2.1s-6.1 3.3-8.4 5.8-4.2 5.4-5.4 8.8c-1.3 3.5-1.9 7.1-1.9 11.1z" fill="#3b6e8e"/><path d="m553 155.9h32.1c3.7 0 7.5.3 11.2.8 3.8.5 7.1 1.6 10.1 3.2s5.4 3.8 7.3 6.6 2.8 6.6 2.8 11.3c0 4.9-1.4 8.9-4.1 12.1s-6.3 5.5-10.7 6.9v.2c2.8.4 5.4 1.2 7.7 2.4s4.3 2.7 6 4.5 2.9 3.9 3.8 6.4c.9 2.4 1.3 5 1.3 7.8 0 4.5-1 8.3-2.9 11.4-1.9 3-4.5 5.5-7.5 7.3-3.1 1.9-6.5 3.2-10.4 4-3.8.8-7.7 1.2-11.5 1.2h-35.2zm19 34.4h13.7c1.5 0 2.9-.2 4.3-.5s2.7-.9 3.8-1.6 2-1.7 2.7-2.9 1-2.7 1-4.4c0-1.8-.4-3.3-1.2-4.4-.8-1.2-1.8-2.1-3-2.7s-2.6-1.1-4.1-1.4-3-.4-4.5-.4h-12.7zm0 35.6h17c1.5 0 2.9-.2 4.4-.5s2.9-.9 4.1-1.7 2.2-1.9 3-3.2 1.2-2.9 1.2-4.7c0-2-.5-3.7-1.5-4.9-1-1.3-2.3-2.2-3.8-2.9-1.5-.6-3.2-1.1-5-1.3s-3.4-.4-5-.4h-14.4z" fill="#3b6e8e"/><path d="m657.3 155.9h15.7l37.4 86h-21.4l-7.4-18.2h-33.4l-7.2 18.2h-20.9zm7.2 25-10.4 26.7h21z" fill="#3b6e8e"/><path d="m715.5 155.9h18.9v68.5h35.1v17.5h-54z" fill="#3b6e8e"/><path clip-rule="evenodd" d="m237.7 178.8c-1.6-5.5-3.4-11-5.3-16.3-.9-2.4-1.7-4.7-2.7-7.1-1.3-3.3-2.8-6.5-4.3-9.8-2.6-5.8-5.4-11.6-8.2-17.4l-2.2-5.2c2-1.8 4-3.6 6-5.3l2.7-2.3-2.4-2.6c-2.6-2.5-5.6-4.5-9-5.8-4.2-1.6-11.2-2.3-16-2.6l-1.8-1.1c-2.3-1.4-4.7-2.6-7-3.8-6.1-3.1-12.4-5.9-18.8-8.3l-1.3-.5c0-2.2.5-4.4 1.3-6.4.5-1.1.9-2.3 1.3-3.4.9-3.3 1.5-6.7 1.6-10.2l.1-3.3-2.4-.1c-2-11-8.9-20.5-18.8-25.8 4.6-6.3 6.4-13.9 4.1-21.6-2.1-6.7-6.6-12.4-12.8-15.9-6.6-3.9-14.5-5.1-22-3.4-6.3 1.4-11.8 4.2-17.3 7.4-4.9 2.9-9.7 6.1-14.9 8.5-4.5 2.1-9.3 3.2-14.3 3.2-.9 0-1.8-.1-2.6-.4-4.4-1.2-4-6.5.6-6.5l8.3-.1-6.1-5.7c-4-3.7-10.1-3.5-14.8-1.4-5.4 2.3-9.2 7.5-9.6 13.4-.3 4.6.9 9.2 3.4 13.1-2.7 0-5.4-.6-7.8-1.6-8.3-3.3-18-3.2-25.4 2.4-2.6 2-4.7 4.6-6.3 7.5-3.3 7.1-3.9 16 0 22.9 1.5 2.6 3.5 4.7 6 6.3l6.4 4.1-1.3-7.5c-.3-1.5-.5-6.6 1.1-7.5 1.8-1 4.9 0 6.7.7 5.3 2.2 10.8 6.6 15.1 10.3 9.7 8.5 24.4 4.7 34.5-.9 4.1-2.4 7.9-5.5 11-9.1 2.8-3.2 5.7-6.2 8.8-9.1s7-4.9 11.2-5.7c.4-.1.8-.1 1.2-.2-7.3 5.6-12.3 13.7-14 22.8l-2.4.1.1 3.3c.1 1.9.3 3.7.6 5.5-1.1-.3-2.3-.5-3.4-.7-5.9-.9-11.8.1-16.5 4-7.1 5.8-9.8 14.7-10.5 24l-2.4 2.7c-1.5 1.7-3 3.7-4.4 5.5-2.1 2.8-4.2 5.6-6.3 8.4-3.6 4.8-7.2 9.7-10.8 14.5l-1.2 1.7c-2.7-.3-5.5-.4-8.2-.2l-3.2.1c-2.2 3.8-3.5 8.1-3.8 12.5-1 .1-1.9.2-2.6.3h-.1-.1c-3 .6-6.1 4.7-7.7 7-3 4.6-5.7 12.4-4.1 17.8l4.6 9.8c-.5 6.6.3 14.1 1.2 20.5 1 6.9 2.3 13.8 3.8 20.6.7 3.1 1.4 6.2 2.2 9.3l.3 1.2c-.8 1.5-1.7 2.9-2.5 4.4l-5.4-5.3c1.5-4.5-.9-9.4-5.4-10.9s-9.4.9-10.9 5.4.9 9.4 5.4 10.9c1.7.6 3.6.6 5.3.1l7.4 7.2c-.5 1-1 2.1-1.4 3.1-.5 1.1-1 2.3-1.5 3.4l-1.6 4c-.8 2.4 3.1 11.5 4 14.8l.5.6c.8 1 1.9 1.7 3 2.2l.3.1c.4 1.2 1.4 2.2 2.6 2.7.2.1.4.1.6.2.4 2.1 2 3.7 4 4.4.7.2 1.4.3 2.1.4v.2l.8.9c1.6 1.7 3.8 2.6 6.1 2.6.5 0 1 0 1.5-.1l-1.9 12.8 6.3 7.3.1-.2.2.5 11.7-13.1 106 109.5 42.1 9.9-13.3-41.2-20.4-16.8c13.1-7.1 28.2-16.2 40.7-26.3 25.9-20.9 24.1-35.4 27.5-66.1l9.1-81.6zm-153.9 83.9c1 9.1 1.6 16.7 2.5 23.5l-15.8-13 11.5-20.4.1-.1-8.3-3.2-12.1 5.7c-.1-1-.4-3-1-6.6-.7-3.9-1.7-7.8-3.1-11.6v-2.6c1-5.8 1.8-11.8 2.6-17.7.4-3.7 1.1-7.5 1.7-11.2 1-6.1 2.2-12.1 3.4-18.2l.1-.4v-.4c-.2-2.3-.6-4.6-1.4-6.8l21-17 2 3.2c.4 2.8 1 5.7 1.5 8.5.2 1.1.5 2.2.7 3.3l-14.3 3.3z" fill-rule="evenodd"/><path d="m187.6 112.8c1.6-2.2 3.4-4.3 5.3-6.3-8.1-4.6-16.6-8.6-25.3-11.9.3 3 .9 6 1.8 8.9 6.2 2.7 12.3 5.8 18.2 9.3z" fill="#afadae"/><path d="m121.5 170.2c-.7-10.9-.6-22.9-.6-22.9-4.1-7.5-7.1-15.5-9-23.8-3.6-3.6-12.2-12.6-13-16.7l-.2-1 .4-.9c1.5-3.8 2.3-7.8 2.4-11.9.2-2.4-.1-4.9-.9-7.2-4.8 5.5-11.8 17.7-12.8 42-.6 16.6.8 33.1 4.4 49.3z" fill="#afadae"/><path d="m60.9 33.8c4.6-1.1 9-3 13-5.4 0 0-10.7 2-15.3-5.2-2.7-4.2-1.7-9.4-.4-13-3.1 2.1-5.2 5.5-5.4 9.3-.5 6.6 2.6 13.6 8.1 14.3z" fill="#3b6e8f"/><g clip-rule="evenodd" fill-rule="evenodd"><path d="m134.5 136.6s-7.4-2.8-19.5-14.8-12.8-15.7-12.8-15.7c1.6-4.2 2.5-8.6 2.7-13.1.2-7.3-1.5-8.9-2.7-12.9-.8-3.1-1.3-6.2-1.5-9.3 0 0 23-1 33.8-15 10.8 14.1 33.8 15 33.8 15-.1 3.2-.6 6.3-1.5 9.3-1.2 4-2.9 5.6-2.7 12.9.2 4.5 1.1 8.9 2.7 13.1 0 0-.7 3.6-12.8 15.7-12.1 12-19.5 14.8-19.5 14.8" fill="#afadae"/><path d="m134.5 41.1c15.7 0 28.9 11.8 31.6 27.3-.5-.1-.9-.1-1.4-.2-.9-.1-1.7-.3-2.6-.4 0-2.8-.9-10.5-9.6-17.5-10.8-8.7-24.5-5.6-24.5-5.6 1.5.6 2.8 1.6 3.8 2.9 1.2 1.5 1.4 4.3 1.5 6l-.6.8c-4.7 6.2-12.3 9.9-19.7 12-2.9.8-5.8 1.4-8.8 1.8-.5.1-1 .1-1.4.2 2.9-15.6 16-27.3 31.7-27.3" fill="#afadae"/><path d="m134.5 89.7c6-1.6 11.8-3.6 17.5-5.9 7.1-3.2 8.7-4.2 8.7-4.2-.4 1.8-1 3.5-1.8 5.1l-1.2 2.2s-3.7 3.7-23.2 9.3c-19.4-5.5-23.2-9.3-23.2-9.3l-1.2-2.2c-.8-1.6-1.4-3.4-1.8-5.1 0 0 1.6 1 8.7 4.2 5.7 2.3 11.6 4.3 17.5 5.9"/><path d="m120.7 99.1-3.6-1.5c.2 5 .8 10.1 1.6 15 1.2 6.8 2.3 9.3 2.3 9.3l2.4 1.9s-2.2-7-2.7-24.7m6.5 2-3.9-1.2s.9 9 2.2 16.2 2.4 9.8 2.4 9.8l2.5 2c0 .1-2.7-8.1-3.2-26.8m-12.8-5.2-3.7-1.8s.5 6.4 1.7 13.2 2.3 9.3 2.3 9.3l2.4 1.9c.1 0-2.2-4.9-2.7-22.6"/><path d="m164.7 79.5c.6-2.2 1-4.4 1.2-6.6-.6-.1-1.1-.1-1.7-.2-3.2-.4-6.3-1.1-9.4-1.9-7.5-2.1-15-5.7-20.3-11.5l-.1.1v28.1h.1c3.9-1 8-2.3 11.8-3.7 5.7-2 11.2-4.6 16.3-7.9-.1 4.2-1.1 8.4-2.9 12.1l-.2.3-.2.2c-1.5 1.2-3.1 2.2-4.9 3-2.4 1.1-4.8 2.1-7.3 3-3.9 1.4-8 2.7-12 3.8l-.6.2h-.1v35.7h.1c1.5-.7 2.9-1.6 4.2-2.5 4.9-3.4 9.6-7.2 13.8-11.5 3.7-3.5 7.1-7.3 10.2-11.3.7-.9 1.3-1.8 1.8-2.8-.4-1.1-.7-2.2-1-3.2-.9-3.2-1.4-6.5-1.5-9.8-.2-3.6.3-7.2 1.7-10.5.3-1.1.7-2.1 1-3.1zm-23.4 46.4-2.5 2s2.7-8.1 3.2-26.8l3.9-1.2s-.9 9-2.2 16.2c-1.2 7.2-2.4 9.8-2.4 9.8zm6.9-4-2.4 1.9s2.2-7 2.7-24.8l3.6-1.5c-.2 5-.8 10.1-1.6 15-1.2 7-2.3 9.4-2.3 9.4zm8.5-14.6c-1.2 6.8-2.3 9.3-2.3 9.3l-2.4 1.9s2.3-4.9 2.8-22.6l3.7-1.8c-.1 0-.5 6.4-1.8 13.2z"/><path d="m187.1 109.8c.7-1 1.5-1.9 2.3-2.9-1.4-.8-2.9-1.5-4.3-2.3-4.8-2.4-9.7-4.7-14.7-6.7.2 1.3.5 2.6.9 3.8 5.3 2.6 10.6 5.2 15.8 8.1"/><path d="m101.4 81.2s-12.5-6.1-21.1 1.1c-8.7 7.2-11.5 21.1-8.1 42.1 2.4 14.6 6.3 21.9 13.4 33.4 0 0-.2-1.6-.5-4.4-2.2-3.6-6.9-12.7-10-26.8-4.1-18.7-.8-28.4-.8-28.4l.8 1.8c.8 1.8 4 1.9 7.8-2.5 2-2.1 4.8-3.2 7.6-3.1 2.7-5.6 6.2-10.3 10.9-13.2" fill="#afadae"/><path d="m195.5 107.9s10.7.4 15.7 2.4c2.9 1.1 5.5 2.8 7.7 4.9 0 0-12.7 10.7-27.3 25.8-14.6 15-17.8 20-17.8 20l-1.1-.3c3.2-4.5 12.1-16.8 21.5-25.9 11.8-11.4 14.6-13.3 14.6-13.3s-7.9 2.6-12 2.6-6.2-1.1-9.9 2.1c-3.6 3.2-12.5 21.5-15.7 30.1l-1.4 3.8-1.6-.4s8.4-30.3 27.3-51.8" fill="#afadae"/><path d="m161.1 164.3-82.7 19.3 8.8 78.6c.8 7.1 1.3 14.2 2.2 21.3.2 1.9.5 3.9.8 5.8l77.1 63.4c9.4-5 18.5-10.4 27.3-16.3 4.8-3.2 9.5-6.7 14.1-10.3 9-7.2 16.7-15.2 20.6-26.2 1.8-5.3 2.9-10.8 3.5-16.4.9-7.1 1.4-14.2 2.2-21.3l8.8-78.6z" fill="#afadae"/><path d="m67.7 108.6v.3c-.7 7.5-.3 15.1 1.1 22.6.7 4.8 1.9 9.4 3.4 14-.4 2.4-1.2 4.8-2.4 6.9-4.1 8.2-6.4 9.9-6.4 9.9s-7.5-17-10.1-21.3c-1.4-2.5-4-4.1-6.9-4.3.1 0 17.7-24 21.3-28.1" fill="#afadae"/><path d="m34.4 139.5s10.9-.4 14 1.9c3 2.4 8.2 12.2 9.9 16.7 1 2.4 1.6 4.9 1.9 7.5 0 0-10.1-17.4-13.7-19.3s-11.4 0-11.4 0c-.4-2.2-.7-4.5-.7-6.8" fill="#afadae"/><path d="m56.3 165.5s-6.4-10.9-10.9-12.9c-4.5-1.9-20.4-.2-20.4-.2s-2.1.4-5.6 5.6c-2.9 4.3-4.9 11-3.6 14.9 0 0 1.5-6.1 3.4-9.1l1.9-3s22.1-9.7 35.2 4.7" fill="#afadae"/><path d="m20.7 182s2.3-10.3 15.4-13.2c3.8 1.1 8.7 3.4 10.8 7.4 3.9 7.3-.6 16.5-1.7 29.2-.9 11.1-1.2 19.9-1.3 21.9-.3 0-.6 0-.9 0-7.9.4-15.5 5.8-15.5 5.8s-8.9-34.1-6.8-51.1" fill="#afadae"/><path d="m34.3 267.6c1.1.5 2.3.7 3.5.6.8.1 1.6 0 2.4-.1 0 0 .2 3.6.7 7.7l-1 7.1c-.6.1-1.3.2-2 .2-1.3 0-2.6-.5-3.5-1.4zm-1.8-.7c-1.1 0-2.1-.2-3.1-.6-.6-.3-1.2-.7-1.7-1.2l.5 11.7s.2 1.9 1.7 2.4c.8.3 1.7.4 2.6.3zm-6-2.1-3.5-1.9 2 10.7c-.1.5.2 1 .6 1.1.9.3 1.2.4 1.2.4zm-5.3-2.5c-.8-.3-1.4-.7-2-1.2l-1-.9 2.8 10.3c.5.5 1.1 1 1.7 1.3l.9.3zm6.8-26.2c4.3-3.6 9.9-5.4 15.5-4.8 9.2 1 9.4 7.1 9.4 7.1s-7.6 12.3-10.6 18.4c-1.4 2.9-2.9 5.7-4.6 8.4 0 0-4.4.1-11.8-2.7s-8.6-4.2-8.6-4.2c3-7.7 6.6-15.1 10.7-22.2" fill="#afadae"/><path d="m45.7 266.4 28.2-13.2 2.3.9-21.6 22-11.6 24.3-1.9-2.3z" fill="#afadae"/><path d="m64.9 272.9 122.8 101 11.2 34.6-35.4-8.4-109.6-113.2 3.4-6.6 113.1 104.3 3.5.5-1.2-3.3-113.4-104.1z" fill="#afadae"/><path d="m64.9 275-3.2 2.8 112.4 103.2 2.2 6.1 20.2 19.2-10.2-31.5z" fill="#fff"/><path d="m161.1 337.7c9.1-4.7 17.8-10 26.2-15.8 3.8-2.6 7.4-5.4 11-8.3 7-5.8 13-12.3 16.1-21.2 1.4-4.3 2.3-8.7 2.7-13.2.7-5.7 1.1-11.5 1.7-17.2l6.8-63.5-64.5-15.6-64.5 15.6 6.8 63.5c.6 5.7 1 11.5 1.7 17.2.4 4.5 1.4 8.9 2.7 13.2 3.1 8.9 9.1 15.4 16.1 21.2 3.5 2.9 7.2 5.7 11 8.3 8.4 5.8 17.2 11 26.2 15.8m0 5.1c9.7-5 19-10.7 27.9-16.9 4-2.8 7.9-5.7 11.7-8.9 7.5-6.2 13.9-13.1 17.1-22.6 1.5-4.6 2.4-9.3 2.9-14.1.7-6.1 1.2-12.2 1.8-18.3l7.3-67.7-68.8-16.7-68.8 16.7 7.3 67.7c.7 6.1 1.1 12.2 1.8 18.3.5 4.8 1.4 9.5 2.9 14.1 3.3 9.5 9.7 16.4 17.1 22.6 3.8 3.1 7.7 6.1 11.7 8.9 9.1 6.3 18.5 11.9 28.1 16.9"/><path d="m161.7 168.6-.1 5.5 73 17-8.6 93.9c-.8 10.2-5 19.8-12 27.2-11 11.8-23.3 22.9-24.7 24.2 1.9-1.2 3.9-2.5 5.8-3.8 4.6-3.1 9.1-6.4 13.4-9.8 8.6-6.9 15.9-14.5 19.6-25 1.7-5.1 2.8-10.3 3.3-15.6.8-6.7 1.4-13.5 2.1-20.3l8.4-75z"/><path d="m49.2 155.6c-4-.5-13.5-1.4-17.8-.7-3.1.5-6.2 1.2-9.2 2.1-.5 1.2-.8 2.4-.9 3.7-.1 0-.1.1-.1.1l-1.9 3c-1.9 3-3.4 9.1-3.4 9.1-1.2-3.9.8-10.6 3.6-14.9 3.4-5.2 5.6-5.6 5.6-5.6s15.9-1.7 20.4.2c1.3.7 2.6 1.8 3.7 3m3.3-8.8c-2.1-1.6-4.5-2.8-7.1-3.3-3.6-.4-7.2-.5-10.8-.3-.1-1.1-.2-2.3-.2-3.7 0 0 11-.4 14 1.9 1.6 1.6 3 3.4 4.1 5.4m15-26.7c-2.7 3.4-7.8 9.7-10.4 13.6-2.2 3.3-3.5 5.4-4.3 6.6-1.5-2.1-3.8-3.4-6.4-3.6 0 0 17.6-24 21.3-28.1v.3c-.4 3.7-.4 7.5-.2 11.2m25.3-29.8c-3.4-.6-10.1-1.4-13.8.1-2.4 1.1-4.6 2.6-6.5 4.5 1.2-4.9 4-9.4 7.8-12.7 8.7-7.2 21.1-1.1 21.1-1.1-3.6 2.4-6.5 5.5-8.6 9.2m-58.2 78.9c-3 9.6-4.7 19.6-5.1 29.6-.8 16.8 2.2 27.9 3.3 31.4-1.8.8-3.6 1.8-5.2 3 0 0-9-34.1-6.9-51.1 0-.1 2.1-9.6 13.9-12.9m2 62.6c-2.1 3.6-7.2 12.7-9.5 18.9-2.4 6.3-3.6 9.6-4 10.7-4.9-2.1-5.8-3.1-5.8-3.1 3-7.6 6.6-15 10.7-22.1 2.5-2.2 5.5-3.7 8.6-4.4m89.4-186.3s-12.9 4.1-16.6 12.7c-2.6 6.1-3.3 8.8-3.5 9.9 2.5-.4 4.9-.9 7.3-1.6.4-.1.8-.2 1.2-.4-.7-2.9-1.1-11.4 11.6-20.6m4.8 17.2c-4.8 3.4-10.1 6-15.6 7.7-8.9 2.6-11.5 2.1-11.5 2.1-.2 1.4-.2 2.9 0 4.3l.5 1.5 3.8-.8 10.9 4.6 11.4 3.5c-.1.1-4.6-13.1.5-22.9m-25.8 53.3c-3.8 7.6-6.5 15.6-8.3 23.9-3.3 15.5-2.6 32-2.4 36.6l-2 .5c-3.6-16.2-5.1-32.8-4.4-49.3 1-24.4 8.1-36.5 12.8-42 .8 2.3 1 4.8.9 7.2-.1 4.1-1 8.1-2.4 11.9l-.4.9.2 1c.4 2.2 3.1 5.9 6 9.3" fill="#fff"/></g><g transform="translate(-168.62445 -117.27579)"><path clip-rule="evenodd" d="m188.6 361.9-8.7-8.5c-.8.6-1.7.9-2.7 1-3.1 0-5.6-2.5-5.6-5.6s2.5-5.6 5.6-5.6 5.6 2.5 5.6 5.6c-.1 1.1-.3 2.2-.7 3.3l7.7 7.6z" fill="#afadae" fill-rule="evenodd"/><path d="m177.2 345.1c2.1 0 3.7 1.7 3.7 3.7 0 2.1-1.7 3.7-3.7 3.7-2.1 0-3.7-1.7-3.7-3.7 0-2.1 1.7-3.7 3.7-3.7" fill="#fff"/><path d="m280.2 411.1c2.6 7.3 8.5 12.8 14.4 17.5 4.1 3.3 8.3 6.3 12.6 9.2 7.3 4.9 14.9 9.4 22.6 13.6l.2-.1v-147.8-.4l-.2-.1-61 14.3 6.8 60.9c.8 6.9 1.3 13.8 2.2 20.7.3 4.1 1.1 8.2 2.4 12.2z" fill="#fff"/><path d="m260.3 399.4c.4 3.3.9 6.6 1.7 9.8l6.5 5.4c-1.6-3.9-2.5-8.1-2.8-12.3l-8.5-94 73-17-.1-5.5-80.2 18.3 8.3 75c.7 6.8 1.3 13.6 2.1 20.3z" fill="#fff"/><path d="m303.8 284.2c.6-1.9 1.4-3.6 2.3-5.4 4.5-8.2 12.9-9.9 16.1-18.9 1.6-4.4.2-7.3-1.6-9 3.4-3.5 6.5-7.3 9.2-11.3 2.8-2.9 7.6-8.1 9.8-12.2l1.8.9c2.3 1.1 4.5 2.3 6.7 3.6 1 .6 1.9 1.1 2.9 1.7-.1.1-.2.2-.3.4-1.1 1.5-2.2 3.1-3.1 4.7-1.8 3-3.3 6.2-4.8 9.4-2.4 5.1-4.5 10.5-6.6 15.7-1.9 4.8-3.8 9.7-5.6 14.6l2.2.5c3.2-8.5 8.5-22.4 12-29.9 5.2-11.2 6.8-12.1 9.3-16-5-3.3-10.2-6.1-15.7-8.5-1.1 3.5-6.6 9.7-10.4 13.7-3.8 5.8-8.4 10.9-13.7 15.3-14.2 11.6-19.5 11.4-19.5 11.4s0 1.9-.4 19.5v2z" fill="#afadae"/><path clip-rule="evenodd" d="m379.1 284.5c.6 2.1 1 4 1.3 5.6l22.2 5.2c-1.6-5.1-4.5-14.2-7.4-21.3-4.3-10.5-12.5-27.1-12.5-27.1s-4.1 3-12.7 10.1c-.3.2-.5.4-.8.7 0 3.4.6 6.9 1.9 10.1 3.1 7.7 5.9 8.5 8 16.7z" fill="#afadae" fill-rule="evenodd"/><path d="m309 379.6c-3.1 9.4-7.5 22.5-7.5 22.5h-10.1v3.9h25v-3.9h-9.1l7.7-23.5zm45.6 3.4c3 9.5 6 19.2 6 19.2h9v3.9h-32.3v-3.9h9.7l-8.9-27.8-.5-1.8c4.1-1.6 8.1-3.4 12-5.5 1 3 2.7 8.7 4.6 14.6z" fill="#3b6e8f"/><path d="m368.4 338c-8.3-12.1-23.3-21-38.3-22.6 0 0-5.8 17.3-10.7 32.4-8.5 3-16.5 7-24 11.9-6.3 4.3-10.9 9.1-10.9 12.8 0 .5.1 1 .2 1.5 1.3 3.5 6.9 4.3 14 4.3 3.7 0 7.3-.3 10.9-.9l3.8-.6c6.4-1.2 12.7-2.9 18.8-5 1.8-.6 3.6-1.3 5.4-1.9 3.3-1.1 11.5-4.9 11.5-4.9 3.6-1.7 7.2-3.7 10.6-5.9 1-.6 1.9-1.3 2.7-1.9 1 3.3 1.7 6.6 2.3 9.9l.9-.9c-.6-3.3-1.4-6.5-2.4-9.6 3.9-3 6.5-6 7.3-8.7 1.7 4 2.9 8.1 3.5 12.3 0 5.6-6.8 13.1-17.8 20l.2 1.4c9.3-5.7 15.8-11.8 18-17.4.1 1.3.2 2.7.2 4 0 6.1-1.1 12.1-3.2 17.9l.7 1.4.4-1c2.1-5.7 4.4-13.5 4.4-20 .4-10.4-2.6-20.3-8.5-28.5m-4-1.1c-3.3 0-6.5.2-9.7.6-1.6-2.6-3.4-5-5.2-7.4l-.9-1.1c-1.3-1.5-2.6-3-4-4.4 3.5.6 6.8 1.4 9.9 2.3.6.4 1.1.9 1.7 1.4l1.3 1.2c2.6 2.1 4.9 4.7 6.9 7.4m-25.7-5.1-.4-1.2-2.3-7.3c2.2.3 4.4.6 6.5.9 1.6 1.5 3.2 3.2 4.7 4.9l.9 1.1c2 2.4 3.8 4.8 5.4 7.4-3.9.5-8 1.2-12.3 2.1zm13-7c-2.8-.7-5.7-1.3-8.7-1.8-1.8-1.7-3.7-3.3-5.7-4.9 5.1 1.5 10 3.8 14.4 6.7m-17.5-7.4.2.2c2.2 1.6 4.4 3.3 6.4 5.1-1.7-.3-3.5-.5-5.2-.7zm-6.7 21.8 7.5 23.6c-1 .4-1.2.4-2.3.8-4.8 1.7-9.7 3.1-14.6 4.2 1.3-4.2 7.6-23.3 9.4-28.6m31.5 18.6c-6.8 4.5-16.4 8.1-27.3 11.8-12.7 4.3-23.6 5.9-32.1 5.9-7 0-11.3-.7-12-3.2-.1-.3-.2-.7-.2-1.1-.1-2.8 2.4-6.4 8.6-10.6 7.2-4.7 14.8-8.5 22.9-11.4-.6 1.7-1.1 3.3-1.6 4.9-5 2-9.8 4.4-14.4 7.2-4 2.6-6.4 4.7-6.5 6.8 0 .2 0 .5.1.7.7 1.8 3.1 2.2 6.4 2.3 6.6 0 17.9-2.3 30.2-6.5 4.7-1.6 9.2-3.3 13.1-5l1.2-.4-3.9-12.4-.4-1.2-1.5-4.6c4.2-.9 8.4-1.6 12.7-2.1.5.9 1.1 1.8 1.6 2.7l.6 1.1c2.2 4.2 4.1 8.5 5.5 13.1-.9.6-1.9 1.3-3 2m-42.3-2.1c-2.1 6.4-3.8 11.5-4.4 13.2-3.1.6-6.3 1-9.5 1-3.3 0-5.2-.7-5.3-1.4 0-.1 0-.2 0-.3-.1-1 2-3.4 5.9-5.8 4.3-2.6 8.7-4.8 13.3-6.7m46.2-.7c-1.4-4.4-3.2-8.6-5.3-12.7l-.6-1.1c-.5-.9-1-1.7-1.5-2.5 3-.3 5.9-.5 8.9-.5h1c.1.1.2.3.3.4l.9 1.4c1 1.6 2 3.3 2.8 5 .1.3.1.6.1.9.2 2.4-2.2 5.7-6.6 9.1" fill="#3b6e8f"/><path d="m233.3 169c6-1.8 6.9-2.3 22.2-17.1 15.4-14.8 37-10.2 37-10.2s-1-1.1-5.2-2.4-10-.1-10-.1 1.1-1.3 8.2-3.1 20 1 23.2 9.7c1.1 3.2 1.5 6.5 1 9.9 2.2.4 4.3 1.1 6.4 1.9 14-18.3-4.7-41.1-26.8-36.3-17.3 3.8-28.4 19.6-47.2 19.2-1.2 0-2.3-.2-3.5-.5-8.1-2.3-6.9-13 1.4-13-5.3-4.9-18.1-.4-18.8 9.8-.4 6.7 2.7 13.8 8.3 14.4 0 0-7 4.1-17.3 0-8.4-3.4-16.6-2.3-22.1 1.9-9.7 7.5-11.1 24.3-.9 30.9-.4-1.5-1.3-4.9-.7-7.6.8-3.4 3.4-6.4 10.6-6.2s15.1 9.2 28.1 10.2 20.5-12.8 20.5-12.8-1.7 2-10.5 4.1c-8.8 2-12.7-2.5-12.7-2.5s2.8 1.6 8.8-.2z" fill="#fff"/><g clip-rule="evenodd" fill-rule="evenodd"><path d="m303.2 145.7c4.6 0 8.3 4.3 8.3 9.5 0 .6 0 1.6.1 2.7-5.6-1.2-11.3-1.2-16.9 0 .1-1.1.1-2 .1-2.7 0-5.3 3.8-9.5 8.4-9.5"/><path d="m303.2 147.3c3.7.1 6.7 3.3 6.5 7 0 .5 0 1.2.1 2-.4-.1-.8-.2-1.3-.2.4-1.7.1-3.5-.7-5-1.1-1.7-2.9-2.7-4.9-2.6 1.5 2 2.2 4.6 1.9 7.2-.5 0-1 0-1.6 0-2.2 0-4.5.2-6.6.7 0-.8.1-1.5.1-2-.2-3.8 2.7-7 6.5-7.1" fill="#afadae"/><path d="m301 130.7c-16.5-7.7-34.4 5.2-53.5 21.3s-23.2 12.2-32.6 9.7c-9.4-2.6-16.7-6.2-21.3-3.2-4.5 3-4.3 6.2-4.3 6.2s5.4-4.5 10.5-1.9c5.2 2.6 5.4 3 5.4 3s-15-4.7-18.5 7.3c-1.1 4 .2 7.6 2.4 10.8.1.1.2.1.3.2 0 0-.1 0-.1-.1-.4-1.5-1.3-4.9-.7-7.6.8-3.4 3.4-6.4 10.6-6.2s15.1 9.2 28.1 10.2 20.5-12.8 20.5-12.8-1.7 2-10.5 4.1c-8.8 2-12.7-2.5-12.7-2.5s2.7 1.6 8.7-.2 6.9-2.3 22.2-17.1c15.4-14.8 37-10.2 37-10.2s-1-1.1-5.2-2.4-10-.1-10-.1 1.1-1.3 8.2-3.1 20 1 23.2 9.7c.4 1.2.7 2.4.9 3.6 1.1 1.7 1.8 3.8 1.7 5.8v.8c.3.1.6.2.9.2 1-6.7.8-19.8-11.2-25.5z" fill="#3b6e8f"/><path d="m229.5 151.1c4.6-1.1 9-3 13-5.4 0 0-10.7 2-15.3-5.2-2.7-4.2-1.7-9.4-.4-13-3.1 2.1-5.2 5.5-5.4 9.3-.5 6.6 2.6 13.6 8.1 14.3z" fill="#3b6e8f"/></g></g><path d="m269.5 343.5 13.9-25h-43.1v4h-194.9l.1-4h-43.9l13.9 24.9-13.4 25.5h24.6v9h232.4v-9h23.8z" fill="#3b6e8f"/><path d="m63.1 332.1h7l16.7 38.4h-9.5l-3.3-8.1h-15l-3.2 8.1h-9.3zm3.2 11.2-4.7 11.9h9.4z" fill="#00334e"/><path d="m90.9 332.1h8.5v30.6h15.6v7.8h-24.1z" fill="#00334e"/><path d="m119.7 332.1h12.8l8.8 25h.1l8.9-25h12.7v38.4h-8.4v-29.4h-.1l-10.1 29.4h-6.4l-9.7-29.4h-.1v29.4h-8.5z" fill="#00334e"/><path d="m171.2 332.1h26.1v7.8h-17.6v7.2h16.6v7.8h-16.6v7.8h18.6v7.8h-27z" fill="#00334e"/><path d="m214.5 350.5-12.7-18.3h10.6l8.2 13.4 7.9-13.4h10.2l-12.4 18.2 13.9 20.2h-10.6l-9.4-15.5-9.1 15.5h-10z" fill="#00334e"/><path d="m61.7 330.7h7l16.7 38.4h-9.5l-3.3-8.1h-15l-3.2 8.1h-9.3zm3.2 11.2-4.7 11.9h9.4z" fill="#fff"/><path d="m89.5 330.7h8.5v30.6h15.7v7.8h-24.2z" fill="#fff"/><path d="m118.3 330.7h12.8l8.8 25h.1l8.9-25h12.7v38.4h-8.4v-29.4h-.1l-10.1 29.4h-6.5l-9.7-29.4h-.1v29.4h-8.5z" fill="#fff"/><path d="m169.8 330.7h26.1v7.8h-17.6v7.2h16.6v7.8h-16.6v7.8h18.6v7.8h-27z" fill="#fff"/><path d="m213.1 349.1-12.7-18.3h10.6l8.2 13.4 7.9-13.4h10.2l-12.4 18.2 13.9 20.2h-10.6l-9.4-15.5-9.1 15.5h-10z" fill="#fff"/></svg>