<svg height=".59836in" viewBox="0 0 126.79491 43.082" width="1.76104in" xmlns="http://www.w3.org/2000/svg"><path d="m55.36039 45.43461h115.42961v42.957h-104.02731v-4.168h4.4258s2.5683.5899 1.72851-2.2715-1.58011-5.2324-1.58011-5.2324h-13.4238l-1.875 5.3321s-1.086 2.1211 1.1348 2.1211h4.9843v4.3437h-18.1621v-4.1953h3.207s1.9747.1953 2.71491-1.2344a16.94863 16.94863 0 0 0 1.18359-3.3066l9.4785-27.1895a4.20484 4.20484 0 0 0 .2461-2.2695c-.2949-.8906-1.9746-.4961-1.9746-.4961h-3.4531zm18.8632 6.23239s4.8125 17.25 5.4375 19.56251 1.875 8.25 3.625 10.875a4.60588 4.60588 0 0 0 4.375 2.18749h77.125c1.6875 0 1.3125-1.31249 1.3125-1.31249v-31.93751a1.0105 1.0105 0 0 0 -1.125-1.125h-89.625c-1.9375 0-1.125 1.75-1.125 1.75zm20.375 3.81251h-9.6875v3.125h1.6875s.9375-.18751.9375.68749v14.375s.1875.56251-.8125.56251h-1.6875v3.5h14.625v-6.625h-3.375v2.25a.57863.57863 0 0 1 -.625.75h-3.1875s-.5625.18749-.5625-.93751v-13.75a.99387.99387 0 0 1 1-.93749h1.6875zm6.375.125v3.375h1.875a.83054.83054 0 0 1 .6875.93749v13.43751s.3125.81249-.8125.81249h-1.625v3.5h7.8125v-3.56249h-1.0625s-.6875.125-.6875-.93751v-7.56249l5.1875 9.625s.5 1 .875 1 .8125-1.06251.8125-1.06251l5.0625-9.56249v7.75s.25.68749-.5625.68749h-1.0625v3.625h7.8125v-3.5h-1.75s-.75.25-.75-1v-13.18749a.91818.91818 0 0 1 .9375-.93751h1.625v-3.5h-5.5625s-1.2695-.166-1.6875.81251c-.5058 1.1836-4.3125 8.375-4.3125 8.375s-.4375 1.18749-1.25-.125-4.1875-8.125-4.1875-8.125a1.90714 1.90714 0 0 0 -1.625-1h-5.625zm25.5 3.375h1.9375c.9375 0 .8125.81249.8125.81249v13.25c0 1.125-.875 1-.875 1h-1.8125v3.68751h15.625v-6.75h-3.5v2.43749a.71286.71286 0 0 1 -.4375.75h-4.125c-1 0-.875-.75-.875-.75v-5.31249a.62658.62658 0 0 1 .6875-.68751h5.25v-3.25h-5.125a.77378.77378 0 0 1 -.8125-.68749v-3.5c0-1 .4375-.93751.4375-.93751h4.0625c1.25 0 .9375.75.9375.75v2.125h3.5625v-6.375h-15.6875zm27.125-3.43751h-10.125v3h1.625a1.9058 1.9058 0 0 1 1.5.56251c.4375.625 4.3125 6.25 4.3125 6.25a2.546 2.546 0 0 1 -.0625 2.375c-.6875 1.31249-3.8125 5.75-3.8125 5.75s-.9375 1.18749-1.875 1.18749h-1.625v3.125h9.6875v-3.31249h-1.125s-1.0625.125-.4375-.81251 1.8125-3 1.8125-3a.67207.67207 0 0 1 1.0625.125c.4375.68751 1.6875 2.875 1.6875 2.875s.5625.875-.375.875h-1.25v3.31251h9.75v-3.18751h-1.5s-.9375.31251-1.9375-1-4-6.125-4-6.125a2.18265 2.18265 0 0 1 .1875-2.18749c.75-1.25 4.0625-6.06251 4.0625-6.06251a3.23254 3.23254 0 0 1 1.75-.75h1.5v-3h-10.125v2.93751h1.4375s1.0625.06249.4375.93749a27.63661 27.63661 0 0 0 -1.625 3s-.5 1.18751-1.25-.125-1.5625-2.75-1.5625-2.75-.5-1 .25-1h1.6875zm-83.97259 14.76761-3.53521-12.1328s-.9629-2.0899-1.6875 0-4.3398 12.2148-4.3398 12.2148-.8867 1.5273.8828 1.5273h7.7148s1.6075-.00191.96491-1.6093z" fill="#3b6e8f" transform="translate(-43.99509 -45.43461)"/></svg>