<svg height="3.11857in" viewBox="0 0 261.57619 224.53709" width="3.633in" xmlns="http://www.w3.org/2000/svg" xmlns:xlink="http://www.w3.org/1999/xlink"><clipPath id="a" transform="translate(-190.10539 -286.58696)"><path d="m177.53509 281.34276h270.78909v197.7149h-270.78909z"/></clipPath><linearGradient id="b" gradientUnits="userSpaceOnUse" x1="319.29534" x2="317.1799" y1="381.50488" y2="362.46961"><stop offset="0" stop-color="#3b6e8f"/><stop offset="1" stop-color="#000018"/></linearGradient><linearGradient id="c" gradientUnits="userSpaceOnUse" x1="40.7305" x2="0" y1="163.1426" y2="163.1426"><stop offset="0" stop-color="#fff"/><stop offset=".13859" stop-color="#dcdcdd"/><stop offset=".30562" stop-color="#b9b9bb"/><stop offset=".47537" stop-color="#9e9ea0"/><stop offset=".64662" stop-color="#8a8a8d"/><stop offset=".82027" stop-color="#7f7f82"/><stop offset="1" stop-color="#7b7b7e"/></linearGradient><linearGradient id="d" x1="221.5664" x2="261.57619" xlink:href="#c" y1="163.1582" y2="163.1582"/><g clip-path="url(#a)"><path d="m417.18158 411.42485a96.8091 96.8091 0 1 1 -96.8086-96.81061 96.81 96.81 0 0 1 96.8086 96.81061z" fill="#00334e" transform="translate(-190.10539 -286.58696)"/><path d="m320.00188 511.12405a99.77541 99.77541 0 1 1 99.7676-99.7754 99.8937 99.8937 0 0 1 -99.7676 99.7754zm0-193.73439a93.95419 93.95419 0 1 0 66.4297 27.52149 93.364 93.364 0 0 0 -66.4297-27.52149z" fill="#00334e" transform="translate(-190.10539 -286.58696)"/><path d="m222.38379 411.35065a97.6191 97.6191 0 0 1 97.61809-97.61719 97.62053 97.62053 0 0 1 97.6074 97.61719 97.62139 97.62139 0 0 1 -97.6074 97.6152 97.62 97.62 0 0 1 -97.61809-97.6152zm29.6523-67.9668a95.82044 95.82044 0 0 0 -28.1523 67.9668 95.80675 95.80675 0 0 0 28.1523 67.9609 95.79984 95.79984 0 0 0 67.96579 28.1504 95.78862 95.78862 0 0 0 67.9531-28.1504 95.78845 95.78845 0 0 0 28.1504-67.9609 95.80214 95.80214 0 0 0 -28.1504-67.9668 95.80481 95.80481 0 0 0 -67.9531-28.15039 95.816 95.816 0 0 0 -67.96579 28.15039z" fill="#fff" transform="translate(-190.10539 -286.58696)"/><g fill="#d5dee9" opacity=".12"><path d="m225.01459 411.34865a95.089 95.089 0 0 1 94.98341-94.98629 95.09427 95.09427 0 0 1 94.9844 94.98629 95.09929 95.09929 0 0 1 -94.9844 94.98635v-2a92.69431 92.69431 0 0 0 65.7149-27.2636 92.7044 92.7044 0 0 0 27.2656-65.7227 92.69617 92.69617 0 0 0 -27.2656-65.7207 92.67519 92.67519 0 0 0 -65.7149-27.26949 92.67 92.67 0 0 0 -65.71781 27.26949 92.694 92.694 0 0 0 -27.2636 65.7207 92.70225 92.70225 0 0 0 27.2636 65.7227 92.68915 92.68915 0 0 0 65.71781 27.2636v2a95.09406 95.09406 0 0 1 -94.98339-94.9863z" transform="translate(-190.10539 -286.58696)"/><path d="m227.89349 411.34675a92.2104 92.2104 0 0 1 92.10451-92.10939 92.21358 92.21358 0 0 1 92.1016 92.10939 92.21685 92.21685 0 0 1 -92.1016 92.11325v-2.0039a89.826 89.826 0 0 0 63.6817-26.42381 89.82788 89.82788 0 0 0 26.4179-63.68549 89.83014 89.83014 0 0 0 -26.4179-63.6836 89.8178 89.8178 0 0 0 -63.6817-26.42391 89.80105 89.80105 0 0 0 -63.68259 26.42391 89.81563 89.81563 0 0 0 -26.4199 63.6836 89.81337 89.81337 0 0 0 26.4199 63.68549 89.80921 89.80921 0 0 0 63.68259 26.42376v2.00395a92.21367 92.21367 0 0 1 -92.10449-92.1132z" transform="translate(-190.10539 -286.58696)"/><path d="m230.76849 411.35065a89.33261 89.33261 0 0 1 89.22951-89.23249 89.33029 89.33029 0 0 1 89.2246 89.23249 89.329 89.329 0 0 1 -89.2246 89.2265v-2.00391a86.94462 86.94462 0 0 0 61.6445-25.57809 86.928 86.928 0 0 0 25.5762-61.6445 86.95219 86.95219 0 0 0 -25.5762-61.6563 86.95751 86.95751 0 0 0 -61.6445-25.57419 86.96743 86.96743 0 0 0 -61.64939 25.57419 86.969 86.969 0 0 0 -25.5781 61.6563 86.938 86.938 0 0 0 25.5781 61.6445 86.95453 86.95453 0 0 0 61.64939 25.57809v2.00391a89.33135 89.33135 0 0 1 -89.22949-89.2265z" transform="translate(-190.10539 -286.58696)"/><path d="m233.64549 411.35255a86.4585 86.4585 0 0 1 86.35251-86.35739 86.45327 86.45327 0 0 1 86.3457 86.35739 86.44666 86.44666 0 0 1 -86.3457 86.3438v-2.002a84.07953 84.07953 0 0 0 59.6113-24.7324 84.07775 84.07775 0 0 0 24.7286-59.6094 84.1131 84.1131 0 0 0 -24.7286-59.623 84.07791 84.07791 0 0 0 -59.6113-24.73049 84.0796 84.0796 0 0 0 -59.61419 24.73049 84.08742 84.08742 0 0 0 -24.7364 59.623 84.05209 84.05209 0 0 0 24.7364 59.6094 84.08122 84.08122 0 0 0 59.61419 24.7324v2.002a86.4519 86.4519 0 0 1 -86.35249-86.3438z" transform="translate(-190.10539 -286.58696)"/><path d="m236.52829 411.35065a83.56269 83.56269 0 0 1 83.47359-83.47065 83.55837 83.55837 0 0 1 83.459 83.47069 83.55842 83.55842 0 0 1 -83.459 83.4648v-2a81.19292 81.19292 0 0 0 57.5703-23.8867 81.20146 81.20146 0 0 0 23.8848-57.5781 81.19679 81.19679 0 0 0 -23.8848-57.5821 81.193 81.193 0 0 0 -57.5703-23.88669 81.20613 81.20613 0 0 0 -57.581 23.88669 81.19566 81.19566 0 0 0 -23.8926 57.5821 81.20034 81.20034 0 0 0 23.8926 57.5781 81.20609 81.20609 0 0 0 57.581 23.8867v2a83.56273 83.56273 0 0 1 -83.47359-83.4648z" transform="translate(-190.10539 -286.58696)"/><path d="m239.40909 411.35065a80.67916 80.67916 0 0 1 80.59279-80.58989 80.67592 80.67592 0 0 1 80.57812 80.58989 80.67833 80.67833 0 0 1 -80.5781 80.5839v-2.0058a78.34248 78.34248 0 0 0 55.5352-23.0352 78.3614 78.3614 0 0 0 23.0371-55.5429 78.36022 78.36022 0 0 0 -23.0371-55.5469 78.32509 78.32509 0 0 0 -55.5352-23.043 78.33826 78.33826 0 0 0 -55.54589 23.043 78.34416 78.34416 0 0 0 -23.0469 55.5469 78.34534 78.34534 0 0 0 23.0469 55.5429 78.35566 78.35566 0 0 0 55.54589 23.0352v2.0058a80.68158 80.68158 0 0 1 -80.59279-80.5839z" transform="translate(-190.10539 -286.58696)"/><path d="m242.29 411.34865a77.78875 77.78875 0 0 1 77.708-77.70509 77.784 77.784 0 0 1 77.6973 77.70509 77.78065 77.78065 0 0 1 -77.6973 77.7012v-2a75.43865 75.43865 0 0 0 53.5-22.1992 75.44749 75.44749 0 0 0 22.1973-53.502 75.47135 75.47135 0 0 0 -22.1973-53.5078 75.4449 75.4449 0 0 0 -53.5-22.19729 75.45929 75.45929 0 0 0 -53.50679 22.19729 75.46641 75.46641 0 0 0 -22.2012 53.5078 75.44255 75.44255 0 0 0 22.2012 53.502 75.453 75.453 0 0 0 53.50679 22.1992v2a77.78543 77.78543 0 0 1 -77.708-77.7012z" transform="translate(-190.10539 -286.58696)"/><path d="m245.16889 411.35065a74.91092 74.91092 0 0 1 74.82911-74.82619 74.90152 74.90152 0 0 1 74.8145 74.82619 74.89572 74.89572 0 0 1 -74.8145 74.8164v-2a72.57745 72.57745 0 0 0 51.4629-21.3516 72.59506 72.59506 0 0 0 21.3516-51.4648 72.608 72.608 0 0 0 -21.3516-51.4747 72.57777 72.57777 0 0 0 -51.4629-21.35149 72.583 72.583 0 0 0 -51.47171 21.35154 72.60467 72.60467 0 0 0 -21.3574 51.4747 72.59177 72.59177 0 0 0 21.3574 51.4648 72.58263 72.58263 0 0 0 51.47169 21.3516v2a74.90512 74.90512 0 0 1 -74.82909-74.8164z" transform="translate(-190.10539 -286.58696)"/><path d="m248.05169 411.35065a72.02773 72.02773 0 0 1 71.94631-71.94929 72.023 72.023 0 0 1 71.9356 71.94929 72.01674 72.01674 0 0 1 -71.9356 71.9375v-2a69.71743 69.71743 0 0 0 49.4297-20.50791 69.75059 69.75059 0 0 0 20.5078-49.42959 69.76553 69.76553 0 0 0 -20.5078-49.4375 69.72082 69.72082 0 0 0 -49.4297-20.5118 69.72483 69.72483 0 0 0 -49.43649 20.5118 69.72853 69.72853 0 0 0 -20.5117 49.4375 69.7136 69.7136 0 0 0 20.5117 49.42959 69.72145 69.72145 0 0 0 49.43649 20.50791v2a72.02151 72.02151 0 0 1 -71.94629-71.9375z" transform="translate(-190.10539 -286.58696)"/><path d="m250.92669 411.35065a69.14733 69.14733 0 0 1 69.07131-69.06641 69.14255 69.14255 0 0 1 69.0606 69.06641 69.138 69.138 0 0 1 -69.0606 69.05659v-1.998a66.85762 66.85762 0 0 0 47.3945-19.66409 66.84365 66.84365 0 0 0 19.6641-47.3945 66.86074 66.86074 0 0 0 -19.6641-47.40041 66.8444 66.8444 0 0 0 -47.3945-19.668 66.84529 66.84529 0 0 0 -47.40139 19.668 66.84822 66.84822 0 0 0 -19.6679 47.40041 66.83113 66.83113 0 0 0 19.6679 47.3945 66.85851 66.85851 0 0 0 47.40139 19.66409v1.998a69.14279 69.14279 0 0 1 -69.07129-69.05659z" transform="translate(-190.10539 -286.58696)"/><path d="m253.80369 411.35065a66.26238 66.26238 0 0 1 66.19429-66.1875 66.25983 66.25983 0 0 1 66.1817 66.1875 66.26034 66.26034 0 0 1 -66.1817 66.18359v-2.004a64.338 64.338 0 0 0 64.1797-64.17959 64.33807 64.33807 0 0 0 -64.1797-64.1856 64.342 64.342 0 0 0 -64.19239 64.1856 64.342 64.342 0 0 0 64.19241 64.17959v2.004a66.26289 66.26289 0 0 1 -66.19429-66.18359z" transform="translate(-190.10539 -286.58696)"/></g><path d="m381.82028 411.35065a61.82275 61.82275 0 1 1 -61.8184-61.8282 61.823 61.823 0 0 1 61.8184 61.8282z" fill="#fff" transform="translate(-190.10539 -286.58696)"/><path d="m257.92479 411.34865a62.07906 62.07906 0 0 1 62.07709-62.0771 62.07452 62.07452 0 0 1 62.0645 62.0771 62.07439 62.07439 0 0 1 -62.0645 62.0762 62.07894 62.07894 0 0 1 -62.07709-62.0762zm.499 0a61.64877 61.64877 0 0 0 61.57809 61.5723 61.64985 61.64985 0 0 0 61.5684-61.5723 61.65833 61.65833 0 0 0 -61.5684-61.5771 61.65724 61.65724 0 0 0 -61.57809 61.5771z" fill="#231f20" transform="translate(-190.10539 -286.58696)"/><path d="m320.00188 471.01665a59.669 59.669 0 1 1 59.6582-59.666 59.7366 59.7366 0 0 1 -59.6582 59.666z" fill="#e9eaeb" transform="translate(-190.10539 -286.58696)"/><path d="m260.07809 411.35065a59.98912 59.98912 0 0 1 59.92191-59.9219 59.98126 59.98126 0 0 1 59.9082 59.9219 59.98817 59.98817 0 0 1 -59.9082 59.916v-.5039a59.55191 59.55191 0 0 0 59.4082-59.4121 59.55514 59.55514 0 0 0 -59.4082-59.4219 59.55836 59.55836 0 0 0 -59.418 59.4219 59.55513 59.55513 0 0 0 59.418 59.4121v.5039a59.996 59.996 0 0 1 -59.92189-59.916z" fill="#231f20" transform="translate(-190.10539 -286.58696)"/></g><path d="m261.79679 349.63085 8.7676 4.0879-.1064.23049.1064-.23049.3408.1602-5.7744 5.3105zm3.5557 8.6778 4.6621-4.291-7.3603-3.4317z" fill="#231f20" transform="translate(-190.10539 -286.58696)"/><g fill="#d7d7d9"><path d="m127.357 30.191v3.864h2.055v-3.864-9.779h-2.055z"/><path d="m127.357 30.191v3.864h2.055v-3.864-9.779h-2.055z" opacity=".66"/><path d="m129.42 34.055h2.051v-3.854-9.789h-2.051v9.785z"/><path d="m129.42 34.055h2.051v-3.854-9.789h-2.051v9.785z" opacity=".66"/><path d="m129.412 34.055h.008v-3.858-9.785h-.008v9.779z"/><path d="m129.412 34.055h.008v-3.858-9.785h-.008v9.779z" opacity=".66"/><path d="m129.412 34.055h.008v-3.858-9.785h-.008v9.779z" opacity=".66"/><path d="m319.51748 429.74124v-15.875h-2.05069v15.87891h2.05859c-.0059 0-.0059-.00391-.0079-.00391z" transform="translate(-190.10539 -286.58696)"/><path d="m319.51748 429.74124v-15.875h-2.05069v15.87891h2.05859c-.0059 0-.0059-.00391-.0079-.00391z" opacity=".66" transform="translate(-190.10539 -286.58696)"/><path d="m129.41999 127.28319h2.04681v15.875h-2.04681z"/><path d="m129.41999 127.28319h2.04681v15.875h-2.04681z" opacity=".66"/><g transform="translate(-190.10539 -286.58696)"><path d="m319.52538 413.86624c-.0059 0-.0059 0-.0079-.00389v.00389z"/><path d="m319.52538 413.86624c-.0059 0-.0059 0-.0079-.00389v.00389z" opacity=".66"/><path d="m319.52538 429.74515v-15.87891h-.0079v15.875a.00861.00861 0 0 0 .0079.00391z"/><path d="m319.52538 429.74515v-15.87891h-.0079v15.875a.00861.00861 0 0 0 .0079.00391z" opacity=".66"/><path d="m319.52538 429.74515v-15.87891h-.0079v15.875a.00861.00861 0 0 0 .0079.00391z" opacity=".66"/></g><path d="m129.412 34.055h-2.055v4.519h2.063l-.008-.002z"/><path d="m129.412 34.055h-2.055v4.519h2.063l-.008-.002z" opacity=".66"/><path d="m129.412 34.055h-2.055v4.519h2.063l-.008-.002z" opacity=".66"/><path d="m129.42 34.0547h2.0507v4.5195h-2.0507z"/><path d="m129.42 34.0547h2.0507v4.5195h-2.0507z" opacity=".66"/><path d="m129.42 34.0547h2.0507v4.5195h-2.0507z" opacity=".66"/><path d="m129.41204 34.0547h.00801v4.51854h-.00801z"/><path d="m129.41204 34.0547h.00801v4.51854h-.00801z" opacity=".66"/><path d="m129.41204 34.0547h.00801v4.51854h-.00801z" opacity=".66"/><path d="m129.41204 34.0547h.00801v4.51854h-.00801z" opacity=".66"/><path d="m129.41204 34.0547h.00801v4.51854h-.00801z" opacity=".66"/><path d="m129.414 121.002-2.049.008v6.265h2.047v-6.273z"/><path d="m129.414 121.002-2.049.008v6.265h2.047v-6.273z" opacity=".66"/><path d="m129.414 121.002-2.049.008v6.265h2.047v-6.273z" opacity=".66"/><path d="m131.467 127.279v-6.281l-2.047.004v6.273z"/><path d="m131.467 127.279v-6.281l-2.047.004v6.273z" opacity=".66"/><path d="m131.467 127.279v-6.281l-2.047.004v6.273z" opacity=".66"/><path d="m129.42 121.002h-.006z"/><path d="m129.42 121.002h-.006z" opacity=".66"/><path d="m129.42 121.002h-.006z" opacity=".66"/><path d="m319.52538 413.86235h-.0079c.002.00389.002.00389.0079.00389z" transform="translate(-190.10539 -286.58696)"/><path d="m319.52538 413.86235h-.0079c.002.00389.002.00389.0079.00389z" opacity=".66" transform="translate(-190.10539 -286.58696)"/><path d="m319.52538 413.86235h-.0079c.002.00389.002.00389.0079.00389z" opacity=".66" transform="translate(-190.10539 -286.58696)"/><path d="m129.42 121.002h-.006l-.002 6.273h.008z"/><path d="m129.42 121.002h-.006l-.002 6.273h.008z" opacity=".66"/><path d="m129.42 121.002h-.006l-.002 6.273h.008z" opacity=".66"/><path d="m129.42 121.002h-.006l-.002 6.273h.008z" opacity=".66"/><path d="m129.42 121.002h-.006l-.002 6.273h.008z" opacity=".66"/><path d="m319.54679 446.39745-.80461-.3281-1.1622-.4726a96.5362 96.5362 0 0 1 -14.1953-8.52351 144.07476 144.07476 0 0 1 -41.789-45.89059 137.71327 137.71327 0 0 1 -6.4082-12.668 131.53384 131.53384 0 0 1 -5.60748-15.09565c-9.1455-30.16009-4.4531-52.67971-4.2519-53.625l.3506-1.6719.2715-1.29682 1.2968-.28708 1.6827-.3692 69.52529-19.3555.5645-.1269.44531-.0996.44139.0996.5703.1269 68.8184 19.3555 1.75391.3848 1.35739.3008.22661 1.3711.291 1.7695c.16209.9336 3.791 23.3047-4.36521 52.39059a142.8181 142.8181 0 0 1 -5.2774 15.375 140.7304 140.7304 0 0 1 -6.18939 13.1406 132.75419 132.75419 0 0 1 -41.46881 46.3672 94.36656 94.36656 0 0 1 -14.1758 8.2852l-1.0996.4883-.80079.3554z" transform="translate(-190.10539 -286.58696)"/></g><path d="m319.51358 444.171-1.164-.47271a96.77169 96.77169 0 0 1 -13.7813-8.29689 142.02749 142.02749 0 0 1 -41.19329-45.2382 134.74513 134.74513 0 0 1 -6.3106-12.4766 129.71582 129.71582 0 0 1 -5.5166-14.8594c-8.9131-29.37891-4.4131-51.66791-4.2178-52.59959l.3536-1.6836 1.6826-.3711 69.52439-19.3574.57421-.125.57029.125 68.8184 19.3594 1.7558.3867.293 1.7695c.1582.918 3.709 22.8574-4.3223 51.50589a139.20829 139.20829 0 0 1 -5.205 15.1504 136.9414 136.9414 0 0 1 -6.0977 12.9492 130.66 130.66 0 0 1 -40.8144 45.6484 94.77693 94.77693 0 0 1 -13.8477 8.0977z" fill="#00334e" transform="translate(-190.10539 -286.58696)"/><path d="m388.27928 310.85456-68.81449-19.3555-69.5244 19.3555s-4.6563 22.2148 4.1602 51.28119a127.38555 127.38555 0 0 0 5.4042 14.5586 130.024 130.024 0 0 0 6.1856 12.2227 139.34725 139.34725 0 0 0 40.41309 44.3867 94.91083 94.91083 0 0 0 13.36131 8.0586s.03519-.0196.06249-.0313h.0059a90.5633 90.5633 0 0 0 13.4257-7.8554 128.13657 128.13657 0 0 0 39.9747-44.7149 134.46 134.46 0 0 0 5.9804-12.6992 137.468 137.468 0 0 0 5.1055-14.8594c7.9609-28.40815 4.2598-50.34759 4.2598-50.34759z" fill="#c5c5c8" transform="translate(-190.10539 -286.58696)"/><path d="m129.42 34.008h.006v-3.858-9.787h-.006v9.783z" fill="#dbdbdc" opacity=".66"/><path d="m319.52538 413.81545v15.88279h.0058v-15.875z" fill="#dbdbdc" opacity=".66" transform="translate(-190.10539 -286.58696)"/><path d="m365.03508 330.68456c-.1738 3.1231-.5156 6.67-1.0898 10.51368l11.4082 11.41021a123.85736 123.85736 0 0 0 3.07031-32.60349l-58.81061-16.72472 30.51182 24.09776z" fill="#fff" transform="translate(-190.10539 -286.58696)"/><path d="m272.82319 330.82136 16.20609-3.5547 30.8027-24.4258-60.19529 17.23438a109.68576 109.68576 0 0 0 3.0889 33.49411l11.2841-11.28511a100.18322 100.18322 0 0 1 -1.1865-11.46288z" fill="#fff" transform="translate(-190.10539 -286.58696)"/><path d="m286.53409 377.41315c-.1201-.2032-.2324-.42191-.3525-.63291l-13.3877-13.32024-5.2217 5.2227c.5508 1.3867 1.1182 2.76559 1.7198 4.123a120.07624 120.07624 0 0 0 5.6865 11.2364 128.54313 128.54313 0 0 0 31.123 36.3203v-17.7539a115.03487 115.03487 0 0 1 -19.5674-25.19535z" fill="#fff" transform="translate(-190.10539 -286.58696)"/><path d="m351.25579 378.90524a103.783 103.783 0 0 1 -18.30079 24.06651v17.7187a117.36259 117.36259 0 0 0 30.6289-36.53121 127.02528 127.02528 0 0 0 5.5118-11.709c.5976-1.45709 1.1582-2.94529 1.707-4.43559l-4.2852-4.2871z" fill="#fff" transform="translate(-190.10539 -286.58696)"/><path d="m272.82319 330.82136a100.18322 100.18322 0 0 0 1.1865 11.46288l15.01959-15.01758z" fill="#dbdbdc" opacity=".66" transform="translate(-190.10539 -286.58696)"/><path d="m286.18159 376.78024c.1201.211.2324.42971.3525.63291a115.03487 115.03487 0 0 0 19.56739 25.1953v-6.0157z" fill="#dbdbdc" opacity=".66" transform="translate(-190.10539 -286.58696)"/><path d="m142.85 88.707 22.496-22.629-22.496-22.504z" fill="#dbdbdc" opacity=".66"/><path d="m350.125 327.378 13.8203 13.82028c.5742-3.84368.916-7.39058 1.0898-10.51368z" fill="#dbdbdc" opacity=".66" transform="translate(-190.10539 -286.58696)"/><path d="m332.955 402.97175a103.783 103.783 0 0 0 18.30081-24.06651l-18.30081 18.211z" fill="#dbdbdc" opacity=".66" transform="translate(-190.10539 -286.58696)"/><path d="m115.996 88.178v-44.608l-22.242 22.24z" fill="#dbdbdc" opacity=".66"/><path d="m319.52538 320.59476v93.22069l.0058.00779v-93.22848z" fill="#dbdbdc" opacity=".66" transform="translate(-190.10539 -286.58696)"/><path d="m319.52538 320.59476v93.22069l.0058.00779v-93.22848z" fill="#dbdbdc" opacity=".66" transform="translate(-190.10539 -286.58696)"/><path d="m306.50188 309.79206-17.4726 17.4746-16.20609 3.5547a100.18322 100.18322 0 0 0 1.1865 11.46288l-11.2841 11.28511-8.629 8.62889a126.7768 126.7768 0 0 0 5.4043 14.55861l8.0713-8.0742 5.2217-5.2227 13.3877 13.32029c.1201.211.2324.42971.3525.63291a115.03487 115.03487 0 0 0 19.56739 25.1953v30.7539a94.83564 94.83564 0 0 0 13.3555 8.0586s.0352-.01571.0684-.0274v-144.625z" fill="#00334e" transform="translate(-190.10539 -286.58696)"/><path d="m375.35348 352.60845-11.4082-11.41021c.5742-3.84368.916-7.39058 1.0898-10.51368l-14.91008-3.30656-17.5254-17.5293-13.0684-13.06842v144.61327a91.35947 91.35947 0 0 0 13.4238-7.8554v-30.5664a103.783 103.783 0 0 0 18.30081-24.06651l15.26169-15.17769 4.2852 4.2871 8.1094 8.1094a136.73427 136.73427 0 0 0 5.1015-14.8613z" fill="#a1a1a4" transform="translate(-190.10539 -286.58696)"/><path d="m319.29488 325.05956-.1094-.0234-41.28419 9.0566a89.40329 89.40329 0 0 0 3.7754 21.93559 91.5563 91.5563 0 0 0 3.875 10.4434 94.89781 94.89781 0 0 0 4.48149 8.8574 101.93266 101.93266 0 0 0 29.2617 32.2558c.0234.0235.0586.043.08591.0664a91.97171 91.97171 0 0 0 28.43749-31.9218 99.28736 99.28736 0 0 0 8.0821-20.1016 101.61288 101.61288 0 0 0 3.5976-21.65619z" fill="#ceced0" transform="translate(-190.10539 -286.58696)"/><path d="m307.80268 366.37405c-1.6367 4.9258-3.8945 11.7461-3.8945 11.7461h-5.2813v2.0156h13.0274v-2.0156h-4.73049l3.99609-12.2578zm23.8086 1.74219c1.5586 4.957 3.1484 10.00391 3.1484 10.00391h4.6758v2.0156h-16.8281v-2.0156h5.0547l-4.6524-14.5117-.2734-.9375a65.81963 65.81963 0 0 0 6.2617-2.84571c.4961 1.56251 1.4336 4.53321 2.4063 7.64061z" fill="url(#b)" transform="translate(-190.10539 -286.58696)"/><path d="m338.81248 344.65924h.0019a28.71133 28.71133 0 0 0 -19.9961-11.77538s-3 9.03319-5.60149 16.87689a59.70088 59.70088 0 0 0 -12.54111 6.18949c-3.2871 2.26361-5.6621 4.72261-5.6972 6.65821a2.47846 2.47846 0 0 0 .1211.75779c.6718 1.834 3.625 2.24221 7.3047 2.25781a38.33948 38.33948 0 0 0 5.7031-.4805l2-.3379a74.15644 74.15644 0 0 0 9.8183-2.5996c.95711-.3222 1.8887-.6601 2.8028-1.00781 1.7226-.58009 5.9922-2.57419 5.9922-2.57419a49.45945 49.45945 0 0 0 5.5097-3.0879c.5098-.334.9825-.668 1.4297-1.00191a51.35994 51.35994 0 0 1 1.22071 5.16991l.47849-.4922a43.13929 43.13929 0 0 0 -1.22849-5.0293c2.05279-1.5801 3.40429-3.10941 3.80469-4.5352a26.70078 26.70078 0 0 1 1.8379 6.4414c.0039 2.9082-3.541 6.8438-9.291 10.4141l.1211.707c4.834-2.9629 8.2402-6.1562 9.4062-9.09571.0528.69531.08011 1.39651.08011 2.09961a26.93854 26.93854 0 0 1 -1.65231 9.31839l.3828.72071.207-.502a33.1029 33.1029 0 0 0 2.3066-10.4062 24.5124 24.5124 0 0 0 -4.5214-14.68551zm-2.1426-.58009a48.24209 48.24209 0 0 0 -5.0235.3164 40.16579 40.16579 0 0 0 -2.72259-3.88869l-.48831-.59962c-.67769-.80468-1.4101-1.54688-2.1445-2.28418 1.8262.336 3.5469.7461 5.1816 1.2031.3145.2422.6465.4629.95121.7178l.69139.6016a27.12822 27.12822 0 0 1 3.5547 3.93359zm-13.3555-2.6778-.1875-.60349-1.207-3.8203q1.71975.205 3.3574.4805c.8438.8086 1.6641 1.6474 2.43951 2.5429l.47649.57228a39.00436 39.00436 0 0 1 2.80672 3.89061c-2.0254.2422-4.16019.61139-6.375 1.0977zm6.7617-3.60839q-2.16493-.5376-4.5254-.9404a36.309 36.309 0 0 0 -2.9628-2.541 26.7337 26.7337 0 0 1 7.4882 3.48144zm-9.0976-3.88572.11131.08012a35.74144 35.74144 0 0 1 3.36909 2.6924c-.9003-.1397-1.8144-.2637-2.75-.3721l-.7597-2.4082a.21487.21487 0 0 1 .0293.00778zm-3.5469 11.37791 3.8867 12.2979c-.5117.1836-.6504.2285-1.1797.4043a65.302 65.302 0 0 1 -7.625 2.21289c.71-2.18169 4.0137-12.17779 4.918-14.91509zm16.45121 9.7256c-3.52151 2.3242-8.55671 4.2442-14.23441 6.1524a53.03751 53.03751 0 0 1 -16.7363 3.0664c-3.6309.0175-5.8907-.375-6.2754-1.6778a1.65131 1.65131 0 0 1 -.08989-.5547c-.03321-1.46281 1.23639-3.3281 4.48249-5.5253a58.39252 58.39252 0 0 1 11.9296-5.94151c-.2929.88481-.582 1.74611-.8574 2.57621a51.43145 51.43145 0 0 0 -7.5254 3.7559c-2.0664 1.33589-3.3437 2.4453-3.3945 3.5644a1.13259 1.13259 0 0 0 .0547.35749c.3769.93161 1.5957 1.15421 3.3476 1.17771 3.4668-.0039 9.3204-1.207 15.754-3.375 2.4726-.832 4.7812-1.7266 6.8554-2.6309l.6367-.2324-2.0429-6.4766-.1914-.6054-.75589-2.3975a65.46973 65.46973 0 0 1 6.57619-1.1094c.2851.4649.5957.9092.8633 1.3897l.3007.5664a40.3482 40.3482 0 0 1 2.88681 6.8086c-.48831.3711-1.01571.7383-1.584 1.1113zm-22.04491-1.1113c-1.1133 3.3515-1.9942 6.00979-2.2872 6.8926a28.8643 28.8643 0 0 1 -4.9668.5351c-1.7109.0254-2.6875-.375-2.748-.7441a.56758.56758 0 0 1 -.0254-.1563c-.05469-.5449 1.0625-1.76951 3.1016-3.0293a49.30689 49.30689 0 0 1 6.9258-3.498zm24.0937-.3594a41.48235 41.48235 0 0 0 -2.7891-6.6074l-.30069-.5723c-.24611-.4453-.52741-.8594-.78711-1.2929 1.6367-.167 3.2167-.2793 4.66011-.2793.17769 0 .34179.0097.51559.0117.0528.0742.1153.1386.166.2129l.4903.7461a26.12751 26.12751 0 0 1 1.4746 2.6328 1.75292 1.75292 0 0 1 .0664.4551c.02932 1.207-1.2344 2.9003-3.4961 4.6933z" fill="#3b6e8f" transform="translate(-190.10539 -286.58696)"/><path d="m40.73 139.76h-40.73l12.877 23.148-12.417 23.617h39.09" fill="url(#c)"/><path d="m23.322 143.49 17.408-3.73 1.523 7.308z" fill="#7b7b7e"/><path d="m221.566 139.775h40.01l-12.877 23.149 12.418 23.617h-39.09" fill="url(#d)"/><path d="m238.947 143.502-17.406-3.733-1.523 7.311z" fill="#7b7b7e"/><path d="m23.3223 143.4902h215.69919v51.418h-215.69919z" fill="#3b6e8f"/><g transform="translate(-190.10539 -286.58696)"><path d="m247.17769 439.003h6.4893l15.4765 35.627h-8.8447l-3.0703-7.545h-13.8223l-2.9687 7.545h-8.6436zm3.0117 10.3574-4.3213 11.0781h8.7002z" fill="#00334e"/><path d="m273.01559 439.003h7.8476v28.3848h14.54789v7.2422h-22.39549z" fill="#00334e"/><path d="m299.73428 439.003h11.8623l8.20221 23.248h.09759l8.2422-23.248h11.81842v35.627h-7.8418v-27.334h-.1016l-9.3476 27.334h-5.9883l-8.999-27.334h-.0977v27.334h-7.8467z" fill="#00334e"/><path d="m347.49018 439.003h24.18361v7.23829h-16.33991v6.64451h15.4356v7.25h-15.4356v7.252h17.24812v7.2422h-25.0918z" fill="#00334e"/><path d="m387.70888 456.01275-11.7695-17.0098h9.8535l7.5938 12.4746 7.289-12.4746h9.5l-11.5117 16.8535 12.8692 18.7735h-9.8496l-8.7032-14.3438-8.4453 14.3438h-9.3027z" fill="#00334e"/><path d="m245.88769 437.712h6.4882l15.4766 35.6289h-8.8457l-3.0684-7.5449h-13.8222l-2.9688 7.5449h-8.6445zm3.0117 10.3594-4.3213 11.0761h8.6982z" fill="#fff"/><path d="m271.72459 437.712h7.8486v28.3828h14.54689v7.2461h-22.39549z" fill="#fff"/><path d="m298.44328 437.712h11.8614l8.20111 23.248h.09769l8.2461-23.248h11.81442v35.6289h-7.8418v-27.332h-.1015l-9.3457 27.332h-5.9903l-8.997-27.332h-.0967v27.332h-7.8477z" fill="#fff"/><path d="m346.19718 437.712h24.18561v7.23829h-16.33791v6.64451h15.4336v7.25h-15.4336v7.25h17.24412v7.2461h-25.0918z" fill="#fff"/><path d="m386.41788 454.71975-11.7675-17.0078h9.8535l7.5918 12.4746 7.2929-12.4746h9.4961l-11.5117 16.8574 12.8711 18.7715h-9.8535l-8.7012-14.3457-8.4433 14.3457h-9.3047z" fill="#fff"/><path d="m244.32609 489.16505h2.543v20.959h-2.543z" fill="#b3b3b6"/><path d="m252.80369 489.16505h3.209l12.4121 17.4063h.0605v-17.4063h2.543v20.959h-3.209l-12.4121-17.4063h-.0606v17.4063h-2.5429z" fill="#b3b3b6"/><path d="m286.53119 492.86624a4.48586 4.48586 0 0 0 -3.9053-1.92379c-2.2402 0-4.5712 1.0351-4.5712 3.5214 0 1.9239 1.0898 2.7832 4.5107 3.8496 3.3301 1.0352 6.418 2.1016 6.418 6.2149 0 4.1758-3.66309 6.12889-7.53809 6.12889-2.4824 0-5.1465-.79879-6.5996-2.90229l2.1797-1.7461a5.22553 5.22553 0 0 0 4.5712 2.3398c2.1797 0 4.6622-1.2441 4.6622-3.6426 0-2.5742-1.7862-3.0195-5.6006-4.2617-3.0274-.9766-5.3282-2.2793-5.3282-5.7734 0-4.0254 3.542-6.0371 7.2959-6.0371a7.43042 7.43042 0 0 1 5.99419 2.457z" fill="#b3b3b6"/><path d="m309.39058 491.47565h-7.084v18.6484h-2.543v-18.6484h-7.0839v-2.3106h16.7109z" fill="#b3b3b6"/><path d="m313.60058 489.16505h2.5439v20.959h-2.5439z" fill="#b3b3b6"/><path d="m337.06438 491.47565h-7.0859v18.6484h-2.543v-18.6484h-7.082v-2.3106h16.7109z" fill="#b3b3b6"/><path d="m356.74408 502.13185c0 4.5586-2.1797 8.52539-8.084 8.52539s-8.084-3.96679-8.084-8.52539v-12.9668h2.543v12.6113c0 3.375 1.2734 6.5723 5.541 6.5723s5.541-3.1973 5.541-6.5723v-12.6113h2.543z" fill="#b3b3b6"/><path d="m376.97068 491.47565h-7.086v18.6484h-2.54289v-18.6484h-7.08211v-2.3106h16.711z" fill="#b3b3b6"/><path d="m380.57418 489.16505h13.4707v2.3106h-10.9277v6.5703h10.2011v2.3086h-10.2011v7.4609h11.47461v2.3086h-14.01761z" fill="#b3b3b6"/></g></svg>