<svg clip-rule="evenodd" fill-rule="evenodd" stroke-linejoin="round" stroke-miterlimit="2" viewBox="0 0 2096 597" xmlns="http://www.w3.org/2000/svg"><path d="m0 94.995c-26.19 0-47.498-21.307-47.498-47.498 0-26.19 21.308-47.497 47.498-47.497 11.675 0 22.373 4.242 30.653 11.256.764-.666 1.547-1.31 2.351-1.929-8.858-7.67-20.394-12.327-33.004-12.327-27.844 0-50.498 22.653-50.498 50.497 0 27.845 22.654 50.498 50.498 50.498 12.063 0 23.146-4.257 31.84-11.339-.788-.645-1.553-1.315-2.299-2.006-8.116 6.467-18.381 10.345-29.541 10.345" fill="#f7931d" fill-rule="nonzero" transform="matrix(4.16667 0 0 4.16667 297.445654623 98.434662081)"/><path d="m0 109.037c-30.062 0-54.519-24.457-54.519-54.519 0-30.061 24.457-54.518 54.519-54.518 13.59 0 26.583 5.178 36.486 14.077 4.982-3.234 10.579-5.598 16.585-6.863-13.371-14.934-32.714-23.817-53.071-23.817-39.217 0-71.122 31.905-71.122 71.121 0 39.217 31.905 71.122 71.122 71.122 19.756 0 38.363-8.242 51.635-22.246-5.946-1.441-11.469-3.957-16.355-7.335-9.711 8.242-22.167 12.978-35.28 12.978" fill="#0a7c99" fill-rule="nonzero" transform="matrix(4.16667 0 0 4.16667 296.341070406 69.180472011)"/><path d="m727.98391572 168.43763475h56.05421151v254.40020352h-56.05421151z" fill="#0a7c99" stroke-width="4.16667"/><g fill-rule="nonzero"><path d="m0-29.321c-2.674-3.19-6.555-5.001-11.557-5.001-10.176 0-17.678 8.279-17.678 19.662 0 11.382 7.502 19.661 17.248 19.661 5.432 0 9.831-2.414 12.591-6.553l11.21 8.365c-5.088 7.243-13.711 10.606-22.077 10.606-19.058 0-32.943-12.503-32.943-32.079 0-19.577 13.885-32.08 32.943-32.08 6.813 0 15.437 2.329 20.611 8.968z" fill="#0a7c99" transform="matrix(4.16667 0 0 4.16667 990.47579238 356.719868709)"/><path d="m0-61.056h41.48v12.419h-28.027v11.383h26.475v12.418h-26.475v12.417h29.579v12.419h-43.032z" fill="#0a7c99" transform="matrix(4.16667 0 0 4.16667 1054.15084332 422.8336716)"/><path d="m0-50.707h-20.869v-5.174h47.43v5.174h-20.871v55.881h-5.69z" fill="#f7931d" transform="matrix(4.16667 0 0 4.16667 1343.7927417 401.274487686)"/><path d="m0-61.056h37.34v5.174h-31.65v21.732h29.665v5.174h-29.665v23.8h33.029v5.176h-38.719z" fill="#f7931d" transform="matrix(4.16667 0 0 4.16667 1481.14701825 422.8336716)"/><path d="m0-61.056h5.689v26.906h.518l29.579-26.906h7.848l-30.871 27.941 32.597 33.115h-8.193l-30.96-31.563h-.518v31.563h-5.689z" fill="#f7931d" transform="matrix(4.16667 0 0 4.16667 1669.24716873 422.8336716)"/><path d="m0-61.056h7.848l-30.871 27.941 32.597 33.115h-8.193l-32.232-32.896z" fill="#0a7c99" transform="matrix(4.16667 0 0 4.16667 1918.83903507 422.8336716)"/><path d="m0-61.056h7.848l-30.872 27.941 32.598 33.115h-8.193l-32.233-32.896z" fill="#0a7c99" transform="matrix(4.16667 0 0 4.16667 1987.15575639 422.8336716)"/><path d="m0-61.056h7.847l-30.871 27.941 32.597 33.115h-8.193l-32.232-32.896z" fill="#0a7c99" transform="matrix(4.16667 0 0 4.16667 2056.05164484 422.8336716)"/><path d="m0-25.247h-10.392v-2.577h23.617v2.577h-10.391v27.824h-2.834z" fill="#0a7c99" transform="matrix(4.16667 0 0 4.16667 1321.96772424 582.65463279)"/><path d="m0 26.794c7.943 0 12.882-5.84 12.882-13.397s-4.939-13.397-12.882-13.397-12.881 5.84-12.881 13.397 4.938 13.397 12.881 13.397m0-29.37c9.275 0 15.716 6.698 15.716 15.973s-6.441 15.973-15.716 15.973c-9.274 0-15.715-6.698-15.715-15.973s6.441-15.973 15.715-15.973" fill="#0a7c99" transform="matrix(4.16667 0 0 4.16667 1453.83866307 474.23371272)"/><path d="m0 26.794c7.944 0 12.882-5.84 12.882-13.397s-4.938-13.397-12.882-13.397c-7.943 0-12.88 5.84-12.88 13.397s4.937 13.397 12.88 13.397m0-29.37c9.275 0 15.716 6.698 15.716 15.973s-6.441 15.973-15.716 15.973c-9.273 0-15.715-6.698-15.715-15.973s6.442-15.973 15.715-15.973" fill="#0a7c99" transform="matrix(4.16667 0 0 4.16667 1603.06794912 474.23371272)"/><path d="m0-30.401h2.835v27.824h14.17v2.577h-17.005z" fill="#0a7c99" transform="matrix(4.16667 0 0 4.16667 1695.04718937 593.39214138)"/><path d="m0 19.151c1.503 2.533 3.95 3.822 6.956 3.822 3.82 0 6.827-2.319 6.827-5.969 0-8.501-15.673-3.521-15.673-15.071 0-5.411 4.638-8.33 9.747-8.33 3.306 0 6.227 1.116 8.288 3.821l-2.448 1.761c-1.418-1.975-3.306-3.006-5.926-3.006-3.65 0-6.827 1.889-6.827 5.754 0 9.146 15.672 3.65 15.672 15.071 0 5.496-4.508 8.544-9.446 8.544-3.993 0-7.514-1.287-9.875-4.594z" fill="#0a7c99" transform="matrix(4.16667 0 0 4.16667 1787.918097 490.15872546)"/><path d="m0 39.319c11.468.184 19.102-7.974 19.285-19.354.182-11.382-7.186-19.78-18.654-19.964-11.469-.184-19.103 7.973-19.285 19.355-.183 11.381 7.185 19.779 18.654 19.963m.83-51.735c19.056.306 32.738 13.031 32.424 32.605-.314 19.573-14.398 31.852-33.453 31.546-19.056-.306-32.739-13.03-32.424-32.603.314-19.574 14.397-31.854 33.453-31.548" fill="#0a7c99" transform="matrix(4.16667 0 0 4.16667 562.97128371 213.718920975)"/><path d="m0-61.056h13.453v22.767h26.13v-22.767h13.452v61.056h-13.452v-26.389h-26.13v26.389h-13.453z" fill="#0a7c99" transform="matrix(4.16667 0 0 4.16667 186.203065629 422.8336716)"/></g></svg>