<svg clip-rule="evenodd" fill-rule="evenodd" stroke-linejoin="round" stroke-miterlimit="2" viewBox="0 0 500 170" xmlns="http://www.w3.org/2000/svg"><path d="m55.36 45.435h115.43v42.957h-104.027v-4.168h4.425s2.569.59 1.729-2.272c-.84-2.861-1.58-5.232-1.58-5.232h-13.424l-1.875 5.332s-1.086 2.121 1.135 2.121h4.984v4.344h-18.162v-4.196h3.207s1.975.196 2.715-1.234c.508-1.058.905-2.166 1.184-3.307l9.478-27.189c.29-.719.375-1.505.246-2.27-.295-.89-1.974-.496-1.974-.496h-3.454zm18.864 6.232s4.812 17.25 5.437 19.563c.625 2.312 1.875 8.25 3.625 10.875.917 1.504 2.621 2.356 4.375 2.187h77.125c1.688 0 1.313-1.312 1.313-1.312v-31.938c.005-.04.007-.081.007-.122 0-.554-.456-1.01-1.011-1.01-.04 0-.081.002-.121.007h-89.625c-1.938 0-1.125 1.75-1.125 1.75zm20.375 3.813h-9.688v3.125h1.688s.937-.188.937.687v14.375s.188.563-.812.563h-1.688v3.5h14.625v-6.625h-3.375v2.25c.018.056.028.116.028.176 0 .317-.262.578-.579.578-.025 0-.049-.001-.074-.004h-3.187s-.563.187-.563-.938v-13.75c.03-.526.473-.942 1-.937h1.688zm6.375.125v3.375h1.875c.443.072.751.492.687.937v13.438s.313.812-.812.812h-1.625v3.5h7.812v-3.562h-1.062s-.688.125-.688-.938v-7.562l5.188 9.625s.5 1 .875 1 .812-1.063.812-1.063l5.063-9.562v7.75s.25.687-.563.687h-1.062v3.625h7.812v-3.5h-1.75s-.75.25-.75-1v-13.187c0-.007 0-.014 0-.02 0-.504.414-.918.918-.918h.02 1.625v-3.5h-5.563s-1.269-.166-1.687.813c-.506 1.183-4.313 8.375-4.313 8.375s-.437 1.187-1.25-.125c-.812-1.313-4.187-8.125-4.187-8.125-.324-.6-.945-.982-1.625-1h-5.625zm25.5 3.375h1.937c.938 0 .813.812.813.812v13.25c0 1.125-.875 1-.875 1h-1.813v3.688h15.625v-6.75h-3.5v2.437c.041.319-.14.628-.437.75h-4.125c-1 0-.875-.75-.875-.75v-5.312c-.003-.022-.004-.043-.004-.065 0-.343.283-.626.627-.626.021 0 .043.001.064.003h5.25v-3.25h-5.125c-.408.023-.767-.281-.812-.687v-3.5c0-1 .437-.938.437-.938h4.063c1.25 0 .937.75.937.75v2.125h3.563v-6.375h-15.688zm27.125-3.438h-10.125v3h1.625c.558-.042 1.107.164 1.5.563.437.625 4.312 6.25 4.312 6.25.372.752.349 1.642-.062 2.375-.688 1.312-3.813 5.75-3.813 5.75s-.937 1.187-1.875 1.187h-1.625v3.125h9.688v-3.312h-1.125s-1.063.125-.438-.813 1.813-3 1.813-3c.126-.131.301-.205.483-.205.238 0 .458.125.579.33.438.688 1.688 2.875 1.688 2.875s.562.875-.375.875h-1.25v3.313h9.75v-3.188h-1.5s-.938.313-1.938-1-4-6.125-4-6.125c-.335-.709-.263-1.546.188-2.187.75-1.25 4.062-6.063 4.062-6.063.495-.42 1.105-.681 1.75-.75h1.5v-3h-10.125v2.938h1.438s1.062.062.437.937c-.603.966-1.146 1.967-1.625 3s-.5 1.188-1.25-.125-1.562-2.75-1.562-2.75-.5-1 .25-1h1.687zm-83.973 14.768-3.535-12.133s-.963-2.09-1.688 0c-.724 2.09-4.34 12.215-4.34 12.215s-.886 1.527.883 1.527h7.715s1.608-.002.965-1.609z" fill="#3b6e8f" fill-rule="nonzero" transform="matrix(3.94338 0 0 3.94338 -173.489 -179.166)"/></svg>