<svg height="52.79846" viewBox="0 0 187.8936 52.79846" width="187.8936" xmlns="http://www.w3.org/2000/svg"><g fill="#46ab99"><path d="m6.1968 6.0654h21.5903v7.7598h-9.8823v6.2265h9.11671v7.4522h-9.11671v7.248h10.3428v7.7588h-22.0508z" transform="translate(-5.9624 -5.1982)"/><path d="m31.06151 6.0654h15.97659l5.206 21.4385h.1026l5.2051-21.4385h15.978v36.4453h-10.6182v-23.3769h-.1015l-6.32959 23.3769h-8.37061l-6.3296-23.3769h-.1016v23.3769h-10.61719z" transform="translate(-5.9624 -5.1982)"/><path d="m109.2617.8858h5.2041v36.5175h-5.2041z"/><path d="m102.78711.8858h4.68259v36.5175h-4.68259z"/><path d="m96.7949.8858h4.1631v36.5175h-4.1631z"/><path d="m91.2315.8858h3.64161v36.5175h-3.64161z"/><path d="m86.07911.8858h3.29489v36.5175h-3.29489z"/><path d="m81.2832.8858h2.7744v36.5175h-2.7744z"/><path d="m76.9458.8858h2.42731v36.5175h-2.42731z"/><path d="m72.9229.8858h1.9716v36.5175h-1.9716z"/><path d="m69.3779.8858h1.6026v36.5175h-1.6026z"/></g><g transform="translate(-5.9624 -5.1982)"><path d="m120.564 30.2607a6.74206 6.74206 0 0 0 .4082 2.3985c.81831 2.1953 3.2676 2.6543 5.36031 2.6543 1.83889 0 4.64459-.6133 4.64459-3.3184 0-1.8887-1.5831-2.3984-7.8614-4.1856-5.7685-1.6328-12.3515-3.2148-12.3515-10.5644 0-8.4219 7.19631-12.0469 14.7002-12.0469 7.91211 0 14.9052 3.0117 15.2109 11.8926h-10.6152a2.79594 2.79594 0 0 0 -1.3291-2.9092 5.82014 5.82014 0 0 0 -3.3164-.9189c-1.5332 0-4.0323.4082-4.0323 2.4511.20321 2.6026 5.41121 3.1641 10.5655 4.5938 5.1562 1.4297 10.2578 3.8271 10.2578 10.5137 0 9.4941-8.7266 12.5566-16.8428 12.5566-4.1348 0-15.9268-1.4805-16.0264-13.1172z" fill="#231f20"/><path d="m145.5034 29.0869-11.8125-23.0215h13.4014l5.07621 12.4248 5.32909-12.4248h13.3007l-12.0673 23.0215v13.4238h-13.2276z" fill="#9b9e9f"/><g fill="#231f20"><path d="m172.2153 30.2607a6.69992 6.69992 0 0 0 .40821 2.3985c.81739 2.1953 3.26569 2.6543 5.35939 2.6543 1.8379 0 4.6445-.6133 4.6445-3.3184 0-1.8887-1.582-2.3984-7.8613-4.1856-5.76759-1.6328-12.35059-3.2148-12.35059-10.5644 0-8.4219 7.19629-12.0469 14.69929-12.0469 7.9111 0 14.9062 3.0117 15.2109 11.8926h-10.61519a2.7975 2.7975 0 0 0 -1.32911-2.9092 5.81705 5.81705 0 0 0 -3.3155-.9189c-1.5342 0-4.0332.4082-4.0332 2.4511.2031 2.6026 5.4112 3.1641 10.5664 4.5938 5.1543 1.4297 10.2569 3.8271 10.2569 10.5137 0 9.4941-8.7276 12.5566-16.8448 12.5566-4.1338 0-15.9238-1.4805-16.0244-13.1172z"/><path d="m5.9624 46.5215h5.2485v1.2265h-3.6982v2.5303h3.481v1.2266h-3.481v2.9121h3.8076v1.2265h-5.3579z"/><path d="m12.4751 46.5215h1.4688v9.122h-1.4688z"/><path d="m16.6899 52.3857v.3965c0 .9199.12261 2.0957 1.2237 2.0957 1.0473 0 1.16991-1.124 1.16991-1.5332h1.38669a2.34513 2.34513 0 0 1 -2.5703 2.4785c-1.1963 0-2.6787-.333-2.6787-3.5127 0-1.8017.4082-3.7187 2.7056-3.7187 2.04 0 2.5839 1.1494 2.5839 3.0664v.7275zm2.35261-.9443v-.3711c0-.8682-.29981-1.5322-1.12891-1.5322-.9385 0-1.2237.8672-1.2237 1.7627v.1406z"/><path d="m21.7202 46.5215h1.46831v5.124h.02679l2.2168-2.875 1.6997-.0127-2.2031 2.6572 2.4883 4.2285h-1.604l-1.7954-3.1299-.82909.9463v2.1836h-1.46831z"/><path d="m27.3618 48.7705h1.0059v-1.9551h1.4687v1.9551h1.1968v1.0224h-1.1968v4.1006c0 .5371.16311.7285.6665.7285a3.09352 3.09352 0 0 0 .5303-.038v1.0214a5.13681 5.13681 0 0 1 -1.1831.1153c-.9922 0-1.4824-.2559-1.4824-1.6612v-4.2666h-1.0059z"/><path d="m31.7944 48.7705h1.4683v1.0723h.0273a1.79361 1.79361 0 0 1 1.6993-1.251 1.206 1.206 0 0 1 .354.0508v1.4062a2.93814 2.93814 0 0 0 -.6123-.0771 1.3583 1.3583 0 0 0 -1.4683 1.5576v4.1142h-1.4683z"/><path d="m38.5107 48.5918c2.13481 0 2.733 1.4814 2.733 3.6162 0 2.1328-.6934 3.6152-2.733 3.6152-2.0258 0-2.7197-1.4824-2.7197-3.6152 0-2.1348.5987-3.6162 2.7197-3.6162zm0 6.209c1.0743 0 1.2647-.8438 1.2647-2.5928 0-1.5205-.1904-2.5938-1.2647-2.5938-1.061 0-1.2509 1.0733-1.2509 2.5938 0 1.749.1899 2.5928 1.2509 2.5928z"/><path d="m42.439 48.7705h1.3872v.8056h.041a2.06869 2.06869 0 0 1 1.7544-.9843 1.584 1.584 0 0 1 1.6992 1.0478 2.01753 2.01753 0 0 1 1.8491-1.0478 1.61062 1.61062 0 0 1 1.7818 1.8261v5.2256h-1.4688v-4.7138c0-.8946-.2856-1.2403-.8838-1.2403a1.20324 1.20324 0 0 0 -1.1694 1.3428v4.6113h-1.4683v-4.7138c0-.8946-.2856-1.2403-.8974-1.2403a1.20109 1.20109 0 0 0 -1.1558 1.3428v4.6113h-1.4692z"/><path d="m53.6968 52.3857v.3965c0 .9199.1225 2.0957 1.2241 2.0957 1.0474 0 1.1694-1.124 1.1694-1.5332h1.3868a2.34477 2.34477 0 0 1 -2.5699 2.4785c-1.1963 0-2.67869-.333-2.67869-3.5127 0-1.8017.40819-3.7187 2.70559-3.7187 2.0405 0 2.584 1.1494 2.584 3.0664v.7275zm2.3525-.9443v-.3711c0-.8682-.2993-1.5322-1.1284-1.5322-.9385 0-1.2241.8672-1.2241 1.7627v.1406z"/><path d="m63.6626 53.1396c-.0952 1.6485-.6924 2.6836-2.502 2.6836-2.1206 0-2.7192-1.4824-2.7192-3.6152 0-2.1348.5986-3.6162 2.7192-3.6162a2.27017 2.27017 0 0 1 2.5167 2.4658h-1.46879c0-.6397-.19091-1.4697-1.04791-1.4434-1.0595 0-1.2504 1.0733-1.2504 2.5938 0 1.5185.1909 2.5928 1.2504 2.5928.816.0136 1.1153-.626 1.1153-1.6612z"/><path d="m64.6841 46.5215h1.4678v2.9892l.041.0274a2.14707 2.14707 0 0 1 1.7949-.9463c1.1152 0 1.8223.4726 1.8223 1.8652v5.1865h-1.4688v-4.7138c0-.8946-.2851-1.2403-1.02-1.2403a1.20345 1.20345 0 0 0 -1.1694 1.3428v4.6113h-1.4678z"/><path d="m76.0239 54.2129a.44458.44458 0 0 0 .3804.4853.6713.6713 0 0 0 .2446-.0371v.8936a1.83858 1.83858 0 0 1 -.7202.166c-.6533 0-1.1977-.2422-1.2373-.9063h-.0278a1.92644 1.92644 0 0 1 -1.8228 1.0088 1.7227 1.7227 0 0 1 -1.90329-1.9297c0-1.5332.70749-1.8515 1.69969-2.1582l1.1426-.2939c.5303-.1406.8559-.2813.8559-.8828 0-.626-.2304-1.0205-1.0053-1.0205-.979 0-1.1153.6513-1.1153 1.3144h-1.3867c0-1.456.6382-2.2607 2.5694-2.2607 1.2915 0 2.3261.4726 2.3261 1.6865zm-1.3882-2.1973a9.9085 9.9085 0 0 1 -1.6303.6387 1.11129 1.11129 0 0 0 -.5991 1.1123.9123.9123 0 0 0 .9116 1.0342c.8833 0 1.3178-.626 1.3178-1.6358z"/><path d="m77.5181 48.7705h1.3867v.8056h.0415a2.12543 2.12543 0 0 1 1.8755-.9843c1.1152 0 1.82271.4726 1.82271 1.8652v5.1865h-1.46921v-4.7138c0-.8946-.2847-1.2403-1.0195-1.2403a1.20284 1.20284 0 0 0 -1.1685 1.3428v4.6113h-1.4692z"/><path d="m84.12551 46.4199h1.46869v1.3799h-1.46869zm0 2.3506h1.46869v6.873h-1.46869z"/><path d="m90.22951 50.7763v-.1787c0-.5488-.20411-1.0595-.96441-1.0595-.5854 0-1.0478.2548-1.0478.8945 0 .5352.2583.7519 1.03321 1.0088l.939.3056a1.8848 1.8848 0 0 1 1.59079 1.9795c0 1.4707-1.1431 2.0967-2.625 2.0967-1.8491 0-2.4072-.8056-2.4072-2.1347v-.2549h1.3061v.2177c0 .7911.29931 1.2266 1.1421 1.2266.80221 0 1.1973-.3838 1.1973-1.0098a1.00981 1.00981 0 0 0 -.8028-1.0087l-1.19629-.3965a1.85025 1.85025 0 0 1 -1.56391-1.9805c0-1.29.9922-1.8906 2.50191-1.8906 1.86229 0 2.28469 1.0224 2.28469 1.8779v.3066z"/><path d="m97.8023 53.1396c-.09579 1.6485-.6929 2.6836-2.5025 2.6836-2.1206 0-2.7192-1.4824-2.7192-3.6152 0-2.1348.5986-3.6162 2.7192-3.6162a2.27024 2.27024 0 0 1 2.5171 2.4658h-1.4692c0-.6397-.191-1.4697-1.0479-1.4434-1.0596 0-1.2505 1.0733-1.2505 2.5938 0 1.5185.1909 2.5928 1.2505 2.5928.8159.0136 1.11571-.626 1.11571-1.6612z"/><path d="m98.8232 46.5215h1.4678v2.9892l.041.0274a2.14767 2.14767 0 0 1 1.79451-.9463c1.11519 0 1.82319.4726 1.82319 1.8652v5.1865h-1.4687v-4.7138c0-.8946-.2852-1.2403-1.02049-1.2403a1.20379 1.20379 0 0 0 -1.16951 1.3428v4.6113h-1.4678z"/><path d="m106.6274 52.3857v.3965c0 .9199.12211 2.0957 1.2237 2.0957 1.0469 0 1.1689-1.124 1.1689-1.5332h1.3867a2.34435 2.34435 0 0 1 -2.5693 2.4785c-1.1963 0-2.6787-.333-2.6787-3.5127 0-1.8017.4082-3.7187 2.7061-3.7187 2.04 0 2.583 1.1494 2.583 3.0664v.7275zm2.3516-.9443v-.3711c0-.8682-.2978-1.5322-1.1279-1.5322-.9385 0-1.2237.8672-1.2237 1.7627v.1406z"/><path d="m116.2114 52.8203v.2305c0 1.1113.5166 1.6738 1.5909 1.6738a1.33791 1.33791 0 0 0 1.4687-1.3301c0-.958-.5166-1.3789-1.3867-1.6211l-1.0606-.3457c-1.415-.5098-2.0263-1.2012-2.0263-2.5039 0-1.6611 1.1972-2.5801 3.0185-2.5801 2.4883 0 2.7471 1.4561 2.7471 2.4024v.2031h-1.5498v-.1914c0-.8291-.3945-1.3164-1.3604-1.3164a1.202 1.202 0 0 0 -1.3047 1.3164c0 .7803.4209 1.1748 1.4542 1.5459l1.0478.3574c1.3721.46 1.9707 1.1641 1.9707 2.415 0 1.9415-1.25 2.7471-3.209 2.7471-2.4072 0-2.9502-1.5078-2.9502-2.7851v-.2178z"/><path d="m122.9556 48.7705 1.2646 5.1611h.0264l1.16991-5.1611h1.53609l-2.0117 7.1279c-.5713 1.8779-1.0478 2.1211-2.5566 2.0967a4.73439 4.73439 0 0 1 -.585-.0508v-1.0996a2.92386 2.92386 0 0 0 .4766.0518c.5019 0 .8291-.1026.9922-.5371l.19041-.5625-2.08111-7.0264z"/><path d="m130.9214 50.7763v-.1787c0-.5488-.2041-1.0595-.96389-1.0595-.58591 0-1.04781.2548-1.04781.8945 0 .5352.25781.7519 1.0332 1.0088l.9385.3056a1.88447 1.88447 0 0 1 1.5908 1.9795c0 1.4707-1.1426 2.0967-2.625 2.0967-1.84869 0-2.4063-.8056-2.4063-2.1347v-.2549h1.3057v.2177c0 .7911.2988 1.2266 1.1416 1.2266.8027 0 1.19731-.3838 1.19731-1.0098a1.00982 1.00982 0 0 0 -.80281-1.0087l-1.1953-.3965a1.85023 1.85023 0 0 1 -1.5644-1.9805c0-1.29.9921-1.8906 2.5019-1.8906 1.8623 0 2.2852 1.0224 2.2852 1.8779v.3066z"/><path d="m132.9058 48.7705h1.0068v-1.9551h1.4678v1.9551h1.1972v1.0224h-1.1972v4.1006c0 .5371.164.7285.666.7285a3.0976 3.0976 0 0 0 .5312-.038v1.0214a5.12917 5.12917 0 0 1 -1.1826.1153c-.9931 0-1.4824-.2559-1.4824-1.6612v-4.2666h-1.0068z"/><path d="m138.603 52.3857v.3965c0 .9199.1221 2.0957 1.2227 2.0957 1.04781 0 1.1699-1.124 1.1699-1.5332h1.3867a2.34465 2.34465 0 0 1 -2.5703 2.4785c-1.1953 0-2.6777-.333-2.6777-3.5127 0-1.8017.40821-3.7187 2.706-3.7187 2.0401 0 2.583 1.1494 2.583 3.0664v.7275zm2.3516-.9443v-.3711c0-.8682-.2988-1.5322-1.1289-1.5322-.9375 0-1.2227.8672-1.2227 1.7627v.1406z"/><path d="m143.7007 48.7705h1.3867v.8056h.041a2.06975 2.06975 0 0 1 1.7539-.9843 1.58318 1.58318 0 0 1 1.69921 1.0478 2.02 2.02 0 0 1 1.85059-1.0478 1.61 1.61 0 0 1 1.7803 1.8261v5.2256h-1.4678v-4.7138c0-.8946-.28609-1.2403-.8847-1.2403a1.20318 1.20318 0 0 0 -1.169 1.3428v4.6113h-1.4687v-4.7138c0-.8946-.2862-1.2403-.8975-1.2403a1.2008 1.2008 0 0 0 -1.1553 1.3428v4.6113h-1.4687z"/><path d="m154.95851 52.3857v.3965c0 .9199.12209 2.0957 1.22269 2.0957 1.0478 0 1.1689-1.124 1.1689-1.5332h1.3877a2.34513 2.34513 0 0 1 -2.57029 2.4785c-1.19631 0-2.67771-.333-2.67771-3.5127 0-1.8017.4072-3.7187 2.706-3.7187 2.0391 0 2.583 1.1494 2.583 3.0664v.7275zm2.35059-.9443v-.3711c0-.8682-.2979-1.5322-1.1279-1.5322-.9385 0-1.22269.8672-1.22269 1.7627v.1406z"/><path d="m168.145 54.584h-.0263a2.04521 2.04521 0 0 1 -2.1221 1.2392c-2.12109 0-2.8828-1.4824-2.8828-4.7402 0-3.2588.9795-4.7393 3.2226-4.7393a2.55194 2.55194 0 0 1 2.8428 2.6309v.167h-1.46869v-.2178a1.31678 1.31678 0 0 0 -1.36041-1.4824c-1.10059 0-1.6865.6904-1.6865 3.6025 0 2.9395.5176 3.6807 1.5644 3.6807 1.1826.0127 1.6192-.793 1.6192-2.7861h-1.6319v-1.0977h3.0996v4.8027h-1.1699z"/><path d="m170.6196 48.7705h1.3868v.8056h.041a2.06963 2.06963 0 0 1 1.7539-.9843 1.58334 1.58334 0 0 1 1.69921 1.0478 2.01973 2.01973 0 0 1 1.85059-1.0478 1.61 1.61 0 0 1 1.7803 1.8261v5.2256h-1.4678v-4.7138c0-.8946-.2862-1.2403-.8848-1.2403a1.20316 1.20316 0 0 0 -1.1689 1.3428v4.6113h-1.4688v-4.7138c0-.8946-.2861-1.2403-.8974-1.2403a1.20075 1.20075 0 0 0 -1.1553 1.3428v4.6113h-1.4688z"/><path d="m180.6118 46.5215h1.46971v3.0546h.02639a1.71044 1.71044 0 0 1 1.6582-.9843c1.1153 0 2.2588.4726 2.2588 3.5263 0 2.3633-.6816 3.7051-2.3935 3.7051a1.55688 1.55688 0 0 1 -1.6055-1.0224h-.02639v.8427h-1.38771zm2.624 8.2031c1.0206 0 1.2373-.9844 1.2373-2.543 0-1.8515-.2988-2.4922-1.14159-2.4922-1.12891 0-1.332.9463-1.332 2.5948 0 1.4697.23049 2.4404 1.23629 2.4404z"/><path d="m187.2476 46.5215h1.5498v3.6533h2.8554v-3.6533h1.5498v9.122h-1.5498v-4.2402h-2.8554v4.2402h-1.5498z"/></g></g></svg>