<?xml version="1.0" encoding="utf-8"?>
<!-- Generator: Adobe Illustrator 24.3.0, SVG Export Plug-In . SVG Version: 6.00 Build 0)  -->
<svg version="1.1" id="Layer_1" xmlns="http://www.w3.org/2000/svg" xmlns:xlink="http://www.w3.org/1999/xlink" x="0px" y="0px"
	 viewBox="0 0 500 141" style="enable-background:new 0 0 500 141;" xml:space="preserve">
<style type="text/css">
	.st0{fill:#46AB99;}
	.st1{fill:#231F20;}
	.st2{fill:#9B9E9F;}
	.st3{display:none;}
	.st4{display:inline;fill:#231F20;}
</style>
<g>
	<g>
		<path class="st0" d="M0.6,22.3h57.5V43H31.8v16.6H56v19.8H31.8v19.3h27.5v20.6H0.6L0.6,22.3z"/>
		<path class="st0" d="M66.8,22.3h42.5l13.9,57.1h0.3l13.9-57.1h42.5v97h-28.3V57.1h-0.3l-16.8,62.2h-22.3L95.3,57.1H95v62.2H66.8
			L66.8,22.3z"/>
		<path class="st0" d="M290.8,22.4h13.8v97.2h-13.8V22.4z"/>
		<path class="st0" d="M273.5,22.4H286v97.2h-12.5L273.5,22.4z"/>
		<path class="st0" d="M257.6,22.4h11.1v97.2h-11.1V22.4z"/>
		<path class="st0" d="M242.8,22.4h9.7v97.2h-9.7V22.4z"/>
		<path class="st0" d="M229.1,22.4h8.8v97.2h-8.8V22.4z"/>
		<path class="st0" d="M216.3,22.4h7.4v97.2h-7.4V22.4z"/>
		<path class="st0" d="M204.8,22.4h6.5v97.2h-6.5V22.4z"/>
		<path class="st0" d="M194.1,22.4h5.2v97.2h-5.2V22.4z"/>
		<path class="st0" d="M184.6,22.4h4.3v97.2h-4.3V22.4z"/>
	</g>
	<g transform="matrix(2.66108 0 0 2.66108 -15.8664 -13.8328)">
		<path class="st1" d="M120.6,37.8c0,0.8,0.1,1.6,0.4,2.4c0.8,2.2,3.3,2.7,5.4,2.7c1.8,0,4.6-0.6,4.6-3.3c0-1.9-1.6-2.4-7.9-4.2
			c-5.8-1.6-12.4-3.2-12.4-10.6c0-8.4,7.2-12,14.7-12c7.9,0,14.9,3,15.2,11.9h-10.6c0.2-1.1-0.3-2.3-1.3-2.9c-1-0.6-2.1-1-3.3-0.9
			c-1.5,0-4,0.4-4,2.5c0.2,2.6,5.4,3.2,10.6,4.6c5.2,1.4,10.3,3.8,10.3,10.5c0,9.5-8.7,12.6-16.8,12.6c-4.1,0-15.9-1.5-16-13.1
			L120.6,37.8z"/>
		<path class="st2" d="M145.5,36.6l-11.8-23h13.4l5.1,12.4l5.3-12.4h13.3l-12.1,23V50h-13.2V36.6z"/>
		<g class="st3">
			<path class="st4" d="M6,54h5.2v1.2H7.5v2.5H11V59H7.5v2.9h3.8v1.2H6L6,54z"/>
			<path class="st4" d="M12.5,54h1.5v9.1h-1.5V54z"/>
			<path class="st4" d="M16.7,59.9v0.4c0,0.9,0.1,2.1,1.2,2.1c1,0,1.2-1.1,1.2-1.5h1.4c0,0,0,0.1,0,0.1c0,1.3-1.1,2.3-2.3,2.3
				c-0.1,0-0.2,0-0.2,0c-1.2,0-2.7-0.3-2.7-3.5c0-1.8,0.4-3.7,2.7-3.7c2,0,2.6,1.1,2.6,3.1v0.7L16.7,59.9z M19,59v-0.4
				c0-0.9-0.3-1.5-1.1-1.5c-0.9,0-1.2,0.9-1.2,1.8V59H19z"/>
			<path class="st4" d="M21.7,54h1.5v5.1h0l2.2-2.9l1.7,0l-2.2,2.7l2.5,4.2h-1.6L24,60L23.2,61v2.2h-1.5V54z"/>
			<path class="st4" d="M27.4,56.3h1v-2h1.5v2H31v1h-1.2v4.1c0,0.5,0.2,0.7,0.7,0.7c0.2,0,0.4,0,0.5,0v1c-0.4,0.1-0.8,0.1-1.2,0.1
				c-1,0-1.5-0.3-1.5-1.7v-4.3h-1V56.3z"/>
			<path class="st4" d="M31.8,56.3h1.5v1.1h0c0.2-0.7,0.9-1.2,1.7-1.3c0.1,0,0.2,0,0.4,0.1v1.4c-0.2,0-0.4-0.1-0.6-0.1
				c0,0-0.1,0-0.1,0c-0.7,0-1.4,0.6-1.4,1.4c0,0.1,0,0.1,0,0.2v4.1h-1.5V56.3z"/>
			<path class="st4" d="M38.5,56.1c2.1,0,2.7,1.5,2.7,3.6c0,2.1-0.7,3.6-2.7,3.6c-2,0-2.7-1.5-2.7-3.6
				C35.8,57.6,36.4,56.1,38.5,56.1z M38.5,62.3c1.1,0,1.3-0.8,1.3-2.6c0-1.5-0.2-2.6-1.3-2.6c-1.1,0-1.3,1.1-1.3,2.6
				C37.3,61.5,37.5,62.3,38.5,62.3z"/>
			<path class="st4" d="M42.4,56.3h1.4v0.8h0c0.4-0.6,1-1,1.8-1c0.7-0.1,1.5,0.3,1.7,1c0.4-0.7,1.1-1.1,1.8-1c0.1,0,0.1,0,0.2,0
				c0.9,0,1.6,0.7,1.6,1.6c0,0.1,0,0.2,0,0.2v5.2h-1.5v-4.7c0-0.9-0.3-1.2-0.9-1.2c-0.7,0-1.2,0.6-1.2,1.2c0,0,0,0.1,0,0.1v4.6H46
				v-4.7c0-0.9-0.3-1.2-0.9-1.2c-0.6,0-1.2,0.6-1.2,1.2c0,0,0,0.1,0,0.1v4.6h-1.5V56.3z"/>
			<path class="st4" d="M53.7,59.9v0.4c0,0.9,0.1,2.1,1.2,2.1c1,0,1.2-1.1,1.2-1.5h1.4c0,0,0,0.1,0,0.1c0,1.3-1.1,2.3-2.3,2.3
				c-0.1,0-0.2,0-0.2,0c-1.2,0-2.7-0.3-2.7-3.5c0-1.8,0.4-3.7,2.7-3.7c2,0,2.6,1.1,2.6,3.1v0.7L53.7,59.9z M56,59v-0.4
				c0-0.9-0.3-1.5-1.1-1.5c-0.9,0-1.2,0.9-1.2,1.8V59H56z"/>
			<path class="st4" d="M63.7,60.7c-0.1,1.6-0.7,2.7-2.5,2.7c-2.1,0-2.7-1.5-2.7-3.6c0-2.1,0.6-3.6,2.7-3.6c0.1,0,0.2,0,0.3,0
				c1.2,0,2.3,1,2.3,2.3c0,0.1,0,0.1,0,0.2h-1.5c0-0.6-0.2-1.5-1-1.4c-1.1,0-1.3,1.1-1.3,2.6c0,1.5,0.2,2.6,1.3,2.6
				c0.8,0,1.1-0.6,1.1-1.7L63.7,60.7z"/>
			<path class="st4" d="M64.7,54h1.5v3l0,0c0.4-0.6,1.1-1,1.8-0.9c1.1,0,1.8,0.5,1.8,1.9v5.2h-1.5v-4.7c0-0.9-0.3-1.2-1-1.2
				c-0.7,0-1.2,0.6-1.2,1.2c0,0,0,0.1,0,0.1v4.6h-1.5V54z"/>
			<path class="st4" d="M76,61.7c0,0.2,0.1,0.5,0.4,0.5c0.1,0,0.2,0,0.2,0v0.9c-0.2,0.1-0.5,0.2-0.7,0.2c-0.7,0-1.2-0.2-1.2-0.9h0
				c-0.4,0.7-1.1,1.1-1.8,1c-0.1,0-0.1,0-0.2,0c-0.9,0-1.7-0.8-1.7-1.7c0-0.1,0-0.1,0-0.2c0-1.5,0.7-1.9,1.7-2.2l1.1-0.3
				c0.5-0.1,0.9-0.3,0.9-0.9c0-0.6-0.2-1-1-1c-1,0-1.1,0.7-1.1,1.3h-1.4c0-1.5,0.6-2.3,2.6-2.3c1.3,0,2.3,0.5,2.3,1.7V61.7z
				 M74.6,59.5c-0.5,0.3-1.1,0.5-1.6,0.6c-0.4,0.2-0.7,0.7-0.6,1.1c0,0,0,0.1,0,0.1c0,0.5,0.4,0.9,0.9,0.9h0c0.9,0,1.3-0.6,1.3-1.6
				L74.6,59.5z"/>
			<path class="st4" d="M77.5,56.3h1.4v0.8h0c0.4-0.6,1.1-1,1.9-1c1.1,0,1.8,0.5,1.8,1.9v5.2h-1.5v-4.7c0-0.9-0.3-1.2-1-1.2
				c-0.7,0-1.2,0.6-1.2,1.2c0,0,0,0.1,0,0.1v4.6h-1.5V56.3z"/>
			<path class="st4" d="M84.1,53.9h1.5v1.4h-1.5V53.9z M84.1,56.3h1.5v6.9h-1.5V56.3z"/>
			<path class="st4" d="M90.2,58.3v-0.2c0-0.5-0.2-1.1-1-1.1c-0.6,0-1,0.3-1,0.9c0,0.5,0.3,0.8,1,1l0.9,0.3c1,0.1,1.7,1,1.6,2
				c0,1.5-1.1,2.1-2.6,2.1c-1.8,0-2.4-0.8-2.4-2.1v-0.3h1.3v0.2c0,0.8,0.3,1.2,1.1,1.2c0.8,0,1.2-0.4,1.2-1c0-0.5-0.3-0.9-0.8-1
				L88.4,60c-1-0.1-1.6-1-1.6-2c0-1.3,1-1.9,2.5-1.9c1.9,0,2.3,1,2.3,1.9v0.3H90.2z"/>
			<path class="st4" d="M97.8,60.7c-0.1,1.6-0.7,2.7-2.5,2.7c-2.1,0-2.7-1.5-2.7-3.6c0-2.1,0.6-3.6,2.7-3.6c0.1,0,0.2,0,0.3,0
				c1.2,0,2.3,1,2.3,2.3c0,0.1,0,0.1,0,0.2h-1.5c0-0.6-0.2-1.5-1-1.4c-1.1,0-1.3,1.1-1.3,2.6c0,1.5,0.2,2.6,1.3,2.6
				c0.8,0,1.1-0.6,1.1-1.7L97.8,60.7z"/>
			<path class="st4" d="M98.8,54h1.5v3l0,0c0.4-0.6,1.1-1,1.8-0.9c1.1,0,1.8,0.5,1.8,1.9v5.2h-1.5v-4.7c0-0.9-0.3-1.2-1-1.2
				c-0.7,0-1.2,0.6-1.2,1.2c0,0,0,0.1,0,0.1v4.6h-1.5V54z"/>
			<path class="st4" d="M106.6,59.9v0.4c0,0.9,0.1,2.1,1.2,2.1c1,0,1.2-1.1,1.2-1.5h1.4c0,0,0,0.1,0,0.1c0,1.3-1.1,2.3-2.3,2.3
				c-0.1,0-0.2,0-0.2,0c-1.2,0-2.7-0.3-2.7-3.5c0-1.8,0.4-3.7,2.7-3.7c2,0,2.6,1.1,2.6,3.1v0.7L106.6,59.9z M109,59v-0.4
				c0-0.9-0.3-1.5-1.1-1.5c-0.9,0-1.2,0.9-1.2,1.8V59H109z"/>
			<path class="st4" d="M116.2,60.3v0.2c0,1.1,0.5,1.7,1.6,1.7c0,0,0.1,0,0.1,0c0.7,0,1.3-0.6,1.3-1.3c0-1-0.5-1.4-1.4-1.6l-1.1-0.3
				c-1.4-0.5-2-1.2-2-2.5c0-1.7,1.2-2.6,3-2.6c2.5,0,2.7,1.5,2.7,2.4v0.2H119v-0.2c0-0.8-0.4-1.3-1.4-1.3c0,0-0.1,0-0.1,0
				c-0.7,0-1.2,0.5-1.2,1.2c0,0,0,0.1,0,0.1c0,0.8,0.4,1.2,1.5,1.5l1,0.4c1.4,0.5,2,1.2,2,2.4c0,1.9-1.3,2.7-3.2,2.7
				c-2.4,0-2.9-1.5-2.9-2.8v-0.2L116.2,60.3z"/>
			<path class="st4" d="M123,56.3l1.3,5.2h0l1.2-5.2h1.5l-2,7.1c-0.6,1.9-1,2.1-2.6,2.1c-0.2,0-0.4,0-0.6-0.1v-1.1
				c0.2,0,0.3,0,0.5,0.1c0.5,0,0.8-0.1,1-0.5l0.2-0.6l-2.1-7L123,56.3z"/>
			<path class="st4" d="M130.9,58.3v-0.2c0-0.5-0.2-1.1-1-1.1c-0.6,0-1,0.3-1,0.9c0,0.5,0.3,0.8,1,1l0.9,0.3c1,0.1,1.7,1,1.6,2
				c0,1.5-1.1,2.1-2.6,2.1c-1.8,0-2.4-0.8-2.4-2.1v-0.3h1.3v0.2c0,0.8,0.3,1.2,1.1,1.2c0.8,0,1.2-0.4,1.2-1c0-0.5-0.3-0.9-0.8-1
				l-1.2-0.4c-1-0.1-1.6-1-1.6-2c0-1.3,1-1.9,2.5-1.9c1.9,0,2.3,1,2.3,1.9v0.3H130.9z"/>
			<path class="st4" d="M132.9,56.3h1v-2h1.5v2h1.2v1h-1.2v4.1c0,0.5,0.2,0.7,0.7,0.7c0.2,0,0.4,0,0.5,0v1c-0.4,0.1-0.8,0.1-1.2,0.1
				c-1,0-1.5-0.3-1.5-1.7v-4.3h-1V56.3z"/>
			<path class="st4" d="M138.6,59.9v0.4c0,0.9,0.1,2.1,1.2,2.1c1,0,1.2-1.1,1.2-1.5h1.4c0,0,0,0.1,0,0.1c0,1.3-1.1,2.3-2.3,2.3
				c-0.1,0-0.2,0-0.2,0c-1.2,0-2.7-0.3-2.7-3.5c0-1.8,0.4-3.7,2.7-3.7c2,0,2.6,1.1,2.6,3.1v0.7L138.6,59.9z M141,59v-0.4
				c0-0.9-0.3-1.5-1.1-1.5c-0.9,0-1.2,0.9-1.2,1.8V59H141z"/>
			<path class="st4" d="M143.7,56.3h1.4v0.8h0c0.4-0.6,1-1,1.8-1c0.7-0.1,1.5,0.3,1.7,1c0.4-0.7,1.1-1.1,1.9-1c0.1,0,0.1,0,0.2,0
				c0.9,0,1.6,0.7,1.6,1.6c0,0.1,0,0.2,0,0.2v5.2h-1.5v-4.7c0-0.9-0.3-1.2-0.9-1.2c-0.6,0-1.2,0.6-1.2,1.2c0,0,0,0.1,0,0.1v4.6h-1.5
				v-4.7c0-0.9-0.3-1.2-0.9-1.2c-0.6,0-1.2,0.6-1.2,1.2c0,0,0,0.1,0,0.1v4.6h-1.5V56.3z"/>
			<path class="st4" d="M155,59.9v0.4c0,0.9,0.1,2.1,1.2,2.1c1,0,1.2-1.1,1.2-1.5h1.4c0,0,0,0.1,0,0.1c0,1.3-1.1,2.3-2.3,2.3
				c-0.1,0-0.2,0-0.2,0c-1.2,0-2.7-0.3-2.7-3.5c0-1.8,0.4-3.7,2.7-3.7c2,0,2.6,1.1,2.6,3.1v0.7L155,59.9z M157.3,59v-0.4
				c0-0.9-0.3-1.5-1.1-1.5c-0.9,0-1.2,0.9-1.2,1.8V59H157.3z"/>
			<path class="st4" d="M168.1,62.1L168.1,62.1c-0.4,0.8-1.2,1.3-2.1,1.2c-2.1,0-2.9-1.5-2.9-4.7c0-3.3,1-4.7,3.2-4.7
				c0.1,0,0.2,0,0.3,0c1.4,0,2.6,1.2,2.6,2.6c0,0,0,0.1,0,0.1v0.2h-1.5v-0.2c0-0.1,0-0.1,0-0.2c0-0.7-0.6-1.3-1.3-1.3c0,0,0,0-0.1,0
				c-1.1,0-1.7,0.7-1.7,3.6c0,2.9,0.5,3.7,1.6,3.7c1.2,0,1.6-0.8,1.6-2.8h-1.6v-1.1h3.1v4.8h-1.2V62.1z"/>
			<path class="st4" d="M170.6,56.3h1.4v0.8h0c0.4-0.6,1-1,1.8-1c0.7-0.1,1.5,0.3,1.7,1c0.4-0.7,1.1-1.1,1.8-1c0.1,0,0.1,0,0.2,0
				c0.9,0,1.6,0.7,1.6,1.6c0,0.1,0,0.2,0,0.2v5.2h-1.5v-4.7c0-0.9-0.3-1.2-0.9-1.2c-0.6,0-1.2,0.6-1.2,1.2c0,0,0,0.1,0,0.1v4.6h-1.5
				v-4.7c0-0.9-0.3-1.2-0.9-1.2c-0.6,0-1.2,0.6-1.2,1.2c0,0,0,0.1,0,0.1v4.6h-1.5V56.3z"/>
			<path class="st4" d="M180.6,54h1.5v3.1h0c0.3-0.6,1-1,1.7-1c1.1,0,2.3,0.5,2.3,3.5c0,2.4-0.7,3.7-2.4,3.7c-0.7,0.1-1.4-0.4-1.6-1
				h0v0.8h-1.4L180.6,54z M183.2,62.2c1,0,1.2-1,1.2-2.5c0-1.9-0.3-2.5-1.1-2.5c-1.1,0-1.3,0.9-1.3,2.6
				C182,61.3,182.2,62.2,183.2,62.2L183.2,62.2z"/>
			<path class="st4" d="M187.2,54h1.5v3.7h2.9V54h1.6v9.1h-1.6v-4.2h-2.9v4.2h-1.5V54z"/>
		</g>
	</g>
	<path class="st1" d="M442.4,86.7c0,2.2,0.3,4.3,1.1,6.4c2.2,5.8,8.7,7.1,14.3,7.1c4.9,0,12.4-1.6,12.4-8.8c0-5-4.2-6.4-20.9-11.1
		c-15.3-4.3-32.9-8.6-32.9-28.1c0-22.4,19.1-32.1,39.1-32.1c21.1,0,39.7,8,40.5,31.6h-28.2c0.6-3.1-0.9-6.2-3.5-7.7
		c-2.6-1.7-5.7-2.5-8.8-2.4c-4.1,0-10.7,1.1-10.7,6.5c0.5,6.9,14.4,8.4,28.1,12.2c13.7,3.8,27.3,10.2,27.3,28
		c0,25.3-23.2,33.4-44.8,33.4c-11,0-42.4-3.9-42.6-34.9L442.4,86.7z"/>
</g>
</svg>
