<svg clip-rule="evenodd" fill-rule="evenodd" stroke-linejoin="round" stroke-miterlimit="2" viewBox="0 0 500 157" xmlns="http://www.w3.org/2000/svg"><g fill="#ed1c24" transform="scale(.213679)"><path d="m296.11 232.928c4.553 1.428 9.096 2.89 13.659 4.281 28.525 8.679 44.094 27.664 45.274 57.668.691 17.617.466 35.278 1.249 52.895.333 6.855 1.576 13.636 3.696 20.164 1.36 4.204 4.193 8.814 7.737 11.213 4.885 3.306 5.552 7.044 5.502 12.209-.206 22.325-.245 44.657.03 66.977.064 5.215-1.675 6.409-6.595 6.395-47.093-.164-94.185-.155-141.277.025-5.18.025-6.877-1.745-7.936-6.574-6.798-30.95-6.756-62.347-6.805-93.779-.025-16.209-.032-32.462-1.222-48.612-1.306-17.716-10.251-27.208-27.531-30.817-5.777-1.047-11.632-1.61-17.503-1.685-1.42-.055-4.181 1.749-4.178 2.691.064 24.735.112 49.48.882 74.2.263 8.397 5.123 15.123 11.547 20.7 1.801 1.724 2.88 4.069 3.019 6.558.213 23.952.03 47.903.223 71.855.035 4.456-1.623 5.413-5.696 5.408-54.806-.104-109.611-.096-164.415.025-4.672.01-5.802-1.542-5.764-5.968.188-23.749.024-47.502.198-71.251.015-2.111.964-4.967 2.503-6.196 9.547-7.628 13.116-17.82 13.133-29.489.095-60.082.124-120.165.087-180.247.003-19.282.052-38.567-.077-57.849-.079-12.063-3.361-22.762-13.542-30.482-1.301-.985-2.112-3.413-2.122-5.176-.134-24.358.025-48.718-.185-73.074-.045-5.004 2.617-4.928 6.146-4.92 35.115.05 70.231.061 105.349.032 38.364.01 76.733-.349 115.089.206 21.441.31 42.919 1.666 63.654 8.189 35.487 11.163 58.796 34.48 68.284 70.442 8.491 32.19 8.077 64.633-1.98 96.521-8.606 27.282-27.145 45.048-54.351 53.802-2.074.667-4.141 1.35-6.213 2.03.045.543.088 1.087.131 1.633zm-135.843-41.725c8.211 0 15.738.58 23.146-.116 17.54-1.648 28.195-10.516 31.362-27.843 1.826-10.959 2.332-22.097 1.507-33.176-.704-11.528-4.699-22.329-15.445-28.82-12.727-7.688-26.688-5.822-40.57-5.475z"/><path d="m866.986 143.523c7.71-3.948 13.733-7.175 19.88-10.152 22.338-10.821 45.717-17.926 70.744-17.379 26.74.588 50.42 9.602 69.81 28.423 3.48 3.378 5.76 3.468 9.71.865 22.98-15.108 47.77-26.048 75.32-28.975 28.18-2.997 55.08 1.323 78.83 18.115 18.98 13.423 27.9 32.889 30.82 55.158 1.64 13.476 2.46 27.04 2.45 40.616.31 40.602.31 81.208 0 121.816-.12 13.929 2.79 26.073 13.93 35.387 1.27 1.061 1.93 3.525 1.94 5.344.13 22.331.02 44.666.15 66.997.02 3.688-1.18 4.957-4.9 4.947-42.24-.094-84.47-.098-126.7-.01-3.5.01-5.13-1.08-5.45-4.734-1.88-21.364-5.24-42.688-5.61-64.072-.84-48.509-.2-97.047-.26-145.569.03-4.654-.34-9.301-1.11-13.89-3.57-20.199-14.93-28.172-34.89-24.774-13.57 2.312-13.57 2.312-13.57 16.087 0 41.418.12 82.837-.06 124.257-.06 13.602 2.88 25.672 13.67 34.986 1.41 1.214 2.24 3.842 2.25 5.824.16 22.128.01 44.261.18 66.393.04 4.342-1.5 5.477-5.66 5.468-41.62-.129-83.246-.126-124.868.009-4.407.015-6.216-1.492-6.601-5.76-1.903-21.161-5.185-42.277-5.668-63.463-.916-40.383-.175-80.802-.317-121.206-.047-13.329.491-26.822-1.356-39.94-2.404-17.049-11.477-23.411-28.64-23.039-.407.007-.813.002-1.22.019-16.348.719-17.185 1.577-17.185 17.572 0 41.418.134 82.837-.077 124.257-.07 13.617 2.473 25.751 14.021 34.575 1.261.962 1.801 3.539 1.814 5.368.118 22.128-.005 44.26.151 66.388.029 4.02-1.304 5.22-5.262 5.209-49.339-.104-98.675-.1-148.01.011-4.241.009-5.617-1.24-5.582-5.522.178-21.93-.002-43.859.208-65.784.05-2.517 1.072-4.92 2.851-6.701 9.252-7.649 12.578-17.87 12.642-29.167.233-42.232.261-84.463.084-126.691-.046-11.968-3.321-22.808-13.591-30.494-1.292-.967-2.01-3.468-2.021-5.262-.136-22.331-.024-44.666-.15-67-.02-3.73 1.271-4.897 4.954-4.89 42.433.097 84.867.092 127.3-.015 4.266-.012 5.2 1.867 5.084 5.515-.144 4.536-.035 9.079-.035 14.883z"/><path d="m1395.4 142.71c5.01-3.209 8.31-5.48 11.76-7.497 27.16-15.897 56.52-21.226 87.67-18.64 13.88 1.152 27.4 3.591 39.65 10.377 22.75 12.595 35.53 32.358 38.45 57.916 1.74 16.109 2.62 32.298 2.64 48.501.32 42.212.64 84.445-.3 126.648-.38 16.66-3.02 33.479-6.52 49.822-6.89 32.22-28.93 50.625-59.69 58.105-36.87 8.962-72.01 3.579-104.2-17.414-1.48-.956-3.04-1.769-5.57-3.227 0 12.581.02 24.2 0 35.814-.01 8.57-.13 17.136-.08 25.701.06 7.812.29 15.62.42 23.431.06 3.366.7 6.92-.16 10.043-.56 2.023-3.08 4.035-5.2 5.007-35.57 16.268-71.19 32.435-106.85 48.498-4.77 2.161-9.57 4.263-15.28 6.796-.34-4.298-.88-7.946-.89-11.599-.06-21.107-.05-42.215.04-63.325.08-15.881.52-31.768.53-47.655.06-83.018.06-166.034.02-249.049 0-8.965-1.32-18.257-8.33-23.977-7.46-6.099-7.66-13.171-7.53-21.379.27-18.873.21-37.751-.01-56.625-.05-4.481 1.19-5.948 5.81-5.934 42.62.159 85.24.159 127.87 0 4.63-.014 6.16 1.473 5.81 5.949-.31 3.968-.06 7.978-.06 13.713zm3.53 151.81v63.875c0 14.201 2.51 17.086 16.84 19.316.99.159 2.01.214 3.01.353 15.3 2.131 25.73-5.284 28.4-20.443.8-4.378 1.21-8.816 1.25-13.265.1-31.634.19-63.264-.07-94.894-.09-6.47-.98-12.904-2.65-19.156-3.72-14.18-13.62-20.675-28.2-18.851-4.36.545-8.59 2.191-12.87 3.371-4.32 1.194-5.85 3.901-5.81 8.52.22 23.721.1 47.45.1 71.174z"/><path d="m576.306 438.716c-3.64 2.692-6.015 4.441-8.382 6.201-36.004 26.753-75.783 33.985-118.502 20.973-34.854-10.618-54.03-39.705-58.387-74.502-2.188-16.518-1.212-33.303 2.878-49.455 7.058-27.412 25.319-45.762 50.26-56.776 23.094-10.192 47.167-18.232 70.993-26.698 16.781-5.963 33.823-11.208 50.855-16.432 4.322-1.329 5.916-3.438 5.45-7.793-.863-8.02-.6-16.278-2.437-24.053-2.649-11.215-10.141-16.611-20.343-16.63-11.101-.025-20.11 5.893-22.697 16.63-1.926 7.983-2.434 16.412-2.657 24.663-.136 5.165-1.249 6.969-6.791 6.925-35.32-.253-70.644-.26-105.971-.02-4.9.03-6.181-1.457-6.137-6.226.219-23.952.218-47.906-.002-71.863-.037-4.193 1.37-6.649 4.778-8.902 27.002-17.837 57.668-29.384 89.728-33.786 21.039-3.073 42.268-4.664 63.53-4.761 27.203-.011 54.184 3.574 79.501 14.731 33.642 14.826 52.761 40.578 55.172 77.283 1.567 23.848 1.089 47.839 1.274 71.766.181 23.347.134 46.694.005 70.041-.077 14.276 2.29 27.466 13.944 37.37 1.153.977 1.779 3.178 1.79 4.814.113 22.528.009 45.068.143 67.601.023 3.778-1.343 4.873-4.977 4.863-42.631-.084-85.263-.078-127.895.02-4.022.01-5.353-1.323-5.192-5.284.26-6.384.069-12.789.069-20.7zm-4.875-119.639c-15.899 5.868-31.796 9.204-44.337 19.594-4.372 3.842-7.569 8.843-9.22 14.424-4.706 16.205 7.419 29.177 23.999 26.098 6.298-1.342 12.475-3.199 18.469-5.551 8.217-2.969 11.349-5.968 11.349-17.865.419-14.751-.26-23.758-.26-36.7z"/><path d="m1784.77 439.831c-11.23 6.93-20.91 14.187-31.61 19.263-31.95 15.148-65.25 17.78-98.6 5.601-33.72-12.318-50.22-38.624-55.02-73.208-2.32-16.509-1.37-33.313 2.8-49.455 7.03-27.407 25.25-45.822 50.2-56.821 23.29-10.261 47.56-18.321 71.58-26.856 16.78-5.969 33.81-11.223 50.82-16.537 3.75-1.175 5.41-2.914 4.98-6.868-.94-8.617-.79-17.468-2.77-25.825-2.42-10.204-9.53-15.086-19.28-15.557-10.24-.496-19.57 4.553-22.42 14.286-2.32 8.567-3.53 17.399-3.58 26.276-.14 6.3-1.93 7.703-7.97 7.653-34.72-.292-69.43-.3-104.15-.024-5.28.035-6.95-1.249-6.88-6.739.3-23.749.25-47.505.02-71.256-.04-4.468 1.62-6.917 5.21-9.279 26.87-17.664 57.34-29.111 89.2-33.503 21.03-3.09 42.26-4.684 63.52-4.769 27.41.007 54.58 3.601 80.07 14.948 33.39 14.865 51.85 40.562 54.82 76.953 1.08 13.109 1.11 26.324 1.16 39.494.15 34.51.1 69.025.02 103.535-.02 13.879 2.65 26.578 13.85 36.205 1.26 1.08 1.86 3.539 1.87 5.368.13 22.331.02 44.662.15 66.992.02 3.654-1.11 4.987-4.87 4.977-42.83-.094-85.67-.093-128.5.005-3.97.01-4.77-1.72-4.67-5.165.17-6.414.05-12.838.05-19.694zm-4.88-119.783c-10.41 1.19-37.51 11.733-43.88 18.202-4.22 4.283-8.26 9.785-9.81 15.445-4.34 15.743 7.77 28.507 23.57 25.682 5.17-.855 10.24-2.214 15.14-4.055 14.48-5.675 14.98-6.662 14.98-21.964z"/><path d="m2297.91 21.036v6.974c0 29.437.11 58.875-.11 88.312-.05 5.198 1.13 7.197 6.69 6.942 9.72-.446 19.49.052 29.23-.2 4.32-.112 6.2 1.02 6.16 5.722-.18 21.925-.18 43.851-.01 65.778.04 4.615-1.67 5.914-6.08 5.8-10.14-.263-20.3.02-30.45-.132-3.65-.054-5.52.672-5.5 4.97.15 48.924-.1 97.859.3 146.783.17 20.666 9.27 30.083 30.74 34.153 10.92 2.072 10.92 2.072 10.92 12.933 0 18.881-.25 37.766.15 56.637.13 6.454-1.2 9.22-8.37 9.513-25.91 1.045-51.78 3.886-77.67 3.935-20.97.045-40.88-6.136-57.55-19.847-15.31-12.595-22.38-29.613-24.15-48.825-1.11-12.091-1.25-24.294-1.28-36.449-.13-51.769-.05-103.539-.06-155.311 0-8.412-.03-8.801-8.11-8.315-6.03.361-8.02-1.235-7.89-7.639.45-21.107.27-42.226.09-63.339-.03-4.471.78-6.566 5.97-6.417 10.85.31 9.92 1.522 9.94-10.144.03-17.055.08-34.109-.05-51.16-.02-3.406.54-5.693 4.31-6.754 39.94-11.24 79.87-22.54 119.78-33.9.99-.097 2-.104 3-.02z"/><path d="m2072.9 147.749c2.2-3.121 4.43-6.216 6.6-9.356 14.41-20.844 35.23-24.933 58.57-22.475 3.53.369 3.96 2.649 3.94 5.609-.09 11.77-.04 23.545-.03 35.315.01 22.936-.23 45.876.22 68.802.13 6.464-1.95 7.792-7.91 7.643-7.09-.275-14.17.294-21.12 1.693-20.1 4.389-33.09 18.675-34.11 41.214-1.34 29.514-.6 59.136-.13 88.699.15 9.448 4.04 17.666 13.48 22.226 1.63.789 3.16 3.703 3.18 5.651.23 22.327.08 44.657.21 66.978.02 3.688-1.2 4.942-4.91 4.937-50.54-.089-101.08-.087-151.62.005-3.87.005-4.79-1.537-4.77-5.071.1-22.732-.01-45.465.16-68.197.04-2.137.93-4.173 2.47-5.66 9.23-7.262 12.96-17.176 13.02-28.29.26-42.416.25-84.834 0-127.255-.07-10.878-3.65-20.638-12.63-27.858-1.71-1.581-2.73-3.771-2.85-6.097-.19-22.73-.06-45.465-.18-68.197-.01-3.631 1.1-4.989 4.87-4.982 42.42.099 84.84.099 127.26 0 3.88-.01 4.86 1.545 4.76 5.083-.2 6.41-.06 12.827-.06 19.241.53.114 1.05.228 1.58.342z"/><g fill-rule="nonzero"><path d="m7.94 578.948h66.516c50.908 0 53.31 25.519 53.31 69.654 0 55.431-2.882 81.786-55.711 81.786h-64.115zm16.809 136.798h52.589c27.855 0 33.619-12.968 33.619-61.078 0-49.783-5.283-61.079-33.619-61.079h-52.589z"/><path d="m154.657 578.948h93.171v14.641h-76.362v51.039h72.52v14.642h-72.52v56.476h75.882v14.642h-92.691z"/><path d="m309.3 593.589h-47.545v-14.641h111.9v14.641h-47.546v136.799h-16.809z"/><path d="m389.982 578.948h93.171v14.641h-76.361v51.039h72.519v14.642h-72.519v56.476h75.881v14.642h-92.691z"/><path d="m622.908 691.483c0 32.839-11.766 40.579-53.789 40.579-45.865 0-61.474-7.53-61.474-51.875v-51.038c0-44.344 15.609-51.874 61.474-51.874 38.421 0 53.789 4.392 53.789 39.533v10.877h-15.368v-9.831c0-23.637-8.885-25.937-38.421-25.937-39.622 0-44.665 4.601-44.665 38.069v49.364c0 33.468 5.043 38.07 44.665 38.07 35.059 0 38.421-6.693 38.421-27.402v-10.04h15.368z"/><path d="m682.457 593.589h-47.545v-14.641h111.9v14.641h-47.546v136.799h-16.809z"/><path d="m766.742 578.948h16.809v151.44h-16.809z"/><path d="m814.043 629.149c0-44.344 15.608-51.874 61.233-51.874s61.234 7.53 61.234 51.874v51.038c0 44.345-15.609 51.875-61.234 51.875s-61.233-7.53-61.233-51.875zm105.657.837c0-33.468-5.042-38.069-44.424-38.069-39.381 0-44.424 4.601-44.424 38.069v49.364c0 33.468 5.043 38.07 44.424 38.07 39.382 0 44.424-4.602 44.424-38.07z"/><path d="m963.403 578.948h26.655l78.042 135.544h.48v-135.544h16.81v151.44h-26.65l-78.047-135.543h-.48v135.543h-16.81z"/><path d="m1414.84 682.907h15.37v8.784c0 22.591 5.76 25.729 38.42 25.729s36.98-1.464 36.98-30.121c0-19.244 0-24.891-34.58-27.401l-17.77-1.256c-29.54-2.091-36.5-11.085-36.5-39.951 0-36.815 12.97-41.416 52.35-41.416 42.26 0 51.15 7.53 52.11 42.67h-15.37v-3.347c0-19.87-7.93-24.681-36.74-24.681-32.9 0-35.54 4.392-35.54 26.774 0 21.544 4.32 25.309 36.5 27.192 42.98 2.51 52.35 6.693 52.35 43.508 0 35.768-14.41 42.671-53.55 42.671-39.86 0-54.03-6.903-54.03-37.442z"/><path d="m1587.01 667.428-54.27-88.48h17.53l45.14 73.628 45.15-73.628h17.53l-54.27 88.48v62.96h-16.81z"/><path d="m1668.41 682.907h15.37v8.784c0 22.591 5.76 25.729 38.42 25.729s36.98-1.464 36.98-30.121c0-19.244 0-24.891-34.58-27.401l-17.77-1.256c-29.53-2.091-36.5-11.085-36.5-39.951 0-36.815 12.97-41.416 52.35-41.416 42.26 0 51.15 7.53 52.11 42.67h-15.37v-3.347c0-19.87-7.92-24.681-36.74-24.681-32.9 0-35.54 4.392-35.54 26.774 0 21.544 4.32 25.309 36.5 27.192 42.98 2.51 52.35 6.693 52.35 43.508 0 35.768-14.41 42.671-53.55 42.671-39.86 0-54.03-6.903-54.03-37.442z"/><path d="m1835.78 593.589h-47.55v-14.641h111.9v14.641h-47.54v136.799h-16.81z"/><path d="m1916.46 578.948h93.17v14.641h-76.36v51.039h72.52v14.642h-72.52v56.476h75.88v14.642h-92.69z"/><path d="m2036.53 578.948h28.09l52.59 133.661h.48l52.59-133.661h28.09v151.44h-16.81v-135.543h-.48l-54.51 135.543h-18.25l-54.5-135.543h-.48v135.543h-16.81z"/><path d="m2223.58 682.907h15.37v8.784c0 22.591 5.77 25.729 38.42 25.729 32.66 0 36.98-1.464 36.98-30.121 0-19.244 0-24.891-34.57-27.401l-17.77-1.256c-29.54-2.091-36.5-11.085-36.5-39.951 0-36.815 12.96-41.416 52.34-41.416 42.27 0 51.15 7.53 52.11 42.67h-15.37v-3.347c0-19.87-7.92-24.681-36.74-24.681-32.9 0-35.54 4.392-35.54 26.774 0 21.544 4.33 25.309 36.5 27.192 42.99 2.51 52.35 6.693 52.35 43.508 0 35.768-14.41 42.671-53.55 42.671-39.86 0-54.03-6.903-54.03-37.442z"/></g></g></svg>