<svg viewBox="0 0 616.09 263.43" xmlns="http://www.w3.org/2000/svg"><g fill="#057b97"><path d="m55.22 0h560.87v208.73h-505.46v-20.26h21.5s12.48 2.87 8.4-11-7.68-25.47-7.68-25.47h-65.22l-9.11 25.91s-5.28 10.32 5.48 10.32h24.25v21.1h-88.25v-20.33h15.58s9.6 1 13.19-6a82.5 82.5 0 0 0 5.76-16.07l46.05-132.16s2.63-6.72 1.2-11-9.6-2.41-9.6-2.41h-16.78zm91.66 30.28s23.38 83.82 26.42 95.06 9.11 40.08 17.61 52.84 21.26 10.63 21.26 10.63h374.75c8.2 0 6.38-6.38 6.38-6.38v-155.18c0-6.08-5.47-5.47-5.47-5.47h-435.48c-9.42 0-5.47 8.5-5.47 8.5zm99 18.53h-47.07v15.19h8.19s4.55-.91 4.55 3.34v69.85s.92 2.73-3.94 2.73h-8.2v17h71.06v-32.19h-16.4v10.93a2.82 2.82 0 0 1 -3 3.65h-15.51s-2.74.91-2.74-4.56v-66.81s.31-4.56 4.86-4.56h8.2zm31 .61v16.39h9.12s3.34.31 3.34 4.56v65.29s1.52 4-3.95 4h-7.9v17h38v-17.35h-5.17s-3.34.6-3.34-4.56v-36.75l25.21 46.76s2.43 4.86 4.25 4.86 3.95-5.16 3.95-5.16l24.54-46.46v37.65s1.21 3.34-2.74 3.34h-5.19v17.62h38v-17h-8.5s-3.65 1.21-3.65-4.86v-64.08s0-4.55 4.56-4.55h7.89v-17h-27s-6.17-.81-8.2 4c-2.46 5.75-21 40.69-21 40.69s-2.12 5.77-6.07-.6-20.35-39.48-20.35-39.48-2.42-4.86-7.89-4.86h-27.33zm123.9 16.39h9.42c4.55 0 3.94 4 3.94 4v64.38c0 5.47-4.25 4.86-4.25 4.86h-8.81v17.92h75.92v-32.8h-17v11.83c0 3-2.13 3.64-2.13 3.64h-20c-4.86 0-4.25-3.64-4.25-3.64v-25.85a3 3 0 0 1 3.34-3.34h25.51v-15.81h-24.9a3.76 3.76 0 0 1 -3.95-3.34v-17c0-4.86 2.12-4.55 2.12-4.55h19.74c6.08 0 4.56 3.64 4.56 3.64v10.34h17.31v-31h-76.29zm131.8-16.7h-49.2v14.58h7.9s5.16-.31 7.29 2.73 20.93 30.37 20.93 30.37a12.36 12.36 0 0 1 -.3 11.54c-3.34 6.38-18.53 27.94-18.53 27.94s-4.55 5.77-9.11 5.77h-7.89v15.18h47.07v-16.09h-5.47s-5.16.61-2.12-3.95 8.85-14.58 8.85-14.58 3-2.73 5.17.61 8.2 14 8.2 14 2.73 4.25-1.83 4.25h-6.07v16.1h47.37v-15.56h-7.28s-4.56 1.52-9.42-4.86-19.43-29.76-19.43-29.76-2.74-4.56.91-10.63 19.74-29.46 19.74-29.46 4.25-3.64 8.5-3.64h7.29v-14.54h-49.25v14.27h7s5.16.31 2.12 4.56-7.89 14.58-7.89 14.58-2.43 5.77-6.08-.61-7.59-13.36-7.59-13.36-2.43-4.86 1.21-4.86h8.2zm-408 71.76-17.18-59s-4.68-10.15-8.2 0-21.08 59.36-21.08 59.36-4.31 7.42 4.29 7.42h37.48s7.77.03 4.65-7.78z"/><path d="m110.94 227.86h6.18v29.14h14.75v5.59h-20.93z"/><path d="m142.84 227.86h6.16v34.69h-6.18z"/><path d="m194.05 260a30 30 0 0 1 -14.36 3.43 20.13 20.13 0 0 1 -7.37-1.3 16.52 16.52 0 0 1 -9.58-9.38 19.16 19.16 0 0 1 -1.37-7.4 20 20 0 0 1 1.37-7.57 16.89 16.89 0 0 1 3.8-5.81 16.62 16.62 0 0 1 5.78-3.7 20.34 20.34 0 0 1 7.37-1.3 27.89 27.89 0 0 1 7.45 1 15.29 15.29 0 0 1 6.22 3.41l-4.55 4.6a11.49 11.49 0 0 0 -4.05-2.5 14.22 14.22 0 0 0 -5-.88 11.92 11.92 0 0 0 -4.87 1 10.9 10.9 0 0 0 -3.75 2.64 11.9 11.9 0 0 0 -2.43 4 13.56 13.56 0 0 0 -.86 4.85 14.94 14.94 0 0 0 .86 5.14 12 12 0 0 0 2.43 4.07 11.16 11.16 0 0 0 3.75 2.69 11.61 11.61 0 0 0 4.87 1 20.86 20.86 0 0 0 4.43-.44 12.4 12.4 0 0 0 3.7-1.37v-8.18h-7.1v-5.59h13.28z"/><path d="m208 227.86h6.18v13.81h16.22v-13.81h6.17v34.69h-6.17v-15.29h-16.26v15.29h-6.14z"/><path d="m258 233.44h-10.64v-5.58h27.44v5.58h-10.63v29.11h-6.17z"/><path d="m281.76 227.86h6.76l6.52 25h.09l7.8-25h6.07l7.65 25h.09l6.82-25h6.27l-10.1 34.69h-5.88l-8-26.41h-.1l-8 26.41h-5.75z"/><path d="m340.31 227.86h23v5.58h-16.8v8.56h15.92v5.58h-15.94v9.42h17.69v5.59h-23.87z"/><path d="m376.72 227.86h6.17v34.69h-6.17z"/><path d="m427.92 260a29.92 29.92 0 0 1 -14.35 3.43 20.22 20.22 0 0 1 -7.38-1.3 16.79 16.79 0 0 1 -5.78-3.67 17 17 0 0 1 -3.8-5.71 19.35 19.35 0 0 1 -1.37-7.4 20.17 20.17 0 0 1 1.37-7.57 17 17 0 0 1 3.8-5.81 16.72 16.72 0 0 1 5.78-3.7 20.43 20.43 0 0 1 7.38-1.3 28 28 0 0 1 7.45 1 15.35 15.35 0 0 1 6.22 3.41l-4.56 4.6a11.45 11.45 0 0 0 -4-2.5 14.3 14.3 0 0 0 -5-.88 12 12 0 0 0 -4.88 1 11.09 11.09 0 0 0 -3.75 2.64 12 12 0 0 0 -2.42 4 13.34 13.34 0 0 0 -.86 4.85 14.71 14.71 0 0 0 .86 5.14 12.09 12.09 0 0 0 2.42 4.07 11.36 11.36 0 0 0 3.75 2.69 11.66 11.66 0 0 0 4.88 1 21 21 0 0 0 4.43-.44 12.5 12.5 0 0 0 3.7-1.37v-8.18h-7.1v-5.59h13.27z"/><path d="m441.84 227.86h6.16v13.81h16.22v-13.81h6.18v34.69h-6.18v-15.29h-16.22v15.29h-6.17z"/><path d="m491.87 233.44h-10.63v-5.58h27.44v5.58h-10.68v29.11h-6.17z"/></g></svg>