<svg height="35.93229" viewBox="0 0 125.3627 35.93229" width="125.3627" xmlns="http://www.w3.org/2000/svg" xmlns:xlink="http://www.w3.org/1999/xlink"><linearGradient id="a" gradientTransform="matrix(1 0 0 -1 -2.01 69.7)" gradientUnits="userSpaceOnUse" x1="20.50095" x2="18.89095" y1="32.72899" y2="47.19899"><stop offset="0" stop-color="#3b6e8f"/><stop offset="1" stop-color="#000018"/></linearGradient><g transform="translate(-.00153 .00229)"><g fill="#3b6e8f"><path d="m50.89709 7.19622h2.74555l6.54114 16.11684h-3.73778l-1.30054-3.41026h-5.83789l-1.25236 3.41026h-3.66072zm1.28126 4.69151-1.83035 5.00942h3.68z"/><path d="m62.82148 7.19622h3.30429v12.84145h6.14617v3.27539h-9.45046z"/><path d="m75.1023 7.19622h5.00942l3.45842 10.51978 3.47769-10.51977h4.99017v16.11683h-3.25614v-12.35977l-3.94973 12.35978h-2.58178l-3.79559-12.35978v12.35978h-3.35246z"/><path d="m96.2652 7.19622h10.22114v3.285h-6.89758v2.96712h6.51224v3.285h-6.51224v3.27539h7.27329v3.27539h-10.59685z"/><path d="m115.1268 14.7615-4.97088-7.7068h4.16167l3.208 5.64523 3.07308-5.64523h4.01717l-4.81675 7.62973 5.43329 8.48711h-4.20988l-3.67036-6.48334-3.54512 6.493h-3.94973z"/></g><path d="m90.97778 35.08856a6.17 6.17 0 0 1 -3.15.84 4.42 4.42 0 0 1 -4.53029-4.30689q-.00547-.21668.01029-.43311a4.5 4.5 0 0 1 4.24289-4.74319q.14342-.008.28711-.00681a3.89 3.89 0 0 1 3 1.19l-.75.84a3.07 3.07 0 0 0 -2.3-1 3.76 3.76 0 0 0 .1 7.5 4.56 4.56 0 0 0 2.09-.53v-2.79h-1.94v-1h2.94z" fill="#a7a9ac"/><path d="m93.26923 26.71856h2.15c1.64 0 3.36.26 3.36 2.49a2.29 2.29 0 0 1 -2.11 2.38l2.39 4.13h-1.22l-2.28-4h-1.29v4h-1zm1 4h.89c1.11 0 2.55 0 2.55-1.49 0-1.3-1.06-1.49-2-1.49h-1.4z" fill="#a7a9ac"/><path d="m100.22423 31.18856a4.45 4.45 0 1 1 -.00945.29947q-.00032-.14985.00945-.29947zm7.74 0a3.36 3.36 0 1 0 -3.29 3.75 3.47 3.47 0 0 0 3.29756-3.63426q-.00279-.05793-.00756-.11574z" fill="#a7a9ac"/><path d="m117.49436 32.25856c0 2-.86 3.67-3.17 3.67s-3.19-1.71-3.19-3.67v-5.54h1v5.44c0 1.45.49 2.83 2.18 2.83s2.17-1.38 2.17-2.83v-5.44h1z" fill="#a7a9ac"/><path d="m119.9141 26.71683h2.5c1.55 0 2.95.59 2.95 2.48a2.45 2.45 0 0 1 -2.8 2.45h-1.65v4h-1zm1 4h1.65c1 0 1.69-.48 1.69-1.49s-.69-1.51-1.69-1.51h-1.65z" fill="#a7a9ac"/><path d="m9.76 25.47c-1.25 3.74-3 8.93-3 8.93h-4v1.53h9.9v-1.53h-3.57l3-9.32zm18.1 1.32 2.4 7.61h3.56v1.53h-12.8v-1.53h3.84l-3.54-11-.21-.7a52.159 52.159 0 0 0 4.77-2.16c.37 1.16 1.09 3.39 1.83 5.76z" fill="url(#a)"/><path d="m33.34153 8.94771a21.8 21.8 0 0 0 -15.21-8.95l-4.26 12.83a45.77013 45.77013 0 0 0 -9.54 4.71c-2.5 1.72-4.3 3.59-4.33 5.06a1.8998 1.8998 0 0 0 .09.58c.51 1.39 2.76 1.7 5.56 1.72a29.77945 29.77945 0 0 0 4.32-.37l1.52-.26a55.85215 55.85215 0 0 0 7.47-2c.72-.25 1.43-.51 2.13-.77 1.31-.44 4.56-2 4.56-2a36.42136 36.42136 0 0 0 4.19-2.35c.38-.25.75-.5 1.09-.76.35 1.17.7 2.7.93 3.93l.36-.37a33.99872 33.99872 0 0 0 -.94-3.83 7.68 7.68 0 0 0 2.9-3.44 20.53019 20.53019 0 0 1 1.4 4.89c0 2.22-2.7 5.21-7.08 7.93l.1.53c3.68-2.25 6.27-4.68 7.16-6.91 0 .52.06 1.06.06 1.59a20.57015 20.57015 0 0 1 -1.26 7.09l.29.55.16-.38a25.28028 25.28028 0 0 0 1.75-7.92 18.62007 18.62007 0 0 0 -3.42-11.1zm-4.37-3.43a20.47025 20.47025 0 0 1 2.74 3 35.59088 35.59088 0 0 0 -3.87.22 32.1889 32.1889 0 0 0 -2.06-2.94l-.37-.45a17.34859 17.34859 0 0 0 -1.6-1.73c1.38.25 2.67.56 3.91.9.24.19.49.36.72.55zm-7.46.95-.14-.46-.92-2.9c.88.1 1.73.22 2.56.36.64.62 1.26 1.26 1.85 1.94l.37.43a31.53765 31.53765 0 0 1 2.12 2.95c-1.54.19-3.16.46-4.85.83zm5.18-2.77c-1.09-.27-2.24-.51-3.43-.72a29.51819 29.51819 0 0 0 -2.29-1.9 20.2703 20.2703 0 0 1 5.72 2.62zm-6.92-3 .09.06a27.81088 27.81088 0 0 1 2.57 2.05c-.69-.1-1.39-.2-2.1-.28l-.57-1.83zm-2.69 8.66 3 9.35-.9.31a52.00059 52.00059 0 0 1 -5.8 1.68c.5-1.59 3.01-9.17 3.7-11.27zm12.51 7.39c-2.68 1.77-6.51 3.23-10.83 4.68a40.26007 40.26007 0 0 1 -12.72 2.34c-2.77 0-4.48-.29-4.78-1.28a1.53977 1.53977 0 0 1 -.07-.42c0-1.12.94-2.53 3.41-4.21a44.29024 44.29024 0 0 1 9.08-4.51c-.23.67-.45 1.32-.66 2a38.37982 38.37982 0 0 0 -5.72 2.85c-1.57 1-2.54 1.86-2.58 2.71a.77011.77011 0 0 0 0 .27c.29.71 1.21.88 2.55.9 2.63 0 7.08-.92 12-2.57 1.88-.63 3.64-1.31 5.21-2l.49-.17-1.56-4.93-.14-.46-.58-1.84a50.18148 50.18148 0 0 1 5-.84c.22.36.46.7.66 1.07l.23.43a30.30857 30.30857 0 0 1 2.2 5.18 9.37327 9.37327 0 0 1 -1.19.87zm-16.77-.84c-.84 2.55-1.51 4.57-1.74 5.24a22.15978 22.15978 0 0 1 -3.77.41c-1.31 0-2.05-.29-2.09-.57a.42991.42991 0 0 1 0-.12c0-.41.81-1.34 2.36-2.3a37.38875 37.38875 0 0 1 5.24-2.59zm18.33-.21a31.10963 31.10963 0 0 0 -2.12-5l-.23-.44c-.19-.34-.41-.66-.61-1a34.75911 34.75911 0 0 1 3.56-.19h.4l.12.16.37.57a18.59987 18.59987 0 0 1 1.12 2 1.32985 1.32985 0 0 1 .05.34c.02.91-.94 2.2-2.66 3.56z" fill="#3b6e8f"/></g></svg>