<svg clip-rule="evenodd" fill-rule="evenodd" stroke-linejoin="round" stroke-miterlimit="2" viewBox="0 0 500 141" xmlns="http://www.w3.org/2000/svg"><g fill-rule="nonzero"><g fill="#46ab99"><path d="m6.197 6.065h21.59v7.76h-9.882v6.227h9.117v7.452h-9.117v7.248h10.343v7.759h-22.051z" transform="matrix(2.66108 0 0 2.66108 -15.866423392 -13.832826056)"/><path d="m31.062 6.065h15.976l5.206 21.439h.103l5.205-21.439h15.978v36.446h-10.618v-23.377h-.102l-6.329 23.377h-8.371l-6.33-23.377h-.101v23.377h-10.617z" transform="matrix(2.66108 0 0 2.66108 -15.866423392 -13.832826056)"/><path d="m290.75492296 2.35771688h13.84826032v97.17731944h-13.84826032z" stroke-width="2.66108"/><path d="m273.52442996 2.35771688h12.46183764v97.17731944h-12.46183764z" stroke-width="2.66108"/><path d="m257.5792386 2.35771688h11.07807604v97.17731944h-11.07807604z" stroke-width="2.66108"/><path d="m242.77565056 2.35771688h9.69165336v97.17731944h-9.69165336z" stroke-width="2.66108"/><path d="m229.06310532 2.35771688h8.7682586v97.17731944h-8.7682586z" stroke-width="2.66108"/><path d="m216.30056564 2.35771688h7.38183592v97.17731944h-7.38183592z" stroke-width="2.66108"/><path d="m204.75946168 2.35771688h6.45844116v97.17731944h-6.45844116z" stroke-width="2.66108"/><path d="m194.05393684 2.35771688h5.24764976v97.17731944h-5.24764976z" stroke-width="2.66108"/><path d="m184.62040824 2.35771688h4.26571124v97.17731944h-4.26571124z" stroke-width="2.66108"/></g><g transform="matrix(2.66108 0 0 2.66108 -15.8664 -13.8328)"><path d="m120.564 30.261c-.011.817.128 1.63.408 2.398.819 2.196 3.268 2.655 5.361 2.655 1.838 0 4.644-.614 4.644-3.319 0-1.889-1.583-2.398-7.861-4.186-5.769-1.632-12.352-3.214-12.352-10.564 0-8.422 7.197-12.047 14.7-12.047 7.913 0 14.906 3.012 15.211 11.893h-10.615c.21-1.15-.323-2.315-1.329-2.909-.987-.634-2.144-.954-3.316-.919-1.534 0-4.033.408-4.033 2.451.204 2.602 5.412 3.164 10.566 4.594 5.156 1.429 10.258 3.827 10.258 10.513 0 9.494-8.727 12.557-16.843 12.557-4.135 0-15.927-1.481-16.027-13.117z" fill="#231f20"/><path d="m145.503 29.087-11.812-23.022h13.401l5.077 12.425 5.329-12.425h13.3l-12.067 23.022v13.424h-13.228z" fill="#9b9e9f"/><g fill="#231f20"><path d="m172.215 30.261c-.011.817.127 1.63.409 2.398.817 2.196 3.265 2.655 5.359 2.655 1.838 0 4.644-.614 4.644-3.319 0-1.889-1.582-2.398-7.861-4.186-5.767-1.632-12.35-3.214-12.35-10.564 0-8.422 7.196-12.047 14.699-12.047 7.911 0 14.906 3.012 15.211 11.893h-10.615c.209-1.15-.324-2.315-1.33-2.909-.987-.634-2.143-.954-3.315-.919-1.534 0-4.033.408-4.033 2.451.203 2.602 5.411 3.164 10.566 4.594 5.154 1.429 10.257 3.827 10.257 10.513 0 9.494-8.728 12.557-16.845 12.557-4.134 0-15.924-1.481-16.024-13.117z"/><path d="m5.962 46.522h5.249v1.226h-3.698v2.53h3.481v1.227h-3.481v2.912h3.807v1.227h-5.358z"/><path d="m12.475 46.522h1.469v9.122h-1.469z"/><path d="m16.69 52.386v.396c0 .92.123 2.096 1.224 2.096 1.047 0 1.17-1.124 1.17-1.533h1.386c.003.048.005.096.005.144 0 1.287-1.059 2.345-2.345 2.345-.077 0-.154-.003-.23-.011-1.196 0-2.679-.333-2.679-3.512 0-1.802.408-3.719 2.706-3.719 2.04 0 2.584 1.149 2.584 3.066v.728zm2.353-.945v-.371c0-.868-.3-1.532-1.129-1.532-.939 0-1.224.867-1.224 1.763v.14z"/><path d="m21.72 46.522h1.469v5.124h.026l2.217-2.875 1.7-.013-2.203 2.657 2.488 4.229h-1.604l-1.795-3.13-.829.946v2.184h-1.469z"/><path d="m27.362 48.771h1.006v-1.956h1.468v1.956h1.197v1.022h-1.197v4.1c0 .538.164.729.667.729.177.003.355-.01.53-.038v1.021c-.388.084-.785.123-1.183.116-.992 0-1.482-.256-1.482-1.662v-4.266h-1.006z"/><path d="m31.794 48.771h1.469v1.072h.027c.235-.74.924-1.247 1.699-1.251.12-.001.239.016.354.051v1.406c-.201-.047-.406-.073-.612-.077-.042-.004-.084-.006-.126-.006-.745 0-1.358.613-1.358 1.358 0 .069.005.137.016.205v4.115h-1.469z"/><path d="m38.511 48.592c2.135 0 2.733 1.481 2.733 3.616 0 2.133-.694 3.615-2.733 3.615-2.026 0-2.72-1.482-2.72-3.615 0-2.135.599-3.616 2.72-3.616zm0 6.209c1.074 0 1.264-.844 1.264-2.593 0-1.52-.19-2.594-1.264-2.594-1.061 0-1.251 1.074-1.251 2.594 0 1.749.19 2.593 1.251 2.593z"/><path d="m42.439 48.771h1.387v.805h.041c.375-.609 1.04-.982 1.755-.984.74-.096 1.452.343 1.699 1.048.367-.671 1.085-1.078 1.849-1.048.062-.007.125-.011.187-.011.884 0 1.611.727 1.611 1.611 0 .075-.006.151-.016.226v5.225h-1.469v-4.713c0-.895-.286-1.241-.884-1.241-.65.014-1.177.553-1.177 1.203 0 .047.002.094.008.14v4.611h-1.469v-4.713c0-.895-.285-1.241-.897-1.241-.645.02-1.164.556-1.164 1.201 0 .047.003.095.008.142v4.611h-1.469z"/><path d="m53.697 52.386v.396c0 .92.122 2.096 1.224 2.096 1.047 0 1.169-1.124 1.169-1.533h1.387c.003.048.005.096.005.145 0 1.286-1.059 2.344-2.345 2.344-.077 0-.153-.003-.23-.011-1.196 0-2.678-.333-2.678-3.512 0-1.802.408-3.719 2.705-3.719 2.041 0 2.584 1.149 2.584 3.066v.728zm2.352-.945v-.371c0-.868-.299-1.532-1.128-1.532-.939 0-1.224.867-1.224 1.763v.14z"/><path d="m63.663 53.14c-.096 1.648-.693 2.683-2.502 2.683-2.121 0-2.72-1.482-2.72-3.615 0-2.135.599-3.616 2.72-3.616.085-.01.17-.015.256-.015 1.245 0 2.27 1.025 2.27 2.27 0 .071-.003.141-.01.211h-1.468c0-.64-.191-1.47-1.048-1.444-1.06 0-1.251 1.074-1.251 2.594 0 1.519.191 2.593 1.251 2.593.816.013 1.115-.626 1.115-1.661z"/><path d="m64.684 46.522h1.468v2.989l.041.027c.402-.595 1.076-.951 1.795-.946 1.115 0 1.822.472 1.822 1.865v5.187h-1.469v-4.714c0-.895-.285-1.241-1.02-1.241-.65.014-1.177.553-1.177 1.204 0 .046.002.093.008.139v4.612h-1.468z"/><path d="m76.024 54.213c-.024.236.145.452.38.485.083.003.166-.009.245-.037v.894c-.226.103-.471.16-.72.166-.654 0-1.198-.243-1.238-.907h-.027c-.357.663-1.072 1.059-1.823 1.009-.065.008-.13.011-.195.011-.945 0-1.722-.777-1.722-1.722 0-.073.004-.146.014-.219 0-1.533.707-1.851 1.699-2.158l1.143-.294c.53-.14.856-.281.856-.882 0-.626-.231-1.021-1.006-1.021-.979 0-1.115.651-1.115 1.314h-1.387c0-1.456.639-2.26 2.57-2.26 1.291 0 2.326.472 2.326 1.686zm-1.388-2.197c-.524.26-1.069.474-1.631.638-.41.21-.65.654-.599 1.113-.005.04-.008.081-.008.122 0 .5.412.912.912.912h.008c.883 0 1.318-.626 1.318-1.636z"/><path d="m77.518 48.771h1.387v.805h.041c.405-.638 1.121-1.013 1.876-.984 1.115 0 1.823.472 1.823 1.865v5.187h-1.47v-4.714c0-.895-.284-1.241-1.019-1.241-.65.015-1.177.553-1.177 1.203 0 .047.003.094.008.14v4.612h-1.469z"/><path d="m84.126 46.42h1.468v1.38h-1.468zm0 2.351h1.468v6.872h-1.468z"/><path d="m90.23 50.776v-.178c0-.549-.205-1.06-.965-1.06-.585 0-1.048.255-1.048.895 0 .535.259.752 1.034 1.008l.939.306c.956.149 1.651 1.013 1.59 1.98 0 1.47-1.143 2.096-2.625 2.096-1.849 0-2.407-.805-2.407-2.134v-.255h1.306v.217c0 .791.3 1.227 1.142 1.227.803 0 1.198-.384 1.198-1.01.009-.484-.33-.91-.803-1.009l-1.196-.396c-.956-.146-1.644-1.018-1.564-1.981 0-1.29.992-1.89 2.502-1.89 1.862 0 2.284 1.022 2.284 1.878v.306z"/><path d="m97.802 53.14c-.095 1.648-.693 2.683-2.502 2.683-2.121 0-2.719-1.482-2.719-3.615 0-2.135.598-3.616 2.719-3.616.085-.01.171-.015.256-.015 1.246 0 2.271 1.025 2.271 2.27 0 .071-.004.141-.01.211h-1.469c0-.64-.191-1.47-1.048-1.444-1.06 0-1.251 1.074-1.251 2.594 0 1.519.191 2.593 1.251 2.593.816.013 1.116-.626 1.116-1.661z"/><path d="m98.823 46.522h1.468v2.989l.041.027c.402-.595 1.076-.951 1.795-.946 1.115 0 1.823.472 1.823 1.865v5.187h-1.469v-4.714c0-.895-.285-1.241-1.02-1.241-.651.015-1.178.553-1.178 1.204 0 .046.003.093.008.139v4.612h-1.468z"/><path d="m106.627 52.386v.396c0 .92.123 2.096 1.224 2.096 1.047 0 1.169-1.124 1.169-1.533h1.387c.003.048.004.097.004.145 0 1.286-1.058 2.344-2.344 2.344-.077 0-.153-.003-.23-.011-1.196 0-2.678-.333-2.678-3.512 0-1.802.408-3.719 2.706-3.719 2.04 0 2.583 1.149 2.583 3.066v.728zm2.352-.945v-.371c0-.868-.298-1.532-1.128-1.532-.938 0-1.224.867-1.224 1.763v.14z"/><path d="m116.211 52.82v.231c0 1.111.517 1.674 1.591 1.674.044.004.087.006.131.006.734 0 1.337-.603 1.338-1.336 0-.958-.517-1.379-1.387-1.622l-1.06-.345c-1.415-.51-2.027-1.201-2.027-2.504 0-1.661 1.198-2.58 3.019-2.58 2.488 0 2.747 1.456 2.747 2.402v.203h-1.55v-.191c0-.829-.394-1.317-1.36-1.317-.036-.003-.073-.005-.109-.005-.659 0-1.202.543-1.202 1.202 0 .04.002.08.006.12 0 .78.421 1.175 1.454 1.546l1.048.357c1.372.46 1.971 1.164 1.971 2.415 0 1.942-1.25 2.747-3.209 2.747-2.407 0-2.95-1.508-2.95-2.785v-.218z"/><path d="m122.956 48.771 1.264 5.161h.027l1.17-5.161h1.536l-2.012 7.127c-.571 1.878-1.048 2.121-2.557 2.097-.196-.005-.391-.022-.585-.051v-1.099c.157.03.317.047.477.051.502 0 .829-.102.992-.537l.191-.562-2.082-7.027z"/><path d="m130.921 50.776v-.178c0-.549-.204-1.06-.963-1.06-.586 0-1.048.255-1.048.895 0 .535.258.752 1.033 1.008l.938.306c.957.149 1.652 1.013 1.591 1.98 0 1.47-1.142 2.096-2.625 2.096-1.848 0-2.406-.805-2.406-2.134v-.255h1.306v.217c0 .791.298 1.227 1.141 1.227.803 0 1.198-.384 1.198-1.01.009-.484-.33-.91-.803-1.009l-1.196-.396c-.955-.146-1.643-1.017-1.564-1.981 0-1.29.992-1.89 2.502-1.89 1.862 0 2.285 1.022 2.285 1.878v.306z"/><path d="m132.906 48.771h1.007v-1.956h1.467v1.956h1.198v1.022h-1.198v4.1c0 .538.164.729.666.729.178.003.356-.01.532-.038v1.021c-.389.085-.786.123-1.183.116-.993 0-1.482-.256-1.482-1.662v-4.266h-1.007z"/><path d="m138.603 52.386v.396c0 .92.122 2.096 1.223 2.096 1.048 0 1.17-1.124 1.17-1.533h1.386c.003.048.005.096.005.145 0 1.286-1.059 2.345-2.345 2.345-.077 0-.154-.004-.23-.012-1.195 0-2.678-.333-2.678-3.512 0-1.802.409-3.719 2.706-3.719 2.04 0 2.583 1.149 2.583 3.066v.728zm2.352-.945v-.371c0-.868-.299-1.532-1.129-1.532-.938 0-1.223.867-1.223 1.763v.14z"/><path d="m143.701 48.771h1.386v.805h.041c.375-.608 1.04-.981 1.754-.984.741-.097 1.453.343 1.7 1.048.367-.671 1.086-1.078 1.85-1.048.062-.007.124-.011.186-.011.884 0 1.61.727 1.61 1.61 0 .076-.005.152-.016.227v5.225h-1.467v-4.713c0-.895-.286-1.241-.885-1.241-.65.014-1.177.553-1.177 1.203 0 .047.002.094.008.14v4.611h-1.469v-4.713c0-.895-.286-1.241-.897-1.241-.645.02-1.164.556-1.164 1.201 0 .047.003.095.008.142v4.611h-1.468z"/><path d="m154.959 52.386v.396c0 .92.122 2.096 1.222 2.096 1.048 0 1.169-1.124 1.169-1.533h1.388c.003.048.004.096.004.144 0 1.287-1.058 2.345-2.345 2.345-.077 0-.153-.003-.229-.011-1.197 0-2.678-.333-2.678-3.512 0-1.802.407-3.719 2.706-3.719 2.039 0 2.583 1.149 2.583 3.066v.728zm2.35-.945v-.371c0-.868-.298-1.532-1.128-1.532-.938 0-1.222.867-1.222 1.763v.14z"/><path d="m168.145 54.584h-.026c-.352.837-1.221 1.344-2.122 1.239-2.121 0-2.883-1.482-2.883-4.74 0-3.259.979-4.739 3.222-4.739.098-.012.195-.017.293-.017 1.4 0 2.552 1.152 2.552 2.552 0 .032-.001.064-.002.096v.167h-1.468v-.218c.007-.055.01-.111.01-.167 0-.722-.594-1.317-1.317-1.317-.018 0-.036.001-.054.001-1.1 0-1.686.691-1.686 3.603 0 2.939.517 3.681 1.564 3.681 1.183.012 1.619-.793 1.619-2.786h-1.632v-1.098h3.1v4.803h-1.17z"/><path d="m170.62 48.771h1.386v.805h.041c.375-.608 1.04-.981 1.754-.984.741-.097 1.453.343 1.7 1.048.367-.671 1.086-1.078 1.85-1.048.062-.007.124-.011.186-.011.884 0 1.61.727 1.61 1.61 0 .076-.005.152-.016.227v5.225h-1.467v-4.713c0-.895-.287-1.241-.885-1.241-.65.015-1.177.553-1.177 1.203 0 .047.002.094.008.14v4.611h-1.469v-4.713c0-.895-.286-1.241-.897-1.241-.645.02-1.164.556-1.164 1.201 0 .047.003.095.008.142v4.611h-1.468z"/><path d="m180.612 46.522h1.47v3.054h.026c.297-.637.957-1.029 1.658-.984 1.115 0 2.259.472 2.259 3.526 0 2.363-.682 3.705-2.394 3.705-.703.064-1.366-.358-1.605-1.022h-.026v.843h-1.388zm2.624 8.203c1.02 0 1.237-.985 1.237-2.543 0-1.852-.299-2.493-1.141-2.493-1.129 0-1.332.947-1.332 2.595 0 1.47.23 2.441 1.236 2.441z"/><path d="m187.248 46.522h1.549v3.653h2.856v-3.653h1.55v9.122h-1.55v-4.241h-2.856v4.241h-1.549z"/></g></g></g></svg>