<svg clip-rule="evenodd" fill-rule="evenodd" stroke-miterlimit="10" viewBox="0 0 440 124" xmlns="http://www.w3.org/2000/svg"><g fill-rule="nonzero"><path d="m.588-.251.095.024c-.02.078-.056.137-.108.178-.051.041-.114.061-.189.061-.077 0-.14-.015-.188-.047-.048-.031-.085-.077-.11-.136-.026-.06-.038-.124-.038-.192 0-.075.014-.14.043-.195.028-.056.069-.098.121-.127.053-.029.111-.043.174-.043.071 0 .132.018.18.055.049.036.083.087.102.153l-.093.022c-.016-.052-.041-.09-.072-.113-.032-.024-.071-.036-.119-.036-.055 0-.101.013-.138.04-.037.026-.063.061-.078.106-.015.044-.023.09-.023.137 0 .061.009.114.027.16.018.045.045.079.083.101.037.023.078.034.121.034.053 0 .098-.015.135-.046.037-.03.062-.076.075-.136z" fill="#02ac98" transform="matrix(60 0 0 60 5.61746 48.89372)"/><path d="m.08 0v-.716h.095v.294h.372v-.294h.095v.716h-.095v-.337h-.372v.337z" fill="#02ac98" transform="matrix(60 0 0 60 87.94546 48.89372)"/><path d="m.048-.349c0-.118.032-.211.096-.279.064-.067.146-.101.247-.101.066 0 .126.016.179.048.053.031.093.075.121.132.028.056.042.12.042.192 0 .073-.015.138-.044.195s-.071.101-.125.13c-.053.029-.111.044-.173.044-.068 0-.128-.016-.181-.049-.053-.032-.093-.077-.121-.133-.027-.056-.041-.116-.041-.179zm.098.002c0 .086.023.154.07.204.046.049.104.074.174.074.071 0 .13-.025.176-.075s.069-.121.069-.213c0-.059-.01-.11-.029-.153-.02-.043-.049-.077-.087-.101s-.08-.036-.127-.036c-.067 0-.125.023-.173.069-.049.046-.073.123-.073.231z" fill="#02ac98" transform="matrix(60 0 0 60 170.27346 48.89372)"/><path d="m261.52146 5.93372h5.7v42.96h-5.7z" fill="#02ac98" stroke-width="60"/><path d="m.588-.251.095.024c-.02.078-.056.137-.108.178-.051.041-.114.061-.189.061-.077 0-.14-.015-.188-.047-.048-.031-.085-.077-.11-.136-.026-.06-.038-.124-.038-.192 0-.075.014-.14.043-.195.028-.056.069-.098.121-.127.053-.029.111-.043.174-.043.071 0 .132.018.18.055.049.036.083.087.102.153l-.093.022c-.016-.052-.041-.09-.072-.113-.032-.024-.071-.036-.119-.036-.055 0-.101.013-.138.04-.037.026-.063.061-.078.106-.015.044-.023.09-.023.137 0 .061.009.114.027.16.018.045.045.079.083.101.037.023.078.034.121.034.053 0 .098-.015.135-.046.037-.03.062-.076.075-.136z" fill="#02ac98" transform="matrix(60 0 0 60 311.60946 48.89372)"/><path d="m.079 0v-.716h.518v.085h-.423v.219h.396v.084h-.396v.244h.439v.084z" fill="#02ac98" transform="matrix(60 0 0 60 393.93746 48.89372)"/><path d="m.023-.716h.672v.177h-.225v.539h-.221v-.539h-.226z" fill="#027b98" transform="matrix(75 0 0 75 3.61746 117.89372)"/><path d="m.636-.21h-.399c.004.032.013.056.026.071.019.023.044.034.075.034.02 0 .038-.005.056-.015.011-.006.022-.017.035-.032l.196.018c-.03.052-.067.089-.109.112-.042.022-.103.034-.182.034-.069 0-.123-.01-.162-.029-.04-.02-.072-.05-.098-.093-.026-.042-.039-.091-.039-.148 0-.081.026-.147.078-.197s.124-.075.215-.075c.074 0 .133.011.176.033.043.023.076.055.098.098.023.043.034.098.034.167zm-.202-.095c-.004-.039-.015-.066-.031-.083-.017-.016-.039-.025-.067-.025-.031 0-.056.013-.075.038-.012.016-.02.039-.023.07z" fill="#027b98" transform="matrix(75 0 0 75 55.15076 117.89372)"/><path d="m.447-.203.189.022c-.011.039-.028.073-.052.102-.023.029-.054.051-.091.067s-.083.024-.14.024c-.055 0-.101-.005-.138-.015s-.068-.027-.094-.05c-.027-.023-.047-.05-.062-.081s-.023-.072-.023-.123c0-.053.009-.098.027-.133.014-.026.032-.05.055-.07.023-.021.047-.036.071-.046.039-.016.089-.024.149-.024.085 0 .15.015.194.045s.076.075.093.133l-.187.025c-.005-.022-.016-.039-.032-.05-.015-.011-.036-.017-.062-.017-.033 0-.059.012-.08.035-.02.024-.03.06-.03.108 0 .042.01.075.03.097s.046.033.077.033c.026 0 .048-.007.066-.02s.031-.034.04-.062z" fill="#027b98" transform="matrix(75 0 0 75 107.05046 117.89372)"/><path d="m.06-.716h.199v.264c.027-.028.054-.048.08-.06.027-.012.059-.018.095-.018.054 0 .097.016.128.049s.046.083.046.151v.33h-.199v-.285c0-.033-.006-.056-.018-.069-.012-.014-.029-.021-.051-.021-.024 0-.044.01-.059.028s-.022.051-.022.098v.249h-.199z" fill="#027b98" transform="matrix(75 0 0 75 157.66846 117.89372)"/><path d="m.023-.716h.672v.177h-.225v.539h-.221v-.539h-.226z" fill="#027b98" transform="matrix(75 0 0 75 209.56746 117.89372)"/><path d="m.036-.258c0-.079.026-.144.08-.195.053-.052.125-.077.216-.077.104 0 .182.03.235.09.043.049.064.108.064.179 0 .08-.026.145-.079.196s-.126.077-.219.077c-.084 0-.151-.021-.203-.064-.063-.052-.094-.121-.094-.206zm.199 0c0 .046.009.08.028.102s.042.033.07.033c.029 0 .053-.01.071-.032s.028-.057.028-.105c0-.045-.01-.079-.028-.101-.019-.022-.042-.033-.069-.033-.029 0-.053.012-.072.034s-.028.056-.028.102z" fill="#027b98" transform="matrix(75 0 0 75 260.51546 117.89372)"/><path d="m.036-.258c0-.079.026-.144.08-.195.053-.052.125-.077.216-.077.104 0 .182.03.235.09.043.049.064.108.064.179 0 .08-.026.145-.079.196s-.126.077-.219.077c-.084 0-.151-.021-.203-.064-.063-.052-.094-.121-.094-.206zm.199 0c0 .046.009.08.028.102s.042.033.07.033c.029 0 .053-.01.071-.032s.028-.057.028-.105c0-.045-.01-.079-.028-.101-.019-.022-.042-.033-.069-.033-.029 0-.053.012-.072.034s-.028.056-.028.102z" fill="#027b98" transform="matrix(75 0 0 75 312.41446 117.89372)"/><path d="m369.33946 64.19372h14.925v53.7h-14.925z" fill="#027b98" stroke-width="75"/><path d="m.025-.144.197-.018c.008.023.02.04.034.05.015.01.035.015.059.015.027 0 .047-.005.062-.017.011-.008.017-.019.017-.032 0-.014-.007-.025-.022-.033-.011-.005-.04-.012-.086-.02-.069-.012-.117-.023-.144-.034-.027-.01-.049-.027-.068-.052-.018-.024-.027-.052-.027-.083 0-.034.01-.064.03-.089.02-.024.047-.043.082-.055s.081-.018.14-.018c.062 0 .107.004.137.014.029.009.054.024.074.044.019.02.036.047.049.08l-.189.019c-.005-.017-.013-.029-.024-.037-.016-.01-.035-.015-.057-.015s-.039.004-.049.012-.015.017-.015.029.006.022.019.029c.013.006.041.012.085.017.066.008.115.018.148.031.032.014.056.033.074.057.017.025.025.052.025.082s-.009.059-.027.087c-.018.029-.046.051-.085.068s-.092.025-.159.025c-.095 0-.163-.013-.203-.04s-.066-.066-.077-.116z" fill="#027b98" transform="matrix(75 0 0 75 391.16546 117.89372)"/></g><path d="m0 29.18c-2.208 1.836-4.903 2.754-8.086 2.754-2.618 0-5.049-.674-7.295-2.022-2.246-1.347-3.901-3.383-4.966-6.108s-1.596-5.913-1.596-9.565c0-2.832.449-5.581 1.347-8.247s2.456-4.791 4.673-6.373c2.216-1.582 4.976-2.373 8.277-2.373 2.871 0 5.253.714 7.148 2.139 1.894 1.426 3.34 3.702 4.336 6.826l5.596-1.318c-1.153-3.965-3.194-7.041-6.123-9.229-2.93-2.187-6.544-3.281-10.84-3.281-3.79 0-7.262.864-10.415 2.593-3.155 1.728-5.586 4.258-7.295 7.588-1.71 3.33-2.564 7.232-2.564 11.704 0 4.101.757 7.939 2.271 11.514 1.513 3.574 3.72 6.303 6.621 8.188 2.9 1.885 6.665 2.827 11.294 2.827 4.472 0 8.257-1.225 11.352-3.677 3.096-2.45 5.24-6.01 6.431-10.678l-5.684-1.436c-.781 3.614-2.275 6.339-4.482 8.174z" fill="none" stroke="#027b98" stroke-width="2" transform="translate(36.40846 12.82892)"/><path d="m0 42.949v-20.244h22.324v20.244h5.684v-42.949h-5.684v17.637h-22.324v-17.637h-5.684v42.949z" fill="none" stroke="#027b98" stroke-width="2" transform="translate(98.43586 5.94472)"/><path d="m0 22.588c1.641 3.379 4.053 6.045 7.236 7.998s6.797 2.93 10.84 2.93c3.731 0 7.207-.884 10.43-2.652 3.223-1.767 5.713-4.369 7.471-7.807 1.757-3.438 2.636-7.334 2.636-11.69 0-4.296-.835-8.139-2.505-11.528-1.67-3.388-4.097-6.03-7.28-7.925-3.183-1.894-6.758-2.842-10.723-2.842-6.054 0-10.996 2.017-14.824 6.05-3.828 4.033-5.742 9.614-5.742 16.743 0 3.77.82 7.344 2.461 10.723zm7.749-24.478c2.9-2.763 6.362-4.145 10.386-4.145 2.831 0 5.386.718 7.661 2.153 2.275 1.436 4.003 3.457 5.185 6.065 1.182 2.607 1.773 5.659 1.773 9.155 0 5.527-1.382 9.795-4.146 12.803s-6.284 4.511-10.561 4.511c-4.2 0-7.691-1.489-10.474-4.467s-4.175-7.056-4.175-12.232c0-6.464 1.451-11.078 4.351-13.843z" fill="none" stroke="#027b98" stroke-width="2" transform="translate(175.63866 16.11042)"/><path d="m283.925 169h5.684v42.949h-5.684z" fill="none" stroke="#027b98" stroke-width="2" transform="matrix(-1 0 0 1 551.15166 -163.05558)"/><path d="m0 29.18c-2.208 1.836-4.903 2.754-8.086 2.754-2.618 0-5.049-.674-7.295-2.022-2.246-1.347-3.901-3.383-4.966-6.108s-1.596-5.913-1.596-9.565c0-2.832.449-5.581 1.347-8.247s2.456-4.791 4.673-6.373c2.216-1.582 4.976-2.373 8.277-2.373 2.871 0 5.253.714 7.148 2.139 1.894 1.426 3.34 3.702 4.336 6.826l5.596-1.318c-1.153-3.965-3.194-7.041-6.123-9.229-2.93-2.187-6.544-3.281-10.84-3.281-3.79 0-7.262.864-10.415 2.593-3.155 1.728-5.586 4.258-7.295 7.588-1.71 3.33-2.564 7.232-2.564 11.704 0 4.101.757 7.939 2.271 11.514 1.513 3.574 3.72 6.303 6.621 8.188 2.9 1.885 6.665 2.827 11.294 2.827 4.472 0 8.257-1.225 11.352-3.677 3.096-2.45 5.24-6.01 6.431-10.678l-5.684-1.436c-.781 3.614-2.275 6.339-4.482 8.174z" fill="none" stroke="#027b98" stroke-width="2" transform="translate(342.40866 12.82892)"/><path d="m0 42.949v-5.068h-26.367v-14.619h23.76v-5.04h-23.76v-13.154h25.371v-5.068h-31.055v42.949z" fill="none" stroke="#027b98" stroke-width="2" transform="translate(430.74466 5.94472)"/><path d="m0-27.173h16.919v40.43h16.589v-40.43h16.919v-13.257h-50.427z" fill="none" stroke="#02ac98" stroke-width="3" transform="translate(5.338669 104.63702)"/><path d="m0 4.028c0-5.127-.843-9.289-2.526-12.488-1.686-3.198-4.139-5.639-7.362-7.324-3.222-1.684-7.617-2.527-13.183-2.527-6.861 0-12.238 1.88-16.132 5.64s-5.841 8.679-5.841 14.758c0 4.273.971 7.99 2.911 11.151 1.942 3.162 4.389 5.47 7.343 6.922s7.007 2.179 12.158 2.179c5.933 0 10.486-.849 13.66-2.545 3.173-1.698 5.883-4.498 8.129-8.405l-14.684-1.355c-.928 1.172-1.794 1.99-2.601 2.453-1.318.732-2.709 1.1-4.174 1.1-2.32 0-4.2-.843-5.64-2.528-1.025-1.172-1.672-2.954-1.941-5.346h29.883zm-29.846-5.457c.243-2.318.818-4.064 1.721-5.236 1.416-1.88 3.308-2.821 5.677-2.821 2.051 0 3.704.623 4.962 1.868 1.257 1.246 2.032 3.309 2.325 6.189z" fill="none" stroke="#02ac98" stroke-width="3" transform="translate(102.83136 96.43412)"/><path d="m0 17.651c-1.331 1.001-2.973 1.501-4.925 1.501-2.344 0-4.273-.828-5.787-2.485-1.514-1.658-2.269-4.081-2.269-7.275 0-3.582.762-6.257 2.288-8.023 1.525-1.768 3.521-2.651 5.987-2.651 1.953 0 3.51.421 4.67 1.263 1.159.843 1.959 2.094 2.398 3.754l14.026-1.868c-1.343-4.369-3.68-7.69-7.013-9.961-3.332-2.27-8.173-3.405-14.521-3.405-4.541 0-8.263.597-11.168 1.793-1.832.755-3.614 1.908-5.347 3.458-1.734 1.548-3.101 3.297-4.102 5.25-1.367 2.658-2.05 5.988-2.05 9.988 0 3.83.561 6.903 1.684 9.221 1.123 2.317 2.673 4.336 4.651 6.054 1.977 1.721 4.339 2.965 7.086 3.733 2.746.767 6.183 1.152 10.309 1.152 4.272 0 7.794-.599 10.565-1.795 2.771-1.195 5.047-2.874 6.83-5.035 1.782-2.16 3.064-4.718 3.845-7.672l-14.172-1.611c-.66 2.075-1.654 3.613-2.985 4.614z" fill="none" stroke="#02ac98" stroke-width="3" transform="translate(137.57366 89.62262)"/><path d="m0 53.687h14.905v-18.677c0-3.54.562-5.993 1.685-7.36s2.588-2.051 4.394-2.051c1.636 0 2.906.507 3.809 1.52.903 1.012 1.355 2.74 1.355 5.181v21.387h14.978v-24.719c0-5.102-1.166-8.886-3.497-11.353-2.332-2.465-5.525-3.699-9.576-3.699-2.736 0-5.104.453-7.106 1.355-2.002.904-4.015 2.405-6.042 4.505v-19.776h-14.905z" fill="none" stroke="#02ac98" stroke-width="3" transform="translate(162.17266 64.20672)"/><path d="m0-27.173h16.92v40.43h16.589v-40.43h16.919v-13.257h-50.428z" fill="none" stroke="#02ac98" stroke-width="3" transform="translate(211.28766 104.63702)"/><path d="m0 31.128c3.857 3.174 8.911 4.761 15.162 4.761 7.006 0 12.493-1.91 16.461-5.732 3.967-3.82 5.951-8.721 5.951-14.703 0-5.322-1.599-9.802-4.798-13.44-3.979-4.516-9.863-6.775-17.651-6.775-6.812 0-12.22 1.923-16.223 5.768-4.005 3.846-6.006 8.734-6.006 14.667 0 6.372 2.368 11.523 7.104 15.454zm9.961-23.126c1.416-1.672 3.211-2.509 5.384-2.509 2.051 0 3.772.824 5.163 2.472 1.392 1.648 2.088 4.156 2.088 7.525 0 3.615-.691 6.239-2.07 7.874-1.379 1.636-3.143 2.454-5.292 2.454-2.123 0-3.887-.83-5.291-2.49s-2.105-4.223-2.105-7.691c0-3.417.707-5.963 2.123-7.635z" fill="none" stroke="#02ac98" stroke-width="3" transform="translate(270.29166 82.88392)"/><path d="m0 31.128c3.857 3.174 8.911 4.761 15.162 4.761 7.006 0 12.493-1.91 16.461-5.732 3.967-3.82 5.951-8.721 5.951-14.703 0-5.322-1.599-9.802-4.798-13.44-3.979-4.516-9.863-6.775-17.651-6.775-6.812 0-12.22 1.923-16.223 5.768-4.005 3.846-6.006 8.734-6.006 14.667 0 6.372 2.368 11.523 7.104 15.454zm9.961-23.126c1.416-1.672 3.211-2.509 5.384-2.509 2.051 0 3.772.824 5.163 2.472 1.392 1.648 2.088 4.156 2.088 7.525 0 3.615-.691 6.239-2.07 7.874-1.379 1.636-3.143 2.454-5.292 2.454-2.123 0-3.887-.83-5.291-2.49s-2.105-4.223-2.105-7.691c0-3.417.707-5.963 2.123-7.635z" fill="none" stroke="#02ac98" stroke-width="3" transform="translate(322.19166 82.88392)"/><path d="m369.33046 64.20672h14.941v53.687h-14.941z" fill="none" stroke="#02ac98" stroke-width="3"/><path d="m0 34.571c3.016 2.026 8.075 3.039 15.18 3.039 5.029 0 9.003-.628 11.92-1.884s5.053-2.945 6.409-5.066c1.354-2.122 2.032-4.305 2.032-6.549 0-2.22-.641-4.256-1.923-6.109-1.281-1.854-3.131-3.281-5.548-4.281-2.417-1.001-6.103-1.781-11.059-2.341-3.272-.391-5.396-.83-6.372-1.317-.977-.487-1.465-1.206-1.465-2.157 0-.854.385-1.578 1.153-2.176.77-.597 1.996-.895 3.681-.895 1.66 0 3.076.39 4.248 1.172.854.585 1.465 1.501 1.831 2.746l14.136-1.392c-.977-2.539-2.203-4.553-3.681-6.042s-3.32-2.588-5.529-3.297c-2.21-.707-5.634-1.061-10.273-1.061-4.394 0-7.898.458-10.51 1.372-2.613.914-4.664 2.299-6.152 4.152-1.49 1.854-2.234 4.061-2.234 6.622 0 2.341.689 4.427 2.069 6.256 1.379 1.829 3.076 3.128 5.09 3.895 2.015.769 5.609 1.605 10.785 2.506 3.467.611 5.603 1.122 6.409 1.536 1.122.585 1.684 1.415 1.684 2.487 0 .951-.427 1.743-1.281 2.377-1.099.853-2.65 1.28-4.651 1.28-1.832 0-3.297-.379-4.394-1.136-1.1-.757-1.954-2.014-2.565-3.772l-14.795 1.392c.855 3.735 2.789 6.617 5.805 8.643z" fill="none" stroke="#02ac98" stroke-width="3" transform="translate(398.83666 81.16252)"/></svg>