<svg height="147.73548" viewBox="0 0 400.00033 147.73548" width="400.00033" xmlns="http://www.w3.org/2000/svg" xmlns:xlink="http://www.w3.org/1999/xlink"><symbol id="a" viewBox="0 0 1.429 113.21"><path d="m0 0h1.42872v113.20996h-1.42872z" fill="#f7941d"/></symbol><symbol id="b" viewBox="0 0 7.309 9.423"><path d="m0 5.82685v-5.82685h1.5564v5.62595c0 1.71253.51739 2.446 1.73493 2.446.94038 0 1.59151-.46656 2.46169-1.55035v-6.5216h1.55641v9.19564h-1.28531l-.13132-1.43964h-.052a3.90385 3.90385 0 0 1 -3.03297 1.66656c-1.93765 0-2.80783-1.24956-2.80783-3.59571" fill="#fff"/></symbol><symbol id="c" viewBox="0 0 6.786 9.65"><path d="m0 8.37386.76852-1.02449a4.14169 4.14169 0 0 0 2.71403 1.08863c1.20725 0 1.80694-.64265 1.80694-1.42812 0-.94583-1.085-1.36458-2.10285-1.74279-1.28833-.47079-2.74247-1.10497-2.74247-2.65593 0-1.47169 1.17883-2.61116 3.17212-2.61116a4.66209 4.66209 0 0 1 2.85926 1.03357l-.74432.99726a3.461 3.461 0 0 0 -2.0974-.81874c-1.15823 0-1.69317.61784-1.69317 1.31919 0 .87442.99969 1.20725 2.04173 1.59514 1.32585.50045 2.80361 1.03958 2.80361 2.79028 0 1.49166-1.18425 2.7334-3.35486 2.7334a5.51957 5.51957 0 0 1 -3.43114-1.27624" fill="#fff"/></symbol><symbol id="d" viewBox="0 0 7.804 9.65"><path d="m0 4.83746c0-2.99301 2.01753-4.83746 4.13429-4.83746 2.34551 0 3.66954 1.6847 3.66954 4.31583a4.872 4.872 0 0 1 -.07262.8835h-6.19294a3.05729 3.05729 0 0 0 3.05593 3.21084 4.02445 4.02445 0 0 0 2.28863-.734l.55671 1.02023a5.40291 5.40291 0 0 1 -3.03654.9537c-2.45082 0-4.403-1.79181-4.403-4.81264m6.429-.7528c0-1.84263-.829-2.84474-2.26684-2.84474-1.29257 0-2.44839 1.03842-2.63718 2.84474z" fill="#fff"/></symbol><symbol id="e" viewBox="0 0 2.149 13.097"><path d="m0 1.00513a1.00064 1.00064 0 0 1 1.07472-1.00513 1.00064 1.00064 0 0 1 1.07472 1.00513 1.01525 1.01525 0 0 1 -1.07472 1.00573 1.01526 1.01526 0 0 1 -1.07472-1.00573m.28441 2.89618h1.55641v9.19569h-1.55641z" fill="#fff"/></symbol><symbol id="f" viewBox="0 0 8.523 9.65"><path d="m0 4.83745c0-3.06864 2.00723-4.83745 4.26136-4.83745s4.26136 1.76881 4.26136 4.83745c0 3.04444-2.00723 4.81265-4.26136 4.81265s-4.26136-1.76821-4.26136-4.81265m6.91488 0c0-2.10708-1.07171-3.54185-2.65352-3.54185s-2.65353 1.43477-2.65353 3.54185 1.0717 3.51705 2.65353 3.51705 2.65352-1.41 2.65352-3.517" fill="#fff"/></symbol><symbol id="g" viewBox="0 0 7.361 9.423"><path d="m0 .22753h1.28591l.13131 1.32585h.052a4.38876 4.38876 0 0 1 3.08442-1.55338c1.93764 0 2.80782 1.25021 2.80782 3.59632v5.82685h-1.55579v-5.62594c0-1.71314-.5186-2.446-1.73493-2.446a3.48658 3.48658 0 0 0 -2.51434 1.41242v6.65952h-1.5564z" fill="#fff"/></symbol><path d="m400 0-399.859.225-.141 147.51h400z" fill="#231f20"/><use height="113.20996" transform="matrix(0 -1 2.6695 0 71.80113 77.32906)" width="1.42872" xlink:href="#a"/><use height="113.20996" transform="translate(197.85209 8.43922)" width="1.42872" xlink:href="#a"/><g fill="#fff"><path d="m84.37065 51.01492 8.89549 28.11218c1.528 4.64683 2.70193 8.78657 3.71432 12.94868h.24629c1.03781-4.16272 2.33824-8.33513 3.796-12.94868l8.87432-28.11218h8.62439l-17.846 50.13911h-7.86741l-17.27117-50.13911z"/><path d="m165.33021 75.60261c0 18.56858-11.65309 26.69192-22.55521 26.69192-12.3018 0-21.80363-9.91091-21.80363-25.829 0-16.7798 9.97868-26.59086 22.52374-26.59086 13.03946 0 21.8351 10.45553 21.8351 25.72794m-35.9638.58274c0 10.99895 5.70038 19.2772 13.74867 19.2772 7.90913 0 13.8201-8.16872 13.8201-19.5489 0-8.48158-3.86622-19.207-13.67062-19.207-9.68762 0-13.89815 9.97263-13.89815 19.4787"/><path d="m183.38184 36.58032v14.4349h14.493v6.907h-14.493v27.02234c0 6.24622 1.629 9.63194 6.23773 9.77537a22.18065 22.18065 0 0 0 9.80743-1.89893l.20574 6.9754a26.21059 26.21059 0 0 1 -12.22616 2.44656c-3.78814-.11256-6.9403-1.38213-8.90335-3.86016-2.27229-2.76608-3.20117-7.18841-3.20117-13.0794v-27.38116h-7.025v-6.907h7.025l.18336-14.22855z"/><path d="m210.927 77.66406c.1767 11.831 7.88189 16.70839 16.90023 16.70839 6.42593 0 13.0455-2.56274 16.36527-3.90372l.01756 6.524a43.63149 43.63149 0 0 1 -17.607 4.19964c-15.17438 0-24.29922-9.85221-24.29922-24.29074 0-14.58558 8.81622-25.976 23.236-25.976 16.11112 0 20.32347 13.7753 20.32347 22.63509a20.84452 20.84452 0 0 1 -.30681 4.10342zm26.28528-6.29644c.08955-5.5152-2.31646-14.16924-12.38713-14.16924-9.16781 0-13.07154 8.07735-13.78862 14.16924z"/><path d="m288.80661 98.96065a30.63175 30.63175 0 0 1 -13.7154 3.28226c-14.418 0-23.85687-10.28972-23.85687-25.61962 0-15.45456 10.0507-26.73307 25.68559-26.73307a26.39586 26.39586 0 0 1 12.08395 3.04807l-.524 7.61865c-2.13009-1.18909-6.79265-3.40389-11.57564-3.40389-10.90636 0-16.88813 8.57477-16.86573 18.98855 0 11.618 7.12124 18.76344 16.65393 18.76344 4.87134 0 10.12635-3.04989 12.58259-4.16455z"/><path d="m297.49419 27.54317h8.20681v31.30183l.18759-.12586a44.5518 44.5518 0 0 1 8.03256-6.64076 13.26933 13.26933 0 0 1 7.85465-2.20391c6.11492 0 15.808 4.12037 15.808 21.4212v29.85859h-8.2068v-28.86193c0-8.09489-1.29075-15.008-9.00564-14.7538-4.055.13373-10.94265 5.28223-14.11719 8.96568a13.50167 13.50167 0 0 0 -.5531 4.34548v30.30458h-8.20683z"/><path d="m92.41762 109.28221h3.10615c3.81781 0 5.86438 2.219 5.86438 6.16391 0 3.94427-2.04657 6.25287-5.79478 6.25287h-3.17575zm2.98877 11.12118c2.90222 0 4.35031-1.819 4.35031-4.95727 0-3.13884-1.44809-4.86831-4.35031-4.86831h-1.40876v9.82558z"/></g><use height="9.42256" transform="translate(103.7926 112.50286)" width="7.30943" xlink:href="#b"/><use height="9.6501" transform="translate(113.18582 112.27533)" width="6.78598" xlink:href="#c"/><path d="m122.02969 118.85569v-5.08495h-1.36821v-1.1788l1.43779-.089.187-2.57969h1.29983v2.57975h2.49135v1.26776h-2.49135v5.11219c0 1.12373.36188 1.77546 1.42207 1.77546a3.07876 3.07876 0 0 0 1.0475-.2475l.30014 1.17457a5.52774 5.52774 0 0 1 -1.70588.34009c-1.957 0-2.62023-1.24053-2.62023-3.06986" fill="#fff"/><path d="m131.18151 120.08249.94522-1.08441a4.85239 4.85239 0 0 0 3.42567 1.53887c1.62964 0 2.596-.8121 2.596-2.01813 0-1.26837-.89984-1.6726-2.07137-2.18394l-1.78334-.78728a3.496 3.496 0 0 1 -2.51434-3.19693c0-1.89649 1.65263-3.29557 3.90857-3.29557a5.12463 5.12463 0 0 1 3.65563 1.53826l-.83751 1.01481a3.9721 3.9721 0 0 0 -2.81812-1.16428c-1.39241 0-2.31464.70256-2.31464 1.813 0 1.19636 1.08259 1.64355 2.055 2.055l1.76941.76549c1.4372.61784 2.55852 1.47411 2.55852 3.31977 0 1.96185-1.62115 3.52855-4.23172 3.52855a5.95115 5.95115 0 0 1 -4.34305-1.84324" fill="#fff"/><path d="m152.32259 112.50274h1.28531l.13131 1.06141h.052a4.839 4.839 0 0 1 2.93127-1.28894c2.37637 0 3.64655 1.84445 3.64655 4.68677 0 3.134-1.882 4.96393-3.983 4.96393a4.17705 4.17705 0 0 1 -2.54943-1.06564l.04236 1.60542v3.11282h-1.55641zm6.43865 4.47256c0-2.02963-.6935-3.39058-2.42418-3.39058a3.78192 3.78192 0 0 0 -2.45806 1.25566v4.8199a3.5905 3.5905 0 0 0 2.23839.95672c1.52192 0 2.64385-1.37123 2.64385-3.6417" fill="#fff"/><path d="m162.81733 112.50274h1.28531l.13132 1.06141h.052a4.839 4.839 0 0 1 2.93127-1.28894c2.37637 0 3.64655 1.84445 3.64655 4.68677 0 3.134-1.882 4.96393-3.983 4.96393a4.17422 4.17422 0 0 1 -2.54884-1.06564l.04176 1.60542v3.11282h-1.55641zm6.43865 4.47256c0-2.02963-.6935-3.39058-2.42418-3.39058a3.7819 3.7819 0 0 0 -2.45806 1.25566v4.8199a3.59181 3.59181 0 0 0 2.2384.95672c1.52192 0 2.64384-1.37123 2.64384-3.6417" fill="#fff"/><path d="m173.312 112.50292h1.28591l.13131 1.675h.05143a3.16661 3.16661 0 0 1 2.6148-1.90255 2.133 2.133 0 0 1 .98212.19l-.29106 1.36457a2.56462 2.56462 0 0 0 -.892-.15128c-.777 0-1.70466.55915-2.32614 2.11495v5.90491h-1.55637z" fill="#fff"/><use height="9.6501" transform="translate(179.00846 112.27545)" width="7.80383" xlink:href="#d"/><use height="13.09695" transform="translate(204.64352 108.60186)" width="2.14944" xlink:href="#e"/><use height="9.6501" transform="translate(208.90433 112.27551)" width="8.52272" xlink:href="#f"/><use height="9.42317" transform="translate(219.84713 112.27539)" width="7.36146" xlink:href="#g"/><path d="m236.702 110.62h-3.756v-1.338h9.093v1.338h-3.757v11.079h-1.58z" fill="#fff"/><path d="m251.56178 117.113c0-3.06865 2.07319-4.83746 4.42474-4.83746a3.86323 3.86323 0 0 1 2.69044 1.07957l-.79636 1.02873a2.66136 2.66136 0 0 0 -1.82449-.8127c-1.66533 0-2.88649 1.43478-2.88649 3.54186s1.15339 3.517 2.84473 3.517a3.31264 3.31264 0 0 0 2.15914-.91557l.67472 1.04205a4.46949 4.46949 0 0 1 -2.973 1.16912c-2.44717 0-4.3134-1.76821-4.3134-4.81264" fill="#fff"/><path d="m260.864 108.22092h1.5564v3.68649l-.05629 1.88984a4.375 4.375 0 0 1 3.05292-1.52192c1.93825 0 2.80843 1.25082 2.80843 3.59693v5.82624h-1.55646v-5.62534c0-1.71314-.518-2.446-1.73492-2.446a3.48657 3.48657 0 0 0 -2.51373 1.41239v6.65891h-1.55635z" fill="#fff"/><path d="m291.68276 119.85205v-11.63131h1.55579v11.74447c0 .47624.20755.66505.43448.66505a1.356 1.356 0 0 0 .3407-.03752l.21059 1.18848a2.51935 2.51935 0 0 1 -.89561.14463c-1.16608 0-1.646-.74432-1.646-2.0738" fill="#fff"/><path d="m306.07 123.46562a2.58178 2.58178 0 0 1 1.34885-2.07925v-.07564a1.7034 1.7034 0 0 1 -.823-1.508 2.20313 2.20313 0 0 1 1.01179-1.70648v-.07564a3.19822 3.19822 0 0 1 -1.1909-2.469 3.26537 3.26537 0 0 1 3.45109-3.27621 3.73288 3.73288 0 0 1 1.298.22753h3.20783v1.19757h-1.888a2.65578 2.65578 0 0 1 .74914 1.89225 3.14361 3.14361 0 0 1 -3.367 3.18907 3.27031 3.27031 0 0 1 -1.37065-.31225 1.34351 1.34351 0 0 0 -.58576 1.08682c0 .58335.37821.99848 1.61147.99848h1.78937c2.13733 0 3.21327.67049 3.21327 2.19543 0 1.7089-1.80876 3.18059-4.64984 3.18059-2.25293 0-3.8057-.88229-3.8057-2.46532m6.93062-.48229c0-.85022-.6451-1.14129-1.85293-1.14129h-1.58667a5.25329 5.25329 0 0 1 -1.19515-.13737 1.91665 1.91665 0 0 0 -.93856 1.54189c0 .98819.996 1.61148 2.66745 1.61148 1.75247 0 2.90586-.91437 2.90586-1.87471m-1.1788-7.43167a1.963 1.963 0 1 0 -3.90858 0 1.96642 1.96642 0 1 0 3.90858 0" fill="#fff"/><path d="m22.52127 20.41891v49.016h23.82721s3.40388-17.70022 21.78487-29.27343 101.43584-20.42335 101.43584-20.42335z" fill="#f7941d"/><path d="m0 0h400v147.73536h-400z" fill="none"/><path d="m0 0h400v147.73536h-400z" fill="none"/><use height="9.42256" transform="translate(141.90936 112.50286)" width="7.30943" xlink:href="#b"/><use height="9.6501" transform="translate(195.97888 112.27594)" width="6.78598" xlink:href="#c"/><use height="9.6501" transform="translate(188.0495 112.27594)" width="6.78598" xlink:href="#c"/><use height="9.6501" transform="translate(329.32494 112.27533)" width="6.78598" xlink:href="#c"/><use height="9.6501" transform="translate(242.18453 112.27593)" width="7.80383" xlink:href="#d"/><use height="9.6501" transform="translate(320.284 112.27533)" width="7.80383" xlink:href="#d"/><use height="9.6501" transform="translate(280.83937 112.27593)" width="8.52272" xlink:href="#f"/><use height="9.6501" transform="translate(295.82401 112.27593)" width="8.52272" xlink:href="#f"/><use height="9.42317" transform="translate(271.15724 112.27539)" width="7.36146" xlink:href="#g"/><use height="13.09695" transform="translate(316.02356 108.52482)" width="2.14944" xlink:href="#e"/></svg>