<svg id="Layer_1" data-name="Layer 1" xmlns="http://www.w3.org/2000/svg" xmlns:xlink="http://www.w3.org/1999/xlink" viewBox="0 0 9309.19514 2122.15139">
  <defs>
    <symbol id="S" data-name="S" viewBox="0 0 280.023 445.469">
      <path d="M230.68392,86.419C197.9408,31.41763,78.01952,33.75756,64.54927,105.55182c-15.05433,80.23718,95.85478,86.35111,146.4915,112.38234,22.95427,11.80029,45.7882,26.41686,57.57978,52.25862,15.72478,34.46154,16.45746,77.028-5.84052,113.17919-37.4344,60.69154-123.67431,72.05005-187.70319,54.76641C48.80976,431.048,16.396,413.36478,0,387.04248l43.04349-35.26162c36.643,62.2736,165.41658,65.99037,180.76223-17.59281,10.014-54.54312-34.83464-70.92261-93.232-89.3656-28.98885-9.15522-56.92253-20.17283-75.47805-32.18149C-7.38783,172.20326-6.21786,73.53632,57.24924,29.29425,120.4076-14.7326,223.485-10.31108,271.92785,50.57372Z" style="fill: #01334d"/>
    </symbol>
  </defs>
  <title>fusion-simplified</title>
  <path id="YTEM" d="M3743.7595,8569.15979H3537.55107V7521.10929q319.27112-36.13595,804.66811-36.13594,464.00952,0,774.83595,38.25522v210.45782a6757.47978,6757.47978,0,0,0-845.25888-53.13346q-289.57412,0-528.03675,27.3993V7916.507H4776.921v208.33853H3743.7595Zm4935.71484-78.93249q-378.42183,83.2035-744.05228,83.17106-365.67369,0-756.81123-83.49544V8280.029q415.239,97.8006,766.57507,97.78979,242.74986,0,528.08-51.92244v-196.7906H7178.61083V7567.86328q378.37317-82.91155,744.05228-82.88993,365.625,0,756.81123,82.88993v208.33853q-415.239-91.37788-766.57507-91.41032-242.74986,0-528.08,48.8949v187.08082H8679.47434Zm303.98741-1005.254h206.20843V8569.15979H8983.46175Zm2044.0979,1001.27489q-378.42183,82.91155-744.05228,82.91155-365.67369,0-756.81123-82.91155v-918.385q378.37319-82.91155,744.05228-82.88993,365.625,0,756.81123,82.88993Zm-206.20844-165.82311V7735.80567q-296.66182-50.99255-559.16642-51.01418-243.3013,0-529.28021,48.8949v584.61945q296.66183,51.025,559.16643,51.01418Q10535.32364,8369.32,10821.35121,8320.42513Zm505.572-752.56185q378.37319-82.91155,744.05228-82.88993,365.625,0,756.81123,82.88993V8573.39836h-206.20843V7735.80567q-296.66183-50.99255-559.16643-51.01418-243.30131,0-529.28021,48.8949v839.712h-206.20844Z" transform="translate(-3537.55107 -7130.90826)" style="fill: #01334d"/>
  <path id="bucket" d="M6883.235,8490.4868q-378.42183,82.91157-744.05228,82.91156-365.67369,0-756.81123-82.91156V7484.97335H5588.58v837.57106q296.66183,51.025,559.16643,51.0358,243.25263,0,529.2802-48.89489v-839.712H6883.235Zm3.96562-1249.87281c0-60.5888-333.9951-109.70573-745.99894-109.70573s-745.99894,49.11693-745.99894,109.70573,333.9951,109.70572,745.99894,109.70572S6887.20065,7301.20279,6887.20065,7240.614Z" transform="translate(-3537.55107 -7130.90826)" style="fill: #f47b29"/>
  <path id="Y" d="M10130.14393,9059.60449l-157.77749-240.849h63.95728l118.96539,191.26387L10277.805,8818.7555h60.35815l-157.77748,240.849v182.29039h-50.24173Z" transform="translate(-3537.55107 -7130.90826)" style="fill: #01334d"/>
  <path id="T" d="M11233.56721,8865.37379h-139.83054v376.52109h-50.19309V8865.37379H10903.6644V8818.7555h329.90281Z" transform="translate(-3537.55107 -7130.90826)" style="fill: #01334d"/>
  <path id="E" d="M11453.13108,8818.7555h265.99417v46.61829H11503.3728v132.68094h201.40462V9044.673H11503.3728V9195.2766H11729.874v46.61828h-276.74288Z" transform="translate(-3537.55107 -7130.90826)" style="fill: #01334d"/>
  <path id="M" d="M11946.89906,8818.7555h74.706l143.42966,331.70237h1.21591l144.64558-331.70237h72.90643v423.13938h-50.19308V8886.89553h-1.21592l-151.79518,354.99935h-30.49521l-151.79518-354.99935h-1.16728v354.99935h-50.24172Z" transform="translate(-3537.55107 -7130.90826)" style="fill: #01334d"/>
  <use id="S3" width="280.02346" height="445.46892" transform="translate(6013.32873 1676.13426)" xlink:href="#S"/>
  <use id="S2" width="280.02346" height="445.46892" transform="translate(6956.32623 1676.68247)" xlink:href="#S"/>
  <use id="S1" width="280.02346" height="445.46892" transform="translate(9029.17168 1676.68247)" xlink:href="#S"/>
</svg>
