<svg clip-rule="evenodd" fill-rule="evenodd" stroke-linejoin="round" stroke-miterlimit="2" viewBox="0 0 500 185" xmlns="http://www.w3.org/2000/svg"><g fill-rule="nonzero"><path d="m400 0-399.859.225-.141 147.51h400z" fill="#231f20" transform="scale(1.25)"/><path d="m0 0h1.429v113.21h-1.429z" fill="#f7941d" transform="matrix(0 -1.25 3.33687 0 89.7513 96.6612)"/><path d="m247.315 10.549h1.78625v141.5125h-1.78625z" fill="#f7941d" stroke-width="1.25"/><g fill="#fff"><g transform="scale(1.25)"><path d="m84.371 51.015 8.895 28.112c1.528 4.647 2.702 8.787 3.714 12.949h.247c1.038-4.163 2.338-8.335 3.796-12.949l8.874-28.112h8.624l-17.846 50.139h-7.867l-17.271-50.139z"/><path d="m165.33 75.603c0 18.568-11.653 26.692-22.555 26.692-12.302 0-21.804-9.911-21.804-25.829 0-16.78 9.979-26.591 22.524-26.591 13.04 0 21.835 10.455 21.835 25.728m-35.964.582c0 10.999 5.701 19.278 13.749 19.278 7.909 0 13.82-8.169 13.82-19.549 0-8.482-3.866-19.207-13.67-19.207-9.688 0-13.899 9.972-13.899 19.478"/><path d="m183.382 36.58v14.435h14.493v6.907h-14.493v27.023c0 6.246 1.629 9.632 6.238 9.775 3.37.121 6.725-.529 9.807-1.899l.206 6.975c-3.819 1.787-8.014 2.627-12.226 2.447-3.789-.113-6.941-1.382-8.904-3.86-2.272-2.766-3.201-7.189-3.201-13.08v-27.381h-7.025v-6.907h7.025l.183-14.228z"/><path d="m210.927 77.664c.177 11.831 7.882 16.708 16.9 16.708 6.426 0 13.046-2.562 16.366-3.903l.017 6.524c-5.511 2.615-11.509 4.046-17.607 4.199-15.174 0-24.299-9.852-24.299-24.29 0-14.586 8.816-25.976 23.236-25.976 16.111 0 20.323 13.775 20.323 22.635.034 1.374-.069 2.749-.306 4.103zm26.285-6.296c.09-5.516-2.316-14.17-12.387-14.17-9.168 0-13.071 8.078-13.788 14.17z"/><path d="m288.807 98.961c-4.254 2.145-8.951 3.269-13.716 3.282-14.418 0-23.857-10.29-23.857-25.62 0-15.454 10.051-26.733 25.686-26.733 4.213.037 8.357 1.082 12.084 3.048l-.524 7.619c-2.13-1.189-6.793-3.404-11.576-3.404-10.906 0-16.888 8.575-16.865 18.989 0 11.618 7.121 18.763 16.653 18.763 4.872 0 10.127-3.05 12.583-4.165z"/><path d="m297.494 27.543h8.207v31.302l.188-.126c2.408-2.52 5.104-4.749 8.032-6.641 2.322-1.541 5.071-2.312 7.855-2.204 6.115 0 15.808 4.121 15.808 21.422v29.858h-8.207v-28.862c0-8.095-1.291-15.008-9.006-14.753-4.055.133-10.942 5.282-14.117 8.965-.42 1.409-.606 2.877-.553 4.346v30.304h-8.207z"/><path d="m92.418 109.282h3.106c3.818 0 5.864 2.219 5.864 6.164 0 3.944-2.046 6.253-5.795 6.253h-3.175zm2.988 11.121c2.903 0 4.351-1.819 4.351-4.957 0-3.139-1.448-4.868-4.351-4.868h-1.408v9.825z"/></g><path d="m0 5.827v-5.827h1.556v5.626c0 1.712.518 2.446 1.735 2.446.941 0 1.592-.467 2.462-1.55v-6.522h1.556v9.196h-1.285l-.131-1.44h-.052c-.696.997-1.819 1.614-3.033 1.667-1.938 0-2.808-1.25-2.808-3.596" transform="matrix(1.25 0 0 1.25 129.741 140.628)"/><path d="m0 8.374.769-1.025c.742.681 1.707 1.068 2.714 1.089 1.207 0 1.806-.643 1.806-1.428 0-.946-1.085-1.365-2.102-1.743-1.289-.471-2.743-1.105-2.743-2.656 0-1.472 1.179-2.611 3.172-2.611 1.042.015 2.049.379 2.86 1.034l-.745.997c-.588-.499-1.326-.787-2.097-.819-1.158 0-1.693.618-1.693 1.319 0 .875.999 1.208 2.041 1.595 1.326.501 2.804 1.04 2.804 2.791 0 1.491-1.184 2.733-3.355 2.733-1.255-.023-2.466-.473-3.431-1.276" transform="matrix(1.25 0 0 1.25 141.482 140.344)"/><path d="m122.03 118.856v-5.085h-1.369v-1.179l1.438-.089.187-2.58h1.3v2.58h2.491v1.268h-2.491v5.112c0 1.124.362 1.775 1.422 1.775.361-.02.716-.104 1.048-.247l.3 1.174c-.547.203-1.123.318-1.706.341-1.957 0-2.62-1.241-2.62-3.07" transform="scale(1.25)"/><path d="m131.182 120.082.945-1.084c.888.952 2.124 1.507 3.425 1.539 1.63 0 2.596-.812 2.596-2.018 0-1.269-.899-1.673-2.071-2.184l-1.783-.787c-1.432-.418-2.447-1.707-2.515-3.197 0-1.897 1.653-3.296 3.909-3.296 1.375.001 2.693.556 3.656 1.538l-.838 1.015c-.747-.747-1.762-1.166-2.818-1.164-1.392 0-2.315.702-2.315 1.813 0 1.196 1.083 1.643 2.055 2.055l1.77.765c1.437.618 2.558 1.474 2.558 3.32 0 1.962-1.621 3.529-4.232 3.529-1.639.01-3.211-.658-4.343-1.844" transform="scale(1.25)"/><path d="m152.323 112.503h1.285l.131 1.061h.052c.803-.75 1.837-1.204 2.931-1.289 2.377 0 3.647 1.845 3.647 4.687 0 3.134-1.882 4.964-3.983 4.964-.946-.056-1.845-.432-2.549-1.066l.042 1.606v3.113h-1.556zm6.438 4.472c0-2.029-.693-3.39-2.424-3.39-.948.094-1.826.542-2.458 1.255v4.82c.612.57 1.404.908 2.238.957 1.522 0 2.644-1.371 2.644-3.642" transform="scale(1.25)"/><path d="m162.817 112.503h1.286l.131 1.061h.052c.802-.75 1.836-1.204 2.931-1.289 2.377 0 3.647 1.845 3.647 4.687 0 3.134-1.882 4.964-3.983 4.964-.946-.056-1.845-.432-2.549-1.066l.042 1.606v3.113h-1.557zm6.439 4.472c0-2.029-.694-3.39-2.424-3.39-.948.094-1.827.542-2.458 1.255v4.82c.612.57 1.404.908 2.238.957 1.522 0 2.644-1.371 2.644-3.642" transform="scale(1.25)"/><path d="m173.312 112.503h1.286l.131 1.675h.052c.457-1.064 1.462-1.795 2.614-1.903.338-.015.675.05.983.19l-.291 1.365c-.287-.103-.589-.154-.892-.151-.777 0-1.705.559-2.327 2.115v5.905h-1.556z" transform="scale(1.25)"/><path d="m0 4.837c0-2.993 2.018-4.837 4.134-4.837 2.346 0 3.67 1.685 3.67 4.316.003.296-.022.592-.073.883h-6.193c-.002.051-.004.103-.004.154 0 1.677 1.381 3.057 3.058 3.057h.002c.82-.006 1.619-.262 2.289-.734l.557 1.02c-.894.616-1.952.948-3.037.954-2.451 0-4.403-1.792-4.403-4.813m6.429-.752c0-1.843-.829-2.845-2.267-2.845-1.292 0-2.448 1.038-2.637 2.845z" transform="matrix(1.25 0 0 1.25 223.76 140.344)"/><path d="m0 1.005c0-.002 0-.005 0-.007 0-.549.452-1.001 1.001-1.001.024 0 .049.001.074.003.024-.002.049-.003.074-.003.549 0 1 .452 1 1.001v.007c-.004.554-.461 1.008-1.015 1.008-.02 0-.039-.001-.059-.002-.02.001-.04.002-.06.002-.554 0-1.011-.454-1.015-1.008m.284 2.896h1.557v9.196h-1.557z" transform="matrix(1.25 0 0 1.25 255.804 135.752)"/><path d="m0 4.837c0-3.068 2.007-4.837 4.261-4.837s4.262 1.769 4.262 4.837c0 3.045-2.008 4.813-4.262 4.813s-4.261-1.768-4.261-4.813m6.915 0c0-2.107-1.072-3.541-2.654-3.541-1.581 0-2.653 1.434-2.653 3.541 0 2.108 1.072 3.517 2.653 3.517 1.582 0 2.654-1.41 2.654-3.517" transform="matrix(1.25 0 0 1.25 261.13 140.344)"/><path d="m0 .228h1.286l.131 1.325h.052c.773-.917 1.888-1.479 3.085-1.553 1.937 0 2.807 1.25 2.807 3.596v5.827h-1.555v-5.626c0-1.713-.519-2.446-1.735-2.446-1.002.086-1.92.601-2.515 1.413v6.659h-1.556z" transform="matrix(1.25 0 0 1.25 274.809 140.344)"/><path d="m236.702 110.62h-3.756v-1.338h9.093v1.338h-3.757v11.079h-1.58z" transform="scale(1.25)"/><path d="m251.562 117.113c0-3.069 2.073-4.837 4.425-4.837 1.002-.003 1.968.384 2.69 1.079l-.796 1.029c-.48-.497-1.135-.789-1.825-.813-1.665 0-2.886 1.435-2.886 3.542s1.153 3.517 2.844 3.517c.807-.032 1.576-.357 2.159-.916l.675 1.042c-.813.743-1.872 1.159-2.973 1.17-2.447 0-4.313-1.769-4.313-4.813" transform="scale(1.25)"/><path d="m260.864 108.221h1.556v3.686l-.056 1.89c.77-.899 1.872-1.448 3.053-1.522 1.938 0 2.808 1.251 2.808 3.597v5.827h-1.556v-5.626c0-1.713-.518-2.446-1.735-2.446-1.002.086-1.919.602-2.514 1.413v6.658h-1.556z" transform="scale(1.25)"/><path d="m291.683 119.852v-11.631h1.556v11.744c0 .476.207.665.434.665.115.002.229-.01.341-.037l.21 1.188c-.287.102-.59.151-.895.145-1.166 0-1.646-.744-1.646-2.074" transform="scale(1.25)"/><path d="m306.07 123.466c.066-.877.575-1.662 1.349-2.08v-.075c-.526-.317-.841-.895-.823-1.508.047-.697.423-1.331 1.012-1.707v-.075c-.747-.603-1.185-1.51-1.191-2.469 0-.006 0-.011 0-.017 0-1.791 1.474-3.265 3.265-3.265.062 0 .124.002.186.005.443-.001.882.076 1.298.228h3.208v1.197h-1.888c.491.507.76 1.188.749 1.893v.053c0 1.725-1.419 3.144-3.143 3.144-.075 0-.15-.003-.224-.008-.474-.004-.942-.11-1.371-.312-.36.245-.578.651-.586 1.086 0 .584.379.999 1.612.999h1.789c2.138 0 3.214.67 3.214 2.195 0 1.709-1.809 3.181-4.65 3.181-2.253 0-3.806-.882-3.806-2.465m6.931-.483c0-.85-.646-1.141-1.853-1.141h-1.587c-.402 0-.803-.046-1.195-.137-.55.325-.903.904-.939 1.542 0 .988.996 1.611 2.668 1.611 1.752 0 2.906-.914 2.906-1.875m-1.179-7.431c.006-.062.008-.123.008-.185 0-1.077-.886-1.963-1.963-1.963-1.076 0-1.963.886-1.963 1.963 0 .062.003.123.009.185-.008.072-.012.145-.012.218 0 1.078.888 1.966 1.966 1.966 1.079 0 1.967-.888 1.967-1.966 0-.073-.004-.146-.012-.218" transform="scale(1.25)"/></g><path d="m22.521 20.419v49.016h23.827s3.404-17.7 21.785-29.274c18.381-11.573 101.436-20.423 101.436-20.423z" fill="#f7941d" transform="scale(1.25)"/><path d="m0 5.827v-5.827h1.556v5.626c0 1.712.518 2.446 1.735 2.446.941 0 1.592-.467 2.462-1.55v-6.522h1.556v9.196h-1.285l-.131-1.44h-.052c-.696.997-1.819 1.614-3.033 1.667-1.938 0-2.808-1.25-2.808-3.596" fill="#fff" transform="matrix(1.25 0 0 1.25 177.387 140.628)"/><path d="m0 8.374.769-1.025c.742.681 1.707 1.068 2.714 1.089 1.207 0 1.806-.643 1.806-1.428 0-.946-1.085-1.365-2.102-1.743-1.289-.471-2.743-1.105-2.743-2.656 0-1.472 1.179-2.611 3.172-2.611 1.042.015 2.049.379 2.86 1.034l-.745.997c-.588-.499-1.326-.787-2.097-.819-1.158 0-1.693.618-1.693 1.319 0 .875.999 1.208 2.041 1.595 1.326.501 2.804 1.04 2.804 2.791 0 1.491-1.184 2.733-3.355 2.733-1.255-.023-2.466-.473-3.431-1.276" fill="#fff" transform="matrix(1.25 0 0 1.25 244.973 140.345)"/><path d="m0 8.374.769-1.025c.742.681 1.707 1.068 2.714 1.089 1.207 0 1.806-.643 1.806-1.428 0-.946-1.085-1.365-2.102-1.743-1.289-.471-2.743-1.105-2.743-2.656 0-1.472 1.179-2.611 3.172-2.611 1.042.015 2.049.379 2.86 1.034l-.745.997c-.588-.499-1.326-.787-2.097-.819-1.158 0-1.693.618-1.693 1.319 0 .875.999 1.208 2.041 1.595 1.326.501 2.804 1.04 2.804 2.791 0 1.491-1.184 2.733-3.355 2.733-1.255-.023-2.466-.473-3.431-1.276" fill="#fff" transform="matrix(1.25 0 0 1.25 235.062 140.345)"/><path d="m0 8.374.769-1.025c.742.681 1.707 1.068 2.714 1.089 1.207 0 1.806-.643 1.806-1.428 0-.946-1.085-1.365-2.102-1.743-1.289-.471-2.743-1.105-2.743-2.656 0-1.472 1.179-2.611 3.172-2.611 1.042.015 2.049.379 2.86 1.034l-.745.997c-.588-.499-1.326-.787-2.097-.819-1.158 0-1.693.618-1.693 1.319 0 .875.999 1.208 2.041 1.595 1.326.501 2.804 1.04 2.804 2.791 0 1.491-1.184 2.733-3.355 2.733-1.255-.023-2.466-.473-3.431-1.276" fill="#fff" transform="matrix(1.25 0 0 1.25 411.656 140.344)"/><path d="m0 4.837c0-2.993 2.018-4.837 4.134-4.837 2.346 0 3.67 1.685 3.67 4.316.003.296-.022.592-.073.883h-6.193c-.002.051-.004.103-.004.154 0 1.677 1.381 3.057 3.058 3.057h.002c.82-.006 1.619-.262 2.289-.734l.557 1.02c-.894.616-1.952.948-3.037.954-2.451 0-4.403-1.792-4.403-4.813m6.429-.752c0-1.843-.829-2.845-2.267-2.845-1.292 0-2.448 1.038-2.637 2.845z" fill="#fff" transform="matrix(1.25 0 0 1.25 302.73 140.345)"/><path d="m0 4.837c0-2.993 2.018-4.837 4.134-4.837 2.346 0 3.67 1.685 3.67 4.316.003.296-.022.592-.073.883h-6.193c-.002.051-.004.103-.004.154 0 1.677 1.381 3.057 3.058 3.057h.002c.82-.006 1.619-.262 2.289-.734l.557 1.02c-.894.616-1.952.948-3.037.954-2.451 0-4.403-1.792-4.403-4.813m6.429-.752c0-1.843-.829-2.845-2.267-2.845-1.292 0-2.448 1.038-2.637 2.845z" fill="#fff" transform="matrix(1.25 0 0 1.25 400.355 140.344)"/><path d="m0 4.837c0-3.068 2.007-4.837 4.261-4.837s4.262 1.769 4.262 4.837c0 3.045-2.008 4.813-4.262 4.813s-4.261-1.768-4.261-4.813m6.915 0c0-2.107-1.072-3.541-2.654-3.541-1.581 0-2.653 1.434-2.653 3.541 0 2.108 1.072 3.517 2.653 3.517 1.582 0 2.654-1.41 2.654-3.517" fill="#fff" transform="matrix(1.25 0 0 1.25 351.049 140.345)"/><path d="m0 4.837c0-3.068 2.007-4.837 4.261-4.837s4.262 1.769 4.262 4.837c0 3.045-2.008 4.813-4.262 4.813s-4.261-1.768-4.261-4.813m6.915 0c0-2.107-1.072-3.541-2.654-3.541-1.581 0-2.653 1.434-2.653 3.541 0 2.108 1.072 3.517 2.653 3.517 1.582 0 2.654-1.41 2.654-3.517" fill="#fff" transform="matrix(1.25 0 0 1.25 369.78 140.345)"/><path d="m0 .228h1.286l.131 1.325h.052c.773-.917 1.888-1.479 3.085-1.553 1.937 0 2.807 1.25 2.807 3.596v5.827h-1.555v-5.626c0-1.713-.519-2.446-1.735-2.446-1.002.086-1.92.601-2.515 1.413v6.659h-1.556z" fill="#fff" transform="matrix(1.25 0 0 1.25 338.946 140.344)"/><path d="m0 1.005c0-.002 0-.005 0-.007 0-.549.452-1.001 1.001-1.001.024 0 .049.001.074.003.024-.002.049-.003.074-.003.549 0 1 .452 1 1.001v.007c-.004.554-.461 1.008-1.015 1.008-.02 0-.039-.001-.059-.002-.02.001-.04.002-.06.002-.554 0-1.011-.454-1.015-1.008m.284 2.896h1.557v9.196h-1.557z" fill="#fff" transform="matrix(1.25 0 0 1.25 395.029 135.656)"/></g></svg>