<svg height="528.46117" viewBox="0 0 283.51328 528.46117" width="283.51328" xmlns="http://www.w3.org/2000/svg"><path d="m26.78606 522.31478h231.85274v6.14639h-231.85274z" fill="#b3b3b6"/><path d="m26.78606 399.2442h231.85274v6.14679h-231.85274z" fill="#b3b3b6"/><path d="m406.43707 296.15369c-1.6325-5.4784-3.421-10.96967-5.33954-16.32965-.85125-2.37842-1.7384-4.74787-2.69336-7.08655-1.34277-3.29077-2.78979-6.54853-4.26147-9.78382q-3.97614-8.74081-8.23425-17.37585l-2.15479-5.21527c1.971-1.78552 3.96607-3.55921 5.98694-5.2724l2.6626-2.25629-2.37451-2.55719a26.402 26.402 0 0 0 -8.96057-5.77624c-4.17572-1.63422-11.18659-2.324-15.98658-2.555l-1.76477-1.06256c-2.25342-1.35675-4.68115-2.611-7.02484-3.79565a205.1822 205.1822 0 0 0 -18.80884-8.3172l-1.30645-.50342a17.33763 17.33763 0 0 1 1.28057-6.39673c.45063-1.14941.9068-2.26806 1.27387-3.45a42.47719 42.47719 0 0 0 1.60614-10.19293l.139-3.33173-2.36383-.09918a36.81624 36.81624 0 0 0 -18.78205-25.79346c4.57733-6.29168 6.39423-13.89386 4.13129-21.651a27.8145 27.8145 0 0 0 -12.76363-15.95008 30.36378 30.36378 0 0 0 -21.96063-3.39563c-6.25989 1.36914-11.79236 4.18585-17.26038 7.42841-4.90369 2.90747-9.72162 6.14947-14.9223 8.506a32.48907 32.48907 0 0 1 -14.27228 3.20227 10.61164 10.61164 0 0 1 -2.64233-.35254c-4.36518-1.21832-4.0149-6.4549.55926-6.50366l8.34076-.08911-6.103-5.686c-3.96777-3.69653-10.11731-3.49585-14.794-1.3786a15.84319 15.84319 0 0 0 -9.60675 13.37836 21.2248 21.2248 0 0 0 3.40344 13.08862 20.93811 20.93811 0 0 1 -7.84418-1.60339c-8.306-3.35016-18.04388-3.22406-25.36126 2.38848a23.05777 23.05777 0 0 0 -6.2801 7.50238c-3.64831 6.86683-4.1914 15.78034-.26562 22.65558a18.09493 18.09493 0 0 0 5.992 6.31818l6.38208 4.081-1.29907-7.45923c-.2561-1.512-.501-6.5625 1.13709-7.45635 1.82586-.99531 4.9317-.01178 6.67743.69824 5.30548 2.15765 10.80822 6.52777 15.0697 10.27649 9.6723 8.50714 24.36206 4.66882 34.50171-.89112a44.496 44.496 0 0 0 11.01623-9.08551 122.82479 122.82479 0 0 1 8.78064-9.13037 22.98233 22.98233 0 0 1 11.20227-5.66528c.39368-.07318.80445-.13788 1.22119-.19617a37.07356 37.07356 0 0 0 -14.01928 22.76355l-2.36383.09918.139 3.33173a48.70672 48.70672 0 0 0 .55616 5.5282 32.68731 32.68731 0 0 0 -3.40076-.71057c-5.871-.8816-11.78229.09466-16.4596 3.9638-7.054 5.83454-9.84655 14.72675-10.523 23.972l-2.40136 2.68384c-1.52661 1.70593-2.982 3.65454-4.37915 5.472q-3.19858 4.15942-6.32941 8.37268-5.41535 7.24456-10.75952 14.54462l-1.22223 1.66943a58.55088 58.55088 0 0 0 -8.24493-.23981l-3.20447.1261a30.089 30.089 0 0 0 -3.84564 12.52033c-.98914.0874-1.87848.176-2.62781.25665l-.14905.01624-.14685.02917c-3.00885.60193-6.14276 4.661-7.70465 7.0047-3.04248 4.56354-5.7359 12.38477-4.06079 17.76758l4.60553 9.77765c-.52344 6.622.269 14.07556 1.16174 20.48114.96 6.89093 2.27759 13.76562 3.78619 20.55737.68769 3.098 1.40833 6.22064 2.2193 9.28949l.32727 1.24133q-1.2626 2.1915-2.45629 4.42847l-5.45014-5.31451a8.619 8.619 0 1 0 -5.61371 5.45184l7.37848 7.19409q-.73389 1.55008-1.43744 3.112-.765 1.6939-1.49353 3.40735l-1.59332 3.97229c-.80975 2.42883 3.12323 11.5318 3.99866 14.76257l.52118.58618a8.24943 8.24943 0 0 0 3.03967 2.19629l.269.10089a4.37723 4.37723 0 0 0 2.63007 2.69117q.28912.10839.57947.2163a5.91171 5.91171 0 0 0 3.97113 4.378 12.62052 12.62052 0 0 0 2.0993.40857l.00171.19445.77954.92188a8.21762 8.21762 0 0 0 6.08954 2.57629 13.68811 13.68811 0 0 0 1.45752-.09106l-1.86109 12.81085 6.25824 7.30115.11151-.23426.15522.50379 11.68573-13.07831 106.01291 109.5273 42.15875 9.95252-13.33631-41.20777-20.4273-16.79772c13.13879-7.07123 28.1806-16.22968 40.72992-26.33033 25.91443-20.85772 24.10876-35.44433 27.52789-66.14752l9.08777-81.60791zm-153.92169 83.89c1.00946 9.06482 1.56683 16.7179 2.51331 23.5492l-15.76776-12.96607 11.46057-20.43671.09308-.09472-.03309-.01239-8.30316-3.16352-12.13611 5.67591c-.14556-1.03974-.44384-3.00592-1.04718-6.56635a66.92575 66.92575 0 0 0 -3.10809-11.58227v-2.61994c1.04065-5.85193 1.846-11.82934 2.55383-17.72442.44831-3.73633 1.05805-7.47766 1.69416-11.18708 1.03845-6.06213 2.17834-12.13873 3.413-18.165l.08685-.40516-.019-.42871a25.61854 25.61854 0 0 0 -1.38428-6.79174l20.98328-17.00928 1.9856 3.21118q.675 4.26783 1.53442 8.48926.33388 1.63915.69855 3.27478l-14.30567 3.34509z" fill-rule="evenodd" transform="translate(-168.62445 -117.27579)"/><path d="m356.335 230.06628a63.04308 63.04308 0 0 1 5.26184-6.326 177.6257 177.6257 0 0 0 -25.3125-11.85853 38.236 38.236 0 0 0 1.81519 8.881 181.72083 181.72083 0 0 1 18.23547 9.30353z" fill="#afadae" transform="translate(-168.62445 -117.27579)"/><path d="m290.22034 287.49432c-.72589-10.86987-.57312-22.947-.57312-22.947a93.02845 93.02845 0 0 1 -8.99982-23.79382c-3.57208-3.58386-12.24628-12.58869-13.01013-16.73077l-.18213-.98688.39227-.92078a36.68944 36.68944 0 0 0 2.42884-11.90112 19.223 19.223 0 0 0 -.87256-7.25183c-4.75855 5.491-11.84558 17.665-12.83191 42.04107a193.66836 193.66836 0 0 0 4.41168 49.32758z" fill="#afadae" transform="translate(-168.62445 -117.27579)"/><path d="m229.55066 151.07794a45.70131 45.70131 0 0 0 12.99109-5.43719s-10.74158 1.995-15.34546-5.21753c-2.704-4.23627-1.70252-9.424-.41522-12.98554a12.157 12.157 0 0 0 -5.41651 9.28675c-.42926 6.67968 2.67993 13.68994 8.1861 14.35351z" fill="#3b6e8f" transform="translate(-168.62445 -117.27579)"/><g fill-rule="evenodd"><path d="m303.23143 253.91605s-7.40541-2.792-19.52337-14.8192c-12.118-12.02773-12.791-15.67888-12.791-15.67888a40.24222 40.24222 0 0 0 2.69281-13.1015c.22417-7.3023-1.45877-8.91293-2.69281-12.88632a44.01975 44.01975 0 0 1 -1.45878-9.34275s23.00191-.96675 33.77319-15.03442c10.77183 14.06767 33.77374 15.03442 33.77374 15.03442a44.06027 44.06027 0 0 1 -1.45877 9.34275c-1.23405 3.97339-2.917 5.584-2.69282 12.88632a40.24207 40.24207 0 0 0 2.69282 13.1015s-.67306 3.65115-12.791 15.67888c-12.118 12.02719-19.52392 14.8192-19.52392 14.8192" fill="#afadae" transform="translate(-168.62445 -117.27579)"/><path d="m303.23143 158.34081c15.75509 0 28.86949 11.78286 31.65478 27.34127-.45561-.05213-.909-.11042-1.35116-.16925q-1.30383-.174-2.60373-.40239c-.00615-2.7612-.87088-10.52975-9.605-17.53446-10.84582-8.69828-24.48421-5.58344-24.48421-5.58344a8.49232 8.49232 0 0 1 3.75874 2.899c1.17911 1.5479 1.44812 4.25864 1.50023 5.98081l-.63439.82886c-4.74957 6.20331-12.30011 9.88751-19.66572 11.97732a63.40911 63.40911 0 0 1 -8.77674 1.82136c-.47412.0639-.95944.12666-1.44757.18215 2.78586-15.55841 15.90026-27.34127 31.6548-27.34127" fill="#afadae" transform="translate(-168.62445 -117.27579)"/><path d="m303.232 206.97313a130.93923 130.93923 0 0 0 17.535-5.946c7.05515-3.22523 8.66747-4.23285 8.66747-4.23285a21.79991 21.79991 0 0 1 -1.81408 5.13963l-1.20938 2.217s-3.729 3.729-23.179 9.2716c-19.45052-5.54256-23.17957-9.2716-23.17957-9.2716l-1.20938-2.217a21.81466 21.81466 0 0 1 -1.81352-5.13963s1.61232 1.00762 8.66634 4.23285a130.95968 130.95968 0 0 0 17.53613 5.946" transform="translate(-168.62445 -117.27579)"/><path d="m289.4013 216.36452-3.61583-1.45653a134.43767 134.43767 0 0 0 1.55349 15.04447c1.20714 6.8108 2.32126 9.25535 2.32126 9.25535l2.41373 1.92111s-2.20806-7.04-2.67265-24.7644m6.46165 2.07972-3.92014-1.19876s.8821 9.0323 2.156 16.22083c1.27438 7.18908 2.45014 9.76925 2.45014 9.76925l2.54823 2.02759s-2.74381-8.11039-3.23418-26.81891m-12.76973-5.27471-3.66516-1.77874s.49372 6.44145 1.70088 13.2517c1.20658 6.81022 2.32126 9.25477 2.32126 9.25477l2.41372 1.92111s-2.30613-4.92441-2.7707-22.64884" transform="translate(-168.62445 -117.27579)"/><path d="m333.423 196.77039a33.78959 33.78959 0 0 0 1.21668-6.64209c-.57111-.06165-1.13825-.13392-1.69306-.20795a67.89283 67.89283 0 0 1 -9.39373-1.93451c-7.49732-2.11334-14.97559-5.70172-20.32141-11.48584l-.05384.05719v28.10339l.05329.014c3.93634-1.04126 7.95849-2.30609 11.76153-3.70215a77.41336 77.41336 0 0 0 16.31214-7.88623 28.06791 28.06791 0 0 1 -2.94165 12.12921l-.15357.28131-.22638.22644a21.42574 21.42574 0 0 1 -4.90088 2.98755c-2.35266 1.13654-4.80676 2.1156-7.25854 3.01343-3.93531 1.43915-7.9541 2.68884-11.98236 3.83661l-.6092.17377-.05438-.01575v35.75208l.05384.0252a36.4485 36.4485 0 0 0 4.20257-2.47259 91.95759 91.95759 0 0 0 13.75495-11.50491 100.35819 100.35819 0 0 0 10.166-11.32155 23.06138 23.06138 0 0 0 1.80237-2.769c-.39459-1.0575-.73084-2.18622-1.01831-3.237a42.36536 42.36536 0 0 1 -1.50751-9.80622 24.22073 24.22073 0 0 1 1.651-10.54541c.40068-1.02003.8148-2.02037 1.14045-3.06898zm-23.40149 46.46514-2.54821 2.02759s2.74432-8.11035 3.23474-26.81891l3.9201-1.19873s-.88208 9.03229-2.15649 16.22083c-1.27384 7.18909-2.45017 9.76922-2.45017 9.76922zm6.88868-4.02771-2.41376 1.92109s2.20862-7.04 2.67267-24.76441l3.61639-1.45709a134.59753 134.59753 0 0 1 -1.55347 15.045c-1.20718 6.81083-2.32186 9.25541-2.32186 9.25541zm8.53186-14.56536c-1.20716 6.81024-2.32129 9.25476-2.32129 9.25476l-2.41376 1.92114s2.30615-4.92444 2.7702-22.64887l3.66516-1.77874s-.49374 6.44146-1.70036 13.25171z" transform="translate(-168.62445 -117.27579)"/><path d="m355.75388 227.15c.73972-.96 1.51984-1.93455 2.32011-2.86487-1.43748-.78737-2.90745-1.53944-4.34213-2.26408-4.80951-2.42886-9.74459-4.65262-14.74466-6.68021a33.56769 33.56769 0 0 0 .9219 3.80357c5.39685 2.472 10.69954 5.04885 15.84478 8.00559" transform="translate(-168.62445 -117.27579)"/><path d="m270.10255 198.50392s-12.457-6.12091-21.15533 1.07436c-8.69885 7.19465-11.49029 21.15529-8.05435 42.0954 2.39186 14.576 6.32938 21.92645 13.42376 33.3977 0 0-.2281-1.61624-.50551-4.37743-2.175-3.63042-6.9481-12.7036-10.01864-26.76456-4.081-18.68612-.75153-28.45818-.75153-28.45818l.75153 1.82588c.75152 1.82527 3.97338 1.93288 7.83973-2.47034a9.6202 9.6202 0 0 1 7.65141-3.07561c2.55945-5.64173 6.05984-10.32516 10.81893-13.24722" fill="#afadae" transform="translate(-168.62445 -117.27579)"/><path d="m364.17441 225.24348s10.73878.42986 15.67888 2.36273a22.57338 22.57338 0 0 1 7.731 4.93956s-12.6711 10.73878-27.27566 25.77319c-14.60514 15.03439-17.82643 19.97449-17.82643 19.97449l-1.14383-.26451c3.16752-4.52372 12.081-16.81655 21.54705-25.9385 11.81255-11.38327 14.60514-13.31614 14.60514-13.31614s-7.94676 2.57737-12.02777 2.57737c-4.08042 0-6.22794-1.07377-9.87963 2.1481-3.65115 3.22129-12.45705 21.477-15.67888 30.06821l-1.42572 3.80135-1.581-.36484s8.37607-30.28343 27.27682-51.761" fill="#afadae" transform="translate(-168.62445 -117.27579)"/><path d="m329.8125 281.66132-82.74219 19.34735 8.76 78.66571c.78906 7.08874 1.33435 14.22064 2.21369 21.29425.24047 1.93432.515 3.87146.84558 5.79907l77.17474 63.462a307.9661 307.9661 0 0 0 27.34149-16.31983c4.82581-3.24878 9.55127-6.669 14.08393-10.31677 8.98693-7.23334 16.67254-15.19806 20.59436-26.25293a77.39516 77.39516 0 0 0 3.497-16.37158c.87934-7.07361 1.42463-14.20551 2.21369-21.29425l8.76-78.66571z" fill="#afadae" transform="translate(-168.62445 -117.27579)"/><path d="m236.38267 225.88791s0 .10371.00224.29984a83.77754 83.77754 0 0 0 1.07208 22.57372 80.8281 80.8281 0 0 0 3.44772 14.00381 24.76325 24.76325 0 0 1 -2.374 6.93688c-4.081 8.1614-6.44371 9.87964-6.44371 9.87964s-7.51691-16.96729-10.09429-21.26291a8.56948 8.56948 0 0 0 -6.87243-4.29506s17.6112-24.05492 21.26235-28.13592" fill="#afadae" transform="translate(-168.62445 -117.27579)"/><path d="m203.09262 256.81553s10.95341-.42982 13.96006 1.93292c3.00721 2.36273 8.162 12.24237 9.88022 16.75265a29.3363 29.3363 0 0 1 1.93289 7.5169s-10.09429-17.39657-13.746-19.32945c-3.65115-1.93345-11.38327 0-11.38327 0a36.44364 36.44364 0 0 1 -.64391-6.873" fill="#afadae" transform="translate(-168.62445 -117.27579)"/><path d="m224.99968 282.80343s-6.44316-10.95341-10.95343-12.88687c-4.51027-1.93233-20.40379-.214-20.40379-.214s-2.14809.42927-5.584 5.58347c-2.88392 4.32589-4.86052 11.03971-3.65114 14.92736 0 0 1.50305-6.1215 3.43594-9.12815l1.93289-3.0072s22.1226-9.66444 35.22356 4.72544" fill="#afadae" transform="translate(-168.62445 -117.27579)"/><path d="m189.347 299.341s2.29828-10.33864 15.35664-13.22814c3.85119 1.15 8.68763 3.35185 10.84581 7.42947 3.86579 7.3023-.64448 16.53747-1.71825 29.20912-.9387 11.07953-1.22115 19.86018-1.2772 21.8917-.28357-.0039-.57331-.00055-.87033.0157-7.94676.42928-15.46368 5.79866-15.46368 5.79866s-9.02109-34.14922-6.873-51.11651" fill="#afadae" transform="translate(-168.62445 -117.27579)"/><path d="m202.985 384.92937a8.55516 8.55516 0 0 0 3.54411.64392 8.99526 8.99526 0 0 0 2.36217-.107s.2107 3.58.73639 7.71642l-1.03511 7.12518a9.469 9.469 0 0 1 -1.95642.1928 4.77168 4.77168 0 0 1 -3.54354-1.39657zm-1.8253-.64446a6.58838 6.58838 0 0 1 -3.11424-.6445 5.79282 5.79282 0 0 1 -1.71825-1.18138l.53688 11.70551s.21464 1.93288 1.71824 2.36272a7.57807 7.57807 0 0 0 2.57737.32169zm-6.01386-2.1481-3.54354-1.93291 2.03992 10.73877a.89475.89475 0 0 0 .6445 1.07378c.85912.32223 1.18137.42984 1.18137.42984zm-5.26179-2.4698a6.03922 6.03922 0 0 1 -2.04049-1.18135l-.96672-.85913 2.792 10.30949a5.46978 5.46978 0 0 0 1.71825 1.289l.85969.32221zm6.7654-26.20246a21.01953 21.01953 0 0 1 15.46368-4.8325c9.23517.96675 9.45038 7.08766 9.45038 7.08766s-7.62453 12.35-10.63175 18.36328a81.71008 81.71008 0 0 1 -4.61731 8.376s-4.40322.10761-11.81309-2.68495c-7.40988-2.79147-8.59125-4.18749-8.59125-4.18749a166.33849 166.33849 0 0 1 10.73934-22.122" fill="#afadae" transform="translate(-168.62445 -117.27579)"/><path d="m45.744 266.472 28.243-13.208 2.255.859-21.585 22.014-11.598 24.377-1.933-2.255z" fill="#afadae"/><path d="m64.916 272.965 122.865 101.035 11.213 34.645-35.446-8.368-109.645-113.28 3.412-6.562 113.105 104.38 3.549.54-1.184-3.281-113.444-104.313z" fill="#afadae"/><path d="m64.939 275.041-3.208 2.76 112.415 103.367 2.197 6.085 20.232 19.189.039.009-10.201-31.52z" fill="#fff"/><path d="m329.8125 455.0436a245.55158 245.55158 0 0 0 26.208-15.81172c3.76379-2.62444 7.45136-5.38676 10.98707-8.33345 7.01083-5.84238 13.00624-12.27545 16.06612-21.20464a64.36122 64.36122 0 0 0 2.72757-13.22423c.6865-5.71293 1.11188-11.47349 1.72723-17.19875l6.8343-63.53935-64.55029-15.62734-64.55036 15.62734 6.83376 63.53935c.61591 5.72526 1.0407 11.48582 1.72722 17.19875a64.397 64.397 0 0 0 2.72757 13.22423c3.05989 8.92919 9.05527 15.36226 16.06668 21.20464 3.53571 2.94669 7.2227 5.709 10.98649 8.33345a245.5021 245.5021 0 0 0 26.20864 15.81172m0 5.15977a261.88969 261.88969 0 0 0 27.9532-16.86529c4.01485-2.79874 7.94789-5.746 11.719-8.88826 7.47825-6.23133 13.87321-13.09311 17.136-22.61689a68.64254 68.64254 0 0 0 2.91029-14.10467c.73135-6.09346 1.18529-12.23734 1.8421-18.34481l7.28882-67.77052-68.84933-16.668-68.84991 16.668 7.28938 67.77052c.65682 6.10747 1.11021 12.25135 1.84212 18.34481a68.64144 68.64144 0 0 0 2.90969 14.10467c3.26333 9.52378 9.6583 16.38556 17.136 22.61689 3.77164 3.14227 7.70411 6.08952 11.719 8.88826a261.839 261.839 0 0 0 27.95378 16.86529" transform="translate(-168.62445 -117.27579)"/><path d="m330.39322 285.87918-.13451 5.52351 72.98862 16.98187-8.49039 93.98308a45.05561 45.05561 0 0 1 -12.00419 27.22915c-11.0089 11.83384-23.30959 22.89093-24.74707 24.176q2.91533-1.85358 5.77123-3.77555c4.60049-3.098 9.10626-6.35908 13.42824-9.83761 8.56827-6.89654 15.89687-14.49079 19.63545-25.03063a73.7569 73.7569 0 0 0 3.33451-15.60995c.83837-6.7441 1.35788-13.54423 2.10995-20.3029l8.35309-75.00445z" transform="translate(-168.62445 -117.27579)"/><path d="m217.82815 272.92373c-3.98963-.45784-13.53248-1.4212-17.84435-.70275a66.89549 66.89549 0 0 0 -9.21218 2.14977 13.46414 13.46414 0 0 0 -.8709 3.65505c-.08014.03307-.12441.05271-.12441.05271l-1.93289 3.00665c-1.9329 3.00665-3.43594 9.12811-3.43594 9.12811-1.20995-3.88765.76721-10.60147 3.65058-14.92681 3.4365-5.15475 5.58458-5.584 5.58458-5.584s15.893-1.71824 20.4038.21464a12.67255 12.67255 0 0 1 3.78171 3.00665m3.36309-8.79187a16.47931 16.47931 0 0 0 -7.08149-3.27229 79.80222 79.80222 0 0 0 -10.83011-.33737c-.10537-1.062-.18719-2.32966-.18719-3.70663 0 0 10.954-.42983 13.96008 1.93291a22.69359 22.69359 0 0 1 4.13871 5.38338m14.96939-26.73094c-2.7483 3.40121-7.78536 9.73676-10.38235 13.63223-2.21926 3.3289-3.54691 5.43216-4.25248 6.57879a8.51124 8.51124 0 0 0 -6.4056-3.58838s17.61122-24.05492 21.26235-28.13535c0 0 0 .10368.00224.29927a66.75314 66.75314 0 0 0 -.22416 11.21344m25.27328-29.77122c-3.39726-.59236-10.07355-1.45037-13.853.10536a19.98442 19.98442 0 0 0 -6.45323 4.53662 24.68531 24.68531 0 0 1 7.81955-12.69354c8.69829-7.19523 21.15531-1.07432 21.15531-1.07432a26.35033 26.35033 0 0 0 -8.66859 9.12588m-58.22495 78.86067a110.50221 110.50221 0 0 0 -5.06732 29.64291c-.75264 16.81484 2.18564 27.88428 3.28462 31.369a36.79113 36.79113 0 0 0 -5.20629 2.95565s-9.02109-34.14981-6.873-51.1171c0 0 2.12232-9.5372 13.862-12.85044m2.07915 62.608c-2.07243 3.57155-7.24791 12.72042-9.55124 18.90355-2.35319 6.31763-3.60686 9.63476-4.00307 10.67881-4.95076-2.06234-5.82334-3.09408-5.82334-3.09408a166.29231 166.29231 0 0 1 10.73878-22.122 21.01715 21.01715 0 0 1 8.63887-4.36624m89.35289-186.34712s-12.89078 4.14319-16.57331 12.66046c-2.63958 6.10412-3.34795 8.81821-3.53737 9.86677a63.16382 63.16382 0 0 0 7.27034-1.6q.60441-.17153 1.21051-.35813c-.58676-2.83514-1.01156-11.36979 11.62983-20.56911m4.83363 17.26433a54.76251 54.76251 0 0 1 -15.65254 7.6727c-8.90059 2.60878-11.50935 2.1481-11.50935 2.1481a12.51509 12.51509 0 0 0 0 4.29674l.46066 1.535 3.83608-.76723 10.89569 4.60329 11.35582 3.52955s-4.45031-13.19735.61364-23.01815m-25.78437 53.28757a99.88448 99.88448 0 0 0 -8.283 23.9014c-3.26164 15.52533-2.64126 32.04539-2.38234 36.64868l-2.04385.478a193.75589 193.75589 0 0 1 -4.4094-49.32823c.98635-24.376 8.07342-36.55006 12.832-42.041a19.21436 19.21436 0 0 1 .87258 7.25239 36.67536 36.67536 0 0 1 -2.42887 11.90053l-.39228.92077.18212.98689c.40968 2.22321 3.098 5.84631 6.05312 9.28057" fill="#fff" transform="translate(-168.62445 -117.27579)"/></g><path d="m45.508 318.602h-43.895l13.877 24.946-13.382 25.454h42.127" fill="#afadae"/><path d="m240.395 318.618h43.118l-13.876 24.948 13.383 25.451h-42.128" fill="#afadae"/><g transform="translate(-168.62445 -117.27579)"><path d="m188.61282 361.93545-8.66208-8.54218a5.13267 5.13267 0 0 1 -2.69954.956 5.60961 5.60961 0 1 1 5.60978-5.60979 11.24983 11.24983 0 0 1 -.709 3.26423l7.66314 7.57022z" fill="#afadae" fill-rule="evenodd"/><path d="m177.25118 345.13663a3.73737 3.73737 0 1 1 -3.73745 3.73745 3.738 3.738 0 0 1 3.73745-3.73745" fill="#fff"/><path d="m217.98973 599.04526a5.51158 5.51158 0 0 0 -2.55146-1.759 9.16029 9.16029 0 0 0 -3.04706-.56958 8.01532 8.01532 0 0 0 -1.7341.198 6.66792 6.66792 0 0 0 -1.68453.61937 3.67133 3.67133 0 0 0 -1.2883 1.11472 2.823 2.823 0 0 0 -.49536 1.68477 2.79154 2.79154 0 0 0 1.189 2.42769 11.23174 11.23174 0 0 0 2.9975 1.43674q1.80807.59471 3.88932 1.18918a16.04858 16.04858 0 0 1 3.88956 1.68454 9.218 9.218 0 0 1 2.9975 2.92328 8.91042 8.91042 0 0 1 1.189 4.90493 11.28321 11.28321 0 0 1 -1.08983 5.10317 10.35052 10.35052 0 0 1 -2.94827 3.61693 12.529 12.529 0 0 1 -4.31046 2.13057 19.7679 19.7679 0 0 1 -11.51931-.34691 15.87615 15.87615 0 0 1 -5.45008-3.36908l5.49964-6.04455a8.01573 8.01573 0 0 0 2.9975 2.45258 8.55275 8.55275 0 0 0 3.74065.86693 8.46264 8.46264 0 0 0 1.90744-.2229 6.21356 6.21356 0 0 0 1.73409-.66893 3.74187 3.74187 0 0 0 1.23874-1.13962 2.8415 2.8415 0 0 0 .4707-1.635 2.96771 2.96771 0 0 0 -1.21385-2.50191 11.21406 11.21406 0 0 0 -3.04706-1.56075q-1.83379-.64333-3.96378-1.2883a17.74761 17.74761 0 0 1 -3.96354-1.7341 9.53643 9.53643 0 0 1 -3.04706-2.87372 8.21531 8.21531 0 0 1 -1.21385-4.70669 10.53962 10.53962 0 0 1 1.11473-4.95473 10.76092 10.76092 0 0 1 2.97284-3.56731 12.93234 12.93234 0 0 1 4.28556-2.15523 17.55723 17.55723 0 0 1 5.00429-.71825 19.68363 19.68363 0 0 1 5.7472.84226 13.27143 13.27143 0 0 1 5.00405 2.82416z" fill="#3b6e8f"/><path d="m229.385 590.4739h23.83155v7.13462h-16.10244v6.53991h15.21063v7.13462h-15.21063v7.13462h16.99428v7.13462h-24.72339z" fill="#3b6e8f"/><path d="m260.30116 590.4739h13.57564a23.94881 23.94881 0 0 1 5.07828.52025 12.05544 12.05544 0 0 1 4.21157 1.7341 8.65351 8.65351 0 0 1 2.87349 3.27 11.07686 11.07686 0 0 1 1.0654 5.12806 10.29612 10.29612 0 0 1 -1.93233 6.317 8.69876 8.69876 0 0 1 -5.64832 3.29485l8.91827 14.81415h-9.26495l-7.33285-14.02144h-3.81511v14.02144h-7.72909zm7.72909 14.5168h4.55826q1.04039 0 2.20478-.07422a6.90923 6.90923 0 0 0 2.10568-.446 3.645 3.645 0 0 0 1.56075-1.16428 3.54449 3.54449 0 0 0 .61937-2.22946 3.70413 3.70413 0 0 0 -.54515-2.13056 3.64274 3.64274 0 0 0 -1.38718-1.21385 6.17746 6.17746 0 0 0 -1.93233-.56981 15.75842 15.75842 0 0 0 -2.13033-.14868h-5.05385z" fill="#3b6e8f"/><path d="m280.22131 411.173c2.58631 7.28547 8.49707 12.78485 14.3736 17.51087 4.05469 3.26166 8.27966 6.31146 12.59607 9.21612 7.3017 4.91266 14.8786 9.44587 22.62079 13.653l.24267-.13172v-147.87818l-.00952-.40741-.23315-.05438-61.04267 14.26324 6.78894 60.925c.76941 6.90668 1.29627 13.843 2.15424 20.73724a58.341 58.341 0 0 0 2.50903 12.16622z" fill="#fff"/><path d="m260.342 399.519a95.577 95.577 0 0 0 1.658 9.8065l6.5285 5.36847a40.768 40.768 0 0 1 -2.76831-12.32636l-8.4909-93.98309 72.98913-16.98187-.13507-5.5235-80.24435 18.33252 8.35254 75.00446c.75204 6.75866 1.27212 13.55877 2.11046 20.30287z" fill="#fff"/><g fill="#3b6e8f"><path d="m288.93852 590.4739h8.81916l8.67047 22.98928h.09912l8.81916-22.98928h8.27424l-14.46747 35.07839h-6.1932z"/><path d="m327.18751 590.4739h7.72909v35.07839h-7.72909z"/><path d="m364.89135 599.59018a7.59149 7.59149 0 0 0 -2.79926-2.13033 9.31589 9.31589 0 0 0 -3.83976-.74316 9.60931 9.60931 0 0 0 -7.25864 3.1955 10.9603 10.9603 0 0 0 -2.13033 3.59221 13.69017 13.69017 0 0 0 0 9.04206 11.25357 11.25357 0 0 0 2.10567 3.56731 9.52722 9.52722 0 0 0 3.14617 2.35346 9.08887 9.08887 0 0 0 3.88933.84227 8.71074 8.71074 0 0 0 4.21134-.99095 8.38217 8.38217 0 0 0 3.0224-2.7746l6.44079 4.80605a13.41231 13.41231 0 0 1 -5.64808 4.60782 17.479 17.479 0 0 1 -7.0355 1.4863 21.60907 21.60907 0 0 1 -7.58065-1.2883 17.33626 17.33626 0 0 1 -5.995-3.69109 16.73057 16.73057 0 0 1 -3.93889-5.82166 21.32041 21.32041 0 0 1 0-15.26018 16.73834 16.73834 0 0 1 3.93889-5.82143 17.36154 17.36154 0 0 1 5.995-3.69132 21.61429 21.61429 0 0 1 7.58065-1.28806 18.62732 18.62732 0 0 1 3.09661.27245 16.76277 16.76277 0 0 1 3.17084.86693 14.15157 14.15157 0 0 1 2.9975 1.58566 11.95216 11.95216 0 0 1 2.57636 2.42768z"/><path d="m376.18776 590.4739h23.83154v7.13462h-16.10245v6.53991h15.21063v7.13462h-15.21063v7.13462h16.99428v7.13462h-24.72337z"/><path d="m424.44485 599.04526a5.51158 5.51158 0 0 0 -2.55146-1.759 9.16029 9.16029 0 0 0 -3.04706-.56958 8.01532 8.01532 0 0 0 -1.7341.198 6.66778 6.66778 0 0 0 -1.68453.61937 3.67133 3.67133 0 0 0 -1.2883 1.11472 2.823 2.823 0 0 0 -.49536 1.68477 2.79154 2.79154 0 0 0 1.18895 2.42769 11.23174 11.23174 0 0 0 2.9975 1.43674q1.80807.59471 3.88932 1.18918a16.04858 16.04858 0 0 1 3.88956 1.68454 9.218 9.218 0 0 1 2.9975 2.92328 8.91042 8.91042 0 0 1 1.18895 4.90493 11.28321 11.28321 0 0 1 -1.08983 5.10317 10.35052 10.35052 0 0 1 -2.94817 3.61687 12.529 12.529 0 0 1 -4.31047 2.13057 19.76787 19.76787 0 0 1 -11.5193-.34691 15.87615 15.87615 0 0 1 -5.45008-3.36908l5.49964-6.04455a8.01573 8.01573 0 0 0 2.9975 2.45258 8.55275 8.55275 0 0 0 3.74065.86693 8.46264 8.46264 0 0 0 1.90744-.2229 6.21368 6.21368 0 0 0 1.73409-.66893 3.74187 3.74187 0 0 0 1.23874-1.13962 2.8415 2.8415 0 0 0 .4707-1.635 2.96771 2.96771 0 0 0 -1.21385-2.50191 11.21406 11.21406 0 0 0 -3.04706-1.56075q-1.8338-.64333-3.96378-1.2883a17.74788 17.74788 0 0 1 -3.96355-1.7341 9.5365 9.5365 0 0 1 -3.04705-2.87372 8.21531 8.21531 0 0 1 -1.21385-4.70669 10.53962 10.53962 0 0 1 1.11473-4.95473 10.76092 10.76092 0 0 1 2.97284-3.56731 12.93234 12.93234 0 0 1 4.28556-2.15523 17.55723 17.55723 0 0 1 5.00429-.71825 19.68363 19.68363 0 0 1 5.7472.84226 13.27143 13.27143 0 0 1 5.00405 2.82416z"/><path d="m238.84794 575.68938a33.799 33.799 0 0 1 -8.62318 3.114 43.84546 43.84546 0 0 1 -9.1619.95808 26.12434 26.12434 0 0 1 -9.16191-1.557 20.95733 20.95733 0 0 1 -7.24575-4.46119 20.22112 20.22112 0 0 1 -4.76065-7.03621 25.76891 25.76891 0 0 1 0-18.44369 20.23019 20.23019 0 0 1 4.76065-7.03621 20.983 20.983 0 0 1 7.2458-4.46116 26.11886 26.11886 0 0 1 9.16191-1.557 33.93987 33.93987 0 0 1 9.3717 1.22757 18.36051 18.36051 0 0 1 7.515 4.22167l-6.5869 7.18606a13.14434 13.14434 0 0 0 -4.31158-2.99411 15.371 15.371 0 0 0 -5.98822-1.018 13.87776 13.87776 0 0 0 -5.41927 1.018 12.16718 12.16718 0 0 0 -4.16173 2.84426 12.48685 12.48685 0 0 0 -2.66493 4.34156 16.54935 16.54935 0 0 0 0 10.92845 12.5291 12.5291 0 0 0 2.66493 4.31158 12.14672 12.14672 0 0 0 4.16173 2.84426 13.86 13.86 0 0 0 5.41927 1.018 17.84965 17.84965 0 0 0 5.26966-.68858 19.87687 19.87687 0 0 0 3.53309-1.40715v-6.88657h-7.60516v-8.623h16.58749z"/><path d="m244.66991 536.28692h9.34173v33.77364h17.30579v8.62293h-26.64752z"/><path d="m270.7649 557.48521a23.94877 23.94877 0 0 1 1.70661-9.22185 20.23019 20.23019 0 0 1 4.76065-7.03621 20.983 20.983 0 0 1 7.24575-4.46119 27.73435 27.73435 0 0 1 18.32381 0 20.98751 20.98751 0 0 1 7.24576 4.46119 20.23019 20.23019 0 0 1 4.76065 7.03621 25.76891 25.76891 0 0 1 0 18.44369 20.22112 20.22112 0 0 1 -4.76065 7.03621 20.96184 20.96184 0 0 1 -7.24576 4.46119 27.73435 27.73435 0 0 1 -18.32381 0 20.95733 20.95733 0 0 1 -7.24575-4.46119 20.22112 20.22112 0 0 1 -4.76065-7.03621 23.94524 23.94524 0 0 1 -1.70661-9.22184zm9.70089 0a15.53093 15.53093 0 0 0 .9281 5.47921 12.5291 12.5291 0 0 0 2.66493 4.31158 12.14672 12.14672 0 0 0 4.16173 2.84426 14.93346 14.93346 0 0 0 10.83854 0 12.1572 12.1572 0 0 0 4.162-2.84426 12.558 12.558 0 0 0 2.66468-4.31158 16.54935 16.54935 0 0 0 0-10.92845 12.51533 12.51533 0 0 0 -2.66468-4.34156 12.17769 12.17769 0 0 0 -4.162-2.84426 14.93346 14.93346 0 0 0 -10.83854 0 12.16718 12.16718 0 0 0 -4.16173 2.84426 12.48685 12.48685 0 0 0 -2.66493 4.34156 15.60747 15.60747 0 0 0 -.9281 5.44924z"/><path d="m320.80586 536.28692h15.80874a40.04823 40.04823 0 0 1 5.53915.38913 15.1482 15.1482 0 0 1 5.00018 1.557 9.58693 9.58693 0 0 1 3.593 3.2636 10.009 10.009 0 0 1 1.37718 5.56912 8.89231 8.89231 0 0 1 -2.00607 5.95825 11.02931 11.02931 0 0 1 -5.29963 3.38324v.11988a12.13137 12.13137 0 0 1 3.80258 1.16762 10.16552 10.16552 0 0 1 2.93417 2.21562 9.45594 9.45594 0 0 1 1.88642 3.144 11.05326 11.05326 0 0 1 .65862 3.8323 10.19 10.19 0 0 1 -1.43711 5.59909 11.29682 11.29682 0 0 1 -3.71267 3.62276 16.25986 16.25986 0 0 1 -5.12 1.97609 27.382 27.382 0 0 1 -5.65879.59892h-17.36577zm9.34149 16.94664h6.76671a9.49089 9.49089 0 0 0 2.12594-.23956 5.87562 5.87562 0 0 0 1.88618-.7785 4.05756 4.05756 0 0 0 1.34744-1.43711 4.313 4.313 0 0 0 .509-2.15591 3.916 3.916 0 0 0 -.569-2.18565 3.9731 3.9731 0 0 0 -1.46708-1.3472 7.02376 7.02376 0 0 0 -2.036-.68883 12.25385 12.25385 0 0 0 -2.21562-.20955h-6.34761zm0 17.54556h8.38365a10.31589 10.31589 0 0 0 2.18564-.23952 5.76746 5.76746 0 0 0 2.00606-.83844 4.76629 4.76629 0 0 0 1.46709-1.557 4.49948 4.49948 0 0 0 .56895-2.33525 3.74964 3.74964 0 0 0 -.74853-2.42541 4.7631 4.7631 0 0 0 -1.88643-1.40714 9.68335 9.68335 0 0 0 -2.45513-.65862 18.23476 18.23476 0 0 0 -2.45513-.17982h-7.06617z"/><path d="m372.19118 536.28692h7.72482l18.44369 42.39657h-10.53935l-3.65273-8.98233h-16.46761l-3.53308 8.98233h-10.2998zm3.59278 12.3356-5.14978 13.17427h10.35975z"/><path d="m400.91446 536.28692h9.34173v33.77364h17.30581v8.62293h-26.64754z"/></g><path d="m303.897 284.29633a32.24357 32.24357 0 0 1 2.28748-5.3592c4.5108-8.16143 12.8869-9.87909 16.10815-18.89965 1.57086-4.39875.2309-7.26471-1.554-9.04743a75.4811 75.4811 0 0 0 9.24914-11.32776c2.77918-2.908 7.56348-8.05548 9.82648-12.18017q.928.42955 1.84485.88208c2.27643 1.12085 4.51813 2.33252 6.71216 3.608.95776.55646 1.92224 1.12921 2.87048 1.72381-.0863.11939-.17261.23816-.25891.35755-1.12366 1.54846-2.15985 3.05939-3.1322 4.712-1.77265 3.01056-3.32721 6.21338-4.80506 9.37641-2.39465 5.12115-4.51751 10.48266-6.58716 15.745q-2.85717 7.26453-5.57721 14.59943l2.17493.50855c3.16223-8.45368 8.5083-22.43635 12.00324-29.91138 5.22705-11.18042 6.75756-12.13422 9.3153-15.99384a105.53627 105.53627 0 0 0 -15.68115-8.53912c-1.07092 3.49866-6.5636 9.65826-10.44617 13.7146a70.12685 70.12685 0 0 1 -13.686 15.32861c-14.17529 11.5979-19.54468 11.38324-19.54468 11.38324s0 1.93292-.42926 19.54468c-.0166.68054-.029 1.32391-.04065 1.96088z" fill="#afadae"/><path d="m379.20819 284.52191c.554 2.10468.96106 3.95661 1.26605 5.56085l22.21186 5.19379c-1.57978-5.14239-4.4737-14.18359-7.36975-21.27881-4.2956-10.52411-12.45643-27.06158-12.45643-27.06158s-4.081 3.00665-12.67169 10.0943q-.39514.32619-.80475.67364a28.26816 28.26816 0 0 0 1.87854 10.06513c3.00666 7.73156 5.79865 8.59124 7.94617 16.75268z" fill="#afadae" fill-rule="evenodd"/><path d="m309.051 379.71723c-3.13836 9.44813-7.46929 22.52722-7.46929 22.52722h-10.12846v3.86691h24.98467v-3.86691h-9.07154l7.6632-23.50851zm45.66251 3.34234c2.98928 9.50642 6.038 19.18488 6.038 19.18488h8.96728v3.86691h-32.27354v-3.86691h9.69418l-8.923-27.831-.524-1.79783a126.41786 126.41786 0 0 0 12.00868-5.45736c.95214 2.996 2.75 8.69435 4.61564 14.65388z" fill="#3b6e8f"/><path d="m368.52455 338.07138h.0039c-8.29364-12.137-23.314-21.01074-38.35012-22.58384 0 0-5.75384 17.32484-10.74326 32.36767a114.50172 114.50172 0 0 0 -24.05269 11.87025c-6.30417 4.34271-10.85871 9.05809-10.92651 12.77033a4.7615 4.7615 0 0 0 .23256 1.45315c1.28842 3.51778 6.95146 4.30012 14.01 4.33036a73.469 73.469 0 0 0 10.93773-.92132l3.83553-.6484a142.20769 142.20769 0 0 0 18.83069-4.98608c1.83537-.617 3.62144-1.266 5.37443-1.93233 3.30423-1.11184 11.49255-4.9373 11.49255-4.9373a94.61355 94.61355 0 0 0 10.56727-5.92252c.97793-.64056 1.88413-1.28055 2.74214-1.92169a98.61031 98.61031 0 0 1 2.34146 9.91555l.91738-.94376a82.83855 82.83855 0 0 0 -2.356-9.64594c3.93638-3.03022 6.52946-5.96234 7.29723-8.69719a51.26585 51.26585 0 0 1 3.52391 12.35391c.00786 5.57787-6.79117 13.125-17.81857 19.97281l.232 1.35567c9.27105-5.68155 15.80441-11.80636 18.04049-17.44477.10032 1.33439.15358 2.67937.15358 4.0272a51.65615 51.65615 0 0 1 -3.16974 17.87179l.73415 1.38258.39732-.96281c2.09878-5.69725 4.42789-13.53753 4.424-19.95825a47.01183 47.01183 0 0 0 -8.67136-28.16507m-4.00983-1.11636h-.01344a90.67535 90.67535 0 0 0 -9.69246.55707 77.04541 77.04541 0 0 0 -5.24892-7.40484l-.937-1.15q-1.91409-2.27053-3.98236-4.35784c3.48806.64618 6.80184 1.419 9.92393 2.29549.57838.4444 1.14944.89834 1.7076 1.3663l1.326 1.15334a52.23609 52.23609 0 0 1 6.9167 7.54046m-25.71384-5.13174-.35868-1.15785-2.32068-7.34991q3.31038.39513 6.46781.92751 2.42271 2.321 4.65542 4.89359l.914 1.09841a74.78951 74.78951 0 0 1 5.417 7.41661c-3.89828.46628-8.014 1.16736-12.27544 2.105zm12.95972-6.93968q-4.15184-1.02894-8.677-1.8057a70.135 70.135 0 0 0 -5.67593-4.85323 51.29578 51.29578 0 0 1 14.3529 6.65893m-17.43969-7.43344.213.15413a68.29619 68.29619 0 0 1 6.42074 5.1228q-2.57064-.39677-5.241-.70333l-1.44814-4.58872c.01794 0 .03364.01231.05548.01512m-6.80069 21.82223 7.453 23.58531c-.98184.35194-1.248.43824-2.26241.77561a125.18353 125.18353 0 0 1 -14.62474 4.24351c1.35847-4.174 7.68114-23.30229 9.43413-28.60443m31.54942 18.65136c-6.75307 4.45757-16.41023 8.14067-27.29974 11.8002-12.74733 4.30067-23.60213 5.88441-32.09811 5.88106-6.96378.03417-11.29751-.71958-12.03614-3.21794a3.18121 3.18121 0 0 1 -.17205-1.06423c-.06332-2.80491 2.37171-6.38207 8.59741-10.597a112.02878 112.02878 0 0 1 22.87917-11.39449c-.56154 1.69751-1.11636 3.34908-1.64372 4.94124a98.66983 98.66983 0 0 0 -14.43418 7.20252c-3.96274 2.56225-6.41177 4.68959-6.50929 6.83659a2.18462 2.18462 0 0 0 .10424.68537c.72351 1.78662 3.06158 2.21367 6.42074 2.25793 6.64938-.00615 17.87517-2.31508 30.21395-6.47172 4.74282-1.59551 9.17016-3.31152 13.14859-5.04546l1.22058-.44611-3.91846-12.42116-.36651-1.16175-1.46269-4.642a125.75285 125.75285 0 0 1 12.68006-2.13462c.54811.89218 1.08554 1.79444 1.60057 2.7158l.57722 1.08722a77.31774 77.31774 0 0 1 5.53586 13.05779c-.93647.71171-1.94748 1.41675-3.0375 2.13072m-42.2799-2.13069c-2.1352 6.42746-3.82319 11.5256-4.3853 13.21921a55.36943 55.36943 0 0 1 -9.52658 1.02612c-3.28127.04929-5.15419-.719-5.27076-1.42684a1.11179 1.11179 0 0 1 -.04876-.29981c-.10424-1.04576 2.03825-3.39392 5.94942-5.81046a94.58441 94.58441 0 0 1 13.282-6.70822m46.20892-.68934a79.38551 79.38551 0 0 0 -5.34866-12.67223l-.57612-1.09673c-.473-.85913-.96729-1.69976-1.46775-2.5342a88.08633 88.08633 0 0 1 8.895-.48254c.3413 0 .67532.00674 1.01043.01122.09865.14065.20065.2785.29758.41973l.93983 1.43078a50.0388 50.0388 0 0 1 2.82789 5.05049 3.35022 3.35022 0 0 1 .12776.872c.05493 2.31509-2.36831 5.56217-6.706 9.00145" fill="#3b6e8f"/><path d="m233.376 168.97241c6.01385-1.82525 6.873-2.25512 22.22906-17.07489 15.35663-14.81921 37.04883-10.2019 37.04883-10.2019s-.96619-1.07373-5.15418-2.36218c-4.18859-1.28895-9.98724-.10761-9.98724-.10761s1.07373-1.28839 8.16138-3.11426c7.08764-1.82525 19.97394.96674 23.1958 9.665a20.31291 20.31291 0 0 1 1.006 9.87659 34.24277 34.24277 0 0 1 6.37189 1.91046c14.03369-18.28449-4.72608-41.12744-26.79755-36.29987-17.34 3.79291-28.44806 19.57441-47.23169 19.2135a13.92856 13.92856 0 0 1 -3.47461-.47473c-8.139-2.27191-6.9212-12.96191 1.42011-13.051-5.30829-4.94519-18.14527-.39514-18.79932 9.77313-.43152 6.71613 2.71411 13.76733 8.27686 14.36475 0 0-7.003 4.1499-17.29346 0-8.41248-3.39338-16.57776-2.282-22.08392 1.94183-9.73621 7.46875-11.10138 24.26062-.92414 30.92792-.43823-1.45764-1.32312-4.93115-.74481-7.57685.75208-3.43652 3.43652-6.44378 10.63178-6.22851 7.19464.2146 15.14141 9.23517 28.13531 10.20129 12.9939.96674 20.51141-12.77868 20.51141-12.77868s-1.71826 2.04046-10.52417 4.08044c-8.80584 2.04047-12.67163-2.46985-12.67163-2.46985s2.68435 1.61129 8.69829-.21458z" fill="#fff"/><path d="m303.21607 145.66923c4.6061 0 8.34074 4.27211 8.34074 9.54063 0 .64672.046 1.56582.10479 2.68047a38.70932 38.70932 0 0 0 -16.89107.009c.0594-1.11862.10535-2.04161.10535-2.68946 0-5.26852 3.73465-9.54063 8.34019-9.54063" fill-rule="evenodd"/><path d="m303.21607 147.26813a6.8069 6.8069 0 0 1 6.5373 7.0462c0 .47747.03586 1.15614.08238 1.97939q-.628-.13115-1.261-.23817a6.93091 6.93091 0 0 0 -.74254-4.95526 5.76471 5.76471 0 0 0 -4.93-2.62557 9.82731 9.82731 0 0 1 1.90208 7.17228q-.78262-.03868-1.57311-.03868a32.12326 32.12326 0 0 0 -6.63481.69269c.04652-.82664.08238-1.50812.08238-1.98668a6.8069 6.8069 0 0 1 6.53731-7.0462" fill="#afadae" fill-rule="evenodd"/><path d="m301.03 130.74249c-16.53748-7.73211-34.36389 5.15424-53.4787 21.26294-19.11536 16.10816-23.1958 12.24182-32.64618 9.66443-9.45038-2.57678-16.75207-6.22845-21.26294-3.22131-4.51025 3.00665-4.295 6.228-4.295 6.228s5.36938-4.5097 10.52362-1.93286c5.15472 2.57739 5.36993 3.0072 5.36993 3.0072s-15.035-4.72491-18.47088 7.30231c-1.13092 3.956.15576 7.63349 2.39184 10.78754.09418.06329.18775.1272.283.18939-.03528-.02356-.06952-.04761-.10534-.07062-.43769-1.45764-1.32264-4.93115-.74427-7.57745.75208-3.43652 3.43653-6.44312 10.63172-6.22852 7.1947.21521 15.14148 9.23517 28.13537 10.20191s20.51087-12.7793 20.51087-12.7793-1.71826 2.04053-10.52417 4.08106c-8.8053 2.04046-12.67108-2.46979-12.67108-2.46979s2.68438 1.61065 8.6983-.21521c6.01385-1.82532 6.87244-2.25513 22.22906-17.07434 15.35663-14.81977 37.04883-10.20191 37.04883-10.20191s-.96673-1.07379-5.15472-2.36273c-4.18805-1.28839-9.98731-.10705-9.98731-.10705s1.07379-1.28895 8.162-3.11426c7.0871-1.82581 19.97394.96618 23.1958 9.66449a19.30818 19.30818 0 0 1 .94153 3.60852 10.39035 10.39035 0 0 1 1.74554 5.825c0 .23578.00769.5191.01831.82355.30451.07592.60889.152.91022.23608.7854-6.72305.60265-19.88968-11.45535-25.52707z" fill="#3b6e8f" fill-rule="evenodd"/><path d="m229.55066 151.07794a45.70131 45.70131 0 0 0 12.99109-5.43719s-10.74158 1.995-15.34546-5.21753c-2.704-4.23627-1.70252-9.424-.41522-12.98554a12.157 12.157 0 0 0 -5.41651 9.28675c-.42926 6.67968 2.67993 13.68994 8.1861 14.35351z" fill="#3b6e8f" fill-rule="evenodd"/></g><path d="m26.74708 322.6221h232.46076v55.41382h-232.46076z" fill="#3b6e8f"/><path d="m231.74383 449.51818h6.99349l16.6798 38.39442h-9.5322l-3.30928-8.13227h-14.89654l-3.19943 8.13227h-9.31531zm3.24653 11.16133-4.65766 11.93864h9.377z" fill="#00334e" transform="translate(-168.62445 -117.27579)"/><path d="m90.965 332.242h8.456v30.589h15.68v7.806h-24.136z" fill="#00334e"/><path d="m119.76 332.242h12.784l8.84 25.054h.105l8.883-25.054h12.737v38.395h-8.452v-29.459h-.11l-10.073 29.459h-6.453l-9.698-29.459h-.106v29.459h-8.457z" fill="#00334e"/><path d="m171.227 332.242h26.064v7.8h-17.611v7.16h16.635v7.814h-16.635v7.815h18.588v7.806h-27.041z" fill="#00334e"/><path d="m214.571 350.572-12.684-18.33h10.619l8.184 13.443 7.857-13.443h10.237l-12.407 18.162 13.869 20.233h-10.616l-9.378-15.458-9.101 15.458h-10.027z" fill="#00334e"/><path d="m230.35377 448.12525h6.99182l16.6798 38.3989h-9.53333l-3.30536-8.13227h-14.8971l-3.20057 8.13227h-9.31586zm3.24541 11.16414-4.65711 11.9364h9.3736z" fill="#fff" transform="translate(-168.62445 -117.27579)"/><path d="m89.574 330.85h8.459v30.59h15.676v7.808h-24.135z" fill="#fff"/><path d="m118.369 330.85h12.783l8.839 25.054h.104l8.887-25.054h12.733v38.398h-8.451v-29.455h-.111l-10.071 29.455h-6.454l-9.698-29.455h-.104v29.455h-8.457z" fill="#fff"/><path d="m169.833 330.85h26.066v7.801h-17.608v7.161h16.632v7.813h-16.632v7.815h18.584v7.808h-27.042z" fill="#fff"/><path d="m213.18 349.179-12.684-18.329h10.62l8.182 13.444 7.86-13.444h10.234l-12.407 18.167 13.872 20.231h-10.617l-9.378-15.459-9.101 15.459h-10.028z" fill="#fff"/></svg>