<svg xmlns="http://www.w3.org/2000/svg" width="39.66102" height="52.73756" viewBox="0 0 39.66102 52.73756">
  <defs>
    <style>
      .cls-1, .cls-3 {
        fill: #fff;
      }

      .cls-1, .cls-2 {
        stroke: #231f20;
        stroke-miterlimit: 10;
        stroke-width: 0.5px;
      }

      .cls-2 {
        fill: #3b6e8e;
      }

      .cls-4 {
        fill: #000018;
      }
    </style>
  </defs>
  <title>Asset 7</title>
  <g id="Layer_2" data-name="Layer 2">
    <g id="Layer_1-2" data-name="Layer 1">
      <path class="cls-1" d="M19.83039.25A19.60118,19.60118,0,0,0,.25,19.82772c0,8.09883,6.61919,14.70748,11.41335,20.86374C16.2814,46.62158,19.89343,52.25,19.89343,52.25a78.19457,78.19457,0,0,1,8.10424-11.55854C33.34055,34.47508,39.411,28.20984,39.411,19.82772A19.60138,19.60138,0,0,0,19.83039.25Z"/>
      <circle class="cls-2" cx="19.83054" cy="19.82771" r="17.12053" transform="translate(-0.08855 39.56645) rotate(-89.73537)"/>
      <g>
        <path class="cls-3" d="M13.67653,22.94313c-.91283,2.814-2.17467,6.71324-2.17467,6.71324H8.55306v1.14985H15.8277V29.65637H13.18636l2.23077-7.0053Zm13.29287.99581c.87224,2.83173,1.76228,5.71743,1.76228,5.71743h2.60985v1.14985H21.94361V29.65637H24.766l-2.59846-8.29263-.15186-.53735a36.7433,36.7433,0,0,0,3.49713-1.62585c.27552.89264.79787,2.59059,1.343,4.36536Z"/>
        <g>
          <path class="cls-4" d="M30.993,10.53463h.00093A15.975,15.975,0,0,0,19.82687,3.80622s-1.67469,5.16116-3.12809,9.64326A32.97627,32.97627,0,0,0,9.6974,16.98714c-1.83523,1.292-3.16139,2.69657-3.18031,3.804a1.44488,1.44488,0,0,0,.06708.43351c.37451,1.04644,2.02293,1.27874,4.07764,1.28921a21.11844,21.11844,0,0,0,3.18532-.27332l1.11515-.194A40.32406,40.32406,0,0,0,20.44639,20.56c.53463-.18253,1.05376-.37768,1.56425-.5747.96212-.33263,3.34616-1.46947,3.34616-1.46947a27.88449,27.88449,0,0,0,3.077-1.76589c.28422-.19141.54927-.38144.7997-.57305a29.2302,29.2302,0,0,1,.68068,2.955l.26775-.28172a25.25266,25.25266,0,0,0-.68567-2.87332,5.71932,5.71932,0,0,0,2.12356-2.59179,15.51663,15.51663,0,0,1,1.02645,3.6803c.00318,1.66294-1.97669,3.90948-5.19145,5.95082l.07073.40339c2.70015-1.69078,4.60065-3.5169,5.25073-5.196.03148.39546.04652.79694.04652,1.2001a15.66569,15.66569,0,0,1-.92423,5.32269l.21395.41315.11861-.28757a19.31039,19.31039,0,0,0,1.286-5.94595A14.2341,14.2341,0,0,0,30.993,10.53463ZM27.81109,7.955a15.36911,15.36911,0,0,1,2.00936,2.24657,25.80968,25.80968,0,0,0-2.82127.16681A22.84036,22.84036,0,0,0,25.469,8.16323l-.2714-.34412q-.55679-.67719-1.15823-1.29828c1.01354.19227,1.97661.422,2.88447.68254.16923.1329.33745.26709.50089.40706ZM22.33685,8.673l-.105-.34526-.6747-2.1902q.96408.1179,1.88336.2767.70557.69172,1.3556,1.45834l.26642.327a22.54151,22.54151,0,0,1,1.57811,2.21319c-1.13631.13907-2.333.34524-3.57521.6252Zm3.77154-2.06809q-1.20617-.30588-2.52133-.53627a20.48131,20.48131,0,0,0-1.65443-1.44615A14.80177,14.80177,0,0,1,26.10839,6.60494ZM21.03166,4.39118l.06386.04532A20.01363,20.01363,0,0,1,22.96627,5.964q-.749-.11808-1.52705-.20935L21.018,4.38721A.03586.03586,0,0,1,21.03166,4.39118Zm-1.97787,6.50389,2.16991,7.02415c-.286.10455-.36493.13027-.65917.23037a35.571,35.571,0,0,1-4.25694,1.26474C16.70151,18.1707,18.54381,12.47205,19.05379,10.89507Zm9.18656,5.55351a35.77525,35.77525,0,0,1-7.95,3.51733,29.02655,29.02655,0,0,1-9.34369,1.75144c-2.02822.01143-3.28864-.21474-3.50488-.95962a.98007.98007,0,0,1-.04928-.3156c-.01958-.83663.6893-1.902,2.502-3.15807A32.30665,32.30665,0,0,1,16.55532,13.89c-.16332.50561-.32481.99605-.47853,1.47225a28.32116,28.32116,0,0,0-4.20242,2.14614c-1.15281.76381-1.86584,1.39615-1.89482,2.0367a.64825.64825,0,0,0,.03013.20236c.211.53386.8914.66084,1.86809.67322A31.09376,31.09376,0,0,0,20.6772,18.493c1.3795-.47506,2.66917-.98764,3.82651-1.503l.35358-.13287-1.14047-3.70171-.105-.34387-.42637-1.38393a35.85521,35.85521,0,0,1,3.69229-.63487c.15951.26526.31591.53339.46571.80728l.16884.324a23.245,23.245,0,0,1,1.61259,3.89037C28.85122,16.02607,28.5565,16.236,28.24035,16.44858ZM15.929,15.81439c-.6211,1.91527-1.1138,3.43424-1.27711,3.93936a16.03646,16.03646,0,0,1-2.7741.306c-.95342.01311-1.49881-.21613-1.533-.42648a.38782.38782,0,0,1-.01414-.08821c-.03033-.31141.59443-1.01168,1.73237-1.7325A27.41984,27.41984,0,0,1,15.929,15.81439ZM29.3845,15.6092a23.93871,23.93871,0,0,0-1.5579-3.77553l-.1683-.32657c-.13737-.25586-.28109-.50626-.42682-.75483a25.10184,25.10184,0,0,1,2.5905-.14479c.09807,0,.1941.00188.29065.00331.02911.04258.06108.08286.08979.12577l.27375.42673a15.472,15.472,0,0,1,.82295,1.50442,1.03478,1.03478,0,0,1,.03831.25911C31.35205,13.61591,30.64811,14.58513,29.3845,15.6092Z"/>
          <path class="cls-3" d="M30.993,10.53463h.00093A15.975,15.975,0,0,0,19.82687,3.80622s-1.67469,5.16116-3.12809,9.64326A32.97627,32.97627,0,0,0,9.6974,16.98714c-1.83523,1.292-3.16139,2.69657-3.18031,3.804a1.44488,1.44488,0,0,0,.06708.43351c.37451,1.04644,2.02293,1.27874,4.07764,1.28921a21.11844,21.11844,0,0,0,3.18532-.27332l1.11515-.194A40.32406,40.32406,0,0,0,20.44639,20.56c.53463-.18253,1.05376-.37768,1.56425-.5747.96212-.33263,3.34616-1.46947,3.34616-1.46947a27.88449,27.88449,0,0,0,3.077-1.76589c.28422-.19141.54927-.38144.7997-.57305a29.2302,29.2302,0,0,1,.68068,2.955l.26775-.28172a25.25266,25.25266,0,0,0-.68567-2.87332,5.71932,5.71932,0,0,0,2.12356-2.59179,15.51663,15.51663,0,0,1,1.02645,3.6803c.00318,1.66294-1.97669,3.90948-5.19145,5.95082l.07073.40339c2.70015-1.69078,4.60065-3.5169,5.25073-5.196.03148.39546.04652.79694.04652,1.2001a15.66569,15.66569,0,0,1-.92423,5.32269l.21395.41315.11861-.28757a19.31039,19.31039,0,0,0,1.286-5.94595A14.2341,14.2341,0,0,0,30.993,10.53463ZM27.81109,7.955a15.36911,15.36911,0,0,1,2.00936,2.24657,25.80968,25.80968,0,0,0-2.82127.16681A22.84036,22.84036,0,0,0,25.469,8.16323l-.2714-.34412q-.55679-.67719-1.15823-1.29828c1.01354.19227,1.97661.422,2.88447.68254.16923.1329.33745.26709.50089.40706ZM22.33685,8.673l-.105-.34526-.6747-2.1902q.96408.1179,1.88336.2767.70557.69172,1.3556,1.45834l.26642.327a22.54151,22.54151,0,0,1,1.57811,2.21319c-1.13631.13907-2.333.34524-3.57521.6252Zm3.77154-2.06809q-1.20617-.30588-2.52133-.53627a20.48131,20.48131,0,0,0-1.65443-1.44615A14.80177,14.80177,0,0,1,26.10839,6.60494ZM21.03166,4.39118l.06386.04532A20.01363,20.01363,0,0,1,22.96627,5.964q-.749-.11808-1.52705-.20935L21.018,4.38721A.03586.03586,0,0,1,21.03166,4.39118Zm-1.97787,6.50389,2.16991,7.02415c-.286.10455-.36493.13027-.65917.23037a35.571,35.571,0,0,1-4.25694,1.26474C16.70151,18.1707,18.54381,12.47205,19.05379,10.89507Zm9.18656,5.55351a35.77525,35.77525,0,0,1-7.95,3.51733,29.02655,29.02655,0,0,1-9.34369,1.75144c-2.02822.01143-3.28864-.21474-3.50488-.95962a.98007.98007,0,0,1-.04928-.3156c-.01958-.83663.6893-1.902,2.502-3.15807A32.30665,32.30665,0,0,1,16.55532,13.89c-.16332.50561-.32481.99605-.47853,1.47225a28.32116,28.32116,0,0,0-4.20242,2.14614c-1.15281.76381-1.86584,1.39615-1.89482,2.0367a.64825.64825,0,0,0,.03013.20236c.211.53386.8914.66084,1.86809.67322A31.09376,31.09376,0,0,0,20.6772,18.493c1.3795-.47506,2.66917-.98764,3.82651-1.503l.35358-.13287-1.14047-3.70171-.105-.34387-.42637-1.38393a35.85521,35.85521,0,0,1,3.69229-.63487c.15951.26526.31591.53339.46571.80728l.16884.324a23.245,23.245,0,0,1,1.61259,3.89037C28.85122,16.02607,28.5565,16.236,28.24035,16.44858ZM15.929,15.81439c-.6211,1.91527-1.1138,3.43424-1.27711,3.93936a16.03646,16.03646,0,0,1-2.7741.306c-.95342.01311-1.49881-.21613-1.533-.42648a.38782.38782,0,0,1-.01414-.08821c-.03033-.31141.59443-1.01168,1.73237-1.7325A27.41984,27.41984,0,0,1,15.929,15.81439ZM29.3845,15.6092a23.93871,23.93871,0,0,0-1.5579-3.77553l-.1683-.32657c-.13737-.25586-.28109-.50626-.42682-.75483a25.10184,25.10184,0,0,1,2.5905-.14479c.09807,0,.1941.00188.29065.00331.02911.04258.06108.08286.08979.12577l.27375.42673a15.472,15.472,0,0,1,.82295,1.50442,1.03478,1.03478,0,0,1,.03831.25911C31.35205,13.61591,30.64811,14.58513,29.3845,15.6092Z"/>
        </g>
      </g>
    </g>
  </g>
</svg>
