<svg clip-rule="evenodd" fill-rule="evenodd" stroke-miterlimit="10" viewBox="0 0 40 53" xmlns="http://www.w3.org/2000/svg"><path d="m19.83.25c-10.736.011-19.567 8.842-19.58 19.578 0 8.099 6.619 14.707 11.413 20.863 4.618 5.931 8.23 11.559 8.23 11.559 2.348-4.089 5.06-7.958 8.105-11.559 5.343-6.216 11.413-12.481 11.413-20.863-.013-10.736-8.844-19.567-19.581-19.578z" fill="#fff" fill-rule="nonzero" stroke="#231f20" stroke-width=".5"/><circle cx="19.831" cy="19.828" fill="#3b6e8e" r="17.121" stroke="#231f20" stroke-width=".5" transform="matrix(.00461865 -.999989 .999989 .00461865 -.08855 39.5665)"/><g fill="#fff" fill-rule="nonzero"><path d="m13.677 22.943c-.913 2.814-2.175 6.713-2.175 6.713h-2.949v1.15h7.275v-1.15h-2.642l2.231-7.005zm13.292.996c.873 2.832 1.763 5.717 1.763 5.717h2.61v1.15h-9.398v-1.15h2.822l-2.598-8.292-.152-.538c1.193-.48 2.36-1.023 3.497-1.625.275.892.798 2.59 1.343 4.365z"/><path d="m16.699 13.449c-2.466.897-4.817 2.085-7.002 3.538-1.835 1.292-3.161 2.697-3.18 3.804 0 .147.023.293.067.434.375 1.046 2.023 1.278 4.078 1.289 1.067-.011 2.132-.102 3.185-.273l1.115-.194c1.861-.366 3.694-.863 5.484-1.487.535-.183 1.054-.378 1.565-.575.962-.332 3.346-1.469 3.346-1.469 1.062-.523 2.09-1.113 3.077-1.766.284-.191.549-.382.8-.573.277.972.505 1.959.68 2.955l.268-.282c-.172-.97-.401-1.93-.686-2.873.951-.633 1.691-1.536 2.124-2.592.492 1.18.837 2.416 1.026 3.68.003 1.663-1.976 3.91-5.191 5.951l.071.404c2.7-1.691 4.6-3.517 5.25-5.196.032.395.047.797.047 1.2.002 1.814-.31 3.615-.924 5.322l.214.414.118-.288c.74-1.902 1.174-3.909 1.286-5.946.062-2.993-.821-5.93-2.524-8.391h.001c-2.56-3.76-6.992-6.317-11.023-6.686m7.84 4.106c.742.681 1.415 1.434 2.009 2.247-.942.004-1.884.059-2.821.166-.466-.764-.977-1.5-1.53-2.205l-.271-.344c-.372-.451-.758-.884-1.159-1.298 1.014.192 1.977.422 2.885.682.169.133.337.267.501.407zm-5.474.718-.105-.345-.675-2.19c.643.078 1.271.17 1.884.276.47.461.922.948 1.355 1.459l.267.327c.57.705 1.097 1.444 1.578 2.213-1.137.139-2.333.345-3.576.625zm3.771-2.068c-.804-.204-1.644-.383-2.521-.536-.525-.512-1.077-.994-1.654-1.447 1.487.439 2.896 1.108 4.175 1.983zm-5.076-2.214.064.046c.653.471 1.278.981 1.87 1.527-.499-.079-1.008-.149-1.527-.209l-.421-1.368c.005.001.009.002.014.004zm-1.978 6.504 2.17 7.024c-.286.105-.365.13-.659.231-1.392.509-2.813.932-4.257 1.264.394-1.243 2.236-6.942 2.746-8.519zm9.186 5.554c-2.497 1.491-5.167 2.672-7.95 3.517-2.997 1.093-6.154 1.685-9.343 1.751-2.029.012-3.289-.214-3.505-.959-.034-.102-.05-.209-.049-.316-.02-.836.689-1.902 2.501-3.158 2.082-1.385 4.317-2.524 6.661-3.394-.163.506-.324.996-.478 1.472-1.458.597-2.864 1.315-4.203 2.146-1.152.764-1.865 1.397-1.894 2.037-.001.069.009.137.03.202.211.534.891.661 1.868.674 3.011-.212 5.975-.862 8.799-1.928 1.38-.475 2.669-.988 3.827-1.503l.353-.133-1.14-3.702-.105-.343-.427-1.384c1.219-.276 2.452-.488 3.693-.635.159.265.316.533.465.807l.169.324c.654 1.245 1.194 2.547 1.613 3.89-.274.212-.568.422-.885.635zm-12.311-.635c-.621 1.916-1.114 3.435-1.277 3.94-.914.182-1.842.285-2.774.306-.954.013-1.499-.216-1.533-.427-.008-.028-.013-.058-.014-.088-.031-.311.594-1.012 1.732-1.732 1.234-.768 2.526-1.436 3.866-1.999zm13.456-.205c-.411-1.3-.932-2.564-1.558-3.775l-.169-.327c-.137-.256-.281-.506-.427-.755.861-.093 1.726-.141 2.591-.145.098 0 .194.002.291.004.029.042.061.083.089.126l.274.426c.302.486.577.988.823 1.505.024.084.037.171.038.259.015.689-.689 1.658-1.952 2.682z"/></g></svg>