<svg id="b491c981-7fa8-4635-bcbc-ff36a8ae95c4" data-name="Layer 1" xmlns="http://www.w3.org/2000/svg" xmlns:xlink="http://www.w3.org/1999/xlink" viewBox="0 0 78.8 70.92"><defs><style>.a8390735-61ca-4ee5-b899-c561fcd5eef2{fill:#3b6e8f;}.b85c3393-a39f-4cc7-afa0-5d6c6ad89725{fill:#a7a9ac;}.e81c05e4-69f5-445f-94d2-49f8fd09e584{fill:url(#ef5b0be4-d810-4e6b-a35a-f9a14c346185);}</style><linearGradient id="ef5b0be4-d810-4e6b-a35a-f9a14c346185" x1="41.53" y1="39.27" x2="39.92" y2="24.8" gradientUnits="userSpaceOnUse"><stop offset="0" stop-color="#3b6e8f"/><stop offset="1" stop-color="#000018"/></linearGradient></defs><title>logo-vert</title><path class="a8390735-61ca-4ee5-b899-c561fcd5eef2" d="M8.75,43.51H11.6l6.79,16.73H14.51L13.16,56.7H7.1L5.8,60.24H2Zm1.33,4.87-1.9,5.2H12Z" transform="translate(-2.01 -2.3)"/><path class="a8390735-61ca-4ee5-b899-c561fcd5eef2" d="M20.09,43.51h3.43V56.84H29.9v3.4H20.09Z" transform="translate(-2.01 -2.3)"/><path class="a8390735-61ca-4ee5-b899-c561fcd5eef2" d="M31.8,43.51H37l3.59,10.92h0l3.61-10.92h5.18V60.24H46V47.41h0l-4.1,12.83H39.22L35.28,47.41h0V60.24H31.8Z" transform="translate(-2.01 -2.3)"/><path class="a8390735-61ca-4ee5-b899-c561fcd5eef2" d="M52.73,43.51H63.34v3.41H56.18V50h6.76v3.41H56.18v3.4h7.55v3.4h-11Z" transform="translate(-2.01 -2.3)"/><path class="a8390735-61ca-4ee5-b899-c561fcd5eef2" d="M70.37,51.5l-5.16-8h4.32l3.33,5.86,3.19-5.86h4.17l-5,7.92,5.64,8.81H76.49l-3.81-6.73L69,60.24H64.9Z" transform="translate(-2.01 -2.3)"/><path class="b85c3393-a39f-4cc7-afa0-5d6c6ad89725" d="M28.67,72.37a6.17,6.17,0,0,1-3.15.84A4.42,4.42,0,0,1,21,68.47a4.5,4.5,0,0,1,4.53-4.75,3.89,3.89,0,0,1,3,1.19l-.75.84a3.07,3.07,0,0,0-2.3-1,3.76,3.76,0,0,0,.1,7.5,4.56,4.56,0,0,0,2.09-.53V68.93H25.73v-1h2.94Z" transform="translate(-2.01 -2.3)"/><path class="b85c3393-a39f-4cc7-afa0-5d6c6ad89725" d="M30.77,64h2.15c1.64,0,3.36.26,3.36,2.49a2.29,2.29,0,0,1-2.11,2.38L36.56,73H35.34l-2.28-4H31.77v4h-1Zm1,4h.89c1.11,0,2.55,0,2.55-1.49,0-1.3-1.06-1.49-2-1.49h-1.4Z" transform="translate(-2.01 -2.3)"/><path class="b85c3393-a39f-4cc7-afa0-5d6c6ad89725" d="M37.55,68.47A4.42,4.42,0,1,1,42,73.21,4.45,4.45,0,0,1,37.55,68.47Zm7.74,0A3.36,3.36,0,1,0,42,72.22,3.47,3.47,0,0,0,45.29,68.47Z" transform="translate(-2.01 -2.3)"/><path class="b85c3393-a39f-4cc7-afa0-5d6c6ad89725" d="M54.29,69.54c0,2-.86,3.67-3.17,3.67s-3.19-1.71-3.19-3.67V64h1v5.44c0,1.45.49,2.83,2.18,2.83s2.17-1.38,2.17-2.83V64h1Z" transform="translate(-2.01 -2.3)"/><path class="b85c3393-a39f-4cc7-afa0-5d6c6ad89725" d="M56.35,64h2.5c1.55,0,2.95.59,2.95,2.48A2.45,2.45,0,0,1,59,68.93H57.35v4h-1Zm1,4H59c1,0,1.69-.48,1.69-1.49S60,65,59,65H57.35Z" transform="translate(-2.01 -2.3)"/><path class="e81c05e4-69f5-445f-94d2-49f8fd09e584" d="M32.79,27.77c-1.25,3.74-3,8.93-3,8.93h-4v1.53h9.9V36.7H32.12l3-9.32Zm18.1,1.32,2.4,7.61h3.56v1.53H44.05V36.7h3.84l-3.54-11L44.14,25a52.16,52.16,0,0,0,4.77-2.16C49.28,24,50,26.23,50.74,28.6Z" transform="translate(-2.01 -2.3)"/><path class="a8390735-61ca-4ee5-b899-c561fcd5eef2" d="M56.37,11.25h0A21.8,21.8,0,0,0,41.16,2.3L36.9,15.13a45.77,45.77,0,0,0-9.54,4.71c-2.5,1.72-4.3,3.59-4.33,5.06a1.9,1.9,0,0,0,.09.58c.51,1.39,2.76,1.7,5.56,1.72A29.78,29.78,0,0,0,33,26.83l1.52-.26a55.85,55.85,0,0,0,7.47-2c.72-.25,1.43-.51,2.13-.77,1.31-.44,4.56-2,4.56-2a36.42,36.42,0,0,0,4.19-2.35c.38-.25.75-.5,1.09-.76.35,1.17.7,2.7.93,3.93l.36-.37a34,34,0,0,0-.94-3.83,7.68,7.68,0,0,0,2.9-3.44,20.53,20.53,0,0,1,1.4,4.89c0,2.22-2.7,5.21-7.08,7.93l.1.53c3.68-2.25,6.27-4.68,7.16-6.91,0,.52.06,1.06.06,1.59a20.57,20.57,0,0,1-1.26,7.09l.29.55.16-.38a25.28,25.28,0,0,0,1.75-7.92A18.62,18.62,0,0,0,56.37,11.25ZM52,7.82a20.47,20.47,0,0,1,2.74,3,35.59,35.59,0,0,0-3.87.22,32.19,32.19,0,0,0-2.06-2.94l-.37-.45c-.51-.61-1-1.18-1.6-1.73,1.38.25,2.67.56,3.91.9.24.19.49.36.72.55Zm-7.46.95-.14-.46-.92-2.9c.88.1,1.73.22,2.56.36.64.62,1.26,1.26,1.85,1.94l.37.43a31.54,31.54,0,0,1,2.12,2.95c-1.54.19-3.16.46-4.85.83ZM49.72,6c-1.09-.27-2.24-.51-3.43-.72A29.52,29.52,0,0,0,44,3.38,20.27,20.27,0,0,1,49.72,6Zm-6.92-3,.09.06a27.81,27.81,0,0,1,2.57,2.05c-.69-.1-1.39-.2-2.1-.28l-.57-1.83Zm-2.69,8.66,3,9.35-.9.31a52,52,0,0,1-5.8,1.68C36.91,21.41,39.42,13.83,40.11,11.73Zm12.51,7.39c-2.68,1.77-6.51,3.23-10.83,4.68a40.26,40.26,0,0,1-12.72,2.34c-2.77,0-4.48-.29-4.78-1.28a1.54,1.54,0,0,1-.07-.42c0-1.12.94-2.53,3.41-4.21a44.29,44.29,0,0,1,9.08-4.51c-.23.67-.45,1.32-.66,2a38.38,38.38,0,0,0-5.72,2.85c-1.57,1-2.54,1.86-2.58,2.71a.77.77,0,0,0,0,.27c.29.71,1.21.88,2.55.9,2.63,0,7.08-.92,12-2.57,1.88-.63,3.64-1.31,5.21-2l.49-.17-1.56-4.93-.14-.46-.58-1.84a50.18,50.18,0,0,1,5-.84c.22.36.46.7.66,1.07l.23.43a30.31,30.31,0,0,1,2.2,5.18C53.46,18.56,53.06,18.84,52.62,19.12Zm-16.77-.84c-.84,2.55-1.51,4.57-1.74,5.24a22.16,22.16,0,0,1-3.77.41c-1.31,0-2.05-.29-2.09-.57a.43.43,0,0,1,0-.12c0-.41.81-1.34,2.36-2.3A37.39,37.39,0,0,1,35.85,18.28ZM54.18,18a31.11,31.11,0,0,0-2.12-5l-.23-.44c-.19-.34-.41-.66-.61-1a34.76,34.76,0,0,1,3.56-.19h.4l.12.16.37.57a18.6,18.6,0,0,1,1.12,2,1.33,1.33,0,0,1,.05.34C56.86,15.35,55.9,16.64,54.18,18Z" transform="translate(-2.01 -2.3)"/></svg>