<?xml version="1.0" standalone="no"?>
<!DOCTYPE svg PUBLIC "-//W3C//DTD SVG 20010904//EN"
 "http://www.w3.org/TR/2001/REC-SVG-20010904/DTD/svg10.dtd">
<svg version="1.0" xmlns="http://www.w3.org/2000/svg"
 width="400.000000pt" height="400.000000pt" viewBox="0 0 400.000000 400.000000"
 preserveAspectRatio="xMidYMid meet">
<metadata>
Created by potrace 1.11, written by Peter Selinger 2001-2013
</metadata>
<g transform="translate(0.000000,400.000000) scale(0.100000,-0.100000)"
fill="#000000" stroke="none">
<path d="M1965 3938 c-2 -7 -77 -233 -166 -503 -90 -269 -164 -493 -165 -497
-1 -5 -2 -9 -3 -10 -1 -2 -29 -86 -64 -187 l-62 -185 -165 -67 c-511 -206
-890 -426 -1131 -656 -320 -306 -269 -529 132 -579 127 -16 512 -9 644 11 157
24 262 42 355 61 391 79 906 244 1241 397 41 19 115 52 164 75 81 37 246 123
350 181 22 13 91 57 154 98 62 41 115 72 117 70 7 -6 72 -272 85 -345 l12 -73
23 23 23 23 -20 90 c-11 50 -22 97 -24 105 -1 8 -8 35 -15 60 -7 25 -14 56
-17 69 -2 14 -6 29 -9 33 -3 5 -8 21 -10 36 -3 21 3 32 28 49 95 66 248 244
264 307 3 14 10 26 14 26 13 0 108 -301 130 -413 29 -143 24 -180 -40 -309
-85 -170 -307 -387 -602 -588 -99 -67 -107 -75 -101 -99 3 -14 7 -27 8 -29 4
-4 211 134 283 190 223 170 379 337 461 492 l31 59 1 -39 c7 -248 -8 -424 -55
-644 -8 -34 -51 -178 -65 -214 -12 -29 -7 -60 12 -84 13 -16 22 4 76 171 48
147 86 282 100 357 18 97 22 114 27 140 10 47 12 415 3 490 -57 471 -270 903
-614 1245 -341 339 -783 570 -1255 655 -133 23 -149 24 -155 8z m270 -137 c33
-25 91 -72 129 -104 l70 -59 -40 5 c-21 4 -72 11 -111 17 l-73 12 -21 71 c-12
39 -25 82 -30 95 -11 28 -8 26 76 -37z m222 -31 c62 -22 156 -63 210 -91 102
-53 213 -119 213 -126 0 -2 -3 -2 -7 0 -5 3 -26 8 -48 11 -22 4 -66 14 -99 22
-33 9 -80 18 -104 21 -85 10 -75 4 -297 197 -28 25 -29 26 -5 17 14 -5 75 -28
137 -51z m-117 -174 c25 -4 73 -11 108 -17 l62 -11 109 -115 c60 -62 148 -164
194 -226 87 -115 161 -226 155 -232 -1 -1 -28 -6 -58 -9 -30 -4 -68 -9 -85
-12 -16 -2 -55 -9 -85 -14 -30 -5 -72 -12 -94 -16 -45 -7 -57 -9 -116 -23 -25
-6 -52 -11 -62 -11 -17 0 -16 -4 -103 275 -50 159 -123 391 -130 413 -4 10 4
12 28 8 17 -2 52 -7 77 -10z m335 -56 c22 -5 51 -11 65 -13 14 -3 81 -19 150
-36 105 -27 133 -38 180 -73 100 -76 370 -357 370 -386 0 -4 -30 -8 -68 -8
-80 -2 -265 -13 -307 -19 -28 -4 -34 1 -105 108 -76 114 -194 265 -270 347
-23 25 -51 55 -63 68 -23 25 -16 27 48 12z m817 -579 c8 -1 93 -135 141 -221
19 -36 38 -81 40 -100 10 -84 -69 -207 -222 -342 -55 -49 -71 -57 -71 -35 0
48 -178 457 -260 597 -24 41 -43 77 -42 79 2 8 30 10 172 17 74 4 136 7 137 9
3 1 90 -2 105 -4z m-446 -78 c32 -48 184 -343 184 -357 0 -4 9 -25 19 -49 11
-23 37 -90 59 -150 47 -126 55 -109 -90 -204 -183 -120 -432 -238 -765 -364
-402 -151 -731 -252 -1028 -315 -125 -27 -326 -58 -445 -69 -141 -13 -191 -15
-335 -15 -248 0 -370 19 -453 70 -81 50 -79 169 6 292 128 186 509 434 977
638 66 28 134 58 150 65 59 26 146 57 151 53 2 -3 -11 -48 -29 -101 l-32 -98
-110 -47 c-230 -101 -400 -190 -545 -287 -177 -119 -242 -192 -244 -273 -1
-39 3 -48 33 -72 81 -68 289 -73 651 -14 28 4 297 61 371 79 152 35 561 165
779 248 285 108 365 145 362 164 -2 10 -33 110 -69 223 -36 113 -87 276 -114
363 -27 87 -51 162 -54 167 -3 5 -1 11 3 14 14 8 265 56 372 71 101 14 125 17
128 19 13 13 38 -6 68 -51z m-1152 -78 c38 -124 71 -227 171 -540 94 -294 95
-298 102 -335 5 -25 1 -27 -219 -98 -270 -87 -488 -145 -488 -129 0 24 394
1206 400 1199 4 -4 19 -47 34 -97z m-519 -642 c-8 -27 -50 -154 -93 -283 l-79
-235 -59 -12 c-101 -20 -134 -23 -299 -28 -134 -4 -168 -2 -209 13 -27 9 -54
24 -59 33 -18 28 3 71 63 130 99 97 278 207 525 324 77 36 158 74 180 85 22
11 41 20 42 20 1 0 -4 -21 -12 -47z"/>
<path d="M2670 1654 c-108 -54 -297 -138 -352 -157 -10 -4 -18 -13 -18 -21 0
-9 59 -199 131 -423 72 -224 160 -500 196 -613 36 -113 68 -211 70 -218 4 -9
-41 -12 -204 -12 l-209 0 1 -82 0 -83 698 -3 697 -2 0 85 0 85 -194 0 -194 0
-33 103 c-18 56 -33 107 -35 112 -1 6 -30 98 -64 205 -34 107 -83 265 -110
350 -160 513 -235 740 -244 738 -6 -1 -67 -30 -136 -64z"/>
<path d="M1257 1214 c-1 -1 -24 -5 -51 -8 -27 -4 -53 -9 -56 -11 -4 -2 -23 -5
-44 -7 -20 -1 -41 -7 -45 -13 -5 -5 -79 -225 -166 -487 l-157 -478 -219 0
-219 0 0 -85 0 -85 540 0 540 0 0 85 0 85 -194 2 -194 3 33 100 c18 55 78 242
134 415 57 173 109 333 117 355 8 22 20 61 28 88 l14 47 -29 -2 c-17 -1 -31
-3 -32 -4z"/>
</g>
</svg>
